<svg width="423" height="86" viewBox="0 0 423 86" fill="none" xmlns="http://www.w3.org/2000/svg">
<g filter="url(#filter0_g_44_183)">
<path d="M4.18579 15C4.18579 10.5817 7.76751 7 12.1858 7H409.186C413.604 7 417.186 10.5817 417.186 15V73C417.186 77.4183 413.604 81 409.186 81H12.1858C7.7675 81 4.18579 77.4183 4.18579 73V15Z" fill="#FF109B"/>
<path d="M377.546 3.50008C383.352 3.49758 388.796 3.55714 395.671 3.63253C395.674 3.63253 395.678 3.63253 395.682 3.63253C396.664 3.6433 397.676 3.65458 398.722 3.66585C401.819 3.69923 405.257 3.73475 409.186 3.76935C414.355 3.61247 420.386 8.20943 420.323 15C420.3 18.8742 420.279 23.1303 420.261 27.8389C420.194 46.0731 419.949 60.5499 419.715 69.3899C419.688 70.3856 419.669 71.4025 419.653 73C419.636 74.3528 419.4 76.1082 418.316 78.0637C416.997 80.4468 414.003 83.3652 409.186 83.4054C408.064 83.4015 406.857 83.3973 405.556 83.3929C402.627 83.3829 399.217 83.3714 395.226 83.357C382.014 83.3095 361.308 83.3243 342.228 83.3382C330.648 83.3467 319.664 83.3547 311.322 83.348C299.122 83.3382 287.349 83.2943 274.552 83.2463C262.831 83.2024 250.25 83.155 235.693 83.128C224.524 83.1073 213.672 82.9296 202.644 82.7311C201.241 82.7058 199.831 82.6803 198.421 82.6546C188.689 82.4775 178.741 82.2961 167.984 82.1923C148.808 82.0072 133.507 82.0837 116.564 82.1684C109.938 82.2015 103.06 82.2359 95.6001 82.2564C83.803 82.2888 66.8435 82.2822 49.8146 82.2731C48.3641 82.2723 46.9114 82.2717 45.4628 82.2709C45.4555 82.2709 45.4482 82.2709 45.4409 82.2709C33.6433 82.2644 22.0112 82.258 12.1858 82.2634C8.4867 82.2951 5.27031 79.9835 3.89161 77.1498C3.21522 75.808 2.90675 74.3655 2.90604 73C2.87314 57.9065 2.80851 51.7575 2.7538 46.5666C2.73162 44.4627 2.71091 42.5148 2.69483 40.1928C2.65002 33.7173 2.64635 24.6871 2.65199 15C2.61315 11.6236 4.59208 8.24375 7.6432 6.62367C7.69426 6.59593 7.7456 6.56864 7.79722 6.54181C10.0892 5.34367 12.2381 5.69087 12.1857 5.91408C12.177 6.16971 10.2072 6.2465 8.16625 7.33771C5.31712 8.80185 3.49111 11.9158 3.52823 15C3.52608 18.6955 3.5253 22.2651 3.52756 25.6135C3.73542 25.9206 3.89277 27.5154 3.89116 29.4268C3.88715 34.2121 4.04376 48.868 4.29962 71.8056C4.3375 70.2344 4.37437 68.9184 4.40942 67.7652C4.45056 66.4115 4.48593 65.3746 4.51624 64.483C4.57939 62.6246 4.62107 61.3882 4.65168 59.1934C4.68647 54.11 4.69371 46.1205 4.70081 37.7128C4.70267 35.5899 4.89993 33.8754 5.14174 33.8848C5.38362 33.8951 5.57839 35.6262 5.57669 37.7494C5.57669 37.791 5.57669 37.8325 5.57669 37.874C5.56965 46.2012 5.56251 54.4472 5.52542 59.7576C5.51598 61.1086 5.50481 62.2722 5.49466 63.146C5.48654 63.8445 5.47552 64.7164 5.46133 65.201C5.45944 65.2653 5.45563 65.388 5.4498 65.5343C5.44965 65.5368 5.44951 65.5392 5.44937 65.5416C5.44614 65.6234 5.42981 66.0411 5.39425 66.4867C5.38707 66.5767 5.37103 66.7724 5.34512 66.9996C5.34312 67.0582 5.34113 67.1168 5.33914 67.1754C5.31146 67.9925 5.28325 68.8262 5.25582 69.7286C5.22772 70.6533 5.19769 71.7198 5.1661 73C4.99424 75.2842 6.66642 79.9449 12.1858 80.2505C13.6852 80.2717 15.3098 80.2932 17.0735 80.3149C27.7625 80.4464 45.8325 80.5053 68.3794 80.5063C66.8561 80.4882 65.3295 80.4707 63.8041 80.4538C59.9651 80.4114 56.1087 80.3727 52.2506 80.3359C50.7727 80.3218 49.3148 80.308 47.8292 80.2944C45.4377 80.2725 43.0396 80.2509 40.6421 80.2299C39.0222 80.2157 37.3988 80.2017 35.7775 80.1876C35.7738 80.1876 35.7702 80.1876 35.7665 80.1876C33.516 80.1681 31.2598 80.1484 28.986 80.1282C28.1902 80.1207 27.404 80.1135 26.6233 80.1064C23.5159 80.0784 20.4633 80.0511 16.949 79.9983C16.5216 79.9896 16.0573 79.9783 15.7108 79.9688C15.3384 79.9589 14.98 79.9488 14.6412 79.9385C14.3423 79.9294 14.0572 79.9202 13.7841 79.9116C13.7474 79.9105 13.7108 79.9093 13.6742 79.9082C13.3683 79.8986 13.0761 79.8897 12.795 79.8813C12.5872 79.875 12.3849 79.869 12.1858 79.8634C12.1255 79.8615 12.0659 79.8588 12.0067 79.8555C12.0046 79.8554 12.0025 79.8554 12.0004 79.8553C11.7627 79.8411 11.5819 79.8228 11.3321 79.7863C11.0199 79.7389 10.7531 79.6821 10.4377 79.5935C10.1325 79.507 9.82028 79.3955 9.51561 79.2603C9.2107 79.1252 8.91001 78.9655 8.619 78.7813C8.3278 78.5971 8.04556 78.3876 7.77937 78.1559C7.51333 77.9244 7.26153 77.6694 7.03054 77.3946C6.79942 77.1199 6.58776 76.8239 6.4007 76.5117C5.96566 75.7926 5.7481 75.0037 5.70906 74.4234C5.66913 73.8401 5.77151 73.5182 5.8809 73.5142C5.99644 73.5089 6.11413 73.8138 6.30593 74.3127C6.49741 74.8121 6.77455 75.4608 7.16301 76.0794C7.26807 76.2481 7.38229 76.4123 7.50499 76.571C7.57784 76.6653 7.65409 76.7583 7.73293 76.8485C7.94486 77.0909 8.17906 77.3185 8.43148 77.5265C8.68366 77.7344 8.95485 77.9234 9.24283 78.0898C9.53159 78.2567 9.83797 78.4013 10.1588 78.5198C10.4788 78.6381 10.8159 78.7314 11.1652 78.7949C11.4824 78.8533 11.8476 78.8896 12.1858 78.8936C12.2194 78.894 12.2527 78.8944 12.2858 78.8947C12.6375 78.8984 13.0709 78.9048 13.4324 78.9105C13.8096 78.9165 14.1808 78.9232 14.5386 78.9302C14.8973 78.9372 15.2441 78.9446 15.5753 78.9516C15.6107 78.9523 15.6462 78.953 15.6815 78.9537C15.9743 78.9599 16.2569 78.9659 16.5241 78.9712C16.8226 78.9772 17.1053 78.9822 17.3739 78.9866C17.6697 78.9915 17.8495 78.9934 18.0699 78.9956C20.9845 79.0096 24.5873 79.0067 28.0226 79.0041C28.4544 79.0038 28.8837 79.0035 29.3084 79.0033C31.5648 79.0012 33.8166 78.9986 36.0669 78.996C37.7023 78.9941 39.3398 78.9921 40.9791 78.9904C43.3915 78.9879 45.8113 78.9859 48.2285 78.9845C49.7297 78.9836 51.2036 78.983 52.7012 78.9827C56.6118 78.9819 60.535 78.9831 64.4635 78.9883C68.3864 78.9935 72.3341 79.0027 76.2844 79.0182C80.2196 79.0337 84.3079 79.0569 88.2555 79.0921C91.1578 79.1185 94.1332 79.1644 96.8859 79.2117C98.3653 79.2373 99.8139 79.2632 101.241 79.2891C101.246 79.2892 101.251 79.2894 101.256 79.2895C102.509 79.3123 103.746 79.3348 104.974 79.3562C107.607 79.4022 110.194 79.4433 112.78 79.4779C115.363 79.5126 117.934 79.5408 120.524 79.5625C123.095 79.584 125.709 79.5996 128.297 79.6091C130.899 79.6187 133.452 79.6226 136.136 79.6223C139.665 79.6215 143.169 79.6137 146.767 79.6044C150.338 79.5949 153.938 79.5831 157.547 79.5711C158.809 79.5669 160.073 79.563 161.339 79.5587C161.344 79.5587 161.349 79.5587 161.353 79.5587C163.695 79.5508 166.041 79.5428 168.39 79.5352C172.017 79.5234 175.653 79.5122 179.303 79.5031C182.952 79.4941 186.624 79.487 190.314 79.4843C194.005 79.4819 197.796 79.4834 201.604 79.4976C205.001 79.5099 208.425 79.5262 211.773 79.5424C212.657 79.5467 213.541 79.551 214.425 79.5553C218.62 79.5753 222.681 79.5912 226.696 79.5941C230.709 79.5975 234.719 79.5884 238.766 79.5694C242.801 79.5504 246.886 79.522 251.005 79.4878C255.141 79.4534 259.224 79.4137 263.39 79.3703C267.524 79.327 271.677 79.2805 275.881 79.2314C278.218 79.2042 280.705 79.1792 283.054 79.1579C285.426 79.1364 287.782 79.1174 290.109 79.0998C291.053 79.0926 291.993 79.0858 292.926 79.0789C294.286 79.0688 295.635 79.0589 296.963 79.0485C299.203 79.0311 301.389 79.0124 303.512 78.9904C305.635 78.9685 307.695 78.943 309.685 78.9118C311.744 78.8794 313.442 78.8465 315.472 78.7994C320.418 78.7087 323.482 78.6808 326.887 78.6495C327.557 78.6433 328.243 78.6367 328.956 78.6298C333.039 78.5947 337.118 78.5685 341.144 78.5486C345.208 78.5288 349.209 78.5154 353.261 78.5076C357.274 78.4999 361.316 78.498 365.342 78.5012C369.362 78.5044 373.375 78.5128 377.398 78.5264C381.418 78.54 385.521 78.5594 389.46 78.5828C391.737 78.5963 394.156 78.6143 396.402 78.6328C398.022 78.6461 399.62 78.6601 401.186 78.6738C401.826 78.6794 402.461 78.685 403.091 78.6905C405.182 78.7086 407.217 78.7255 409.186 78.7386C409.24 78.7391 409.294 78.7388 409.348 78.7378C410.819 78.7148 412.2 78.1101 413.202 77.137C414.211 76.1648 414.821 74.853 414.923 73.494C414.936 73.3268 414.942 73.1634 414.941 73C414.932 71.3296 414.92 69.8457 414.9 68.0089C414.885 66.6522 414.87 65.323 414.855 63.9977C414.833 62.0137 414.81 60.044 414.786 58.0598C414.762 56.0782 414.738 54.1215 414.713 52.1548C414.704 51.5226 414.696 50.8549 414.687 50.2207C414.661 48.2613 414.635 46.3242 414.606 44.389C414.578 42.4574 414.548 40.5436 414.517 38.6379C414.485 36.724 414.453 34.8423 414.417 32.9234C414.356 29.6617 414.328 26.5398 414.309 23.8058C414.291 21.0392 414.28 18.4539 414.27 15.9374C414.269 15.625 414.268 15.3125 414.267 15C414.266 14.8971 414.263 14.7962 414.256 14.6947C414.176 13.4039 413.589 12.1983 412.676 11.343C411.724 10.4452 410.467 9.96116 409.186 9.97723C408.821 9.97948 408.457 9.98178 408.092 9.98415C405.726 9.99943 403.336 10.0174 400.982 10.0384C398.607 10.0597 396.335 10.0828 393.887 10.111C391.466 10.1388 389.007 10.175 386.311 10.2144C383.641 10.2536 380.838 10.2938 378 10.3289C375.165 10.3642 372.284 10.3947 369.424 10.4187C366.559 10.4428 363.684 10.461 360.849 10.4738C357.999 10.4867 355.166 10.4942 352.347 10.4977C349.535 10.5012 346.63 10.5006 343.911 10.4964C339.508 10.4897 335.125 10.4801 330.734 10.4695C326.368 10.4589 321.988 10.447 317.617 10.4345C313.254 10.4219 308.886 10.4088 304.525 10.3952C300.162 10.3815 295.8 10.3675 291.444 10.3533C290.48 10.3502 289.517 10.347 288.553 10.3439C285.161 10.3328 281.77 10.3218 278.392 10.311C278.369 10.3109 278.345 10.3107 278.322 10.3106C273.975 10.2969 269.706 10.2835 265.395 10.2721C263.812 10.268 262.292 10.2642 260.747 10.261C259.2 10.2578 257.682 10.2552 256.149 10.2533C254.615 10.2514 253.09 10.2504 251.589 10.2503C250.071 10.2504 248.591 10.2514 247.098 10.2542C245.729 10.2566 244.37 10.2611 242.885 10.2657C242.75 10.2661 242.614 10.2666 242.479 10.267C240.854 10.2721 239.006 10.2753 237.288 10.273C232.738 10.2661 228.304 10.2628 223.789 10.2631C219.272 10.2635 214.766 10.2672 210.221 10.2725C208.446 10.2746 206.663 10.2771 204.88 10.2794C202.106 10.2829 199.321 10.2865 196.528 10.2892C191.933 10.2938 187.328 10.2959 182.693 10.2931C178.075 10.2902 173.428 10.2824 168.802 10.2687C164.179 10.2551 159.517 10.2358 154.915 10.2114C149.788 10.1842 144.69 10.154 139.57 10.1226C134.458 10.0911 129.343 10.0581 124.251 10.0243C119.14 9.99045 114.042 9.95568 108.943 9.92006C103.84 9.88441 98.7409 9.84794 93.6381 9.81068C90.5841 9.78837 87.5311 9.76565 84.4766 9.74274C82.8605 9.7633 81.3112 9.78345 79.8207 9.80256C68.8079 9.94376 60.8451 10.0456 50.3398 10.1157C49.3337 10.1264 48.5152 10.1415 47.5192 10.1597C47.3292 10.1632 47.1277 10.1667 46.9221 10.1704C45.6206 10.1939 44.1259 10.2185 42.0465 10.2341C37.8984 10.2651 31.5404 10.2584 23.3242 10.0538C21.2488 10.0021 19.9281 9.76882 20.3754 9.53253C20.6899 9.3668 21.7922 9.24364 23.1374 9.20269C20.6521 9.17458 18.1735 9.14517 15.7013 9.11596C14.7145 9.10426 13.7881 9.04988 13.1297 8.96343C12.4718 8.87694 12.1351 8.76586 12.192 8.65324C12.2488 8.54058 12.6967 8.43492 13.4374 8.358C14.1779 8.28117 15.1495 8.23955 16.1408 8.24136C18.7706 8.24638 21.3915 8.25145 24.0129 8.25503C26.6365 8.25866 29.2477 8.26077 31.8667 8.26187C34.4849 8.26297 37.1022 8.26283 39.7278 8.26187C42.343 8.26086 44.9636 8.25923 47.5888 8.25674C50.2308 8.25431 52.8229 8.25089 55.4572 8.24734C57.0356 8.24517 58.6329 8.24302 60.201 8.24051C60.7854 8.23964 61.3557 8.23846 61.9263 8.23751C62.3927 8.23674 62.8615 8.23612 63.344 8.23538C68.4198 8.22679 73.5444 8.21718 78.6229 8.20675C83.7255 8.19637 88.8229 8.1854 93.9202 8.17385C99.0202 8.16231 104.116 8.15002 109.214 8.13754C114.309 8.12504 119.402 8.11213 124.504 8.09866C129.587 8.08513 134.691 8.0713 139.783 8.05636C143.721 8.04481 147.626 8.0324 151.538 8.01919C153.077 7.99658 154.601 7.97523 156.106 7.95467C160.484 7.89482 164.868 7.81629 169.187 7.73848C161.5 7.77716 155.325 7.83759 149.446 7.89528C148.658 7.90302 147.875 7.91078 147.094 7.91835C139.126 7.99564 131.429 8.06106 121.075 8.04653C91.6286 8.00521 74.5545 7.97505 63.9154 7.91878C53.2782 7.86251 48.7078 7.77911 44.4422 7.61329C38.4148 7.37896 26.7817 7.24568 20.9359 7.24072C18.8123 7.23893 17.0983 7.04124 17.1079 6.79936C17.1182 6.55743 18.8486 6.36262 20.9725 6.36441C27.1452 6.36964 39.7334 6.50511 46.9075 6.78398C50.1028 6.90821 53.7772 6.98835 64.2524 7.04375C74.7287 7.09916 91.6453 7.12882 121.148 7.17022C131.129 7.18423 138.537 7.12193 146.42 7.04546C147.193 7.03797 147.972 7.0301 148.757 7.02239C148.762 7.02239 148.767 7.02239 148.772 7.02239C156.013 6.95131 163.898 6.87382 174.531 6.83953C199.038 6.76048 232.005 6.60724 239.83 6.52079C241.366 6.50383 242.851 6.48477 244.416 6.46482C250.427 6.38824 257.683 6.29587 274.036 6.23453C277.613 6.22111 281.803 6.21332 286.374 6.20975C293.234 6.09184 299.895 5.98246 305.686 5.9175C310.684 5.86144 315.294 5.75832 319.76 5.64534C321.046 5.61281 322.34 5.5788 323.632 5.54493C326.748 5.46326 329.865 5.38162 332.903 5.31849C335.325 5.26816 337.861 5.20768 340.541 5.14374C350.304 4.91081 362.003 4.63169 377.249 4.62804C389.087 4.6252 399.677 4.65147 409.186 4.68506C413.722 4.64981 417.708 7.8296 418.938 11.7524C417.465 7.20172 413.079 4.60056 409.186 4.64793C404.964 4.61119 401.298 4.57328 398.015 4.53789C396.952 4.52643 395.934 4.51529 394.953 4.50456C388.026 4.42875 382.99 4.37364 377.593 4.37595C351.815 4.38703 342.146 4.4613 331.236 4.67589C328.364 4.73239 325.195 4.80766 321.782 4.88866C314.959 5.05057 307.155 5.23569 298.77 5.34156C290.96 5.44016 282.225 5.58572 272.97 5.73976C272.967 5.73976 272.963 5.73976 272.959 5.73976C271.151 5.76986 269.321 5.80029 267.476 5.83077C256.223 6.01663 244.388 6.20351 232.866 6.32126C231.634 6.33385 230.158 6.35122 228.463 6.37125C218.682 6.48686 201.509 6.68981 180.539 6.55967C175.933 6.53108 171.146 6.47051 165.685 6.40116C164.021 6.38004 162.294 6.35784 160.49 6.33579C152.705 6.24058 143.246 6.13944 130.65 6.07858C120.256 6.02835 107.588 6.00427 94.433 5.97903C87.9534 5.9666 81.3557 5.95368 74.8535 5.93758C55.2126 5.88897 37.211 5.81185 19.2435 5.73464C19.2398 5.73464 19.2362 5.73464 19.2325 5.73464C17.1099 5.72551 15.4472 5.5218 15.5218 5.28003C15.5971 5.03839 17.3783 4.84971 19.4999 4.85876C37.478 4.93602 55.4246 5.01325 75.0001 5.0617C81.4034 5.07755 87.9494 5.09033 94.4037 5.10272C107.622 5.1281 120.467 5.15243 130.958 5.20313C143.768 5.26503 153.4 5.36809 161.293 5.46461C163.193 5.48785 164.981 5.51058 166.677 5.53212C172.079 5.60066 176.569 5.65796 180.938 5.68507C201.243 5.81109 217.766 5.6162 227.584 5.5005C229.326 5.47998 230.856 5.46212 232.16 5.4488C243.455 5.33336 255.109 5.14955 266.351 4.96386C268.175 4.93374 269.99 4.90369 271.791 4.87371C271.795 4.87357 271.798 4.87343 271.802 4.87328C281.055 4.71926 289.947 4.57124 297.902 4.47081C305.977 4.36886 313.019 4.20095 319.606 4.04398C323.14 3.95974 326.545 3.87896 329.907 3.81283C341.48 3.58517 351.684 3.51118 377.546 3.50008ZM26.98 9.24499C32.0885 9.35478 36.2508 9.37793 39.3504 9.3706C36.718 9.34566 34.0919 9.31949 31.4637 9.29241C29.9679 9.27701 28.4738 9.26121 26.98 9.24499ZM287 7.0852C286.173 7.09945 285.339 7.11386 284.502 7.12835C286.812 7.12149 289.122 7.11511 291.429 7.1087C294.261 7.10083 297.093 7.0934 299.924 7.08605C295.423 7.08318 291.061 7.08235 287 7.0852ZM377.286 5.50434C362.908 5.50779 352.163 5.76334 342.475 5.99398C339.685 6.0604 336.979 6.12464 334.302 6.18027C333.192 6.20334 332.083 6.22883 330.965 6.25589C337.477 6.26962 343.462 6.28405 348.361 6.29605C362.982 6.33187 371.303 6.40651 378.615 6.47208C380.731 6.49105 382.764 6.50919 384.839 6.52549C386.556 6.49608 388.338 6.46692 390.139 6.44132C392.662 6.40514 395.388 6.37042 397.982 6.34091C400.587 6.31122 403.233 6.28467 405.832 6.2623C406.954 6.25264 408.072 6.24367 409.186 6.23528C410.815 6.2205 412.447 6.67516 413.83 7.52936C416.122 8.92042 417.679 11.4099 417.965 13.9908C417.983 14.1392 417.996 14.2851 418.006 14.4337C418.019 14.6235 418.026 14.8102 418.027 15C418.04 17.2984 418.052 19.5307 418.068 21.5933C418.087 23.849 418.108 25.7242 418.141 27.3884C418.181 29.4667 418.22 31.5988 418.256 33.7073C418.292 35.818 418.326 37.9198 418.357 40.0152C418.389 42.1152 418.418 44.1943 418.446 46.2792C418.455 46.9533 418.464 47.6584 418.473 48.3269C418.477 48.6349 418.481 48.9429 418.485 49.25C418.488 45.1716 418.493 40.9373 418.5 36.5609C418.51 30.2385 418.539 23.4889 418.57 16.0437C418.572 15.6973 418.573 15.3494 418.575 15C418.735 10.2994 414.53 5.49384 409.186 5.56118C399.767 5.52762 389.263 5.50147 377.286 5.50434ZM383.684 82.3773C385.457 82.375 388.053 82.3682 391.402 82.3594C392.194 82.3573 393.029 82.3548 393.904 82.3525C393.883 82.3523 393.862 82.3523 393.842 82.3521C391.672 82.3298 389.67 82.3103 387.508 82.2923C383.655 82.2603 379.911 82.2329 376.13 82.2094C372.335 82.1859 368.549 82.1666 364.76 82.1513C360.965 82.136 357.158 82.125 353.386 82.1184C349.576 82.1118 345.821 82.1093 342.03 82.1124C340.823 82.1134 339.611 82.115 338.4 82.1171C341.104 82.1392 343.911 82.1573 346.876 82.1765C349.245 82.1918 351.715 82.2078 354.313 82.2269C355.307 82.2342 356.51 82.2454 357.914 82.2585C363.476 82.3104 372.205 82.3921 383.684 82.3773ZM308.157 82.3585C307.277 82.3643 306.403 82.3696 305.538 82.3739C303.076 82.3862 300.677 82.3932 298.325 82.3987C296.673 82.4025 295.041 82.4052 293.431 82.4081C292.752 82.4093 292.074 82.4106 291.402 82.4119C290.276 82.414 289.159 82.4166 288.05 82.4192C295.829 82.4456 303.434 82.4658 311.359 82.4722C311.463 82.4722 311.568 82.4721 311.674 82.4722C310.474 82.4335 309.303 82.3956 308.157 82.3585Z" fill="#FF8CD2"/>
<path d="M42.6178 34.168C42.8418 34.424 43.0018 34.712 43.1298 35.064V35.672C42.9698 36.12 42.7458 36.472 42.3938 36.792C42.1058 37.08 41.7858 37.4 41.4658 37.72C41.4018 37.784 41.3058 37.88 41.2098 37.944C40.6978 38.168 40.4098 38.52 39.8978 38.904C39.0018 39.576 38.5218 39.96 37.6258 40.632C37.3698 40.824 37.2418 40.92 36.9858 41.112C36.7618 41.304 36.6658 41.496 36.4098 41.624C36.3458 41.656 36.2818 41.656 36.2178 41.656C36.1218 41.656 36.0578 41.656 35.9618 41.656C35.9298 41.656 35.8978 41.656 35.8658 41.656C35.7058 41.72 35.5458 41.784 35.3858 41.848C35.2578 41.816 35.1618 41.784 35.0338 41.752C34.9698 41.816 34.8738 41.88 34.8098 41.944C34.7778 42.104 34.7458 42.264 34.7458 42.392C34.7458 42.488 34.7458 42.552 34.7458 42.616C34.7458 42.68 34.7458 42.776 34.7458 42.84C34.7138 43.512 34.6178 44.024 34.5538 44.792C34.5218 45.016 34.5538 45.112 34.5218 45.336C34.4578 45.752 34.4258 46.008 34.3618 46.424C34.3298 46.584 34.3298 46.712 34.3298 46.872C34.2978 47.288 34.3298 47.544 34.2978 47.96C34.2658 48.312 34.2338 48.504 34.1698 48.856C34.1378 49.112 34.1058 49.24 34.0738 49.496C34.0098 49.944 33.9778 50.232 33.9138 50.68C33.8818 50.936 33.8818 51.096 33.8498 51.352C33.7858 51.864 33.6898 52.12 33.6578 52.632C33.6578 52.792 33.6258 52.92 33.6258 53.048C33.6258 53.176 33.6578 53.304 33.6578 53.432C33.6578 53.56 33.6258 53.688 33.6258 53.848C33.4658 55.544 32.2818 55.864 31.0658 55.864C30.2658 55.864 30.0738 54.968 30.0738 53.944C30.0738 53.496 30.1058 53.048 30.1378 52.632C30.1698 52.248 30.2018 52.056 30.2658 51.672C30.2978 51.544 30.2978 51.48 30.3298 51.352C30.3938 50.84 30.4258 50.552 30.4898 50.04C30.5218 49.688 30.5858 49.528 30.6178 49.176C30.6818 48.632 30.7138 48.312 30.7778 47.768C30.7778 47.64 30.7778 47.544 30.8098 47.416C30.9058 46.744 30.9378 46.36 31.0338 45.688C31.0658 45.528 31.0658 45.4 31.0978 45.24C31.1618 44.888 31.1618 44.728 31.2258 44.376C31.2898 44.024 31.3218 43.864 31.3538 43.512C31.3858 43.288 31.4178 43.192 31.4178 42.968C31.4498 42.232 31.4498 41.848 31.4498 41.112C31.4818 39.736 31.4498 38.936 31.4818 37.56C31.4818 37.208 31.5458 37.048 31.5778 36.696C31.6098 36.44 31.6098 36.28 31.6098 36.024C31.6098 35.704 31.6098 35.416 31.6098 35.128C31.6098 34.552 31.6098 34.072 31.6098 33.496C31.6098 33.336 31.6098 33.208 31.6418 33.08C31.9618 32.568 31.9618 32.568 32.5058 32.184C32.7938 32.152 33.1458 32.184 33.4658 32.088C33.7218 32.024 34.0418 31.992 34.2978 31.896C34.8418 31.768 35.2898 31.768 35.9298 31.672C36.0578 31.64 36.1218 31.608 36.2498 31.608C36.6978 31.576 36.9858 31.544 37.4018 31.544C37.4978 31.544 37.5938 31.544 37.6898 31.544C38.3298 31.576 38.7778 31.672 39.3218 31.736C39.6418 31.736 40.6658 31.992 40.8898 32.152C41.2418 32.376 41.5618 32.6 41.9138 32.824C41.9458 32.856 41.9458 32.888 41.9778 32.888C42.0418 32.984 42.1378 33.08 42.2018 33.144C42.3938 33.464 42.3938 33.88 42.6178 34.168ZM39.9298 35.192C39.9618 35.128 39.9938 35.032 40.0258 34.936C39.8018 34.488 39.3538 34.328 38.8738 34.136C38.2338 34.136 37.5618 34.072 36.8578 34.072C36.4418 34.072 35.9938 34.104 35.5778 34.168C35.4178 34.296 35.1938 34.328 35.0018 34.52C34.9378 34.648 34.8738 34.808 34.7778 34.968C34.8418 35.16 34.9058 35.32 34.9378 35.48V38.36C34.9378 38.424 34.9378 38.52 34.9698 38.584C35.0018 38.648 35.0338 38.712 35.0978 38.712C35.1298 38.712 35.1618 38.744 35.1938 38.744C35.2258 38.744 35.2898 38.712 35.3218 38.68C35.7698 38.328 36.2178 37.944 36.6978 37.624C36.9858 37.464 37.2738 37.304 37.5618 37.112C38.2978 36.6 39.0018 35.992 39.7058 35.416C39.8018 35.352 39.8658 35.256 39.9298 35.192ZM56.7523 52.792C56.7843 52.952 56.7843 53.112 56.7843 53.208C56.7523 53.592 56.5923 53.816 56.2083 54.104C56.0483 54.264 55.8563 54.296 55.6643 54.296C55.6003 54.296 55.5683 54.296 55.5043 54.296C55.3123 54.296 55.2483 54.264 55.1203 54.264C55.0883 54.264 54.9283 54.296 54.8963 54.264C54.7363 54.232 54.7683 54.136 54.6083 54.104C54.4483 54.072 54.3843 53.944 54.2883 53.816C53.9363 53.304 53.8083 53.112 53.6163 52.568C53.4563 52.248 53.5203 51.992 53.4243 51.64C53.3923 51.384 53.3603 51.256 53.2963 51C53.2003 50.552 53.1363 50.264 53.0403 49.816C52.9443 49.208 52.8163 48.76 52.7523 48.216C52.7203 47.96 52.6563 47.704 52.5923 47.48C51.7283 47.64 49.1043 47.64 48.9763 48.12C48.8803 48.472 48.8483 48.824 48.7843 49.272C48.7523 49.56 48.7843 49.752 48.7523 50.04C48.7203 50.584 48.6563 50.904 48.5603 51.448C48.5603 51.544 48.5283 51.576 48.5283 51.672C48.5283 51.736 48.5283 51.8 48.5283 51.896C48.5283 51.992 48.5283 52.056 48.5283 52.152C48.5283 52.344 48.5603 52.472 48.5283 52.664C48.5283 52.952 48.5283 53.112 48.4643 53.368C48.2723 54.296 47.7603 54.808 47.1523 54.808C47.0563 54.808 46.9603 54.808 46.8643 54.776C46.3203 54.648 46.0003 54.616 45.5203 54.168C45.2963 53.976 45.2003 53.56 45.1363 53.272C45.1363 53.176 45.1363 53.144 45.1363 53.048C45.1683 52.824 45.2003 52.728 45.2003 52.504C45.2963 51.96 45.3283 51.64 45.3923 51.096C45.4563 50.744 45.4563 50.584 45.4883 50.232C45.5523 49.72 45.5843 49.432 45.6163 48.92C45.6803 48.28 45.6163 47.896 45.6803 47.256C45.7443 46.776 45.8403 46.52 45.9043 46.04C45.9363 45.816 45.9363 45.72 45.9363 45.496C45.9363 45.432 45.9363 45.368 45.9363 45.304C45.9363 45.176 45.9363 45.112 45.9363 44.984C45.9683 44.76 45.9683 44.664 45.9683 44.44C46.0323 43.896 46.0963 43.576 46.1283 43.032C46.1603 42.904 46.1603 42.808 46.1603 42.68C46.2563 42.136 46.2883 41.816 46.3523 41.272C46.3843 41.144 46.3843 41.08 46.3843 40.952C46.4483 40.152 46.4483 39.704 46.5443 38.936C46.7043 37.976 46.9603 36.632 47.0563 35.512C47.0883 35.352 47.0883 35.256 47.0883 35.096C47.1523 34.648 47.0563 34.36 47.2803 33.976C47.6643 33.4 47.9203 32.984 48.5603 32.76C49.0083 32.6 49.1683 32.504 49.3603 32.504C49.5203 32.504 49.7123 32.6 50.0643 32.728C50.8963 33.048 51.1523 33.592 51.7283 34.264C51.9203 34.456 51.8883 34.712 51.9843 34.904C52.5603 36.024 52.8483 37.016 53.3283 38.392C53.5843 39.032 53.7123 39.384 53.8723 40.056C54.0643 40.664 54.1283 41.048 54.2563 41.656C54.3843 42.072 54.4483 42.296 54.5443 42.712C54.8003 43.608 54.9603 44.28 55.1523 45.048C55.3763 45.848 55.5363 46.616 55.7603 47.416C55.8563 47.832 55.9203 48.184 56.0163 48.696C56.1763 49.368 56.2723 49.72 56.4003 50.392C56.4643 50.552 56.4323 50.68 56.4643 50.84C56.5603 51.224 56.6563 51.416 56.6883 51.8C56.7203 51.992 56.7203 52.152 56.7523 52.28C56.7523 52.44 56.7523 52.6 56.7523 52.792ZM51.9523 44.888C51.7923 44.312 51.6323 43.768 51.4403 43.224C51.2483 42.68 51.0243 41.464 50.7683 40.6C50.4803 39.704 50.2883 38.712 50.0643 38.712C49.9363 38.712 49.8723 39.224 49.8403 39.352C49.7443 40.248 49.3603 43.128 49.3603 44.056C49.3603 44.216 49.3923 44.344 49.3923 44.472C49.4563 44.536 49.5203 44.632 49.5843 44.632C49.9043 44.696 51.2163 44.76 51.9523 44.888ZM74.1858 49.752C74.1858 49.752 74.1858 49.752 74.1858 49.784C74.1858 49.816 74.1858 49.88 74.1858 49.912C74.1858 49.976 74.1858 50.008 74.1538 50.072C73.8978 50.52 73.7378 51.064 73.3858 51.128C73.2898 51.128 73.1938 51.16 73.0978 51.16C72.4258 51.16 72.2338 50.712 71.4338 50.456C71.0818 50.328 70.9538 50.008 70.6978 49.784C69.4178 48.472 68.1058 47.16 66.7938 45.88C66.5378 45.592 66.2818 45.336 66.0258 45.08C65.7698 44.824 65.5138 44.568 65.2578 44.28C65.0338 43.992 64.8098 43.704 64.5858 43.448C64.4898 43.448 64.4258 43.448 64.3298 43.416C64.2978 43.512 64.2338 43.608 64.2018 43.736C64.1698 44.12 64.1058 44.44 64.0738 44.92C64.0418 45.176 64.0418 45.336 64.0418 45.592C64.0098 47.256 64.0418 48.184 64.0098 49.88C64.0098 50.808 64.0098 51.32 63.9458 52.248C63.9138 52.6 63.7858 52.792 63.7538 53.176C63.7538 53.272 63.7538 53.336 63.7538 53.432C63.7538 53.624 63.7538 53.784 63.7538 53.976C63.7538 54.04 63.7538 54.104 63.7538 54.168C63.7218 54.488 63.6578 54.68 63.6258 55.032C63.6258 55.096 63.6258 55.16 63.6258 55.256C63.6258 55.288 63.6258 55.352 63.6258 55.384C63.6258 55.512 63.5938 55.608 63.5618 55.768C63.4338 56.088 63.4338 56.408 63.1138 56.568C62.9538 56.632 62.4738 56.632 61.9618 56.632C61.5138 56.632 61.0658 56.632 60.8418 56.632C60.6178 56.6 60.5218 56.504 60.3618 56.376C60.2018 56.184 60.1058 56.056 60.0738 55.832C60.0418 55.64 60.0418 55.448 60.0418 55.288C60.0418 55 60.0738 54.744 60.0738 54.392C60.0738 54.296 60.1058 54.232 60.1058 54.168C60.1698 53.624 60.2018 53.304 60.2658 52.76C60.2978 52.408 60.3618 52.216 60.4258 51.896C60.4578 51.704 60.4258 51.608 60.4578 51.448C60.5218 50.904 60.5858 50.584 60.6498 50.04C60.6818 49.784 60.6818 49.624 60.6818 49.368C60.7138 48.024 60.6818 47.256 60.7458 45.944C60.7778 45.304 60.8418 44.952 60.8738 44.312C60.8738 44.248 60.8738 44.216 60.8738 44.184C60.8738 44.088 60.8738 44.024 60.8738 43.928C60.8738 43.896 60.8738 43.864 60.8738 43.864C60.9058 43.096 60.8738 42.648 60.9378 41.88C60.9698 41.368 61.0338 41.08 61.0978 40.568C61.1298 40.344 61.0978 40.216 61.1298 40.024C61.1618 39.768 61.1618 39.608 61.1938 39.384C61.2578 38.872 61.3218 38.584 61.3858 38.072C61.4498 37.688 61.4498 37.464 61.5138 37.08C61.5458 36.92 61.5458 36.824 61.5778 36.664C61.7058 35.992 61.7378 35.576 61.8978 35C61.9938 34.904 62.1218 34.744 62.2498 34.648C62.3458 34.552 62.4738 34.456 62.6018 34.36C62.7938 34.36 62.9858 34.328 63.1458 34.328C63.4018 34.328 63.6258 34.328 63.8498 34.328C64.4258 34.328 65.0018 34.296 65.5778 34.168C65.8338 34.136 66.0898 34.136 66.3458 34.136C67.2098 34.136 68.1058 34.104 69.0018 34.104C69.2898 34.104 69.5778 34.136 69.8658 34.296C70.7298 34.456 71.4018 34.872 72.3618 35.32C72.5538 35.416 72.6178 35.544 72.8098 35.704C72.9698 35.832 73.1298 35.832 73.2258 36.024C73.2258 36.056 73.2578 36.056 73.2578 36.088C73.2578 36.216 73.1618 36.312 73.1618 36.408C73.1618 36.44 73.1618 36.44 73.1618 36.472C73.2258 36.76 73.3538 36.888 73.4498 37.176C73.4498 37.208 73.4818 37.272 73.4818 37.304C73.4818 37.368 73.4498 37.432 73.4498 37.496C73.4178 37.656 73.4178 37.752 73.3218 37.912C73.0978 38.264 72.9378 38.424 72.6498 38.744C72.4258 38.936 72.2658 39.032 72.0418 39.224C71.3378 39.8 70.8578 40.216 70.2498 40.696C69.8978 40.952 69.5458 41.208 69.1298 41.368C68.9698 41.432 68.8098 41.528 68.6498 41.624C68.3618 41.816 68.1058 42.008 67.8178 42.2V42.424C68.3618 43.128 68.9378 43.8 69.5778 44.408C70.3458 45.176 71.1138 45.976 71.8818 46.776C72.3298 47.224 72.6498 47.608 73.1618 48.152C73.3858 48.408 73.5458 48.536 73.7698 48.792C73.9298 48.984 74.0898 49.048 74.1858 49.304C74.2178 49.336 74.2178 49.4 74.2178 49.464C74.2178 49.528 74.1858 49.624 74.1858 49.752ZM66.6338 39.864C66.9538 39.64 67.3058 39.448 67.6258 39.192C68.1698 38.712 68.6818 38.2 69.2258 37.688C69.3218 37.592 69.4178 37.464 69.5138 37.336C69.4178 37.24 69.3538 37.144 69.2578 37.048C69.0338 36.984 68.7778 36.952 68.5538 36.888C68.2018 36.792 67.8818 36.76 67.5618 36.76C67.2418 36.76 66.9218 36.792 66.6018 36.888C66.4418 36.92 66.3138 36.92 66.1538 36.952C65.8338 36.952 65.4818 36.952 65.1618 36.984C65.0978 36.984 65.0338 37.016 64.9378 37.048C64.8738 37.144 64.7778 37.272 64.7138 37.4C64.6818 37.656 64.6818 37.912 64.6498 38.168C64.6498 38.232 64.6498 38.328 64.6498 38.392C64.6498 38.648 64.6178 38.904 64.4898 39.128C64.4578 39.192 64.4578 39.256 64.4578 39.352C64.4258 39.608 64.4258 39.896 64.4258 40.152C64.4258 40.344 64.4258 40.536 64.4578 40.76C64.4898 40.856 64.5858 40.92 64.6818 40.92C64.7138 40.92 64.7778 40.92 64.8098 40.888C65.0978 40.664 65.4178 40.504 65.7698 40.344C66.0578 40.184 66.3458 40.024 66.6338 39.864ZM90.979 32.568C91.011 32.664 91.043 32.728 91.043 32.888C91.043 33.048 91.043 33.304 91.011 33.72C90.883 33.848 90.723 34.008 90.595 34.136C90.499 34.2 90.435 34.232 90.371 34.232C90.083 34.296 89.795 34.232 89.507 34.36C89.251 34.488 88.931 34.52 88.643 34.584C88.483 34.648 88.291 34.68 88.131 34.68C87.715 34.744 87.395 34.808 86.915 34.872C86.435 34.936 86.115 34.936 85.699 34.968C85.603 35.032 85.475 35.128 85.379 35.192C85.315 35.352 85.283 35.544 85.283 35.704C85.283 35.896 85.315 36.056 85.315 36.216C85.283 36.664 85.315 37.112 85.155 37.528C85.123 37.624 85.091 37.72 85.091 37.816C85.091 37.912 85.123 38.008 85.123 38.136C85.123 38.168 85.123 38.168 85.123 38.2C85.091 39.384 85.091 40.088 85.059 41.272C85.027 41.784 84.995 42.072 84.963 42.584C84.931 42.808 84.899 42.936 84.899 43.16C84.835 44.408 84.867 45.112 84.835 46.36C84.803 47 84.739 47.352 84.707 47.992C84.675 48.28 84.675 48.472 84.675 48.76C84.643 50.264 84.643 51.128 84.611 52.632C84.579 52.92 84.547 53.112 84.515 53.4C84.483 53.688 84.451 53.88 84.451 54.168C84.451 54.2 84.419 54.264 84.419 54.296C84.419 54.52 84.451 54.68 84.451 54.872C84.451 55 84.451 55.16 84.387 55.32C84.227 55.672 83.651 55.832 83.075 55.832C82.435 55.832 81.795 55.672 81.571 55.48C81.411 55.352 81.283 55.352 81.187 55.224C80.867 54.808 80.707 54.584 80.579 54.072C80.547 54.04 80.547 54.008 80.547 53.976C80.547 53.752 80.611 53.624 80.643 53.4C80.803 51.512 80.931 49.72 80.931 47.992C80.931 47.256 80.995 46.232 80.995 45.464C80.995 43.576 81.155 42.456 81.187 40.44C81.187 40.216 81.219 40.12 81.219 39.896C81.283 39.384 81.283 38.744 81.315 38.232C81.315 37.912 81.315 37.624 81.315 37.368C81.315 36.824 81.315 36.344 81.315 35.8C81.283 35.736 81.251 35.672 81.187 35.608C81.091 35.512 80.995 35.416 80.899 35.416C80.867 35.416 80.835 35.448 80.803 35.448C80.579 35.544 80.323 35.576 80.067 35.576C79.619 35.608 79.171 35.608 78.755 35.736C78.531 35.8 78.307 35.832 78.083 35.832C77.891 35.832 77.699 35.8 77.539 35.8C77.475 35.768 77.411 35.736 77.347 35.672C77.155 35.416 76.963 35.16 76.675 34.968C76.547 34.904 76.451 34.776 76.355 34.68C76.291 34.584 76.259 34.488 76.227 34.36C76.227 34.328 76.195 34.296 76.195 34.264C76.195 33.88 76.387 33.528 76.707 33.304C76.899 33.144 77.091 33.08 77.379 32.984C77.891 32.824 78.211 32.792 78.787 32.696C79.459 32.6 79.843 32.568 80.515 32.504C80.643 32.504 80.707 32.504 80.867 32.472C81.443 32.408 81.763 32.344 82.371 32.28C82.435 32.28 82.499 32.248 82.595 32.248C83.203 32.184 83.587 32.152 84.227 32.056C84.643 31.992 84.867 31.928 85.315 31.864C85.731 31.8 85.987 31.864 86.435 31.8C86.883 31.736 87.139 31.672 87.619 31.608C87.683 31.608 87.747 31.576 87.843 31.576C88.387 31.512 88.835 31.416 89.283 31.416C89.379 31.416 89.475 31.416 89.571 31.416C89.891 31.576 90.051 31.864 90.275 32.184C90.499 32.312 90.723 32.44 90.979 32.568ZM98.0985 33.4C98.2905 33.656 98.5785 34.008 98.5785 34.328C98.5785 34.392 98.5785 34.488 98.5465 34.552C98.3545 35.032 97.8425 35.064 97.2985 35.192C97.2025 35.192 97.1385 35.224 97.0425 35.224C96.8185 35.224 96.6265 35.16 96.4025 35.032C96.0185 34.904 95.7625 34.776 95.5065 34.456C95.4425 34.36 95.4425 34.264 95.4425 34.2C95.4425 34.072 95.4745 33.944 95.5705 33.848C95.8905 33.4 96.2105 33.112 96.6265 32.92C96.7225 32.824 96.8825 32.792 97.0105 32.792C97.0745 32.792 97.1705 32.792 97.2025 32.824C97.5545 33.016 97.8105 33.048 98.0985 33.4ZM97.1385 40.856C97.1385 41.08 97.1385 41.304 97.2345 41.528C97.3305 41.752 97.3945 42.008 97.3945 42.264C97.3945 42.52 97.3305 42.776 97.2665 43.032C97.1385 43.416 97.1705 43.768 97.1065 44.216C97.0745 44.504 97.0745 44.696 97.0105 44.984C96.9785 45.24 96.9465 45.368 96.9145 45.624C96.8825 45.976 96.8505 46.136 96.7865 46.488C96.7865 46.552 96.7545 46.552 96.7545 46.616C96.7225 47.128 96.6905 47.416 96.6265 47.928C96.5945 48.44 96.4985 48.728 96.4665 49.24C96.4665 49.88 96.4665 50.392 96.4665 50.904C96.4665 51.928 96.4665 52.824 96.4665 54.072C96.4665 54.2 96.4985 54.296 96.4985 54.424C96.4985 54.456 96.4985 54.52 96.4665 54.584C96.3705 54.936 96.3385 55.224 96.0185 55.416C95.8905 55.512 95.7305 55.544 95.6025 55.544C95.4105 55.544 95.2505 55.48 95.0265 55.416C94.7705 55.32 94.7705 55.064 94.5145 54.904C94.4505 54.872 94.4185 54.872 94.3545 54.872C94.2905 54.872 94.2585 54.872 94.2265 54.872C94.1625 54.872 94.1305 54.872 94.0665 54.84C93.8425 54.744 93.6825 54.712 93.4905 54.552C93.3625 54.424 93.2985 54.296 93.2665 54.104C93.1705 53.624 93.2025 53.336 93.1705 52.856C93.1705 52.376 93.1705 51.992 93.1705 51.608C93.1705 50.904 93.1705 50.296 93.2025 49.432C93.2345 48.952 93.2985 48.696 93.3305 48.248C93.3625 48.024 93.3945 47.928 93.3945 47.704C93.4905 47.032 93.5225 46.616 93.5865 45.944C93.6185 45.72 93.6185 45.624 93.6185 45.4C93.6825 45.048 93.7145 44.888 93.7465 44.536C93.7785 44.376 93.7785 44.28 93.8105 44.12C93.8745 43.768 93.8745 43.512 93.9705 43.256C94.0345 43.16 94.0345 43.032 94.0345 42.904C94.1625 41.88 94.3865 40.856 94.6745 39.8C94.8345 39.256 95.0905 38.936 95.3785 38.392C95.4105 38.328 95.4425 38.296 95.5065 38.296C95.5385 38.296 95.5705 38.296 95.6025 38.296C95.7945 38.296 95.9865 38.264 96.1785 38.264C96.4025 38.264 96.5945 38.296 96.8185 38.424C97.1065 38.552 97.0745 38.84 97.1385 39.128C97.1705 39.256 97.2025 39.384 97.2025 39.48C97.2025 39.608 97.1705 39.736 97.1705 39.864C97.1705 40.216 97.1385 40.536 97.1385 40.856ZM111.832 52.024C111.928 52.28 111.992 52.472 111.992 52.6C111.992 52.792 111.896 52.888 111.704 53.176C111.608 53.336 111.096 53.528 110.904 53.528C110.04 53.592 109.432 53.656 108.728 53.656C108.344 53.656 107.928 53.624 107.416 53.56C106.648 53.464 106.232 53.208 105.56 52.792C105.24 52.6 105.176 52.344 104.952 52.056C104.536 51.512 104.216 51.128 103.928 50.616C103.672 50.136 103.416 49.656 103.192 49.144C102.936 48.664 102.744 48.12 102.648 47.608C102.584 47.32 102.488 47.032 102.456 46.744C102.424 46.456 102.392 46.168 102.264 45.88C102.232 45.816 102.264 45.72 102.232 45.656C102.232 45.208 102.2 44.824 102.2 44.376C102.2 44.248 102.2 44.152 102.2 44.024C102.232 43.544 102.296 43.288 102.36 42.808C102.392 42.52 102.456 42.328 102.456 42.04C102.552 40.312 103.352 38.776 104.792 37.304C105.624 36.44 105.88 36.152 106.744 35.608C107.64 35 108.536 34.84 109.24 34.456C109.304 34.392 109.336 34.392 109.432 34.392C109.496 34.392 109.528 34.392 109.592 34.456C109.976 34.712 110.264 34.776 110.552 35.16C110.712 35.32 110.616 35.512 110.68 35.768C110.712 35.928 110.776 35.992 110.84 36.184C110.84 36.216 110.872 36.248 110.872 36.28C110.872 36.28 110.872 36.28 110.872 36.312C110.84 36.376 110.84 36.408 110.808 36.504C110.712 36.696 110.712 36.824 110.552 37.016C109.208 38.488 107.768 38.104 106.808 40.056C106.328 40.92 105.912 42.648 105.784 44.056C105.784 44.184 105.784 44.312 105.784 44.44C105.784 44.856 105.848 45.208 105.88 45.72C105.912 45.88 105.912 45.976 105.944 46.136C106.072 46.712 106.072 47.064 106.232 47.64C106.392 48.184 106.584 48.44 106.776 48.952C106.84 49.08 106.84 49.176 106.904 49.272C107.224 49.752 107.384 50.072 107.8 50.456C107.992 50.616 108.152 50.648 108.408 50.68C108.984 50.744 109.176 50.84 109.72 50.968C110.232 51.096 110.584 51.032 111.064 51.288C111.448 51.48 111.576 51.768 111.832 52.024ZM120.755 33.4C120.947 33.656 121.235 34.008 121.235 34.328C121.235 34.392 121.235 34.488 121.203 34.552C121.011 35.032 120.499 35.064 119.955 35.192C119.859 35.192 119.795 35.224 119.699 35.224C119.475 35.224 119.283 35.16 119.059 35.032C118.675 34.904 118.419 34.776 118.163 34.456C118.099 34.36 118.099 34.264 118.099 34.2C118.099 34.072 118.131 33.944 118.227 33.848C118.547 33.4 118.867 33.112 119.283 32.92C119.379 32.824 119.539 32.792 119.667 32.792C119.731 32.792 119.827 32.792 119.859 32.824C120.211 33.016 120.467 33.048 120.755 33.4ZM119.795 40.856C119.795 41.08 119.795 41.304 119.891 41.528C119.987 41.752 120.051 42.008 120.051 42.264C120.051 42.52 119.987 42.776 119.923 43.032C119.795 43.416 119.827 43.768 119.763 44.216C119.731 44.504 119.731 44.696 119.667 44.984C119.635 45.24 119.603 45.368 119.571 45.624C119.539 45.976 119.507 46.136 119.443 46.488C119.443 46.552 119.411 46.552 119.411 46.616C119.379 47.128 119.347 47.416 119.283 47.928C119.251 48.44 119.155 48.728 119.123 49.24C119.123 49.88 119.123 50.392 119.123 50.904C119.123 51.928 119.123 52.824 119.123 54.072C119.123 54.2 119.155 54.296 119.155 54.424C119.155 54.456 119.155 54.52 119.123 54.584C119.027 54.936 118.995 55.224 118.675 55.416C118.547 55.512 118.387 55.544 118.259 55.544C118.067 55.544 117.907 55.48 117.683 55.416C117.427 55.32 117.427 55.064 117.171 54.904C117.107 54.872 117.075 54.872 117.011 54.872C116.947 54.872 116.915 54.872 116.883 54.872C116.819 54.872 116.787 54.872 116.723 54.84C116.499 54.744 116.339 54.712 116.147 54.552C116.019 54.424 115.955 54.296 115.923 54.104C115.827 53.624 115.859 53.336 115.827 52.856C115.827 52.376 115.827 51.992 115.827 51.608C115.827 50.904 115.827 50.296 115.859 49.432C115.891 48.952 115.955 48.696 115.987 48.248C116.019 48.024 116.051 47.928 116.051 47.704C116.147 47.032 116.179 46.616 116.243 45.944C116.275 45.72 116.275 45.624 116.275 45.4C116.339 45.048 116.371 44.888 116.403 44.536C116.435 44.376 116.435 44.28 116.467 44.12C116.531 43.768 116.531 43.512 116.627 43.256C116.691 43.16 116.691 43.032 116.691 42.904C116.819 41.88 117.043 40.856 117.331 39.8C117.491 39.256 117.747 38.936 118.035 38.392C118.067 38.328 118.099 38.296 118.163 38.296C118.195 38.296 118.227 38.296 118.259 38.296C118.451 38.296 118.643 38.264 118.835 38.264C119.059 38.264 119.251 38.296 119.475 38.424C119.763 38.552 119.731 38.84 119.795 39.128C119.827 39.256 119.859 39.384 119.859 39.48C119.859 39.608 119.827 39.736 119.827 39.864C119.827 40.216 119.795 40.536 119.795 40.856ZM137.337 34.168C137.561 34.424 137.721 34.712 137.849 35.064V35.672C137.689 36.12 137.465 36.472 137.113 36.792C136.825 37.08 136.505 37.4 136.185 37.72C136.121 37.784 136.025 37.88 135.929 37.944C135.417 38.168 135.129 38.52 134.617 38.904C133.721 39.576 133.241 39.96 132.345 40.632C132.089 40.824 131.961 40.92 131.705 41.112C131.481 41.304 131.385 41.496 131.129 41.624C131.065 41.656 131.001 41.656 130.937 41.656C130.841 41.656 130.777 41.656 130.681 41.656C130.649 41.656 130.617 41.656 130.585 41.656C130.425 41.72 130.265 41.784 130.105 41.848C129.977 41.816 129.881 41.784 129.753 41.752C129.689 41.816 129.593 41.88 129.529 41.944C129.497 42.104 129.465 42.264 129.465 42.392C129.465 42.488 129.465 42.552 129.465 42.616C129.465 42.68 129.465 42.776 129.465 42.84C129.433 43.512 129.337 44.024 129.273 44.792C129.241 45.016 129.273 45.112 129.241 45.336C129.177 45.752 129.145 46.008 129.081 46.424C129.049 46.584 129.049 46.712 129.049 46.872C129.017 47.288 129.049 47.544 129.017 47.96C128.985 48.312 128.953 48.504 128.889 48.856C128.857 49.112 128.825 49.24 128.793 49.496C128.729 49.944 128.697 50.232 128.633 50.68C128.601 50.936 128.601 51.096 128.569 51.352C128.505 51.864 128.409 52.12 128.377 52.632C128.377 52.792 128.345 52.92 128.345 53.048C128.345 53.176 128.377 53.304 128.377 53.432C128.377 53.56 128.345 53.688 128.345 53.848C128.185 55.544 127.001 55.864 125.785 55.864C124.985 55.864 124.793 54.968 124.793 53.944C124.793 53.496 124.825 53.048 124.857 52.632C124.889 52.248 124.921 52.056 124.985 51.672C125.017 51.544 125.017 51.48 125.049 51.352C125.113 50.84 125.145 50.552 125.209 50.04C125.241 49.688 125.305 49.528 125.337 49.176C125.401 48.632 125.433 48.312 125.497 47.768C125.497 47.64 125.497 47.544 125.529 47.416C125.625 46.744 125.657 46.36 125.753 45.688C125.785 45.528 125.785 45.4 125.817 45.24C125.881 44.888 125.881 44.728 125.945 44.376C126.009 44.024 126.041 43.864 126.073 43.512C126.105 43.288 126.137 43.192 126.137 42.968C126.169 42.232 126.169 41.848 126.169 41.112C126.201 39.736 126.169 38.936 126.201 37.56C126.201 37.208 126.265 37.048 126.297 36.696C126.329 36.44 126.329 36.28 126.329 36.024C126.329 35.704 126.329 35.416 126.329 35.128C126.329 34.552 126.329 34.072 126.329 33.496C126.329 33.336 126.329 33.208 126.361 33.08C126.681 32.568 126.681 32.568 127.225 32.184C127.513 32.152 127.865 32.184 128.185 32.088C128.441 32.024 128.761 31.992 129.017 31.896C129.561 31.768 130.009 31.768 130.649 31.672C130.777 31.64 130.841 31.608 130.969 31.608C131.417 31.576 131.705 31.544 132.121 31.544C132.217 31.544 132.313 31.544 132.409 31.544C133.049 31.576 133.497 31.672 134.041 31.736C134.361 31.736 135.385 31.992 135.609 32.152C135.961 32.376 136.281 32.6 136.633 32.824C136.665 32.856 136.665 32.888 136.697 32.888C136.761 32.984 136.857 33.08 136.921 33.144C137.113 33.464 137.113 33.88 137.337 34.168ZM134.649 35.192C134.681 35.128 134.713 35.032 134.745 34.936C134.521 34.488 134.073 34.328 133.593 34.136C132.953 34.136 132.281 34.072 131.577 34.072C131.161 34.072 130.713 34.104 130.297 34.168C130.137 34.296 129.913 34.328 129.721 34.52C129.657 34.648 129.593 34.808 129.497 34.968C129.561 35.16 129.625 35.32 129.657 35.48V38.36C129.657 38.424 129.657 38.52 129.689 38.584C129.721 38.648 129.753 38.712 129.817 38.712C129.849 38.712 129.881 38.744 129.913 38.744C129.945 38.744 130.009 38.712 130.041 38.68C130.489 38.328 130.937 37.944 131.417 37.624C131.705 37.464 131.993 37.304 132.281 37.112C133.017 36.6 133.721 35.992 134.425 35.416C134.521 35.352 134.585 35.256 134.649 35.192ZM152.728 35.512C152.76 35.576 152.76 35.608 152.76 35.672C152.76 35.896 152.568 36.056 152.408 36.248C152.12 36.568 151.96 36.76 151.544 36.856C151.416 36.888 151.32 36.888 151.224 36.888C150.872 36.888 150.584 36.76 150.168 36.728C150.008 36.728 149.912 36.696 149.752 36.696C149.272 36.664 149.016 36.696 148.536 36.664C148.28 36.632 148.088 36.632 147.864 36.568C147.64 36.504 147.384 36.472 147.16 36.472C146.968 36.472 146.744 36.504 146.552 36.504C146.424 36.504 146.296 36.6 146.2 36.728C146.008 37.048 145.912 37.4 145.88 37.784C145.88 38.168 145.72 38.552 145.72 38.968C145.72 39 145.72 39.032 145.72 39.064C145.72 39.16 145.72 39.256 145.72 39.32C145.72 39.704 145.688 40.056 145.688 40.408C145.688 41.176 145.656 41.944 145.656 42.712C145.656 42.936 145.688 43.16 145.688 43.384C145.816 43.448 145.912 43.512 146.008 43.512C146.168 43.512 146.296 43.544 146.456 43.544C146.744 43.544 147.032 43.512 147.32 43.416C147.48 43.352 147.672 43.352 147.864 43.32C147.992 43.32 148.152 43.32 148.28 43.288C148.664 43.16 149.016 43.128 149.4 43.128C149.56 43.128 149.72 43.128 149.88 43.128C150.072 43.128 150.168 43.224 150.328 43.32C150.52 43.416 150.68 43.416 150.84 43.576C151.096 43.832 151.352 43.992 151.384 44.344C151.384 44.376 151.384 44.408 151.384 44.44C151.384 44.76 151.224 44.984 150.968 45.208C150.584 45.56 150.168 45.592 149.784 45.784C149.688 45.848 149.56 45.912 149.464 45.912C148.92 45.912 148.408 46.2 147.832 46.2H147.736C147.416 46.264 147.096 46.328 146.776 46.36C146.456 46.424 146.168 46.424 145.944 46.424C145.752 46.52 145.688 46.68 145.688 46.808C145.688 47.032 145.688 47.256 145.688 47.48C145.688 47.576 145.688 47.704 145.688 47.8C145.688 48.152 145.88 48.44 145.88 48.792C145.912 49.304 146.136 49.688 146.36 50.232C146.424 50.36 146.488 50.456 146.616 50.52C146.968 50.68 147.16 50.808 147.544 50.84C147.672 50.872 147.8 50.872 147.928 50.872C148.28 50.872 148.568 50.808 148.952 50.808C148.984 50.808 149.016 50.808 149.048 50.808C149.464 50.808 149.656 50.84 150.072 50.872C150.392 50.936 150.52 50.904 150.808 51.032C151.032 51.16 151.192 51.16 151.416 51.288C151.704 51.48 151.928 51.576 152.056 51.864C152.088 51.928 152.088 51.96 152.088 51.992C152.088 52.152 151.992 52.28 151.96 52.44C151.928 52.632 151.992 52.792 151.832 52.92C151.576 53.144 151.32 53.144 151 53.272C150.712 53.4 150.552 53.592 150.232 53.624C149.592 53.688 149.08 53.72 148.536 53.72C148.184 53.72 147.832 53.72 147.448 53.688C146.968 53.656 146.584 53.592 146.04 53.432C145.592 53.304 145.272 53.176 144.92 52.984C144.376 52.696 143.928 52.344 143.64 51.8C143.576 51.672 143.448 51.576 143.384 51.448C143.288 51.224 143.192 50.968 143.128 50.744C143 50.296 142.872 49.976 142.776 49.464C142.68 49.016 142.648 48.728 142.584 48.28C142.584 48.248 142.584 48.248 142.584 48.216C142.584 48.184 142.584 48.152 142.584 48.088V48.056C142.52 47.288 142.456 46.84 142.424 46.072C142.392 45.496 142.392 45.048 142.392 44.568C142.392 44.472 142.392 44.408 142.392 44.312C142.392 43.896 142.392 43.512 142.552 43.128C142.616 42.968 142.584 42.744 142.616 42.584C142.616 42.168 142.616 41.752 142.648 41.368C142.648 41.272 142.648 41.144 142.648 41.048C142.648 41.016 142.648 40.952 142.648 40.92C142.872 40.216 142.808 39.512 142.84 38.84V38.296C142.872 38.104 142.904 37.912 142.936 37.752C143 37.592 143 37.464 143.032 37.304V36.792C142.68 36.664 142.488 36.6 142.136 36.472C141.784 36.344 141.56 36.376 141.272 36.152C140.952 35.896 140.696 35.704 140.696 35.32C140.696 35.288 140.696 35.288 140.696 35.288C140.696 34.968 141.048 34.904 141.304 34.68C141.56 34.456 141.656 34.264 141.976 34.136C142.264 34.008 142.52 34.008 142.776 34.008C142.84 34.008 142.904 34.008 142.968 34.008C143.32 34.008 143.576 33.88 143.96 33.816C144.344 33.752 144.536 33.624 144.92 33.624C144.92 33.624 144.92 33.624 144.952 33.624C145.208 33.624 145.368 33.752 145.656 33.784C145.912 33.816 146.072 33.816 146.328 33.816C146.424 33.816 146.52 33.816 146.616 33.816C146.872 33.816 147.064 33.816 147.32 33.816C147.416 33.816 147.512 33.816 147.64 33.816C147.8 33.816 147.928 33.816 148.088 33.848C148.472 33.912 148.696 33.976 149.08 34.008C149.464 34.04 149.688 34.008 150.072 34.072C150.36 34.104 150.52 34.2 150.808 34.232C150.872 34.232 150.936 34.232 150.968 34.232C151.032 34.232 151.096 34.232 151.16 34.232C151.256 34.232 151.352 34.264 151.448 34.296C151.768 34.424 151.896 34.616 152.152 34.84C152.408 35.064 152.536 35.288 152.728 35.512ZM170.498 49.752C170.498 49.752 170.498 49.752 170.498 49.784C170.498 49.816 170.498 49.88 170.498 49.912C170.498 49.976 170.498 50.008 170.466 50.072C170.21 50.52 170.05 51.064 169.698 51.128C169.602 51.128 169.506 51.16 169.41 51.16C168.738 51.16 168.546 50.712 167.746 50.456C167.394 50.328 167.266 50.008 167.01 49.784C165.73 48.472 164.418 47.16 163.106 45.88C162.85 45.592 162.594 45.336 162.338 45.08C162.082 44.824 161.826 44.568 161.57 44.28C161.346 43.992 161.122 43.704 160.898 43.448C160.802 43.448 160.738 43.448 160.642 43.416C160.61 43.512 160.546 43.608 160.514 43.736C160.482 44.12 160.418 44.44 160.386 44.92C160.354 45.176 160.354 45.336 160.354 45.592C160.322 47.256 160.354 48.184 160.322 49.88C160.322 50.808 160.322 51.32 160.258 52.248C160.226 52.6 160.098 52.792 160.066 53.176C160.066 53.272 160.066 53.336 160.066 53.432C160.066 53.624 160.066 53.784 160.066 53.976C160.066 54.04 160.066 54.104 160.066 54.168C160.034 54.488 159.97 54.68 159.938 55.032C159.938 55.096 159.938 55.16 159.938 55.256C159.938 55.288 159.938 55.352 159.938 55.384C159.938 55.512 159.906 55.608 159.874 55.768C159.746 56.088 159.746 56.408 159.426 56.568C159.266 56.632 158.786 56.632 158.274 56.632C157.826 56.632 157.378 56.632 157.154 56.632C156.93 56.6 156.834 56.504 156.674 56.376C156.514 56.184 156.418 56.056 156.386 55.832C156.354 55.64 156.354 55.448 156.354 55.288C156.354 55 156.386 54.744 156.386 54.392C156.386 54.296 156.418 54.232 156.418 54.168C156.482 53.624 156.514 53.304 156.578 52.76C156.61 52.408 156.674 52.216 156.738 51.896C156.77 51.704 156.738 51.608 156.77 51.448C156.834 50.904 156.898 50.584 156.962 50.04C156.994 49.784 156.994 49.624 156.994 49.368C157.026 48.024 156.994 47.256 157.058 45.944C157.09 45.304 157.154 44.952 157.186 44.312C157.186 44.248 157.186 44.216 157.186 44.184C157.186 44.088 157.186 44.024 157.186 43.928C157.186 43.896 157.186 43.864 157.186 43.864C157.218 43.096 157.186 42.648 157.25 41.88C157.282 41.368 157.346 41.08 157.41 40.568C157.442 40.344 157.41 40.216 157.442 40.024C157.474 39.768 157.474 39.608 157.506 39.384C157.57 38.872 157.634 38.584 157.698 38.072C157.762 37.688 157.762 37.464 157.826 37.08C157.858 36.92 157.858 36.824 157.89 36.664C158.018 35.992 158.05 35.576 158.21 35C158.306 34.904 158.434 34.744 158.562 34.648C158.658 34.552 158.786 34.456 158.914 34.36C159.106 34.36 159.298 34.328 159.458 34.328C159.714 34.328 159.938 34.328 160.162 34.328C160.738 34.328 161.314 34.296 161.89 34.168C162.146 34.136 162.402 34.136 162.658 34.136C163.522 34.136 164.418 34.104 165.314 34.104C165.602 34.104 165.89 34.136 166.178 34.296C167.042 34.456 167.714 34.872 168.674 35.32C168.866 35.416 168.93 35.544 169.122 35.704C169.282 35.832 169.442 35.832 169.538 36.024C169.538 36.056 169.57 36.056 169.57 36.088C169.57 36.216 169.474 36.312 169.474 36.408C169.474 36.44 169.474 36.44 169.474 36.472C169.538 36.76 169.666 36.888 169.762 37.176C169.762 37.208 169.794 37.272 169.794 37.304C169.794 37.368 169.762 37.432 169.762 37.496C169.73 37.656 169.73 37.752 169.634 37.912C169.41 38.264 169.25 38.424 168.962 38.744C168.738 38.936 168.578 39.032 168.354 39.224C167.65 39.8 167.17 40.216 166.562 40.696C166.21 40.952 165.858 41.208 165.442 41.368C165.282 41.432 165.122 41.528 164.962 41.624C164.674 41.816 164.418 42.008 164.13 42.2V42.424C164.674 43.128 165.25 43.8 165.89 44.408C166.658 45.176 167.426 45.976 168.194 46.776C168.642 47.224 168.962 47.608 169.474 48.152C169.698 48.408 169.858 48.536 170.082 48.792C170.242 48.984 170.402 49.048 170.498 49.304C170.53 49.336 170.53 49.4 170.53 49.464C170.53 49.528 170.498 49.624 170.498 49.752ZM162.946 39.864C163.266 39.64 163.618 39.448 163.938 39.192C164.482 38.712 164.994 38.2 165.538 37.688C165.634 37.592 165.73 37.464 165.826 37.336C165.73 37.24 165.666 37.144 165.57 37.048C165.346 36.984 165.09 36.952 164.866 36.888C164.514 36.792 164.194 36.76 163.874 36.76C163.554 36.76 163.234 36.792 162.914 36.888C162.754 36.92 162.626 36.92 162.466 36.952C162.146 36.952 161.794 36.952 161.474 36.984C161.41 36.984 161.346 37.016 161.25 37.048C161.186 37.144 161.09 37.272 161.026 37.4C160.994 37.656 160.994 37.912 160.962 38.168C160.962 38.232 160.962 38.328 160.962 38.392C160.962 38.648 160.93 38.904 160.802 39.128C160.77 39.192 160.77 39.256 160.77 39.352C160.738 39.608 160.738 39.896 160.738 40.152C160.738 40.344 160.738 40.536 160.77 40.76C160.802 40.856 160.898 40.92 160.994 40.92C161.026 40.92 161.09 40.92 161.122 40.888C161.41 40.664 161.73 40.504 162.082 40.344C162.37 40.184 162.658 40.024 162.946 39.864ZM196.69 52.792C196.722 52.952 196.722 53.112 196.722 53.208C196.69 53.592 196.53 53.816 196.146 54.104C195.986 54.264 195.794 54.296 195.602 54.296C195.538 54.296 195.506 54.296 195.442 54.296C195.25 54.296 195.186 54.264 195.058 54.264C195.026 54.264 194.866 54.296 194.834 54.264C194.674 54.232 194.706 54.136 194.546 54.104C194.386 54.072 194.322 53.944 194.226 53.816C193.874 53.304 193.746 53.112 193.554 52.568C193.394 52.248 193.458 51.992 193.362 51.64C193.33 51.384 193.298 51.256 193.234 51C193.138 50.552 193.074 50.264 192.978 49.816C192.882 49.208 192.754 48.76 192.69 48.216C192.658 47.96 192.594 47.704 192.53 47.48C191.666 47.64 189.042 47.64 188.914 48.12C188.818 48.472 188.786 48.824 188.722 49.272C188.69 49.56 188.722 49.752 188.69 50.04C188.658 50.584 188.594 50.904 188.498 51.448C188.498 51.544 188.466 51.576 188.466 51.672C188.466 51.736 188.466 51.8 188.466 51.896C188.466 51.992 188.466 52.056 188.466 52.152C188.466 52.344 188.498 52.472 188.466 52.664C188.466 52.952 188.466 53.112 188.402 53.368C188.21 54.296 187.698 54.808 187.09 54.808C186.994 54.808 186.898 54.808 186.802 54.776C186.258 54.648 185.938 54.616 185.458 54.168C185.234 53.976 185.138 53.56 185.074 53.272C185.074 53.176 185.074 53.144 185.074 53.048C185.106 52.824 185.138 52.728 185.138 52.504C185.234 51.96 185.266 51.64 185.33 51.096C185.394 50.744 185.394 50.584 185.426 50.232C185.49 49.72 185.522 49.432 185.554 48.92C185.618 48.28 185.554 47.896 185.618 47.256C185.682 46.776 185.778 46.52 185.842 46.04C185.874 45.816 185.874 45.72 185.874 45.496C185.874 45.432 185.874 45.368 185.874 45.304C185.874 45.176 185.874 45.112 185.874 44.984C185.906 44.76 185.906 44.664 185.906 44.44C185.97 43.896 186.034 43.576 186.066 43.032C186.098 42.904 186.098 42.808 186.098 42.68C186.194 42.136 186.226 41.816 186.29 41.272C186.322 41.144 186.322 41.08 186.322 40.952C186.386 40.152 186.386 39.704 186.482 38.936C186.642 37.976 186.898 36.632 186.994 35.512C187.026 35.352 187.026 35.256 187.026 35.096C187.09 34.648 186.994 34.36 187.218 33.976C187.602 33.4 187.858 32.984 188.498 32.76C188.946 32.6 189.106 32.504 189.298 32.504C189.458 32.504 189.65 32.6 190.002 32.728C190.834 33.048 191.09 33.592 191.666 34.264C191.858 34.456 191.826 34.712 191.922 34.904C192.498 36.024 192.786 37.016 193.266 38.392C193.522 39.032 193.65 39.384 193.81 40.056C194.002 40.664 194.066 41.048 194.194 41.656C194.322 42.072 194.386 42.296 194.482 42.712C194.738 43.608 194.898 44.28 195.09 45.048C195.314 45.848 195.474 46.616 195.698 47.416C195.794 47.832 195.858 48.184 195.954 48.696C196.114 49.368 196.21 49.72 196.338 50.392C196.402 50.552 196.37 50.68 196.402 50.84C196.498 51.224 196.594 51.416 196.626 51.8C196.658 51.992 196.658 52.152 196.69 52.28C196.69 52.44 196.69 52.6 196.69 52.792ZM191.89 44.888C191.73 44.312 191.57 43.768 191.378 43.224C191.186 42.68 190.962 41.464 190.706 40.6C190.418 39.704 190.226 38.712 190.002 38.712C189.874 38.712 189.81 39.224 189.778 39.352C189.682 40.248 189.298 43.128 189.298 44.056C189.298 44.216 189.33 44.344 189.33 44.472C189.394 44.536 189.458 44.632 189.522 44.632C189.842 44.696 191.154 44.76 191.89 44.888ZM210.915 37.976C210.915 38.008 210.915 38.008 210.915 38.04C210.915 38.264 210.883 38.392 210.851 38.616C210.787 39.352 210.755 39.736 210.691 40.472C210.691 40.696 210.659 40.792 210.659 41.016C210.627 41.784 210.659 42.232 210.627 43C210.627 43.416 210.627 43.672 210.563 44.088C210.499 44.504 210.403 44.76 210.307 45.176C210.211 45.624 210.115 45.88 210.019 46.328C209.891 46.872 209.859 47.192 209.763 47.736C209.667 48.248 209.635 48.536 209.507 49.016C209.251 49.912 208.835 51.128 208.739 51.32C208.291 52.12 207.843 52.92 207.299 53.656C207.075 53.912 206.883 54.168 206.627 54.488C206.499 54.552 206.307 54.68 206.147 54.776C205.987 54.808 205.859 54.84 205.699 54.84C205.507 54.84 205.315 54.808 205.123 54.808C205.059 54.776 204.995 54.776 204.931 54.744C204.803 54.712 204.707 54.648 204.611 54.616C204.003 54.328 203.459 53.976 202.979 53.496C202.819 53.304 202.627 53.112 202.435 52.952C201.891 52.472 201.635 51.96 201.219 51.256C200.899 50.744 200.771 50.424 200.547 49.848C200.419 49.464 200.387 49.208 200.323 48.792C200.195 48.12 200.131 47.736 200.035 47.064C199.939 46.392 199.939 45.976 199.875 45.304C199.843 45.08 199.843 44.984 199.843 44.76C199.811 44.184 199.843 43.896 199.811 43.32C199.811 43.16 199.811 43.032 199.779 42.872C199.715 42.328 199.587 42.008 199.587 41.464C199.587 40.792 199.555 40.216 199.555 39.672C199.555 38.616 199.587 37.688 199.619 36.376C199.619 36.152 199.683 36.056 199.715 35.832C199.747 35.672 199.747 35.576 199.779 35.416C199.875 34.968 199.939 34.712 200.003 34.232C200.035 33.976 200.003 33.848 200.067 33.592C200.163 33.336 200.195 33.144 200.387 32.952C200.579 32.76 200.739 32.632 200.995 32.568C201.187 32.536 201.315 32.504 201.475 32.504C201.603 32.504 201.731 32.504 201.891 32.568C202.083 32.632 202.147 32.792 202.179 32.984C202.243 33.208 202.243 33.4 202.243 33.592C202.243 33.72 202.243 33.816 202.243 33.944C202.243 34.04 202.243 34.136 202.243 34.264C202.275 34.904 202.371 35.288 202.371 35.928C202.371 36.312 202.243 36.536 202.243 36.92C202.243 37.432 202.211 37.816 202.211 38.232C202.211 38.84 202.243 39.416 202.243 40.216C202.243 40.312 202.275 40.344 202.275 40.44C202.339 41.08 202.403 41.432 202.467 42.072C202.499 42.232 202.499 42.36 202.531 42.52C202.595 42.968 202.627 43.256 202.659 43.704C202.691 44.056 202.659 44.248 202.691 44.6C202.723 45.112 202.787 45.4 202.819 45.912C202.851 46.424 202.851 46.712 202.915 47.224C203.011 47.832 203.075 48.152 203.267 48.728C203.747 50.168 204.195 50.328 204.643 50.36C204.643 50.36 204.675 50.36 204.707 50.36C205.315 50.36 205.955 49.624 206.595 48.088C206.755 47.672 206.755 47.416 206.851 47C206.915 46.68 206.947 46.488 207.011 46.136C207.075 45.784 207.075 45.624 207.139 45.272C207.171 45.144 207.171 45.08 207.203 44.952C207.267 44.664 207.267 44.472 207.331 44.184C207.395 43.8 207.427 43.608 207.491 43.224C207.523 42.968 207.555 42.808 207.555 42.552C207.587 41.912 207.555 41.56 207.587 40.92C207.619 40.632 207.651 40.44 207.683 40.152C207.715 39.928 207.747 39.832 207.747 39.608C207.747 39.384 207.747 39.16 207.747 38.968C207.747 38.68 207.747 38.392 207.747 38.104C207.747 37.752 207.779 37.4 207.811 36.952C207.875 36.376 208.035 36.056 208.195 35.48C208.291 35.128 208.323 34.872 208.515 34.552C208.739 34.232 208.899 34.04 209.251 33.848C209.603 33.624 209.859 33.56 210.083 33.56C210.339 33.56 210.499 33.656 210.627 33.816C210.915 34.2 210.979 34.744 210.979 35.384C210.979 36.056 210.915 36.792 210.915 37.528C210.915 37.688 210.915 37.816 210.915 37.976ZM241.437 53.176C241.565 53.656 241.725 53.976 241.725 54.424C241.725 54.52 241.725 54.648 241.693 54.776C241.597 55.32 241.373 55.608 240.925 55.928L240.029 56.152C239.965 56.152 239.933 56.152 239.901 56.152C239.645 56.152 239.453 56.024 239.229 55.864C238.781 55.544 238.493 55.384 238.237 54.904C237.885 54.328 237.917 53.88 237.725 53.24C237.501 52.472 237.405 51.896 237.181 51.224C236.925 50.296 236.477 49.464 235.965 48.632C235.453 47.864 234.941 47.128 234.397 46.36C233.629 45.336 232.829 44.344 232.093 43.288C231.773 42.84 231.357 42.456 230.973 42.072C230.845 41.912 230.717 41.784 230.525 41.72C230.333 41.752 230.205 41.88 230.205 42.072C230.205 42.136 230.205 42.232 230.205 42.296C230.205 42.84 230.301 43.288 230.333 43.928C230.333 44.088 230.365 44.216 230.365 44.376C230.397 44.888 230.397 45.176 230.429 45.688C230.461 46.04 230.493 46.232 230.525 46.584C230.557 46.808 230.589 46.904 230.589 47.128C230.621 47.8 230.589 48.216 230.653 48.888C230.685 49.304 230.749 49.56 230.781 49.976C230.813 50.232 230.813 50.392 230.813 50.648C230.813 51.16 230.813 51.448 230.845 51.96C230.845 52.12 230.877 52.248 230.877 52.408C230.941 53.304 231.037 53.88 231.037 54.68C231.037 54.808 231.037 54.936 231.037 55.096C231.005 55.448 230.877 55.64 230.717 55.96C230.685 55.992 230.685 55.992 230.653 55.992C230.621 55.992 230.589 55.992 230.589 55.992C230.461 55.96 230.397 55.896 230.301 55.896H230.269C230.045 55.96 229.981 56.152 229.757 56.216C229.661 56.248 229.597 56.248 229.533 56.248C229.405 56.248 229.309 56.216 229.149 56.152C228.957 56.088 228.925 55.928 228.765 55.832C228.605 55.736 228.477 55.8 228.349 55.672C227.997 55.352 227.773 55.16 227.549 54.744C227.517 54.648 227.485 54.584 227.485 54.52C227.485 54.424 227.517 54.296 227.517 54.168C227.517 54.168 227.517 54.136 227.517 54.104C227.485 53.816 227.453 53.624 227.421 53.336C227.389 53.08 227.357 52.92 227.357 52.664C227.325 51.544 227.357 50.936 227.293 49.816C227.261 49.336 227.197 49.08 227.165 48.6C227.133 48.312 227.165 48.12 227.133 47.832C227.069 47.288 227.037 46.968 226.973 46.424C226.941 46.2 226.909 46.072 226.909 45.848C226.877 44.984 226.877 44.504 226.845 43.64C226.845 43.384 226.781 43.256 226.781 43C226.781 42.904 226.781 42.84 226.781 42.776C226.781 42.68 226.781 42.584 226.781 42.456C226.781 42.232 226.813 42.104 226.813 41.912C226.813 41.88 226.813 41.848 226.813 41.816C226.813 41.56 226.717 41.432 226.717 41.176C226.685 39.832 226.685 38.808 226.685 37.752C226.685 37.4 226.685 37.08 226.685 36.728C226.685 36.216 226.685 35.704 226.685 35.096C226.685 34.968 226.685 34.168 226.685 33.56C226.685 33.24 226.685 32.952 226.685 32.888C226.749 32.568 226.781 32.376 226.909 32.088C227.005 31.896 227.101 31.8 227.261 31.672C227.325 31.608 227.389 31.608 227.453 31.608C227.485 31.608 227.485 31.608 227.517 31.608C227.677 31.608 227.773 31.672 227.933 31.704C227.965 31.704 227.965 31.704 227.997 31.704C228.093 31.704 228.189 31.672 228.253 31.672C228.317 31.672 228.381 31.704 228.445 31.736C228.893 32.024 229.149 32.216 229.405 32.664C229.693 33.208 229.757 35.416 229.757 35.928C229.757 35.992 229.789 36.056 229.789 36.152C229.853 36.568 229.853 36.824 229.949 37.24C229.949 37.304 230.045 37.336 230.077 37.4C230.237 37.368 230.333 37.24 230.429 37.144C230.781 36.696 231.133 36.28 231.453 35.832C231.677 35.448 232.029 35.16 232.253 34.776C232.509 34.424 232.829 34.104 233.117 33.784C233.501 33.336 233.821 32.984 234.269 32.472C234.717 31.992 234.941 31.704 235.421 31.256C235.549 31.128 235.645 31.064 235.805 31.064C235.965 31.064 236.061 31.16 236.221 31.224C236.413 31.288 236.541 31.224 236.701 31.352C236.893 31.512 236.893 31.704 237.085 31.896C237.277 32.088 237.501 32.088 237.693 32.28C237.789 32.376 237.853 32.472 237.853 32.632C237.853 32.632 237.853 32.664 237.853 32.696C237.789 33.08 237.661 33.304 237.437 33.624C237.245 33.912 237.085 33.976 236.861 34.232C236.637 34.488 236.541 34.648 236.317 34.904C235.869 35.384 235.613 35.64 235.165 36.12C234.621 36.728 234.205 37.08 233.789 37.656C233.437 38.168 233.021 38.648 232.637 39.16V39.48C232.701 39.576 232.765 39.672 232.829 39.768C232.925 39.864 233.021 39.96 233.149 40.056C234.013 40.856 234.717 41.816 235.453 42.712C235.549 42.84 235.613 42.968 235.709 43.064C236.573 43.992 237.309 45.016 238.045 46.008C238.813 47.096 239.485 48.216 240.061 49.432C240.189 49.72 240.317 50.008 240.381 50.36C240.381 50.552 240.509 50.712 240.541 50.872C240.797 51.64 241.149 52.248 241.437 53.176ZM249.224 33.4C249.416 33.656 249.704 34.008 249.704 34.328C249.704 34.392 249.704 34.488 249.672 34.552C249.48 35.032 248.968 35.064 248.424 35.192C248.328 35.192 248.264 35.224 248.168 35.224C247.944 35.224 247.752 35.16 247.528 35.032C247.144 34.904 246.888 34.776 246.632 34.456C246.568 34.36 246.568 34.264 246.568 34.2C246.568 34.072 246.6 33.944 246.696 33.848C247.016 33.4 247.336 33.112 247.752 32.92C247.848 32.824 248.008 32.792 248.136 32.792C248.2 32.792 248.296 32.792 248.328 32.824C248.68 33.016 248.936 33.048 249.224 33.4ZM248.264 40.856C248.264 41.08 248.264 41.304 248.36 41.528C248.456 41.752 248.52 42.008 248.52 42.264C248.52 42.52 248.456 42.776 248.392 43.032C248.264 43.416 248.296 43.768 248.232 44.216C248.2 44.504 248.2 44.696 248.136 44.984C248.104 45.24 248.072 45.368 248.04 45.624C248.008 45.976 247.976 46.136 247.912 46.488C247.912 46.552 247.88 46.552 247.88 46.616C247.848 47.128 247.816 47.416 247.752 47.928C247.72 48.44 247.624 48.728 247.592 49.24C247.592 49.88 247.592 50.392 247.592 50.904C247.592 51.928 247.592 52.824 247.592 54.072C247.592 54.2 247.624 54.296 247.624 54.424C247.624 54.456 247.624 54.52 247.592 54.584C247.496 54.936 247.464 55.224 247.144 55.416C247.016 55.512 246.856 55.544 246.728 55.544C246.536 55.544 246.376 55.48 246.152 55.416C245.896 55.32 245.896 55.064 245.64 54.904C245.576 54.872 245.544 54.872 245.48 54.872C245.416 54.872 245.384 54.872 245.352 54.872C245.288 54.872 245.256 54.872 245.192 54.84C244.968 54.744 244.808 54.712 244.616 54.552C244.488 54.424 244.424 54.296 244.392 54.104C244.296 53.624 244.328 53.336 244.296 52.856C244.296 52.376 244.296 51.992 244.296 51.608C244.296 50.904 244.296 50.296 244.328 49.432C244.36 48.952 244.424 48.696 244.456 48.248C244.488 48.024 244.52 47.928 244.52 47.704C244.616 47.032 244.648 46.616 244.712 45.944C244.744 45.72 244.744 45.624 244.744 45.4C244.808 45.048 244.84 44.888 244.872 44.536C244.904 44.376 244.904 44.28 244.936 44.12C245 43.768 245 43.512 245.096 43.256C245.16 43.16 245.16 43.032 245.16 42.904C245.288 41.88 245.512 40.856 245.8 39.8C245.96 39.256 246.216 38.936 246.504 38.392C246.536 38.328 246.568 38.296 246.632 38.296C246.664 38.296 246.696 38.296 246.728 38.296C246.92 38.296 247.112 38.264 247.304 38.264C247.528 38.264 247.72 38.296 247.944 38.424C248.232 38.552 248.2 38.84 248.264 39.128C248.296 39.256 248.328 39.384 248.328 39.48C248.328 39.608 248.296 39.736 248.296 39.864C248.296 40.216 248.264 40.536 248.264 40.856ZM262.957 52.024C263.053 52.28 263.117 52.472 263.117 52.6C263.117 52.792 263.021 52.888 262.829 53.176C262.733 53.336 262.221 53.528 262.029 53.528C261.165 53.592 260.557 53.656 259.853 53.656C259.469 53.656 259.053 53.624 258.541 53.56C257.773 53.464 257.357 53.208 256.685 52.792C256.365 52.6 256.301 52.344 256.077 52.056C255.661 51.512 255.341 51.128 255.053 50.616C254.797 50.136 254.541 49.656 254.317 49.144C254.061 48.664 253.869 48.12 253.773 47.608C253.709 47.32 253.613 47.032 253.581 46.744C253.549 46.456 253.517 46.168 253.389 45.88C253.357 45.816 253.389 45.72 253.357 45.656C253.357 45.208 253.325 44.824 253.325 44.376C253.325 44.248 253.325 44.152 253.325 44.024C253.357 43.544 253.421 43.288 253.485 42.808C253.517 42.52 253.581 42.328 253.581 42.04C253.677 40.312 254.477 38.776 255.917 37.304C256.749 36.44 257.005 36.152 257.869 35.608C258.765 35 259.661 34.84 260.365 34.456C260.429 34.392 260.461 34.392 260.557 34.392C260.621 34.392 260.653 34.392 260.717 34.456C261.101 34.712 261.389 34.776 261.677 35.16C261.837 35.32 261.741 35.512 261.805 35.768C261.837 35.928 261.901 35.992 261.965 36.184C261.965 36.216 261.997 36.248 261.997 36.28C261.997 36.28 261.997 36.28 261.997 36.312C261.965 36.376 261.965 36.408 261.933 36.504C261.837 36.696 261.837 36.824 261.677 37.016C260.333 38.488 258.893 38.104 257.933 40.056C257.453 40.92 257.037 42.648 256.909 44.056C256.909 44.184 256.909 44.312 256.909 44.44C256.909 44.856 256.973 45.208 257.005 45.72C257.037 45.88 257.037 45.976 257.069 46.136C257.197 46.712 257.197 47.064 257.357 47.64C257.517 48.184 257.709 48.44 257.901 48.952C257.965 49.08 257.965 49.176 258.029 49.272C258.349 49.752 258.509 50.072 258.925 50.456C259.117 50.616 259.277 50.648 259.533 50.68C260.109 50.744 260.301 50.84 260.845 50.968C261.357 51.096 261.709 51.032 262.189 51.288C262.573 51.48 262.701 51.768 262.957 52.024ZM282.312 53.176C282.44 53.656 282.6 53.976 282.6 54.424C282.6 54.52 282.6 54.648 282.568 54.776C282.472 55.32 282.248 55.608 281.8 55.928L280.904 56.152C280.84 56.152 280.808 56.152 280.776 56.152C280.52 56.152 280.328 56.024 280.104 55.864C279.656 55.544 279.368 55.384 279.112 54.904C278.76 54.328 278.792 53.88 278.6 53.24C278.376 52.472 278.28 51.896 278.056 51.224C277.8 50.296 277.352 49.464 276.84 48.632C276.328 47.864 275.816 47.128 275.272 46.36C274.504 45.336 273.704 44.344 272.968 43.288C272.648 42.84 272.232 42.456 271.848 42.072C271.72 41.912 271.592 41.784 271.4 41.72C271.208 41.752 271.08 41.88 271.08 42.072C271.08 42.136 271.08 42.232 271.08 42.296C271.08 42.84 271.176 43.288 271.208 43.928C271.208 44.088 271.24 44.216 271.24 44.376C271.272 44.888 271.272 45.176 271.304 45.688C271.336 46.04 271.368 46.232 271.4 46.584C271.432 46.808 271.464 46.904 271.464 47.128C271.496 47.8 271.464 48.216 271.528 48.888C271.56 49.304 271.624 49.56 271.656 49.976C271.688 50.232 271.688 50.392 271.688 50.648C271.688 51.16 271.688 51.448 271.72 51.96C271.72 52.12 271.752 52.248 271.752 52.408C271.816 53.304 271.912 53.88 271.912 54.68C271.912 54.808 271.912 54.936 271.912 55.096C271.88 55.448 271.752 55.64 271.592 55.96C271.56 55.992 271.56 55.992 271.528 55.992C271.496 55.992 271.464 55.992 271.464 55.992C271.336 55.96 271.272 55.896 271.176 55.896H271.144C270.92 55.96 270.856 56.152 270.632 56.216C270.536 56.248 270.472 56.248 270.408 56.248C270.28 56.248 270.184 56.216 270.024 56.152C269.832 56.088 269.8 55.928 269.64 55.832C269.48 55.736 269.352 55.8 269.224 55.672C268.872 55.352 268.648 55.16 268.424 54.744C268.392 54.648 268.36 54.584 268.36 54.52C268.36 54.424 268.392 54.296 268.392 54.168C268.392 54.168 268.392 54.136 268.392 54.104C268.36 53.816 268.328 53.624 268.296 53.336C268.264 53.08 268.232 52.92 268.232 52.664C268.2 51.544 268.232 50.936 268.168 49.816C268.136 49.336 268.072 49.08 268.04 48.6C268.008 48.312 268.04 48.12 268.008 47.832C267.944 47.288 267.912 46.968 267.848 46.424C267.816 46.2 267.784 46.072 267.784 45.848C267.752 44.984 267.752 44.504 267.72 43.64C267.72 43.384 267.656 43.256 267.656 43C267.656 42.904 267.656 42.84 267.656 42.776C267.656 42.68 267.656 42.584 267.656 42.456C267.656 42.232 267.688 42.104 267.688 41.912C267.688 41.88 267.688 41.848 267.688 41.816C267.688 41.56 267.592 41.432 267.592 41.176C267.56 39.832 267.56 38.808 267.56 37.752C267.56 37.4 267.56 37.08 267.56 36.728C267.56 36.216 267.56 35.704 267.56 35.096C267.56 34.968 267.56 34.168 267.56 33.56C267.56 33.24 267.56 32.952 267.56 32.888C267.624 32.568 267.656 32.376 267.784 32.088C267.88 31.896 267.976 31.8 268.136 31.672C268.2 31.608 268.264 31.608 268.328 31.608C268.36 31.608 268.36 31.608 268.392 31.608C268.552 31.608 268.648 31.672 268.808 31.704C268.84 31.704 268.84 31.704 268.872 31.704C268.968 31.704 269.064 31.672 269.128 31.672C269.192 31.672 269.256 31.704 269.32 31.736C269.768 32.024 270.024 32.216 270.28 32.664C270.568 33.208 270.632 35.416 270.632 35.928C270.632 35.992 270.664 36.056 270.664 36.152C270.728 36.568 270.728 36.824 270.824 37.24C270.824 37.304 270.92 37.336 270.952 37.4C271.112 37.368 271.208 37.24 271.304 37.144C271.656 36.696 272.008 36.28 272.328 35.832C272.552 35.448 272.904 35.16 273.128 34.776C273.384 34.424 273.704 34.104 273.992 33.784C274.376 33.336 274.696 32.984 275.144 32.472C275.592 31.992 275.816 31.704 276.296 31.256C276.424 31.128 276.52 31.064 276.68 31.064C276.84 31.064 276.936 31.16 277.096 31.224C277.288 31.288 277.416 31.224 277.576 31.352C277.768 31.512 277.768 31.704 277.96 31.896C278.152 32.088 278.376 32.088 278.568 32.28C278.664 32.376 278.728 32.472 278.728 32.632C278.728 32.632 278.728 32.664 278.728 32.696C278.664 33.08 278.536 33.304 278.312 33.624C278.12 33.912 277.96 33.976 277.736 34.232C277.512 34.488 277.416 34.648 277.192 34.904C276.744 35.384 276.488 35.64 276.04 36.12C275.496 36.728 275.08 37.08 274.664 37.656C274.312 38.168 273.896 38.648 273.512 39.16V39.48C273.576 39.576 273.64 39.672 273.704 39.768C273.8 39.864 273.896 39.96 274.024 40.056C274.888 40.856 275.592 41.816 276.328 42.712C276.424 42.84 276.488 42.968 276.584 43.064C277.448 43.992 278.184 45.016 278.92 46.008C279.688 47.096 280.36 48.216 280.936 49.432C281.064 49.72 281.192 50.008 281.256 50.36C281.256 50.552 281.384 50.712 281.416 50.872C281.672 51.64 282.024 52.248 282.312 53.176ZM293.05 41.752C293.242 42.04 293.306 42.232 293.338 42.584C293.338 42.616 293.338 42.648 293.338 42.648C293.338 42.872 293.242 43 293.21 43.224C293.21 43.256 293.21 43.256 293.21 43.256C293.21 43.288 293.21 43.32 293.21 43.32C293.21 43.352 293.21 43.352 293.21 43.352C293.082 43.928 293.018 44.344 292.858 44.824C292.698 45.304 292.538 45.784 292.41 46.296C292.282 46.776 292.09 47.16 291.898 47.704C291.802 48.024 291.706 48.184 291.642 48.504C291.45 49.144 291.386 49.496 291.226 50.168C291.098 50.712 291.034 51 290.906 51.544C290.906 51.64 290.874 51.672 290.842 51.768C290.49 52.536 290.394 53.144 289.946 53.752C289.882 53.848 289.85 53.944 289.754 54.04C289.754 54.072 289.722 54.072 289.658 54.072C289.658 54.072 289.658 54.072 289.626 54.072C289.178 54.008 288.762 53.88 288.442 53.88C288.186 53.88 287.994 53.784 287.802 53.72C287.482 53.592 287.162 53.432 287.034 53.048C287.002 52.888 286.97 52.76 286.97 52.664C286.97 52.344 287.098 52.088 287.13 51.704C287.226 51.192 287.354 50.904 287.482 50.36C287.514 50.232 287.514 50.136 287.546 50.008C287.93 48.856 288.154 48.216 288.57 47.064C288.73 46.584 288.89 46.232 289.018 45.848C289.146 45.432 289.114 45.464 289.242 45.08C289.274 44.984 289.306 44.92 289.306 44.856C289.306 44.76 289.274 44.664 289.274 44.6C289.242 44.504 289.178 44.376 289.114 44.28C288.666 44.216 288.282 44.248 287.834 44.216C287.706 44.216 287.61 44.216 287.482 44.216C287.226 44.216 287.002 44.216 286.778 44.12C286.714 44.088 286.65 44.056 286.554 44.056C286.298 44.024 286.042 44.024 285.754 43.992C285.658 43.992 285.594 43.928 285.53 43.928C284.922 43.704 284.314 43.256 283.77 42.936C283.386 42.744 283.226 42.52 283.002 42.168C282.81 41.848 282.746 41.624 282.714 41.272C282.714 41.24 282.714 41.24 282.714 41.208C282.714 40.92 282.842 40.696 282.842 40.44C282.874 40.152 282.874 39.896 282.97 39.608C283.034 39.224 283.13 38.808 283.258 38.392C283.45 37.816 283.706 37.24 283.93 36.632C283.994 36.472 284.09 36.28 284.186 36.12C284.442 35.736 284.73 35.352 284.986 34.968C285.498 34.168 286.554 33.88 287.418 33.304C287.514 33.24 287.642 33.208 287.738 33.208C287.834 33.208 287.898 33.24 287.994 33.24C288.218 33.304 288.346 33.432 288.506 33.592C288.602 33.688 288.634 33.752 288.634 33.912C288.634 33.944 288.634 34.008 288.634 34.04C288.634 34.232 288.602 34.36 288.57 34.584C288.506 34.872 288.474 35.032 288.346 35.288C288.058 35.768 287.802 35.992 287.546 36.408C287.322 36.856 287.034 37.272 286.938 37.752C286.842 38.168 286.682 38.52 286.554 38.872C286.458 39.192 286.362 39.48 286.298 39.768C286.234 39.992 286.106 40.184 286.106 40.408C286.106 40.472 286.106 40.536 286.138 40.6C286.202 40.824 286.458 40.856 286.682 40.952C286.778 40.984 286.906 40.984 287.034 40.984C287.546 40.984 287.93 40.824 288.506 40.696C289.018 40.536 289.562 40.472 290.074 40.472C290.65 40.472 291.258 40.568 291.866 40.824C292.346 41.016 292.794 41.304 293.05 41.752ZM309.979 32.568C310.011 32.664 310.043 32.728 310.043 32.888C310.043 33.048 310.043 33.304 310.011 33.72C309.883 33.848 309.723 34.008 309.595 34.136C309.499 34.2 309.435 34.232 309.371 34.232C309.083 34.296 308.795 34.232 308.507 34.36C308.251 34.488 307.931 34.52 307.643 34.584C307.483 34.648 307.291 34.68 307.131 34.68C306.715 34.744 306.395 34.808 305.915 34.872C305.435 34.936 305.115 34.936 304.699 34.968C304.603 35.032 304.475 35.128 304.379 35.192C304.315 35.352 304.283 35.544 304.283 35.704C304.283 35.896 304.315 36.056 304.315 36.216C304.283 36.664 304.315 37.112 304.155 37.528C304.123 37.624 304.091 37.72 304.091 37.816C304.091 37.912 304.123 38.008 304.123 38.136C304.123 38.168 304.123 38.168 304.123 38.2C304.091 39.384 304.091 40.088 304.059 41.272C304.027 41.784 303.995 42.072 303.963 42.584C303.931 42.808 303.899 42.936 303.899 43.16C303.835 44.408 303.867 45.112 303.835 46.36C303.803 47 303.739 47.352 303.707 47.992C303.675 48.28 303.675 48.472 303.675 48.76C303.643 50.264 303.643 51.128 303.611 52.632C303.579 52.92 303.547 53.112 303.515 53.4C303.483 53.688 303.451 53.88 303.451 54.168C303.451 54.2 303.419 54.264 303.419 54.296C303.419 54.52 303.451 54.68 303.451 54.872C303.451 55 303.451 55.16 303.387 55.32C303.227 55.672 302.651 55.832 302.075 55.832C301.435 55.832 300.795 55.672 300.571 55.48C300.411 55.352 300.283 55.352 300.187 55.224C299.867 54.808 299.707 54.584 299.579 54.072C299.547 54.04 299.547 54.008 299.547 53.976C299.547 53.752 299.611 53.624 299.643 53.4C299.803 51.512 299.931 49.72 299.931 47.992C299.931 47.256 299.995 46.232 299.995 45.464C299.995 43.576 300.155 42.456 300.187 40.44C300.187 40.216 300.219 40.12 300.219 39.896C300.283 39.384 300.283 38.744 300.315 38.232C300.315 37.912 300.315 37.624 300.315 37.368C300.315 36.824 300.315 36.344 300.315 35.8C300.283 35.736 300.251 35.672 300.187 35.608C300.091 35.512 299.995 35.416 299.899 35.416C299.867 35.416 299.835 35.448 299.803 35.448C299.579 35.544 299.323 35.576 299.067 35.576C298.619 35.608 298.171 35.608 297.755 35.736C297.531 35.8 297.307 35.832 297.083 35.832C296.891 35.832 296.699 35.8 296.539 35.8C296.475 35.768 296.411 35.736 296.347 35.672C296.155 35.416 295.963 35.16 295.675 34.968C295.547 34.904 295.451 34.776 295.355 34.68C295.291 34.584 295.259 34.488 295.227 34.36C295.227 34.328 295.195 34.296 295.195 34.264C295.195 33.88 295.387 33.528 295.707 33.304C295.899 33.144 296.091 33.08 296.379 32.984C296.891 32.824 297.211 32.792 297.787 32.696C298.459 32.6 298.843 32.568 299.515 32.504C299.643 32.504 299.707 32.504 299.867 32.472C300.443 32.408 300.763 32.344 301.371 32.28C301.435 32.28 301.499 32.248 301.595 32.248C302.203 32.184 302.587 32.152 303.227 32.056C303.643 31.992 303.867 31.928 304.315 31.864C304.731 31.8 304.987 31.864 305.435 31.8C305.883 31.736 306.139 31.672 306.619 31.608C306.683 31.608 306.747 31.576 306.843 31.576C307.387 31.512 307.835 31.416 308.283 31.416C308.379 31.416 308.475 31.416 308.571 31.416C308.891 31.576 309.051 31.864 309.275 32.184C309.499 32.312 309.723 32.44 309.979 32.568ZM324.002 52.792C324.034 52.952 324.034 53.112 324.034 53.208C324.002 53.592 323.842 53.816 323.458 54.104C323.298 54.264 323.106 54.296 322.914 54.296C322.85 54.296 322.818 54.296 322.754 54.296C322.562 54.296 322.498 54.264 322.37 54.264C322.338 54.264 322.178 54.296 322.146 54.264C321.986 54.232 322.018 54.136 321.858 54.104C321.698 54.072 321.634 53.944 321.538 53.816C321.186 53.304 321.058 53.112 320.866 52.568C320.706 52.248 320.77 51.992 320.674 51.64C320.642 51.384 320.61 51.256 320.546 51C320.45 50.552 320.386 50.264 320.29 49.816C320.194 49.208 320.066 48.76 320.002 48.216C319.97 47.96 319.906 47.704 319.842 47.48C318.978 47.64 316.354 47.64 316.226 48.12C316.13 48.472 316.098 48.824 316.034 49.272C316.002 49.56 316.034 49.752 316.002 50.04C315.97 50.584 315.906 50.904 315.81 51.448C315.81 51.544 315.778 51.576 315.778 51.672C315.778 51.736 315.778 51.8 315.778 51.896C315.778 51.992 315.778 52.056 315.778 52.152C315.778 52.344 315.81 52.472 315.778 52.664C315.778 52.952 315.778 53.112 315.714 53.368C315.522 54.296 315.01 54.808 314.402 54.808C314.306 54.808 314.21 54.808 314.114 54.776C313.57 54.648 313.25 54.616 312.77 54.168C312.546 53.976 312.45 53.56 312.386 53.272C312.386 53.176 312.386 53.144 312.386 53.048C312.418 52.824 312.45 52.728 312.45 52.504C312.546 51.96 312.578 51.64 312.642 51.096C312.706 50.744 312.706 50.584 312.738 50.232C312.802 49.72 312.834 49.432 312.866 48.92C312.93 48.28 312.866 47.896 312.93 47.256C312.994 46.776 313.09 46.52 313.154 46.04C313.186 45.816 313.186 45.72 313.186 45.496C313.186 45.432 313.186 45.368 313.186 45.304C313.186 45.176 313.186 45.112 313.186 44.984C313.218 44.76 313.218 44.664 313.218 44.44C313.282 43.896 313.346 43.576 313.378 43.032C313.41 42.904 313.41 42.808 313.41 42.68C313.506 42.136 313.538 41.816 313.602 41.272C313.634 41.144 313.634 41.08 313.634 40.952C313.698 40.152 313.698 39.704 313.794 38.936C313.954 37.976 314.21 36.632 314.306 35.512C314.338 35.352 314.338 35.256 314.338 35.096C314.402 34.648 314.306 34.36 314.53 33.976C314.914 33.4 315.17 32.984 315.81 32.76C316.258 32.6 316.418 32.504 316.61 32.504C316.77 32.504 316.962 32.6 317.314 32.728C318.146 33.048 318.402 33.592 318.978 34.264C319.17 34.456 319.138 34.712 319.234 34.904C319.81 36.024 320.098 37.016 320.578 38.392C320.834 39.032 320.962 39.384 321.122 40.056C321.314 40.664 321.378 41.048 321.506 41.656C321.634 42.072 321.698 42.296 321.794 42.712C322.05 43.608 322.21 44.28 322.402 45.048C322.626 45.848 322.786 46.616 323.01 47.416C323.106 47.832 323.17 48.184 323.266 48.696C323.426 49.368 323.522 49.72 323.65 50.392C323.714 50.552 323.682 50.68 323.714 50.84C323.81 51.224 323.906 51.416 323.938 51.8C323.97 51.992 323.97 52.152 324.002 52.28C324.002 52.44 324.002 52.6 324.002 52.792ZM319.202 44.888C319.042 44.312 318.882 43.768 318.69 43.224C318.498 42.68 318.274 41.464 318.018 40.6C317.73 39.704 317.538 38.712 317.314 38.712C317.186 38.712 317.122 39.224 317.09 39.352C316.994 40.248 316.61 43.128 316.61 44.056C316.61 44.216 316.642 44.344 316.642 44.472C316.706 44.536 316.77 44.632 316.834 44.632C317.154 44.696 318.466 44.76 319.202 44.888ZM341.436 49.752C341.436 49.752 341.436 49.752 341.436 49.784C341.436 49.816 341.436 49.88 341.436 49.912C341.436 49.976 341.436 50.008 341.404 50.072C341.148 50.52 340.988 51.064 340.636 51.128C340.54 51.128 340.444 51.16 340.348 51.16C339.676 51.16 339.484 50.712 338.684 50.456C338.332 50.328 338.204 50.008 337.948 49.784C336.668 48.472 335.356 47.16 334.044 45.88C333.788 45.592 333.532 45.336 333.276 45.08C333.02 44.824 332.764 44.568 332.508 44.28C332.284 43.992 332.06 43.704 331.836 43.448C331.74 43.448 331.676 43.448 331.58 43.416C331.548 43.512 331.484 43.608 331.452 43.736C331.42 44.12 331.356 44.44 331.324 44.92C331.292 45.176 331.292 45.336 331.292 45.592C331.26 47.256 331.292 48.184 331.26 49.88C331.26 50.808 331.26 51.32 331.196 52.248C331.164 52.6 331.036 52.792 331.004 53.176C331.004 53.272 331.004 53.336 331.004 53.432C331.004 53.624 331.004 53.784 331.004 53.976C331.004 54.04 331.004 54.104 331.004 54.168C330.972 54.488 330.908 54.68 330.876 55.032C330.876 55.096 330.876 55.16 330.876 55.256C330.876 55.288 330.876 55.352 330.876 55.384C330.876 55.512 330.844 55.608 330.812 55.768C330.684 56.088 330.684 56.408 330.364 56.568C330.204 56.632 329.724 56.632 329.212 56.632C328.764 56.632 328.316 56.632 328.092 56.632C327.868 56.6 327.772 56.504 327.612 56.376C327.452 56.184 327.356 56.056 327.324 55.832C327.292 55.64 327.292 55.448 327.292 55.288C327.292 55 327.324 54.744 327.324 54.392C327.324 54.296 327.356 54.232 327.356 54.168C327.42 53.624 327.452 53.304 327.516 52.76C327.548 52.408 327.612 52.216 327.676 51.896C327.708 51.704 327.676 51.608 327.708 51.448C327.772 50.904 327.836 50.584 327.9 50.04C327.932 49.784 327.932 49.624 327.932 49.368C327.964 48.024 327.932 47.256 327.996 45.944C328.028 45.304 328.092 44.952 328.124 44.312C328.124 44.248 328.124 44.216 328.124 44.184C328.124 44.088 328.124 44.024 328.124 43.928C328.124 43.896 328.124 43.864 328.124 43.864C328.156 43.096 328.124 42.648 328.188 41.88C328.22 41.368 328.284 41.08 328.348 40.568C328.38 40.344 328.348 40.216 328.38 40.024C328.412 39.768 328.412 39.608 328.444 39.384C328.508 38.872 328.572 38.584 328.636 38.072C328.7 37.688 328.7 37.464 328.764 37.08C328.796 36.92 328.796 36.824 328.828 36.664C328.956 35.992 328.988 35.576 329.148 35C329.244 34.904 329.372 34.744 329.5 34.648C329.596 34.552 329.724 34.456 329.852 34.36C330.044 34.36 330.236 34.328 330.396 34.328C330.652 34.328 330.876 34.328 331.1 34.328C331.676 34.328 332.252 34.296 332.828 34.168C333.084 34.136 333.34 34.136 333.596 34.136C334.46 34.136 335.356 34.104 336.252 34.104C336.54 34.104 336.828 34.136 337.116 34.296C337.98 34.456 338.652 34.872 339.612 35.32C339.804 35.416 339.868 35.544 340.06 35.704C340.22 35.832 340.38 35.832 340.476 36.024C340.476 36.056 340.508 36.056 340.508 36.088C340.508 36.216 340.412 36.312 340.412 36.408C340.412 36.44 340.412 36.44 340.412 36.472C340.476 36.76 340.604 36.888 340.7 37.176C340.7 37.208 340.732 37.272 340.732 37.304C340.732 37.368 340.7 37.432 340.7 37.496C340.668 37.656 340.668 37.752 340.572 37.912C340.348 38.264 340.188 38.424 339.9 38.744C339.676 38.936 339.516 39.032 339.292 39.224C338.588 39.8 338.108 40.216 337.5 40.696C337.148 40.952 336.796 41.208 336.38 41.368C336.22 41.432 336.06 41.528 335.9 41.624C335.612 41.816 335.356 42.008 335.068 42.2V42.424C335.612 43.128 336.188 43.8 336.828 44.408C337.596 45.176 338.364 45.976 339.132 46.776C339.58 47.224 339.9 47.608 340.412 48.152C340.636 48.408 340.796 48.536 341.02 48.792C341.18 48.984 341.34 49.048 341.436 49.304C341.468 49.336 341.468 49.4 341.468 49.464C341.468 49.528 341.436 49.624 341.436 49.752ZM333.884 39.864C334.204 39.64 334.556 39.448 334.876 39.192C335.42 38.712 335.932 38.2 336.476 37.688C336.572 37.592 336.668 37.464 336.764 37.336C336.668 37.24 336.604 37.144 336.508 37.048C336.284 36.984 336.028 36.952 335.804 36.888C335.452 36.792 335.132 36.76 334.812 36.76C334.492 36.76 334.172 36.792 333.852 36.888C333.692 36.92 333.564 36.92 333.404 36.952C333.084 36.952 332.732 36.952 332.412 36.984C332.348 36.984 332.284 37.016 332.188 37.048C332.124 37.144 332.028 37.272 331.964 37.4C331.932 37.656 331.932 37.912 331.9 38.168C331.9 38.232 331.9 38.328 331.9 38.392C331.9 38.648 331.868 38.904 331.74 39.128C331.708 39.192 331.708 39.256 331.708 39.352C331.676 39.608 331.676 39.896 331.676 40.152C331.676 40.344 331.676 40.536 331.708 40.76C331.74 40.856 331.836 40.92 331.932 40.92C331.964 40.92 332.028 40.92 332.06 40.888C332.348 40.664 332.668 40.504 333.02 40.344C333.308 40.184 333.596 40.024 333.884 39.864ZM358.229 32.568C358.261 32.664 358.293 32.728 358.293 32.888C358.293 33.048 358.293 33.304 358.261 33.72C358.133 33.848 357.973 34.008 357.845 34.136C357.749 34.2 357.685 34.232 357.621 34.232C357.333 34.296 357.045 34.232 356.757 34.36C356.501 34.488 356.181 34.52 355.893 34.584C355.733 34.648 355.541 34.68 355.381 34.68C354.965 34.744 354.645 34.808 354.165 34.872C353.685 34.936 353.365 34.936 352.949 34.968C352.853 35.032 352.725 35.128 352.629 35.192C352.565 35.352 352.533 35.544 352.533 35.704C352.533 35.896 352.565 36.056 352.565 36.216C352.533 36.664 352.565 37.112 352.405 37.528C352.373 37.624 352.341 37.72 352.341 37.816C352.341 37.912 352.373 38.008 352.373 38.136C352.373 38.168 352.373 38.168 352.373 38.2C352.341 39.384 352.341 40.088 352.309 41.272C352.277 41.784 352.245 42.072 352.213 42.584C352.181 42.808 352.149 42.936 352.149 43.16C352.085 44.408 352.117 45.112 352.085 46.36C352.053 47 351.989 47.352 351.957 47.992C351.925 48.28 351.925 48.472 351.925 48.76C351.893 50.264 351.893 51.128 351.861 52.632C351.829 52.92 351.797 53.112 351.765 53.4C351.733 53.688 351.701 53.88 351.701 54.168C351.701 54.2 351.669 54.264 351.669 54.296C351.669 54.52 351.701 54.68 351.701 54.872C351.701 55 351.701 55.16 351.637 55.32C351.477 55.672 350.901 55.832 350.325 55.832C349.685 55.832 349.045 55.672 348.821 55.48C348.661 55.352 348.533 55.352 348.437 55.224C348.117 54.808 347.957 54.584 347.829 54.072C347.797 54.04 347.797 54.008 347.797 53.976C347.797 53.752 347.861 53.624 347.893 53.4C348.053 51.512 348.181 49.72 348.181 47.992C348.181 47.256 348.245 46.232 348.245 45.464C348.245 43.576 348.405 42.456 348.437 40.44C348.437 40.216 348.469 40.12 348.469 39.896C348.533 39.384 348.533 38.744 348.565 38.232C348.565 37.912 348.565 37.624 348.565 37.368C348.565 36.824 348.565 36.344 348.565 35.8C348.533 35.736 348.501 35.672 348.437 35.608C348.341 35.512 348.245 35.416 348.149 35.416C348.117 35.416 348.085 35.448 348.053 35.448C347.829 35.544 347.573 35.576 347.317 35.576C346.869 35.608 346.421 35.608 346.005 35.736C345.781 35.8 345.557 35.832 345.333 35.832C345.141 35.832 344.949 35.8 344.789 35.8C344.725 35.768 344.661 35.736 344.597 35.672C344.405 35.416 344.213 35.16 343.925 34.968C343.797 34.904 343.701 34.776 343.605 34.68C343.541 34.584 343.509 34.488 343.477 34.36C343.477 34.328 343.445 34.296 343.445 34.264C343.445 33.88 343.637 33.528 343.957 33.304C344.149 33.144 344.341 33.08 344.629 32.984C345.141 32.824 345.461 32.792 346.037 32.696C346.709 32.6 347.093 32.568 347.765 32.504C347.893 32.504 347.957 32.504 348.117 32.472C348.693 32.408 349.013 32.344 349.621 32.28C349.685 32.28 349.749 32.248 349.845 32.248C350.453 32.184 350.837 32.152 351.477 32.056C351.893 31.992 352.117 31.928 352.565 31.864C352.981 31.8 353.237 31.864 353.685 31.8C354.133 31.736 354.389 31.672 354.869 31.608C354.933 31.608 354.997 31.576 355.093 31.576C355.637 31.512 356.085 31.416 356.533 31.416C356.629 31.416 356.725 31.416 356.821 31.416C357.141 31.576 357.301 31.864 357.525 32.184C357.749 32.312 357.973 32.44 358.229 32.568ZM373.165 35.512C373.197 35.576 373.197 35.608 373.197 35.672C373.197 35.896 373.005 36.056 372.845 36.248C372.557 36.568 372.397 36.76 371.981 36.856C371.853 36.888 371.757 36.888 371.661 36.888C371.309 36.888 371.021 36.76 370.605 36.728C370.445 36.728 370.349 36.696 370.189 36.696C369.709 36.664 369.453 36.696 368.973 36.664C368.717 36.632 368.525 36.632 368.301 36.568C368.077 36.504 367.821 36.472 367.597 36.472C367.405 36.472 367.181 36.504 366.989 36.504C366.861 36.504 366.733 36.6 366.637 36.728C366.445 37.048 366.349 37.4 366.317 37.784C366.317 38.168 366.157 38.552 366.157 38.968C366.157 39 366.157 39.032 366.157 39.064C366.157 39.16 366.157 39.256 366.157 39.32C366.157 39.704 366.125 40.056 366.125 40.408C366.125 41.176 366.093 41.944 366.093 42.712C366.093 42.936 366.125 43.16 366.125 43.384C366.253 43.448 366.349 43.512 366.445 43.512C366.605 43.512 366.733 43.544 366.893 43.544C367.181 43.544 367.469 43.512 367.757 43.416C367.917 43.352 368.109 43.352 368.301 43.32C368.429 43.32 368.589 43.32 368.717 43.288C369.101 43.16 369.453 43.128 369.837 43.128C369.997 43.128 370.157 43.128 370.317 43.128C370.509 43.128 370.605 43.224 370.765 43.32C370.957 43.416 371.117 43.416 371.277 43.576C371.533 43.832 371.789 43.992 371.821 44.344C371.821 44.376 371.821 44.408 371.821 44.44C371.821 44.76 371.661 44.984 371.405 45.208C371.021 45.56 370.605 45.592 370.221 45.784C370.125 45.848 369.997 45.912 369.901 45.912C369.357 45.912 368.845 46.2 368.269 46.2H368.173C367.853 46.264 367.533 46.328 367.213 46.36C366.893 46.424 366.605 46.424 366.381 46.424C366.189 46.52 366.125 46.68 366.125 46.808C366.125 47.032 366.125 47.256 366.125 47.48C366.125 47.576 366.125 47.704 366.125 47.8C366.125 48.152 366.317 48.44 366.317 48.792C366.349 49.304 366.573 49.688 366.797 50.232C366.861 50.36 366.925 50.456 367.053 50.52C367.405 50.68 367.597 50.808 367.981 50.84C368.109 50.872 368.237 50.872 368.365 50.872C368.717 50.872 369.005 50.808 369.389 50.808C369.421 50.808 369.453 50.808 369.485 50.808C369.901 50.808 370.093 50.84 370.509 50.872C370.829 50.936 370.957 50.904 371.245 51.032C371.469 51.16 371.629 51.16 371.853 51.288C372.141 51.48 372.365 51.576 372.493 51.864C372.525 51.928 372.525 51.96 372.525 51.992C372.525 52.152 372.429 52.28 372.397 52.44C372.365 52.632 372.429 52.792 372.269 52.92C372.013 53.144 371.757 53.144 371.437 53.272C371.149 53.4 370.989 53.592 370.669 53.624C370.029 53.688 369.517 53.72 368.973 53.72C368.621 53.72 368.269 53.72 367.885 53.688C367.405 53.656 367.021 53.592 366.477 53.432C366.029 53.304 365.709 53.176 365.357 52.984C364.813 52.696 364.365 52.344 364.077 51.8C364.013 51.672 363.885 51.576 363.821 51.448C363.725 51.224 363.629 50.968 363.565 50.744C363.437 50.296 363.309 49.976 363.213 49.464C363.117 49.016 363.085 48.728 363.021 48.28C363.021 48.248 363.021 48.248 363.021 48.216C363.021 48.184 363.021 48.152 363.021 48.088V48.056C362.957 47.288 362.893 46.84 362.861 46.072C362.829 45.496 362.829 45.048 362.829 44.568C362.829 44.472 362.829 44.408 362.829 44.312C362.829 43.896 362.829 43.512 362.989 43.128C363.053 42.968 363.021 42.744 363.053 42.584C363.053 42.168 363.053 41.752 363.085 41.368C363.085 41.272 363.085 41.144 363.085 41.048C363.085 41.016 363.085 40.952 363.085 40.92C363.309 40.216 363.245 39.512 363.277 38.84V38.296C363.309 38.104 363.341 37.912 363.373 37.752C363.437 37.592 363.437 37.464 363.469 37.304V36.792C363.117 36.664 362.925 36.6 362.573 36.472C362.221 36.344 361.997 36.376 361.709 36.152C361.389 35.896 361.133 35.704 361.133 35.32C361.133 35.288 361.133 35.288 361.133 35.288C361.133 34.968 361.485 34.904 361.741 34.68C361.997 34.456 362.093 34.264 362.413 34.136C362.701 34.008 362.957 34.008 363.213 34.008C363.277 34.008 363.341 34.008 363.405 34.008C363.757 34.008 364.013 33.88 364.397 33.816C364.781 33.752 364.973 33.624 365.357 33.624C365.357 33.624 365.357 33.624 365.389 33.624C365.645 33.624 365.805 33.752 366.093 33.784C366.349 33.816 366.509 33.816 366.765 33.816C366.861 33.816 366.957 33.816 367.053 33.816C367.309 33.816 367.501 33.816 367.757 33.816C367.853 33.816 367.949 33.816 368.077 33.816C368.237 33.816 368.365 33.816 368.525 33.848C368.909 33.912 369.133 33.976 369.517 34.008C369.901 34.04 370.125 34.008 370.509 34.072C370.797 34.104 370.957 34.2 371.245 34.232C371.309 34.232 371.373 34.232 371.405 34.232C371.469 34.232 371.533 34.232 371.597 34.232C371.693 34.232 371.789 34.264 371.885 34.296C372.205 34.424 372.333 34.616 372.589 34.84C372.845 35.064 372.973 35.288 373.165 35.512ZM390.936 49.752C390.936 49.752 390.936 49.752 390.936 49.784C390.936 49.816 390.936 49.88 390.936 49.912C390.936 49.976 390.936 50.008 390.904 50.072C390.648 50.52 390.488 51.064 390.136 51.128C390.04 51.128 389.944 51.16 389.848 51.16C389.176 51.16 388.984 50.712 388.184 50.456C387.832 50.328 387.704 50.008 387.448 49.784C386.168 48.472 384.856 47.16 383.544 45.88C383.288 45.592 383.032 45.336 382.776 45.08C382.52 44.824 382.264 44.568 382.008 44.28C381.784 43.992 381.56 43.704 381.336 43.448C381.24 43.448 381.176 43.448 381.08 43.416C381.048 43.512 380.984 43.608 380.952 43.736C380.92 44.12 380.856 44.44 380.824 44.92C380.792 45.176 380.792 45.336 380.792 45.592C380.76 47.256 380.792 48.184 380.76 49.88C380.76 50.808 380.76 51.32 380.696 52.248C380.664 52.6 380.536 52.792 380.504 53.176C380.504 53.272 380.504 53.336 380.504 53.432C380.504 53.624 380.504 53.784 380.504 53.976C380.504 54.04 380.504 54.104 380.504 54.168C380.472 54.488 380.408 54.68 380.376 55.032C380.376 55.096 380.376 55.16 380.376 55.256C380.376 55.288 380.376 55.352 380.376 55.384C380.376 55.512 380.344 55.608 380.312 55.768C380.184 56.088 380.184 56.408 379.864 56.568C379.704 56.632 379.224 56.632 378.712 56.632C378.264 56.632 377.816 56.632 377.592 56.632C377.368 56.6 377.272 56.504 377.112 56.376C376.952 56.184 376.856 56.056 376.824 55.832C376.792 55.64 376.792 55.448 376.792 55.288C376.792 55 376.824 54.744 376.824 54.392C376.824 54.296 376.856 54.232 376.856 54.168C376.92 53.624 376.952 53.304 377.016 52.76C377.048 52.408 377.112 52.216 377.176 51.896C377.208 51.704 377.176 51.608 377.208 51.448C377.272 50.904 377.336 50.584 377.4 50.04C377.432 49.784 377.432 49.624 377.432 49.368C377.464 48.024 377.432 47.256 377.496 45.944C377.528 45.304 377.592 44.952 377.624 44.312C377.624 44.248 377.624 44.216 377.624 44.184C377.624 44.088 377.624 44.024 377.624 43.928C377.624 43.896 377.624 43.864 377.624 43.864C377.656 43.096 377.624 42.648 377.688 41.88C377.72 41.368 377.784 41.08 377.848 40.568C377.88 40.344 377.848 40.216 377.88 40.024C377.912 39.768 377.912 39.608 377.944 39.384C378.008 38.872 378.072 38.584 378.136 38.072C378.2 37.688 378.2 37.464 378.264 37.08C378.296 36.92 378.296 36.824 378.328 36.664C378.456 35.992 378.488 35.576 378.648 35C378.744 34.904 378.872 34.744 379 34.648C379.096 34.552 379.224 34.456 379.352 34.36C379.544 34.36 379.736 34.328 379.896 34.328C380.152 34.328 380.376 34.328 380.6 34.328C381.176 34.328 381.752 34.296 382.328 34.168C382.584 34.136 382.84 34.136 383.096 34.136C383.96 34.136 384.856 34.104 385.752 34.104C386.04 34.104 386.328 34.136 386.616 34.296C387.48 34.456 388.152 34.872 389.112 35.32C389.304 35.416 389.368 35.544 389.56 35.704C389.72 35.832 389.88 35.832 389.976 36.024C389.976 36.056 390.008 36.056 390.008 36.088C390.008 36.216 389.912 36.312 389.912 36.408C389.912 36.44 389.912 36.44 389.912 36.472C389.976 36.76 390.104 36.888 390.2 37.176C390.2 37.208 390.232 37.272 390.232 37.304C390.232 37.368 390.2 37.432 390.2 37.496C390.168 37.656 390.168 37.752 390.072 37.912C389.848 38.264 389.688 38.424 389.4 38.744C389.176 38.936 389.016 39.032 388.792 39.224C388.088 39.8 387.608 40.216 387 40.696C386.648 40.952 386.296 41.208 385.88 41.368C385.72 41.432 385.56 41.528 385.4 41.624C385.112 41.816 384.856 42.008 384.568 42.2V42.424C385.112 43.128 385.688 43.8 386.328 44.408C387.096 45.176 387.864 45.976 388.632 46.776C389.08 47.224 389.4 47.608 389.912 48.152C390.136 48.408 390.296 48.536 390.52 48.792C390.68 48.984 390.84 49.048 390.936 49.304C390.968 49.336 390.968 49.4 390.968 49.464C390.968 49.528 390.936 49.624 390.936 49.752ZM383.384 39.864C383.704 39.64 384.056 39.448 384.376 39.192C384.92 38.712 385.432 38.2 385.976 37.688C386.072 37.592 386.168 37.464 386.264 37.336C386.168 37.24 386.104 37.144 386.008 37.048C385.784 36.984 385.528 36.952 385.304 36.888C384.952 36.792 384.632 36.76 384.312 36.76C383.992 36.76 383.672 36.792 383.352 36.888C383.192 36.92 383.064 36.92 382.904 36.952C382.584 36.952 382.232 36.952 381.912 36.984C381.848 36.984 381.784 37.016 381.688 37.048C381.624 37.144 381.528 37.272 381.464 37.4C381.432 37.656 381.432 37.912 381.4 38.168C381.4 38.232 381.4 38.328 381.4 38.392C381.4 38.648 381.368 38.904 381.24 39.128C381.208 39.192 381.208 39.256 381.208 39.352C381.176 39.608 381.176 39.896 381.176 40.152C381.176 40.344 381.176 40.536 381.208 40.76C381.24 40.856 381.336 40.92 381.432 40.92C381.464 40.92 381.528 40.92 381.56 40.888C381.848 40.664 382.168 40.504 382.52 40.344C382.808 40.184 383.096 40.024 383.384 39.864Z" fill="white"/>
</g>
<defs>
<filter id="filter0_g_44_183" x="0.0967522" y="0.94685" width="422.78" height="85.0116" filterUnits="userSpaceOnUse" color-interpolation-filters="sRGB">
<feFlood flood-opacity="0" result="BackgroundImageFix"/>
<feBlend mode="normal" in="SourceGraphic" in2="BackgroundImageFix" result="shape"/>
<feTurbulence type="fractalNoise" baseFrequency="0.015268607065081596 0.015268607065081596" numOctaves="3" seed="8846" />
<feDisplacementMap in="shape" scale="5.1063003540039062" xChannelSelector="R" yChannelSelector="G" result="displacedImage" width="100%" height="100%" />
<feMerge result="effect1_texture_44_183">
<feMergeNode in="displacedImage"/>
</feMerge>
</filter>
</defs>
</svg>
