<svg xmlns="http://www.w3.org/2000/svg" width="154" height="47" fill="none" viewBox="0 0 154 47">
    <g filter="url(#a)">
        <path fill="#ff5cbb" d="M4.186 15a8 8 0 0 1 8-8h127a8 8 0 0 1 8 8v19a8 8 0 0 1-8 8h-127a8 8 0 0 1-8-8z" />
        <path fill="#ff8cd2"
            d="M143.699 4.42c2.715 1.19 4.923 3.285 6.127 6.572l.002.005a11.4 11.4 0 0 1 .64 4.003 605 605 0 0 0-.207 10.99c-.03 2.972-.098 5.663-.185 8.01-.107 3.846-2.194 6.57-3.941 7.91-.622.45-1.223 1.024-3.081 1.788-.934.357-2.189.714-3.868.707l-1.294-.012-3.682-.036c-4.709-.047-12.089-.033-18.89-.019-4.128.009-8.042.017-11.016.01-4.348-.01-8.544-.054-13.106-.102-4.177-.044-8.662-.091-13.85-.118-3.981-.02-7.849-.198-11.78-.397l-1.505-.076c-3.469-.178-7.014-.359-10.849-.463-6.834-.185-12.288-.108-18.327-.024-2.362.034-4.814.068-7.472.088-3.953.03-9.532.027-15.23.019a9.3 9.3 0 0 1-3.006-.503q-.005 0-.008-.003C5.307 41.494 2.834 37.536 2.924 34c0-1.857-.004-3.578-.01-5.092-.03-6.358-.101-8.75-.16-10.744-.022-.75-.043-1.445-.06-2.272L2.68 15c-.257-3.473 2.769-8.602 7.829-9.38l.06-.01c.9-.154 1.627.065 1.617.304-.011.244-.68.422-1.482.562-2.598.424-4.807 2.116-5.954 4.086.116.211-.052.795-.305 1.452-.213.558-.534 1.563-.504 2.986.064 2.662.19 6.769.359 12.16.038-.56.074-1.03.11-1.44.04-.483.076-.853.106-1.17.063-.663.105-1.104.136-1.886.034-1.812.042-4.66.049-7.656V15c.002-.714.307-1.24.54-1.19.237.05.332.574.336 1.19v.065c-.007 2.968-.014 5.908-.052 7.8-.009.482-.02.897-.03 1.208-.008.249-.02.56-.034.732l-.012.122c-.003.029-.02.178-.055.337a2 2 0 0 1-.049.183l-.09.972c-.106 1.256-.241 3.245-.384 7.388L4.864 34c-.295 2.492 2.007 7.417 7.322 7.495 1.74.008 3.586.011 5.526.011a724 724 0 0 0-5.526-.164l-.205-.009a7.243 7.243 0 0 1-6.03-3.875 7 7 0 0 1-.31-.682A6.7 6.7 0 0 1 5.179 34l.01-.238a25 25 0 0 1 .06-.822q.013-.16.026-.306l.004-.04.027-.312.023-.292v-.002a19 19 0 0 0 .038-.662 37 37 0 0 0 .028-.838l.01-.44.008-.45.007-.456a3.3 3.3 0 0 1 .137-.94c.083-.249.192-.387.304-.386.113.002.222.144.303.395.081.25.128.59.132.944l.004.29.001.173.005.471a105 105 0 0 1 .003.972 47 47 0 0 1-.017 1.04 30 30 0 0 1-.035.802l-.022.37-.002.037-.017.3a28 28 0 0 0-.024.512 5.8 5.8 0 0 0 .786 2.865 6.02 6.02 0 0 0 5.162 2.996h.047q2.06-.002 4.13.005 2.1.008 4.214.03c1.403.016 2.86.039 4.267.074 1.034.026 2.095.072 3.076.12q.79.038 1.552.077h.006q.669.035 1.325.067c.938.046 1.86.087 2.782.122a194 194 0 0 0 5.53.131c.928.01 1.838.014 2.795.013 1.258 0 2.507-.008 3.789-.018q1.911-.014 3.843-.033l1.35-.012h.006l2.508-.024q1.939-.018 3.89-.032t3.924-.019c1.316-.002 2.667 0 4.025.014 1.21.012 2.43.028 3.624.044l.945.013c1.495.02 2.943.036 4.374.04 1.43.002 2.86-.007 4.302-.026 1.438-.019 2.895-.047 4.362-.081a746 746 0 0 0 4.415-.118c1.473-.043 2.954-.09 4.452-.139.833-.027 1.72-.052 2.557-.073q1.269-.032 2.514-.058l1.004-.021 1.44-.03q1.198-.026 2.334-.059 1.135-.032 2.2-.078a94 94 0 0 0 2.063-.113c1.762-.09 2.854-.118 4.068-.15q.357-.008.738-.02c1.455-.034 2.909-.06 4.344-.08a520 520 0 0 1 8.625-.048 593 593 0 0 1 8.596.082c.812.013 1.674.031 2.474.05l1.705.04.679.017a391 391 0 0 0 2.231.05 5.4 5.4 0 0 0 1.508-.189 5.23 5.23 0 0 0 2.462-1.498 5.568 5.568 0 0 0 1.244-2.157 5.5 5.5 0 0 0 .231-1.896l-.002-.032a432 432 0 0 0-.27-6.165 99 99 0 0 1-.108-3.25c-.018-.986-.029-1.907-.039-2.804l-.005-.504q-.011-1.085-.024-2.136c-.011-.864-.024-1.712-.039-2.563L144.171 15a5 5 0 0 0-.061-.616 4.65 4.65 0 0 0-1.512-2.74 4.838 4.838 0 0 0-3.412-1.218 285 285 0 0 1-5.757.072c-1.002.003-2.038.003-3.007-.002a3866.75 3866.75 0 0 1-14.038-.101q-2.333-.02-4.663-.042l-1.03-.01-3.622-.032h-.024a3230 3230 0 0 0-6.265-.05 701 701 0 0 0-3.264-.01c-.541 0-1.068 0-1.6.003l-1.502.012-.145.001c-.58.005-1.238.008-1.85.006a1076 1076 0 0 0-9.648 0l-1.903.006q-1.485.006-2.977.01-2.456.008-4.932.004a758 758 0 0 1-9.9-.082 4095.34 4095.34 0 0 1-16.386-.291 6172 6172 0 0 1-8.72-.177l-1.66.06c-3.925.14-6.764.243-10.508.313-.359.01-.65.026-1.005.044l-.213.01c-.464.024-.997.049-1.738.064a74 74 0 0 1-6.673-.18c-.74-.052-1.21-.285-1.051-.521.112-.166.505-.29.984-.33q-1.329-.043-2.65-.087a3.1 3.1 0 0 1-.917-.153c-.234-.086-.354-.197-.334-.31s.18-.218.444-.295a3.5 3.5 0 0 1 .963-.117l2.806.014a1034 1034 0 0 0 5.602.007 1776 1776 0 0 0 5.606-.015l1.69-.006.616-.003.505-.003a5387 5387 0 0 0 10.898-.061 10478 10478 0 0 0 16.347-.118c1.404-.011 2.796-.024 4.19-.037q.824-.034 1.628-.064c1.56-.06 3.123-.139 4.663-.217-2.74.04-4.941.1-7.037.157l-.838.023a276 276 0 0 1-9.274.129c-10.495-.042-16.581-.072-20.373-.128s-5.42-.14-6.941-.306c-2.148-.234-6.295-.367-8.378-.372-.757-.002-1.368-.2-1.365-.442s.62-.436 1.378-.435c2.2.006 6.687.141 9.244.42 1.139.124 2.448.204 6.182.26 3.734.055 9.764.085 20.28.126 3.557.014 6.197-.048 9.007-.125l.833-.023h.005c2.581-.07 5.392-.148 9.181-.182 8.736-.08 20.486-.233 23.275-.32.547-.016 1.076-.035 1.635-.055 2.142-.077 4.728-.17 10.557-.23 1.275-.014 2.768-.022 4.397-.025 2.446-.118 4.82-.228 6.884-.292 1.781-.057 3.424-.16 5.016-.273q.689-.049 1.38-.1a221 221 0 0 1 3.305-.227c.863-.05 1.767-.11 2.722-.174 2.783-.187 6.006-.402 9.965-.483a10 10 0 0 1 3.944.744c4.185 1.7 6.477 5.901 6.389 9.595q-.026 2.923-.057 5.498c.039-2.132.083-3.931.126-5.498a10.5 10.5 0 0 0-.702-4.013c-1.224-3.017-3.193-4.72-5.51-5.752a10.6 10.6 0 0 0-4.19-.852c-6.831.025-9.888.106-13.281.293-1.024.056-2.153.132-3.37.213-2.432.162-5.214.347-8.202.453-2.784.098-5.897.244-9.196.398h-.004l-1.954.09c-4.011.187-8.23.374-12.336.491q-.662.02-1.57.05c-3.486.116-9.607.319-17.081.189-1.642-.029-3.348-.09-5.295-.159l-1.851-.065a491 491 0 0 0-10.636-.257c-3.705-.05-8.22-.075-12.909-.1-2.31-.012-4.661-.025-6.979-.041-7-.049-13.416-.126-19.82-.203h-.005c-.756-.01-1.349-.213-1.322-.455s.662-.43 1.418-.421c6.408.077 12.804.154 19.782.203 2.282.016 4.615.028 6.916.04 4.711.026 9.29.05 13.029.101 4.565.062 7.999.165 10.812.262l1.92.067c1.924.069 3.525.126 5.082.153 7.237.126 13.127-.069 16.626-.184q.932-.032 1.63-.052c4.027-.116 8.18-.3 12.188-.485l1.939-.09h.004c3.298-.155 6.467-.303 9.302-.403 2.878-.102 5.388-.27 7.736-.427 1.26-.084 2.474-.165 3.672-.231 3.606-.2 6.839-.28 13.755-.306a11.4 11.4 0 0 1 4.513.914M17.459 9.246c1.82.11 3.304.133 4.41.126a1209 1209 0 0 1-4.41-.126m92.679-2.16-.891.043 2.469-.02 3.028-.022c-1.604-.003-3.159-.004-4.606 0m32.673-.864a9.1 9.1 0 0 0-3.625-.682c-3.621.077-6.564.274-9.276.455-.994.066-1.958.13-2.912.186q-.593.035-1.19.076l6.201.04c3.026.02 5.296.055 7.177.092a8.4 8.4 0 0 1 3.716.934 8.6 8.6 0 0 1 1.923 1.352c.503.409.98.896 1.393 1.446a8.44 8.44 0 0 1 1.687 4.88l.018.74q.034 1.4.058 2.781a627 627 0 0 1 .043 2.71c.014.884.027 1.744.044 2.534.019.804.04 1.472.073 2.065a373 373 0 0 1 .305 6.734l.027.73.012.329q.005-2.182.015-4.523c.01-2.254.039-4.66.07-7.313.025-2.093.052-4.34.073-6.787.081-3.343-1.967-7.194-5.832-8.779m-12.715 37.156c.632-.002 1.557-.009 2.751-.018l.892-.007h-.022c-.774-.022-1.487-.042-2.258-.06a688 688 0 0 0-8.108-.14 635 635 0 0 0-8.101-.04l-1.294.005c.963.022 1.964.04 3.021.06.844.015 1.724.03 2.65.05q.533.01 1.284.032c1.983.051 5.094.133 9.185.118m-26.92-.019q-.47.01-.933.016-1.316.018-2.571.025l-1.745.01-1.918.01c2.773.027 5.484.047 8.308.053h.113z" />
    </g>
    <!-- <defs>
        <filter id="a" width="152.911" height="46.004" x=".112" y=".954" color-interpolation-filters="sRGB"
            filterUnits="userSpaceOnUse">
            <feFlood flood-opacity="0" result="BackgroundImageFix" />
            <feBlend in="SourceGraphic" in2="BackgroundImageFix" result="shape" />
            <feTurbulence baseFrequency="0.015268607065081596 0.015268607065081596" numOctaves="3" seed="8846"
                type="fractalNoise" />
            <feDisplacementMap width="100%" height="100%" in="shape" result="displacedImage" scale="5.106"
                xChannelSelector="R" yChannelSelector="G" />
            <feMerge result="effect1_texture_59_198">
                <feMergeNode in="displacedImage" />
            </feMerge>
        </filter>
    </defs> -->
</svg>