<svg width="207" height="86" viewBox="0 0 207 86" fill="none" xmlns="http://www.w3.org/2000/svg">
<g filter="url(#filter0_g_59_564)">
<path d="M4.35773 14.5693C4.35773 10.1511 7.93945 6.56934 12.3577 6.56934H192.358C196.776 6.56934 200.358 10.1511 200.358 14.5693V72.5693C200.358 76.9876 196.776 80.5693 192.358 80.5693H12.3577C7.93945 80.5693 4.35773 76.9876 4.35773 72.5693V14.5693Z" fill="#FF109B"/>
<path d="M203.858 22.2352C203.86 25.4175 203.801 28.4008 203.725 32.1686C203.725 32.1706 203.725 32.1726 203.725 32.1746C203.714 32.7129 203.703 33.2677 203.692 33.8409C203.601 38.457 203.495 44.4549 203.433 53.4988C203.381 61.2577 203.222 67.7753 203.043 72.5693C202.993 74.4108 202.465 76.0226 201.78 77.2709C201.166 78.2625 200.644 79.5106 198.111 81.2809C196.831 82.1064 194.951 82.9744 192.358 82.9747C191.743 82.9708 191.082 82.9667 190.369 82.9622C188.763 82.9522 186.895 82.9407 184.707 82.9263C177.466 82.8788 166.118 82.8936 155.662 82.9075C149.315 82.916 143.296 82.9241 138.724 82.9174C132.038 82.9076 125.586 82.8637 118.572 82.8157C112.149 82.7717 105.254 82.7243 97.2763 82.6973C91.155 82.6766 85.2079 82.4989 79.1642 82.3004C78.395 82.2751 77.6226 82.2496 76.8494 82.2239C71.5162 82.0468 66.0642 81.8655 60.1687 81.7616C49.6598 81.5766 41.2738 81.653 31.9887 81.7377C28.3572 81.7708 24.5876 81.8053 20.4994 81.8257C18.1218 81.8376 15.3617 81.8443 12.3577 81.8475C7.8165 82.0302 2.96391 77.8236 3.08069 72.5693C3.08186 71.1162 3.08323 69.6513 3.08467 68.1855C3.08545 67.3905 3.08601 66.5945 3.08681 65.8005C3.08681 65.7965 3.08681 65.7925 3.08681 65.7885C3.09542 57.2456 3.10388 48.8611 3.0851 42.7096C3.05525 32.9347 2.98473 29.2569 2.92573 26.1895C2.90355 25.0364 2.88284 23.9689 2.86677 22.6963C2.8385 20.4575 2.8266 17.6615 2.82309 14.5693C2.71681 10.6936 5.58838 6.48871 9.79557 5.39094C9.82633 5.38236 9.85716 5.37394 9.88805 5.36567C11.2447 5.0013 12.376 5.24813 12.3577 5.48342C12.3438 5.73038 11.305 5.88586 10.0937 6.21781C6.18267 7.2128 3.59916 11.0872 3.69933 14.5693C3.69939 14.6151 3.69944 14.6607 3.6995 14.7063C3.90736 14.8746 4.06471 15.7486 4.06309 16.7962C4.05909 19.4187 4.21569 27.4508 4.47155 40.0215C4.50944 39.1605 4.54631 38.4392 4.58136 37.8072C4.6225 37.0654 4.65787 36.4971 4.68817 36.0084C4.75133 34.99 4.79301 34.3123 4.82361 33.1095C4.8584 30.3236 4.86564 25.945 4.87275 21.3372C4.87461 20.1738 5.07186 19.2342 5.31368 19.2393C5.55556 19.245 5.75033 20.1937 5.74863 21.3573C5.74863 21.3801 5.74863 21.4028 5.74863 21.4256C5.74159 25.9892 5.73445 30.5084 5.69736 33.4187C5.68792 34.1591 5.67675 34.7968 5.66659 35.2757C5.65848 35.6585 5.64746 36.1364 5.63327 36.4019C5.63138 36.4372 5.62757 36.5044 5.62173 36.5846C5.62159 36.5859 5.62145 36.5873 5.6213 36.5886C5.61808 36.6334 5.60175 36.8624 5.56619 37.1066C5.559 37.1559 5.54297 37.2631 5.51705 37.3876C5.51506 37.4198 5.51307 37.4519 5.51107 37.484C5.48339 37.9318 5.45518 38.3887 5.42776 38.8833C5.32067 40.8142 5.18571 43.8727 5.0428 50.242C4.93259 55.1536 4.87336 62.9087 4.85648 72.5693C4.84527 74.3166 5.48406 76.1354 6.73293 77.5401C6.22713 76.9411 5.81612 76.2641 5.52082 75.5435C5.13387 74.6022 4.94606 73.5837 4.96721 72.5693C4.98599 71.5539 5.00413 70.5373 5.02186 69.5205C5.03594 68.7106 5.04973 67.9116 5.0633 67.0974C5.08525 65.7868 5.10679 64.4724 5.12782 63.1586C5.14206 62.2708 5.15605 61.3811 5.17012 60.4926C5.17012 60.4906 5.17012 60.4885 5.17012 60.4865C5.18966 59.2531 5.20931 58.0167 5.22951 56.7706C5.23703 56.3344 5.24425 55.9035 5.2513 55.4757C5.27935 53.7727 5.30659 52.0997 5.35939 50.1737C5.36814 49.9395 5.37945 49.6851 5.38888 49.4952C5.39881 49.2911 5.40892 49.0946 5.41921 48.909C5.42829 48.7452 5.43753 48.589 5.44613 48.4392C5.44727 48.4191 5.44841 48.3991 5.44955 48.379C5.45917 48.2114 5.46806 48.0512 5.47646 47.8972C5.48486 47.7435 5.49295 47.5953 5.49996 47.4495C5.49996 47.4481 5.49996 47.4468 5.49996 47.4455C5.50716 47.293 5.51257 47.1774 5.51876 47.0159C5.52652 46.8131 5.53249 46.6388 5.53842 46.4276C5.54417 46.2234 5.54931 46.0104 5.5538 45.7953C5.55828 45.5802 5.5622 45.3611 5.56576 45.1388C5.56932 44.9163 5.57264 44.6902 5.57559 44.4622C5.57853 44.2345 5.58111 44.0037 5.58371 43.7716C5.5863 43.5395 5.58891 43.3048 5.5914 43.069C5.59717 42.5261 5.64571 42.0056 5.72812 41.6236C5.81053 41.2416 5.91952 41.0289 6.03233 41.0313C6.14515 41.034 6.25357 41.2519 6.33483 41.6376C6.41604 42.0235 6.46316 42.546 6.46728 43.0891C6.46838 43.2369 6.46962 43.3856 6.47069 43.5348C6.47133 43.6233 6.47179 43.7127 6.4724 43.8018C6.47404 44.0412 6.47586 44.2831 6.4771 44.5265C6.47834 44.7697 6.47915 45.0151 6.47967 45.2633C6.48018 45.5121 6.48034 45.7643 6.47967 46.0201C6.47899 46.2753 6.47754 46.5361 6.47497 46.801C6.47254 47.0595 6.4683 47.3544 6.463 47.6181C6.45928 47.8109 6.45292 48.0484 6.44719 48.2465C6.4412 48.4532 6.43451 48.6567 6.42754 48.8528C6.42056 49.0493 6.41315 49.2394 6.40618 49.4209C6.40547 49.4403 6.40475 49.4597 6.40404 49.4791C6.39787 49.6396 6.39186 49.7945 6.38652 49.9409C6.38056 50.1045 6.37548 50.2594 6.37114 50.4066C6.36627 50.5687 6.36434 50.6672 6.36217 50.788C6.34809 52.3854 6.35099 54.3599 6.35362 56.2426C6.35396 56.4791 6.35419 56.7145 6.35448 56.9472C6.35654 58.1838 6.35913 59.4179 6.36174 60.6512C6.36364 61.5474 6.36561 62.4448 6.3673 63.3433C6.36981 64.6654 6.3718 65.9915 6.37328 67.3162C6.37414 68.139 6.3747 68.9467 6.37499 69.7675C6.37535 70.7002 6.37534 71.6343 6.37477 72.5693C6.37334 73.4836 6.57916 74.3856 6.97778 75.2032C7.67628 76.6525 8.99899 77.8139 10.5464 78.3107C11.1211 78.4981 11.7329 78.6004 12.3577 78.6084C13.7338 78.622 15.1191 78.6394 16.4743 78.6615C18.0649 78.6878 19.6955 78.7337 21.2041 78.7811C22.0148 78.8066 22.8088 78.8325 23.5911 78.8584C23.5938 78.8586 23.5964 78.8587 23.5991 78.8588C24.2858 78.8816 24.9636 78.9041 25.6368 78.9255C27.0798 78.9716 28.4974 79.0126 29.9149 79.0473C31.3301 79.0819 32.7392 79.1102 34.1588 79.1319C35.5678 79.1534 37.0004 79.1689 38.4188 79.1784C39.8445 79.1881 41.2441 79.192 42.715 79.1917C44.6489 79.1908 46.5694 79.183 48.5409 79.1737C50.4981 79.1643 52.471 79.1524 54.4492 79.1404C55.1406 79.1362 55.8334 79.1323 56.527 79.128C56.5296 79.128 56.5323 79.128 56.535 79.128C57.8181 79.1201 59.1042 79.1122 60.3915 79.1045C62.3789 79.0928 64.3717 79.0816 66.372 79.0725C68.3719 79.0634 70.3842 79.0563 72.4067 79.0537C74.4296 79.0512 76.5071 79.0527 78.594 79.0669C80.4558 79.0792 82.3323 79.0956 84.167 79.1118C84.6515 79.1161 85.136 79.1203 85.6205 79.1246C87.9193 79.1446 90.1449 79.1605 92.3458 79.1635C94.545 79.1668 96.7427 79.1577 98.9606 79.1387C101.172 79.1197 103.411 79.0913 105.668 79.0571C107.935 79.0227 110.172 78.983 112.455 78.9396C114.721 78.8963 116.997 78.8499 119.301 78.8007C120.582 78.7735 121.945 78.7485 123.232 78.7273C124.532 78.7058 125.823 78.6868 127.099 78.6691C127.616 78.662 128.131 78.6551 128.642 78.6482C129.388 78.6381 130.127 78.6282 130.855 78.6179C132.082 78.6004 133.28 78.5817 134.444 78.5598C135.607 78.5378 136.736 78.5123 137.827 78.4812C138.956 78.4488 139.886 78.4158 140.999 78.3688C143.709 78.278 145.388 78.2502 147.254 78.2188C147.622 78.2126 147.997 78.2061 148.389 78.1992C150.626 78.164 152.862 78.1378 155.068 78.118C157.295 78.0981 159.488 78.0848 161.709 78.077C163.908 78.0692 166.123 78.0674 168.33 78.0706C170.533 78.0737 172.732 78.0821 174.937 78.0958C177.14 78.1094 179.388 78.1287 181.547 78.1522C182.795 78.1657 184.121 78.1837 185.352 78.2022C186.24 78.2154 187.115 78.2294 187.974 78.2432C188.324 78.2488 188.672 78.2544 189.017 78.2598C190.164 78.278 191.279 78.2948 192.358 78.3079C192.388 78.3084 192.417 78.3087 192.447 78.3087C193.254 78.3101 194.026 78.1405 194.721 77.8311C195.418 77.5213 196.037 77.0725 196.545 76.5225C197.065 75.9483 197.413 75.3897 197.692 74.6257C197.868 74.1258 197.97 73.6152 198.003 73.1003C198.014 72.9238 198.017 72.7473 198.012 72.5693C197.994 71.7332 197.976 70.8995 197.958 70.0612C197.934 68.9751 197.91 67.9028 197.885 66.825C197.876 66.4785 197.868 66.1126 197.859 65.765C197.833 64.6911 197.807 63.6295 197.778 62.569C197.75 61.5104 197.72 60.4616 197.689 59.4171C197.657 58.3682 197.624 57.337 197.589 56.2853C197.528 54.4978 197.5 52.7868 197.481 51.2885C197.463 49.7723 197.452 48.3554 197.442 46.9763C197.441 46.718 197.439 46.4597 197.437 46.2014C197.429 45.0889 197.422 43.9948 197.413 42.917C197.402 41.5887 197.389 40.2846 197.374 38.9762C197.358 37.6792 197.34 36.3694 197.319 35.0795C197.298 33.7776 197.275 32.5325 197.247 31.1909C197.219 29.864 197.183 28.5163 197.143 27.0393C197.104 25.5757 197.064 24.0396 197.029 22.4842C196.994 20.9303 196.963 19.3516 196.939 17.7845C196.923 16.7123 196.909 15.6377 196.898 14.5693C196.893 14.2828 196.862 14.0024 196.807 13.7299C196.634 12.8679 196.208 12.0685 195.597 11.4419C194.989 10.813 194.178 10.3631 193.366 10.1782C193.038 10.1019 192.701 10.0622 192.358 10.0602C190.549 10.0542 188.744 10.0468 186.936 10.0388C184.543 10.0282 182.142 10.0164 179.747 10.0038C177.356 9.99127 174.962 9.97817 172.572 9.9645C170.181 9.95084 167.79 9.9368 165.403 9.92263C164.875 9.9195 164.347 9.91637 163.819 9.91323C161.96 9.90218 160.101 9.89112 158.25 9.88033C158.237 9.88019 158.225 9.88005 158.212 9.87991C155.829 9.86619 153.49 9.85284 151.127 9.84145C150.26 9.83738 149.427 9.83354 148.58 9.83034C147.732 9.82716 146.9 9.82457 146.06 9.82265C145.22 9.82075 144.384 9.81969 143.561 9.81966C142.729 9.8197 141.918 9.82069 141.099 9.82351C140.349 9.82598 139.605 9.83043 138.791 9.83504C138.717 9.83547 138.642 9.8359 138.568 9.83633C137.678 9.84141 136.665 9.84464 135.723 9.84231C133.23 9.83541 130.8 9.83215 128.325 9.83248C125.85 9.83279 123.38 9.83657 120.889 9.84188C119.917 9.84393 118.94 9.84645 117.962 9.84872C116.442 9.85225 114.916 9.85579 113.385 9.85854C110.867 9.86312 108.343 9.8652 105.803 9.86239C103.272 9.85959 100.725 9.85169 98.19 9.83804C95.6567 9.82444 93.1014 9.80517 90.5794 9.78078C87.7695 9.75349 84.9759 9.72336 82.1698 9.69191C79.3681 9.66043 76.565 9.62745 73.7742 9.59364C70.9732 9.55979 68.1794 9.52502 65.3846 9.48939C62.5882 9.45375 59.7936 9.41727 56.9971 9.38001C55.3233 9.3577 53.6502 9.33499 51.9762 9.31208C51.0905 9.33264 50.2414 9.35279 49.4246 9.3719C43.389 9.5131 39.0251 9.61494 33.2678 9.68508C32.7164 9.6957 32.2678 9.71083 31.722 9.72908C31.6178 9.73257 31.5074 9.73605 31.3947 9.73977C30.6814 9.76327 29.8623 9.78787 28.7227 9.80343C26.4494 9.83446 22.9649 9.82771 18.4621 9.62312C17.3246 9.57144 16.6008 9.33815 16.846 9.10187C17.0183 8.93614 17.6225 8.81298 18.3597 8.77203C16.9976 8.74391 15.6392 8.7145 14.2844 8.68529C13.7435 8.67359 13.2358 8.61922 12.875 8.53276C12.5145 8.44628 12.33 8.33519 12.3611 8.22257C12.3923 8.10992 12.6377 8.00426 13.0437 7.92734C13.4495 7.8505 13.982 7.80888 14.5253 7.8107C15.9665 7.81571 17.4028 7.82079 18.8395 7.82437C20.2773 7.82799 21.7084 7.83011 23.1437 7.8312C24.5786 7.83231 26.013 7.83217 27.4519 7.8312C28.8852 7.83019 30.3214 7.82857 31.7601 7.82608C33.208 7.82364 34.6286 7.82023 36.0723 7.81668C36.9373 7.8145 37.8127 7.81236 38.6721 7.80984C38.9924 7.80898 39.305 7.80779 39.6177 7.80685C39.8733 7.80608 40.1302 7.80545 40.3946 7.80471C43.1764 7.79613 45.9848 7.78652 48.7681 7.77609C51.5645 7.76571 54.3581 7.75473 57.1516 7.74319C59.9467 7.73165 62.7393 7.71935 65.5332 7.70687C68.3257 7.69438 71.1165 7.68147 73.9127 7.66799C76.6986 7.65447 79.4957 7.64064 82.2862 7.62569C84.4447 7.61414 86.5848 7.60174 88.7284 7.58852C89.5724 7.56592 90.4075 7.54457 91.2319 7.52401C93.6313 7.46416 96.0339 7.38562 98.4008 7.30781C94.1881 7.3465 90.804 7.40693 87.5821 7.46462C87.1502 7.47235 86.7211 7.48012 86.2933 7.48769C81.9264 7.56497 77.7078 7.63039 72.0336 7.61587C55.8958 7.57454 46.5385 7.54439 40.7078 7.48812C34.8781 7.43185 32.3733 7.34844 30.0356 7.18263C26.7324 6.9483 20.3569 6.81501 17.1531 6.81006C15.9894 6.80826 15.05 6.61057 15.0553 6.3687C15.0609 6.12677 16.0092 5.93196 17.1732 5.93375C20.5561 5.93898 27.455 6.07445 31.3867 6.35332C33.1379 6.47754 35.1516 6.55768 40.8925 6.61309C46.6339 6.6685 55.9049 6.69816 72.0738 6.73956C77.5437 6.75357 81.6035 6.69126 85.9239 6.6148C86.3476 6.6073 86.7743 6.59944 87.2047 6.59173C87.2074 6.59173 87.2101 6.59173 87.2127 6.59173C91.1814 6.52064 95.5026 6.44316 101.33 6.40886C114.761 6.32981 132.828 6.17657 137.117 6.09013C137.958 6.07316 138.772 6.05411 139.63 6.03416C142.924 5.95757 146.901 5.86521 155.863 5.80386C157.823 5.79045 160.119 5.78265 162.624 5.77908C166.384 5.66118 170.034 5.5518 173.208 5.48684C175.948 5.43078 178.474 5.32765 180.921 5.21467C181.626 5.18215 182.335 5.14813 183.043 5.11427C184.751 5.03259 186.46 4.95096 188.124 4.88782C189.452 4.83749 190.841 4.77702 192.31 4.71307C192.326 4.71238 192.342 4.71169 192.358 4.711C196.717 4.376 202.522 8.07016 202.651 14.5693C202.699 16.8882 202.729 19.3794 202.73 22.0726C202.734 30.9298 202.683 38.5128 202.634 45.0531C202.691 40.25 202.759 36.5422 202.82 33.4534C202.831 32.8708 202.842 32.3126 202.853 31.7751C202.929 27.979 202.984 25.2191 202.982 22.2613C202.979 19.3502 202.975 16.8139 202.966 14.5693C202.668 6.88138 196.348 3.91508 192.358 4.09459C190.552 4.13467 188.909 4.18429 187.211 4.24523C185.637 4.30172 183.9 4.37699 182.029 4.458C178.29 4.61991 174.013 4.80502 169.418 4.91089C165.138 5.00949 160.351 5.15505 155.279 5.3091C155.277 5.3091 155.275 5.3091 155.273 5.3091C154.282 5.3392 153.279 5.36962 152.268 5.4001C146.101 5.58596 139.614 5.77285 133.3 5.8906C132.625 5.90319 131.816 5.92056 130.887 5.94059C125.526 6.0562 116.115 6.25915 104.622 6.12901C102.098 6.10042 99.4749 6.03984 96.4816 5.97049C95.5699 5.94937 94.6232 5.92718 93.6349 5.90512C89.3681 5.80992 84.184 5.70878 77.2814 5.64791C71.5847 5.59769 64.642 5.5736 57.4327 5.54836C53.8816 5.53593 50.2658 5.52301 46.7023 5.50692C35.9383 5.4583 26.0726 5.38119 16.2257 5.30397C16.2236 5.30397 16.2216 5.30397 16.2196 5.30397C15.0563 5.29485 14.1451 5.09114 14.186 4.84937C14.2273 4.60772 15.2034 4.41904 16.3662 4.42809C26.2189 4.50535 36.0545 4.58259 46.7826 4.63104C50.2919 4.64689 53.8794 4.65967 57.4166 4.67206C64.661 4.69743 71.7003 4.72177 77.45 4.77246C84.4701 4.83436 89.7491 4.93743 94.0746 5.03394C95.1163 5.05719 96.0958 5.07992 97.0257 5.10145C99.9859 5.17 102.447 5.22729 104.841 5.25441C115.969 5.38042 125.024 5.18554 130.405 5.06983C131.36 5.04931 132.198 5.03146 132.913 5.01814C139.103 4.9027 145.49 4.71888 151.651 4.5332C152.651 4.50307 153.645 4.47302 154.632 4.44305C154.634 4.4429 154.636 4.44276 154.638 4.44262C159.709 4.28859 164.583 4.14058 168.942 4.04014C173.368 3.9382 177.227 3.77028 180.837 3.61331C182.774 3.52908 184.64 3.4483 186.482 3.38216C188.422 3.31254 190.292 3.25729 192.358 3.21382C196.82 3.0153 203.574 6.43974 203.842 14.5693C203.851 16.8217 203.855 19.3507 203.858 22.2352ZM20.4656 8.81432C23.2653 8.92412 25.5464 8.94727 27.2451 8.93994C25.8024 8.915 24.3632 8.88883 22.9229 8.86175C22.1031 8.84635 21.2843 8.83054 20.4656 8.81432ZM162.968 6.65453C162.514 6.66879 162.057 6.6832 161.599 6.69769C162.865 6.69083 164.131 6.68444 165.395 6.67803C166.947 6.67017 168.499 6.66274 170.05 6.65539C167.584 6.65251 165.193 6.65168 162.968 6.65453ZM201.853 22.0927C201.852 19.366 201.821 16.8777 201.771 14.5693C201.661 9.29046 197.346 5.87743 193.494 5.6344C193.112 5.60117 192.734 5.59276 192.358 5.60718C191.183 5.65785 190.032 5.70633 188.891 5.7496C188.283 5.77267 187.675 5.79817 187.062 5.82523C188.92 5.83237 190.7 5.83971 192.358 5.8468C194.025 5.85002 195.557 6.34199 196.758 7.05783C199.875 8.9266 201.051 12.0968 201.001 14.5693C200.966 17.9073 200.924 20.4603 200.886 22.8214C200.867 23.9808 200.849 25.0952 200.832 26.2323C200.862 27.1731 200.891 28.15 200.916 29.1372C200.953 30.5194 200.987 32.0135 201.017 33.4354C201.047 34.8626 201.073 36.313 201.095 37.7375C201.118 39.1738 201.137 40.5969 201.153 42.0136C201.169 43.3466 201.182 44.6751 201.194 45.9605C201.195 46.0341 201.196 46.1077 201.196 46.1813C201.21 47.5399 201.223 48.8616 201.24 50.076C201.259 51.3122 201.28 52.3399 201.312 53.2519C201.353 54.3909 201.392 55.5594 201.428 56.7149C201.464 57.8717 201.498 59.0236 201.529 60.172C201.561 61.3228 201.59 62.4623 201.618 63.6049C201.627 63.9743 201.636 64.3608 201.645 64.7271C201.649 64.8959 201.653 65.0647 201.657 65.233C201.66 62.9979 201.665 60.6773 201.672 58.2788C201.682 54.8139 201.711 51.1149 201.742 47.0345C201.796 40.0737 201.858 32.0032 201.853 22.0927ZM178.381 81.9466C179.353 81.9444 180.776 81.9375 182.611 81.9287C183.045 81.9266 183.503 81.9241 183.983 81.9219C183.971 81.9216 183.96 81.9216 183.948 81.9214C182.76 81.8991 181.662 81.8796 180.477 81.8616C178.366 81.8296 176.314 81.8022 174.242 81.7787C172.162 81.7552 170.087 81.7359 168.01 81.7206C165.931 81.7053 163.845 81.6943 161.777 81.6877C159.689 81.6812 157.631 81.6786 155.554 81.6817C154.892 81.6827 154.228 81.6843 153.564 81.6864C155.046 81.7085 156.584 81.7267 158.21 81.7458C159.507 81.7611 160.861 81.7771 162.285 81.7962C162.83 81.8036 163.489 81.8148 164.258 81.8279C167.307 81.8798 172.091 81.9614 178.381 81.9466ZM136.99 81.9278C136.508 81.9336 136.028 81.9389 135.554 81.9432C134.205 81.9555 132.89 81.9626 131.601 81.968C130.696 81.9718 129.801 81.9745 128.919 81.9774C128.547 81.9786 128.175 81.98 127.807 81.9812C127.19 81.9834 126.578 81.9859 125.97 81.9885C130.234 82.0149 134.401 82.0351 138.744 82.0415C138.802 82.0416 138.859 82.0414 138.917 82.0415C138.26 82.0028 137.617 81.9649 136.99 81.9278Z" fill="#FF8CD2"/>
</g>
<defs>
<filter id="filter0_g_59_564" x="0.267101" y="0.652416" width="206.144" height="84.8753" filterUnits="userSpaceOnUse" color-interpolation-filters="sRGB">
<feFlood flood-opacity="0" result="BackgroundImageFix"/>
<feBlend mode="normal" in="SourceGraphic" in2="BackgroundImageFix" result="shape"/>
<feTurbulence type="fractalNoise" baseFrequency="0.015268607065081596 0.015268607065081596" numOctaves="3" seed="8846" />
<feDisplacementMap in="shape" scale="5.1063003540039062" xChannelSelector="R" yChannelSelector="G" result="displacedImage" width="100%" height="100%" />
<feMerge result="effect1_texture_59_564">
<feMergeNode in="displacedImage"/>
</feMerge>
</filter>
</defs>
</svg>
