<svg xmlns="http://www.w3.org/2000/svg" width="154" height="47" fill="none" viewBox="0 0 154 47">
    <g filter="url(#a)">
        <path fill="#ff109b" d="M4.544 15a8 8 0 0 1 8-8h127a8 8 0 0 1 8 8v19a8 8 0 0 1-8 8h-127a8 8 0 0 1-8-8z" />
        <path fill="#ff8cd2"
            d="M144.057 4.42c2.716 1.19 4.924 3.285 6.127 6.572l.002.005a11.4 11.4 0 0 1 .64 4.003 598 598 0 0 0-.206 10.99c-.031 2.972-.099 5.663-.186 8.01-.107 3.846-2.194 6.57-3.941 7.91-.621.45-1.222 1.024-3.08 1.788a10.4 10.4 0 0 1-3.869.707l-1.294-.012-3.682-.036c-4.709-.047-12.089-.033-18.89-.019-4.127.009-8.042.017-11.015.01-4.349-.01-8.545-.054-13.106-.102-4.178-.044-8.662-.091-13.85-.118-3.982-.02-7.85-.198-11.78-.397l-1.506-.076c-3.468-.178-7.014-.359-10.848-.463-6.835-.185-12.29-.108-18.328-.024-2.362.034-4.813.068-7.472.088-3.953.03-9.532.027-15.229.019a9.3 9.3 0 0 1-3.015-.506C5.665 41.494 3.192 37.536 3.283 34c-.001-1.857-.004-3.578-.012-5.092-.03-6.358-.1-8.75-.159-10.744-.022-.75-.043-1.445-.059-2.272L3.038 15c-.257-3.473 2.769-8.602 7.829-9.38l.061-.01c.899-.154 1.626.065 1.616.304-.01.244-.679.422-1.482.562-2.598.424-4.806 2.116-5.954 4.086.117.211-.052.795-.305 1.452-.213.558-.534 1.563-.504 2.986.065 2.662.19 6.769.359 12.16.038-.56.075-1.03.11-1.44.04-.483.076-.853.107-1.17.063-.663.104-1.104.135-1.886.035-1.812.042-4.66.05-7.656V15c.001-.714.306-1.24.54-1.19.236.05.33.574.335 1.19v.065c-.007 2.968-.014 5.908-.051 7.8-.01.482-.02.897-.031 1.208-.008.249-.02.56-.033.732l-.012.122c-.004.029-.02.178-.055.337a2 2 0 0 1-.05.183l-.006.062c-.027.291-.055.589-.083.91-.107 1.256-.242 3.245-.385 7.388L5.223 34c-.295 2.492 2.006 7.417 7.321 7.495 1.74.008 3.587.011 5.527.011a726 726 0 0 0-5.527-.164l-.205-.009a7.243 7.243 0 0 1-4.756-2.132l-.002-.002a7.2 7.2 0 0 1-1.58-2.423A6.7 6.7 0 0 1 5.535 34l.01-.238a25 25 0 0 1 .06-.822l.026-.306.004-.04.027-.312.023-.292v-.002a19 19 0 0 0 .039-.662 37 37 0 0 0 .027-.838l.01-.44.008-.45.008-.456a3.3 3.3 0 0 1 .136-.94c.083-.249.192-.387.305-.386s.22.144.302.395c.081.25.128.59.133.944l.003.29.002.173.004.471a104 104 0 0 1 .003.972 47 47 0 0 1-.017 1.04 30 30 0 0 1-.035.802l-.021.37-.003.037-.017.3a29 29 0 0 0-.023.512 5.8 5.8 0 0 0 .785 2.865 6.02 6.02 0 0 0 5.163 2.996h.046q2.061-.002 4.13.005 2.101.008 4.214.03c1.403.016 2.86.039 4.267.074 1.035.026 2.095.072 3.076.12q.79.038 1.553.077h.005q.669.035 1.325.067c.939.046 1.86.087 2.782.122a194 194 0 0 0 5.531.131c.927.01 1.838.014 2.794.013 1.258 0 2.507-.008 3.79-.018q1.91-.014 3.842-.033l1.351-.012h.005l2.508-.024q1.94-.018 3.89-.032t3.925-.019c1.315-.002 2.666 0 4.024.014 1.21.012 2.431.028 3.624.044l.946.013c1.495.02 2.942.036 4.373.04 1.43.002 2.86-.007 4.303-.026q2.159-.03 4.362-.081c1.474-.035 2.93-.074 4.414-.118 1.474-.043 2.954-.09 4.452-.139.833-.027 1.72-.052 2.557-.073q1.269-.032 2.515-.058l1.004-.021 1.438-.03q1.199-.026 2.335-.059 1.135-.032 2.2-.078a94 94 0 0 0 2.063-.113c1.762-.09 2.855-.118 4.068-.15q.358-.008.738-.02c1.455-.034 2.909-.06 4.344-.08a520 520 0 0 1 8.625-.048 592 592 0 0 1 8.596.082c.812.013 1.674.031 2.475.05l1.705.04.679.017a389 389 0 0 0 2.23.05 5.4 5.4 0 0 0 1.508-.189 5.2 5.2 0 0 0 1.341-.579c.428-.265.757-.53 1.121-.919a5.7 5.7 0 0 0 .621-.807 5.455 5.455 0 0 0 .854-3.246l-.001-.032-.081-2.078a413 413 0 0 0-.19-4.087 98 98 0 0 1-.107-3.25c-.019-.986-.029-1.907-.039-2.804l-.006-.504q-.011-1.085-.024-2.136a522 522 0 0 0-.07-4.109 4.8 4.8 0 0 0-.558-2.08 4.7 4.7 0 0 0-1.015-1.276 4.838 4.838 0 0 0-3.412-1.218 285 285 0 0 1-5.757.072c-1.002.003-2.037.003-3.006-.002a3865.102 3865.102 0 0 1-14.039-.101q-2.333-.02-4.662-.042l-1.03-.01-3.622-.032h-.025a3230 3230 0 0 0-6.265-.05 700 700 0 0 0-3.264-.01c-.54 0-1.068 0-1.6.003l-1.502.012-.145.001c-.579.005-1.238.008-1.85.006a1076 1076 0 0 0-9.647 0l-1.904.006q-1.483.006-2.977.01-2.456.008-4.931.004a758 758 0 0 1-9.901-.082c-1.828-.027-3.644-.057-5.47-.088a4095 4095 0 0 1-10.916-.203 6172 6172 0 0 1-8.72-.177l-1.66.06c-3.925.14-6.763.243-10.508.313-.358.01-.65.026-1.005.044l-.213.01c-.464.024-.997.049-1.738.064a74 74 0 0 1-6.673-.18c-.74-.052-1.21-.285-1.05-.521.111-.166.504-.29.984-.33q-1.33-.043-2.65-.087a3.1 3.1 0 0 1-.918-.153c-.234-.086-.354-.197-.334-.31s.18-.218.444-.295.61-.118.964-.117l2.806.014a1034 1034 0 0 0 5.6.007 1776 1776 0 0 0 5.607-.015l1.691-.006.615-.003.505-.003a5387 5387 0 0 0 10.899-.061 10486 10486 0 0 0 16.346-.118c1.404-.011 2.796-.024 4.19-.037q.824-.034 1.628-.064c1.56-.06 3.123-.139 4.663-.217-2.74.04-4.941.1-7.036.157l-.839.023a276 276 0 0 1-9.274.129c-10.495-.042-16.58-.072-20.373-.128-3.791-.056-5.42-.14-6.94-.306-2.15-.234-6.296-.367-8.38-.372-.756-.002-1.367-.2-1.364-.442.004-.242.62-.436 1.378-.435 2.2.006 6.687.141 9.244.42 1.139.124 2.448.204 6.182.26 3.734.055 9.764.085 20.28.126 3.557.014 6.197-.048 9.007-.125l.833-.023h.005c2.581-.07 5.392-.148 9.182-.182 8.735-.08 20.485-.233 23.274-.32.548-.016 1.077-.035 1.635-.055 2.142-.077 4.729-.17 10.557-.23 1.275-.014 2.768-.022 4.398-.025 2.445-.118 4.819-.228 6.883-.292 1.782-.057 3.425-.16 5.016-.273q.69-.049 1.38-.1a221 221 0 0 1 3.305-.227c.863-.05 1.767-.11 2.722-.174 2.783-.187 6.007-.402 9.965-.483a10 10 0 0 1 3.944.744c4.185 1.7 6.478 5.901 6.389 9.595q-.026 2.923-.057 5.498c.039-2.132.083-3.931.127-5.498a10.5 10.5 0 0 0-.703-4.013c-1.224-3.017-3.193-4.72-5.51-5.752a10.6 10.6 0 0 0-4.19-.852c-6.831.025-9.887.106-13.281.293-1.024.056-2.153.132-3.37.213-2.432.162-5.213.347-8.202.453-2.784.098-5.897.244-9.196.398h-.004l-1.954.09c-4.01.187-8.23.374-12.336.491q-.661.02-1.57.05c-3.486.116-9.606.319-17.081.189a295 295 0 0 1-5.294-.159l-1.852-.065a491 491 0 0 0-10.636-.257c-3.705-.05-8.22-.075-12.909-.1-2.31-.012-4.66-.025-6.978-.041-7-.049-13.417-.126-19.821-.203h-.004c-.757-.01-1.35-.213-1.323-.455s.662-.43 1.418-.421c6.408.077 12.805.154 19.782.203 2.282.016 4.615.028 6.916.04 4.711.026 9.29.05 13.029.101 4.566.062 7.999.165 10.812.262l1.92.067c1.925.069 3.525.126 5.082.153 7.238.126 13.127-.069 16.626-.184q.933-.032 1.631-.052c4.026-.116 8.18-.3 12.187-.485l1.939-.09h.004c3.298-.155 6.467-.303 9.303-.403 2.878-.102 5.388-.27 7.736-.427a317 317 0 0 1 3.671-.231c3.606-.2 6.84-.28 13.755-.306a11.4 11.4 0 0 1 4.513.914M17.817 9.246c1.821.11 3.305.133 4.41.126a1209 1209 0 0 1-4.41-.126m92.679-2.16-.89.043 2.469-.02 3.027-.022c-1.604-.003-3.158-.004-4.606 0m32.673-.864a9.1 9.1 0 0 0-3.625-.682c-3.62.077-6.564.274-9.275.455-.995.066-1.959.13-2.913.186q-.593.035-1.19.076l6.201.04c3.027.02 5.296.055 7.177.092a8.4 8.4 0 0 1 3.716.934 8.6 8.6 0 0 1 1.923 1.352c.503.409.98.896 1.393 1.446a8.42 8.42 0 0 1 1.687 4.88l.019.74q.033 1.4.057 2.781c.016.867.029 1.731.041 2.567l.003.144c.013.883.026 1.743.044 2.533.018.804.039 1.472.072 2.065a373 373 0 0 1 .305 6.734l.027.73.012.329q.005-2.182.015-4.523c.011-2.254.039-4.66.071-7.313.024-2.093.051-4.34.072-6.787.081-3.343-1.966-7.194-5.832-8.779m-12.715 37.156c.632-.002 1.558-.009 2.751-.018l.892-.007h-.022c-.773-.022-1.487-.042-2.258-.06a687 687 0 0 0-8.108-.14 634 634 0 0 0-9.395-.035c.964.022 1.964.04 3.021.06.844.015 1.725.03 2.651.05q.532.01 1.283.032c1.983.051 5.094.133 9.185.118m-26.919-.019q-.471.01-.934.016-1.315.018-2.571.025l-1.744.01-1.918.01c2.773.027 5.483.047 8.308.053h.112z" />
    </g>
    <!-- <defs>
        <filter id="a" width="152.911" height="46.004" x=".47" y=".954" color-interpolation-filters="sRGB"
            filterUnits="userSpaceOnUse">
            <feFlood flood-opacity="0" result="BackgroundImageFix" />
            <feBlend in="SourceGraphic" in2="BackgroundImageFix" result="shape" />
            <feTurbulence baseFrequency="0.015268607065081596 0.015268607065081596" numOctaves="3" seed="8846"
                type="fractalNoise" />
            <feDisplacementMap width="100%" height="100%" in="shape" result="displacedImage" scale="5.106"
                xChannelSelector="R" yChannelSelector="G" />
            <feMerge result="effect1_texture_107_82">
                <feMergeNode in="displacedImage" />
            </feMerge>
        </filter>
    </defs> -->
</svg>