<svg xmlns="http://www.w3.org/2000/svg" width="207" height="86" fill="none" viewBox="0 0 207 86">
    <g filter="url(#a)">
        <path fill="#ff5cbb" d="M4.358 14.57a8 8 0 0 1 8-8h180a8 8 0 0 1 8 8v58a8 8 0 0 1-8 8h-180a8 8 0 0 1-8-8z" />
        <path fill="#ff8cd2"
            d="M203.858 22.235c.002 3.183-.057 6.166-.133 9.934v.006l-.033 1.666c-.091 4.616-.197 10.614-.259 19.658-.052 7.759-.211 14.276-.39 19.07a10.4 10.4 0 0 1-1.263 4.702c-.614.992-1.136 2.24-3.669 4.01a10.37 10.37 0 0 1-5.753 1.694l-1.989-.013c-1.606-.01-3.474-.021-5.662-.036-7.241-.047-18.589-.032-29.045-.019-6.347.009-12.366.017-16.938.01-6.686-.01-13.138-.053-20.152-.101-6.423-.044-13.318-.092-21.296-.119-6.121-.02-12.068-.198-18.112-.397l-2.315-.076c-5.333-.177-10.785-.359-16.68-.462-10.51-.185-18.895-.109-28.18-.024-3.632.033-7.401.067-11.49.088-2.377.012-5.137.018-8.141.022-4.542.182-9.394-4.024-9.277-9.279 0-1.453.002-2.918.004-4.383l.002-2.386v-.011c.008-8.543.017-16.928-.002-23.08-.03-9.774-.1-13.452-.16-16.52-.021-1.153-.042-2.22-.058-3.493a746 746 0 0 1-.044-8.127c-.106-3.875 2.765-8.08 6.973-9.178l.092-.025c1.357-.365 2.488-.118 2.47.117-.014.247-1.053.403-2.264.735-3.911.995-6.495 4.87-6.395 8.351v.137c.208.169.366 1.043.364 2.09-.004 2.623.153 10.655.409 23.226.037-.861.074-1.583.11-2.215.04-.742.076-1.31.106-1.799a68 68 0 0 0 .136-2.899c.034-2.785.042-7.164.049-11.772.002-1.163.199-2.103.44-2.098.243.006.437.955.436 2.118v.069c-.007 4.563-.015 9.082-.052 11.993-.01.74-.02 1.378-.03 1.857-.009.382-.02.86-.034 1.126l-.011.183v.004c-.004.044-.02.273-.056.518-.007.049-.023.156-.049.28l-.006.097c-.028.448-.056.905-.083 1.4-.107 1.93-.242 4.989-.385 11.358-.11 4.912-.17 12.667-.187 22.327a7.48 7.48 0 0 0 1.877 4.971 7.436 7.436 0 0 1-1.766-4.97 2883 2883 0 0 0 .16-9.411l.043-2.666v-.007l.081-5.01c.028-1.703.056-3.376.108-5.302a59 59 0 0 1 .06-1.265l.027-.47.004-.06.05-.93v-.003a44 44 0 0 0 .038-1.018 88 88 0 0 0 .028-1.29l.01-.676.008-.69.007-.703a7.7 7.7 0 0 1 .137-1.445c.083-.382.192-.595.304-.593.113.003.222.22.303.607.081.386.128.908.132 1.451l.004.446.001.267.005.724a245 245 0 0 1 .003 1.494 111 111 0 0 1-.017 1.598 70 70 0 0 1-.035 1.235l-.022.568-.002.058-.017.462a67 67 0 0 0-.025.847c-.014 1.597-.011 3.572-.008 5.455v.704l.008 3.704.005 2.692a5089 5089 0 0 1 .008 9.226 6 6 0 0 0 .603 2.634 6.1 6.1 0 0 0 3.568 3.108 6.1 6.1 0 0 0 1.812.297c1.376.014 2.761.031 4.116.053 1.59.027 3.221.073 4.73.12a1441 1441 0 0 1 4.433.144c1.443.047 2.86.088 4.278.122a463 463 0 0 0 8.504.131c1.425.01 2.825.014 4.296.014 1.934-.001 3.854-.009 5.826-.018 1.957-.01 3.93-.022 5.908-.034l2.078-.012h.008l3.857-.023q2.98-.018 5.98-.032t6.035-.02c2.023-.002 4.1 0 6.187.014 1.862.012 3.738.029 5.573.045l1.454.013c2.298.02 4.524.035 6.725.038 2.199.004 4.397-.005 6.615-.024 2.211-.02 4.45-.048 6.707-.082 2.267-.034 4.504-.074 6.787-.117 2.266-.044 4.542-.09 6.846-.14 1.281-.026 2.644-.051 3.931-.073q1.952-.031 3.867-.058l1.543-.02 2.213-.031a792 792 0 0 0 3.589-.058q1.746-.033 3.383-.079c1.129-.032 2.059-.065 3.172-.112 2.71-.091 4.389-.119 6.255-.15l1.135-.02c2.237-.035 4.473-.061 6.679-.081a1219 1219 0 0 1 13.262-.047 1374 1374 0 0 1 17.022.131l2.622.041 1.043.017a903 903 0 0 0 3.43.049 5.6 5.6 0 0 0 2.274-.478 5.56 5.56 0 0 0 2.971-3.205 5.7 5.7 0 0 0 .32-2.057l-.054-2.508-.073-3.236-.026-1.06a1021 1021 0 0 0-.27-9.48 233 233 0 0 1-.108-4.996 917 917 0 0 1-.039-4.313l-.005-.775q-.011-1.668-.024-3.284a992.69 992.69 0 0 0-.166-11.726 697 697 0 0 0-.104-4.152c-.039-1.463-.079-3-.114-4.555a655 655 0 0 1-.131-7.915 4.584 4.584 0 0 0-4.54-4.51q-2.712-.008-5.422-.02a8656 8656 0 0 1-14.364-.075l-7.169-.041-1.584-.01q-2.79-.016-5.569-.033h-.038a7533 7533 0 0 0-9.632-.05 1713 1713 0 0 0-5.019-.01c-.832 0-1.643 0-2.462.004-.75.002-1.494.006-2.308.011l-.223.001c-.89.005-1.903.009-2.845.006-2.493-.007-4.923-.01-7.398-.01s-4.945.005-7.436.01l-2.927.007-4.577.01c-2.518.004-5.042.006-7.582.003a1783 1783 0 0 1-15.224-.081 9562.308 9562.308 0 0 1-25.195-.291 14491 14491 0 0 1-13.408-.178l-2.551.06c-6.036.141-10.4.243-16.157.313-.552.01-1 .026-1.546.044l-.327.01c-.714.024-1.533.049-2.672.064-2.274.031-5.758.025-10.26-.18-1.138-.052-1.862-.285-1.617-.521.172-.166.776-.289 1.514-.33q-2.042-.043-4.076-.087c-.54-.011-1.048-.066-1.409-.152-.36-.087-.545-.198-.514-.31.031-.113.277-.219.683-.296a8 8 0 0 1 1.481-.116q2.16.008 4.315.013a2445 2445 0 0 0 8.612.007 4199 4199 0 0 0 8.62-.014l2.6-.007.946-.003.777-.002a12669 12669 0 0 0 16.757-.062 24775 24775 0 0 0 25.134-.117l6.442-.037q1.267-.034 2.504-.065c2.4-.06 4.802-.138 7.169-.216-4.213.038-7.597.099-10.819.157l-1.289.023a652 652 0 0 1-14.26.128c-16.137-.041-25.495-.072-31.325-.128s-8.335-.14-10.672-.305c-3.304-.235-9.68-.368-12.883-.373-1.164-.002-2.103-.2-2.098-.441.006-.242.954-.437 2.118-.435 3.383.005 10.282.14 14.214.42 1.75.124 3.765.204 9.505.26 5.742.054 15.013.084 31.182.126 5.47.014 9.53-.049 13.85-.125l1.28-.023h.009c3.968-.071 8.29-.149 14.117-.183 13.431-.08 31.498-.232 35.787-.319.841-.017 1.655-.036 2.513-.056 3.294-.076 7.271-.169 16.233-.23 1.96-.014 4.256-.021 6.761-.025 3.76-.118 7.41-.227 10.584-.292 2.74-.056 5.266-.16 7.713-.272l2.122-.1c1.708-.082 3.417-.164 5.081-.227 1.328-.05 2.717-.111 4.186-.175l.048-.002c4.359-.335 10.164 3.36 10.293 9.858.048 2.32.078 4.81.079 7.504.004 8.857-.047 16.44-.096 22.98a1407 1407 0 0 1 .219-13.278c.076-3.796.131-6.556.129-9.514-.003-2.91-.007-5.447-.016-7.692-.298-7.688-6.618-10.654-10.608-10.474-1.806.04-3.449.09-5.147.15-1.574.057-3.311.132-5.182.213-3.739.162-8.016.347-12.611.453-4.28.098-9.067.244-14.139.398h-.006l-3.005.091c-6.167.186-12.654.373-18.968.49l-2.413.05c-5.361.116-14.772.32-26.265.189-2.524-.029-5.147-.09-8.14-.159l-2.847-.065c-4.267-.095-9.451-.196-16.354-.257-5.696-.05-12.639-.074-19.848-.1-3.551-.012-7.167-.025-10.73-.041a8917 8917 0 0 1-30.477-.203h-.006c-1.164-.01-2.075-.213-2.034-.455.041-.241 1.017-.43 2.18-.42 9.853.076 19.688.154 30.417.202 3.509.016 7.096.029 10.634.041 7.244.025 14.283.05 20.033.1 7.02.062 12.3.165 16.625.262l2.95.067c2.96.069 5.422.126 7.816.153 11.128.126 20.183-.068 25.564-.184q1.434-.031 2.508-.052c6.19-.115 12.577-.3 18.738-.485l2.981-.09h.006c5.071-.154 9.945-.302 14.304-.403 4.426-.102 8.285-.27 11.895-.427 1.937-.084 3.803-.165 5.645-.23 1.94-.07 3.81-.126 5.876-.17 4.462-.198 11.216 3.227 11.484 11.356.009 2.253.013 4.782.016 7.666M20.466 8.815c2.8.11 5.08.132 6.78.125a2853 2853 0 0 1-6.78-.126m142.502-2.16-1.369.043 3.796-.02 4.655-.023c-2.466-.002-4.857-.003-7.082 0m38.885 15.438a352 352 0 0 0-.082-7.524c-.11-5.279-4.425-8.692-8.277-8.935a9 9 0 0 0-1.136-.027c-1.175.05-2.326.1-3.467.143q-.91.034-1.829.075l5.296.022a8.7 8.7 0 0 1 4.4 1.21c3.117 1.87 4.293 5.04 4.243 7.512-.035 3.338-.077 5.891-.115 8.252l-.054 3.411a776.893 776.893 0 0 1 .263 11.505q.034 2.153.058 4.277a1481 1481 0 0 1 .043 4.167c.014 1.359.027 2.68.044 3.895.019 1.236.04 2.264.072 3.176a721 721 0 0 1 .217 6.92c.032 1.15.061 2.29.089 3.433l.027 1.122.012.506c.003-2.235.008-4.556.015-6.954.01-3.465.039-7.164.07-11.245.054-6.96.116-15.03.111-24.941m-23.472 59.854c.972-.003 2.395-.01 4.23-.018l1.372-.007h-.035a946 946 0 0 0-3.471-.06 1624 1624 0 0 0-12.467-.141 1499 1499 0 0 0-14.446-.035c1.482.022 3.02.04 4.646.06 1.297.015 2.651.031 4.075.05l1.973.032c3.049.052 7.833.133 14.123.119m-41.391-.02q-.724.01-1.436.016c-1.349.013-2.664.02-3.953.025l-2.682.01q-.559 0-1.112.003l-1.837.008c4.264.026 8.431.046 12.774.052h.173z" />
    </g>
    <!-- <defs>
        <filter id="a" width="197.144" height="84.8" x=".095" y=".158" color-interpolation-filters="sRGB"
            filterUnits="userSpaceOnUse">
            <feFlood flood-opacity="0" result="BackgroundImageFix" />
            <feBlend in="SourceGraphic" in2="BackgroundImageFix" result="shape" />
            <feTurbulence baseFrequency="0.015268607065081596 0.015268607065081596" numOctaves="3" seed="8846"
                type="fractalNoise" />
            <feDisplacementMap width="100%" height="100%" in="shape" result="displacedImage" scale="5.106"
                xChannelSelector="R" yChannelSelector="G" />
            <feMerge result="effect1_texture_59_217">
                <feMergeNode in="displacedImage" />
            </feMerge>
        </filter>
    </defs> -->
</svg>