<svg width="423" height="86" viewBox="0 0 423 86" fill="none" xmlns="http://www.w3.org/2000/svg">
<g filter="url(#filter0_g_44_183)">
<path d="M4.18579 15C4.18579 10.5817 7.76751 7 12.1858 7H409.186C413.604 7 417.186 10.5817 417.186 15V73C417.186 77.4183 413.604 81 409.186 81H12.1858C7.7675 81 4.18579 77.4183 4.18579 73V15Z" fill="#FF109B"/>
<path d="M377.546 3.50008C383.352 3.49758 388.796 3.55714 395.671 3.63253C395.674 3.63253 395.678 3.63253 395.682 3.63253C396.664 3.6433 397.676 3.65458 398.722 3.66585C401.819 3.69923 405.257 3.73475 409.186 3.76935C414.355 3.61247 420.386 8.20943 420.323 15C420.3 18.8742 420.279 23.1303 420.261 27.8389C420.194 46.0731 419.949 60.5499 419.715 69.3899C419.688 70.3856 419.669 71.4025 419.653 73C419.636 74.3528 419.4 76.1082 418.316 78.0637C416.997 80.4468 414.003 83.3652 409.186 83.4054C408.064 83.4015 406.857 83.3973 405.556 83.3929C402.627 83.3829 399.217 83.3714 395.226 83.357C382.014 83.3095 361.308 83.3243 342.228 83.3382C330.648 83.3467 319.664 83.3547 311.322 83.348C299.122 83.3382 287.349 83.2943 274.552 83.2463C262.831 83.2024 250.25 83.155 235.693 83.128C224.524 83.1073 213.672 82.9296 202.644 82.7311C201.241 82.7058 199.831 82.6803 198.421 82.6546C188.689 82.4775 178.741 82.2961 167.984 82.1923C148.808 82.0072 133.507 82.0837 116.564 82.1684C109.938 82.2015 103.06 82.2359 95.6001 82.2564C83.803 82.2888 66.8435 82.2822 49.8146 82.2731C48.3641 82.2723 46.9114 82.2717 45.4628 82.2709C45.4555 82.2709 45.4482 82.2709 45.4409 82.2709C33.6433 82.2644 22.0112 82.258 12.1858 82.2634C8.4867 82.2951 5.27031 79.9835 3.89161 77.1498C3.21522 75.808 2.90675 74.3655 2.90604 73C2.87314 57.9065 2.80851 51.7575 2.7538 46.5666C2.73162 44.4627 2.71091 42.5148 2.69483 40.1928C2.65002 33.7173 2.64635 24.6871 2.65199 15C2.61315 11.6236 4.59208 8.24375 7.6432 6.62367C7.69426 6.59593 7.7456 6.56864 7.79722 6.54181C10.0892 5.34367 12.2381 5.69087 12.1857 5.91408C12.177 6.16971 10.2072 6.2465 8.16625 7.33771C5.31712 8.80185 3.49111 11.9158 3.52823 15C3.52608 18.6955 3.5253 22.2651 3.52756 25.6135C3.73542 25.9206 3.89277 27.5154 3.89116 29.4268C3.88715 34.2121 4.04376 48.868 4.29962 71.8056C4.3375 70.2344 4.37437 68.9184 4.40942 67.7652C4.45056 66.4115 4.48593 65.3746 4.51624 64.483C4.57939 62.6246 4.62107 61.3882 4.65168 59.1934C4.68647 54.11 4.69371 46.1205 4.70081 37.7128C4.70267 35.5899 4.89993 33.8754 5.14174 33.8848C5.38362 33.8951 5.57839 35.6262 5.57669 37.7494C5.57669 37.791 5.57669 37.8325 5.57669 37.874C5.56965 46.2012 5.56251 54.4472 5.52542 59.7576C5.51598 61.1086 5.50481 62.2722 5.49466 63.146C5.48654 63.8445 5.47552 64.7164 5.46133 65.201C5.45944 65.2653 5.45563 65.388 5.4498 65.5343C5.44965 65.5368 5.44951 65.5392 5.44937 65.5416C5.44614 65.6234 5.42981 66.0411 5.39425 66.4867C5.38707 66.5767 5.37103 66.7724 5.34512 66.9996C5.34312 67.0582 5.34113 67.1168 5.33914 67.1754C5.31146 67.9925 5.28325 68.8262 5.25582 69.7286C5.22772 70.6533 5.19769 71.7198 5.1661 73C4.99424 75.2842 6.66642 79.9449 12.1858 80.2505C13.6852 80.2717 15.3098 80.2932 17.0735 80.3149C27.7625 80.4464 45.8325 80.5053 68.3794 80.5063C66.8561 80.4882 65.3295 80.4707 63.8041 80.4538C59.9651 80.4114 56.1087 80.3727 52.2506 80.3359C50.7727 80.3218 49.3148 80.308 47.8292 80.2944C45.4377 80.2725 43.0396 80.2509 40.6421 80.2299C39.0222 80.2157 37.3988 80.2017 35.7775 80.1876C35.7738 80.1876 35.7702 80.1876 35.7665 80.1876C33.516 80.1681 31.2598 80.1484 28.986 80.1282C28.1902 80.1207 27.404 80.1135 26.6233 80.1064C23.5159 80.0784 20.4633 80.0511 16.949 79.9983C16.5216 79.9896 16.0573 79.9783 15.7108 79.9688C15.3384 79.9589 14.98 79.9488 14.6412 79.9385C14.3423 79.9294 14.0572 79.9202 13.7841 79.9116C13.7474 79.9105 13.7108 79.9093 13.6742 79.9082C13.3683 79.8986 13.0761 79.8897 12.795 79.8813C12.5872 79.875 12.3849 79.869 12.1858 79.8634C12.1255 79.8615 12.0659 79.8588 12.0067 79.8555C12.0046 79.8554 12.0025 79.8554 12.0004 79.8553C11.7627 79.8411 11.5819 79.8228 11.3321 79.7863C11.0199 79.7389 10.7531 79.6821 10.4377 79.5935C10.1325 79.507 9.82028 79.3955 9.51561 79.2603C9.2107 79.1252 8.91001 78.9655 8.619 78.7813C8.3278 78.5971 8.04556 78.3876 7.77937 78.1559C7.51333 77.9244 7.26153 77.6694 7.03054 77.3946C6.79942 77.1199 6.58776 76.8239 6.4007 76.5117C5.96566 75.7926 5.7481 75.0037 5.70906 74.4234C5.66913 73.8401 5.77151 73.5182 5.8809 73.5142C5.99644 73.5089 6.11413 73.8138 6.30593 74.3127C6.49741 74.8121 6.77455 75.4608 7.16301 76.0794C7.26807 76.2481 7.38229 76.4123 7.50499 76.571C7.57784 76.6653 7.65409 76.7583 7.73293 76.8485C7.94486 77.0909 8.17906 77.3185 8.43148 77.5265C8.68366 77.7344 8.95485 77.9234 9.24283 78.0898C9.53159 78.2567 9.83797 78.4013 10.1588 78.5198C10.4788 78.6381 10.8159 78.7314 11.1652 78.7949C11.4824 78.8533 11.8476 78.8896 12.1858 78.8936C12.2194 78.894 12.2527 78.8944 12.2858 78.8947C12.6375 78.8984 13.0709 78.9048 13.4324 78.9105C13.8096 78.9165 14.1808 78.9232 14.5386 78.9302C14.8973 78.9372 15.2441 78.9446 15.5753 78.9516C15.6107 78.9523 15.6462 78.953 15.6815 78.9537C15.9743 78.9599 16.2569 78.9659 16.5241 78.9712C16.8226 78.9772 17.1053 78.9822 17.3739 78.9866C17.6697 78.9915 17.8495 78.9934 18.0699 78.9956C20.9845 79.0096 24.5873 79.0067 28.0226 79.0041C28.4544 79.0038 28.8837 79.0035 29.3084 79.0033C31.5648 79.0012 33.8166 78.9986 36.0669 78.996C37.7023 78.9941 39.3398 78.9921 40.9791 78.9904C43.3915 78.9879 45.8113 78.9859 48.2285 78.9845C49.7297 78.9836 51.2036 78.983 52.7012 78.9827C56.6118 78.9819 60.535 78.9831 64.4635 78.9883C68.3864 78.9935 72.3341 79.0027 76.2844 79.0182C80.2196 79.0337 84.3079 79.0569 88.2555 79.0921C91.1578 79.1185 94.1332 79.1644 96.8859 79.2117C98.3653 79.2373 99.8139 79.2632 101.241 79.2891C101.246 79.2892 101.251 79.2894 101.256 79.2895C102.509 79.3123 103.746 79.3348 104.974 79.3562C107.607 79.4022 110.194 79.4433 112.78 79.4779C115.363 79.5126 117.934 79.5408 120.524 79.5625C123.095 79.584 125.709 79.5996 128.297 79.6091C130.899 79.6187 133.452 79.6226 136.136 79.6223C139.665 79.6215 143.169 79.6137 146.767 79.6044C150.338 79.5949 153.938 79.5831 157.547 79.5711C158.809 79.5669 160.073 79.563 161.339 79.5587C161.344 79.5587 161.349 79.5587 161.353 79.5587C163.695 79.5508 166.041 79.5428 168.39 79.5352C172.017 79.5234 175.653 79.5122 179.303 79.5031C182.952 79.4941 186.624 79.487 190.314 79.4843C194.005 79.4819 197.796 79.4834 201.604 79.4976C205.001 79.5099 208.425 79.5262 211.773 79.5424C212.657 79.5467 213.541 79.551 214.425 79.5553C218.62 79.5753 222.681 79.5912 226.696 79.5941C230.709 79.5975 234.719 79.5884 238.766 79.5694C242.801 79.5504 246.886 79.522 251.005 79.4878C255.141 79.4534 259.224 79.4137 263.39 79.3703C267.524 79.327 271.677 79.2805 275.881 79.2314C278.218 79.2042 280.705 79.1792 283.054 79.1579C285.426 79.1364 287.782 79.1174 290.109 79.0998C291.053 79.0926 291.993 79.0858 292.926 79.0789C294.286 79.0688 295.635 79.0589 296.963 79.0485C299.203 79.0311 301.389 79.0124 303.512 78.9904C305.635 78.9685 307.695 78.943 309.685 78.9118C311.744 78.8794 313.442 78.8465 315.472 78.7994C320.418 78.7087 323.482 78.6808 326.887 78.6495C327.557 78.6433 328.243 78.6367 328.956 78.6298C333.039 78.5947 337.118 78.5685 341.144 78.5486C345.208 78.5288 349.209 78.5154 353.261 78.5076C357.274 78.4999 361.316 78.498 365.342 78.5012C369.362 78.5044 373.375 78.5128 377.398 78.5264C381.418 78.54 385.521 78.5594 389.46 78.5828C391.737 78.5963 394.156 78.6143 396.402 78.6328C398.022 78.6461 399.62 78.6601 401.186 78.6738C401.826 78.6794 402.461 78.685 403.091 78.6905C405.182 78.7086 407.217 78.7255 409.186 78.7386C409.24 78.7391 409.294 78.7388 409.348 78.7378C410.819 78.7148 412.2 78.1101 413.202 77.137C414.211 76.1648 414.821 74.853 414.923 73.494C414.936 73.3268 414.942 73.1634 414.941 73C414.932 71.3296 414.92 69.8457 414.9 68.0089C414.885 66.6522 414.87 65.323 414.855 63.9977C414.833 62.0137 414.81 60.044 414.786 58.0598C414.762 56.0782 414.738 54.1215 414.713 52.1548C414.704 51.5226 414.696 50.8549 414.687 50.2207C414.661 48.2613 414.635 46.3242 414.606 44.389C414.578 42.4574 414.548 40.5436 414.517 38.6379C414.485 36.724 414.453 34.8423 414.417 32.9234C414.356 29.6617 414.328 26.5398 414.309 23.8058C414.291 21.0392 414.28 18.4539 414.27 15.9374C414.269 15.625 414.268 15.3125 414.267 15C414.266 14.8971 414.263 14.7962 414.256 14.6947C414.176 13.4039 413.589 12.1983 412.676 11.343C411.724 10.4452 410.467 9.96116 409.186 9.97723C408.821 9.97948 408.457 9.98178 408.092 9.98415C405.726 9.99943 403.336 10.0174 400.982 10.0384C398.607 10.0597 396.335 10.0828 393.887 10.111C391.466 10.1388 389.007 10.175 386.311 10.2144C383.641 10.2536 380.838 10.2938 378 10.3289C375.165 10.3642 372.284 10.3947 369.424 10.4187C366.559 10.4428 363.684 10.461 360.849 10.4738C357.999 10.4867 355.166 10.4942 352.347 10.4977C349.535 10.5012 346.63 10.5006 343.911 10.4964C339.508 10.4897 335.125 10.4801 330.734 10.4695C326.368 10.4589 321.988 10.447 317.617 10.4345C313.254 10.4219 308.886 10.4088 304.525 10.3952C300.162 10.3815 295.8 10.3675 291.444 10.3533C290.48 10.3502 289.517 10.347 288.553 10.3439C285.161 10.3328 281.77 10.3218 278.392 10.311C278.369 10.3109 278.345 10.3107 278.322 10.3106C273.975 10.2969 269.706 10.2835 265.395 10.2721C263.812 10.268 262.292 10.2642 260.747 10.261C259.2 10.2578 257.682 10.2552 256.149 10.2533C254.615 10.2514 253.09 10.2504 251.589 10.2503C250.071 10.2504 248.591 10.2514 247.098 10.2542C245.729 10.2566 244.37 10.2611 242.885 10.2657C242.75 10.2661 242.614 10.2666 242.479 10.267C240.854 10.2721 239.006 10.2753 237.288 10.273C232.738 10.2661 228.304 10.2628 223.789 10.2631C219.272 10.2635 214.766 10.2672 210.221 10.2725C208.446 10.2746 206.663 10.2771 204.88 10.2794C202.106 10.2829 199.321 10.2865 196.528 10.2892C191.933 10.2938 187.328 10.2959 182.693 10.2931C178.075 10.2902 173.428 10.2824 168.802 10.2687C164.179 10.2551 159.517 10.2358 154.915 10.2114C149.788 10.1842 144.69 10.154 139.57 10.1226C134.458 10.0911 129.343 10.0581 124.251 10.0243C119.14 9.99045 114.042 9.95568 108.943 9.92006C103.84 9.88441 98.7409 9.84794 93.6381 9.81068C90.5841 9.78837 87.5311 9.76565 84.4766 9.74274C82.8605 9.7633 81.3112 9.78345 79.8207 9.80256C68.8079 9.94376 60.8451 10.0456 50.3398 10.1157C49.3337 10.1264 48.5152 10.1415 47.5192 10.1597C47.3292 10.1632 47.1277 10.1667 46.9221 10.1704C45.6206 10.1939 44.1259 10.2185 42.0465 10.2341C37.8984 10.2651 31.5404 10.2584 23.3242 10.0538C21.2488 10.0021 19.9281 9.76882 20.3754 9.53253C20.6899 9.3668 21.7922 9.24364 23.1374 9.20269C20.6521 9.17458 18.1735 9.14517 15.7013 9.11596C14.7145 9.10426 13.7881 9.04988 13.1297 8.96343C12.4718 8.87694 12.1351 8.76586 12.192 8.65324C12.2488 8.54058 12.6967 8.43492 13.4374 8.358C14.1779 8.28117 15.1495 8.23955 16.1408 8.24136C18.7706 8.24638 21.3915 8.25145 24.0129 8.25503C26.6365 8.25866 29.2477 8.26077 31.8667 8.26187C34.4849 8.26297 37.1022 8.26283 39.7278 8.26187C42.343 8.26086 44.9636 8.25923 47.5888 8.25674C50.2308 8.25431 52.8229 8.25089 55.4572 8.24734C57.0356 8.24517 58.6329 8.24302 60.201 8.24051C60.7854 8.23964 61.3557 8.23846 61.9263 8.23751C62.3927 8.23674 62.8615 8.23612 63.344 8.23538C68.4198 8.22679 73.5444 8.21718 78.6229 8.20675C83.7255 8.19637 88.8229 8.1854 93.9202 8.17385C99.0202 8.16231 104.116 8.15002 109.214 8.13754C114.309 8.12504 119.402 8.11213 124.504 8.09866C129.587 8.08513 134.691 8.0713 139.783 8.05636C143.721 8.04481 147.626 8.0324 151.538 8.01919C153.077 7.99658 154.601 7.97523 156.106 7.95467C160.484 7.89482 164.868 7.81629 169.187 7.73848C161.5 7.77716 155.325 7.83759 149.446 7.89528C148.658 7.90302 147.875 7.91078 147.094 7.91835C139.126 7.99564 131.429 8.06106 121.075 8.04653C91.6286 8.00521 74.5545 7.97505 63.9154 7.91878C53.2782 7.86251 48.7078 7.77911 44.4422 7.61329C38.4148 7.37896 26.7817 7.24568 20.9359 7.24072C18.8123 7.23893 17.0983 7.04124 17.1079 6.79936C17.1182 6.55743 18.8486 6.36262 20.9725 6.36441C27.1452 6.36964 39.7334 6.50511 46.9075 6.78398C50.1028 6.90821 53.7772 6.98835 64.2524 7.04375C74.7287 7.09916 91.6453 7.12882 121.148 7.17022C131.129 7.18423 138.537 7.12193 146.42 7.04546C147.193 7.03797 147.972 7.0301 148.757 7.02239C148.762 7.02239 148.767 7.02239 148.772 7.02239C156.013 6.95131 163.898 6.87382 174.531 6.83953C199.038 6.76048 232.005 6.60724 239.83 6.52079C241.366 6.50383 242.851 6.48477 244.416 6.46482C250.427 6.38824 257.683 6.29587 274.036 6.23453C277.613 6.22111 281.803 6.21332 286.374 6.20975C293.234 6.09184 299.895 5.98246 305.686 5.9175C310.684 5.86144 315.294 5.75832 319.76 5.64534C321.046 5.61281 322.34 5.5788 323.632 5.54493C326.748 5.46326 329.865 5.38162 332.903 5.31849C335.325 5.26816 337.861 5.20768 340.541 5.14374C350.304 4.91081 362.003 4.63169 377.249 4.62804C389.087 4.6252 399.677 4.65147 409.186 4.68506C413.722 4.64981 417.708 7.8296 418.938 11.7524C417.465 7.20172 413.079 4.60056 409.186 4.64793C404.964 4.61119 401.298 4.57328 398.015 4.53789C396.952 4.52643 395.934 4.51529 394.953 4.50456C388.026 4.42875 382.99 4.37364 377.593 4.37595C351.815 4.38703 342.146 4.4613 331.236 4.67589C328.364 4.73239 325.195 4.80766 321.782 4.88866C314.959 5.05057 307.155 5.23569 298.77 5.34156C290.96 5.44016 282.225 5.58572 272.97 5.73976C272.967 5.73976 272.963 5.73976 272.959 5.73976C271.151 5.76986 269.321 5.80029 267.476 5.83077C256.223 6.01663 244.388 6.20351 232.866 6.32126C231.634 6.33385 230.158 6.35122 228.463 6.37125C218.682 6.48686 201.509 6.68981 180.539 6.55967C175.933 6.53108 171.146 6.47051 165.685 6.40116C164.021 6.38004 162.294 6.35784 160.49 6.33579C152.705 6.24058 143.246 6.13944 130.65 6.07858C120.256 6.02835 107.588 6.00427 94.433 5.97903C87.9534 5.9666 81.3557 5.95368 74.8535 5.93758C55.2126 5.88897 37.211 5.81185 19.2435 5.73464C19.2398 5.73464 19.2362 5.73464 19.2325 5.73464C17.1099 5.72551 15.4472 5.5218 15.5218 5.28003C15.5971 5.03839 17.3783 4.84971 19.4999 4.85876C37.478 4.93602 55.4246 5.01325 75.0001 5.0617C81.4034 5.07755 87.9494 5.09033 94.4037 5.10272C107.622 5.1281 120.467 5.15243 130.958 5.20313C143.768 5.26503 153.4 5.36809 161.293 5.46461C163.193 5.48785 164.981 5.51058 166.677 5.53212C172.079 5.60066 176.569 5.65796 180.938 5.68507C201.243 5.81109 217.766 5.6162 227.584 5.5005C229.326 5.47998 230.856 5.46212 232.16 5.4488C243.455 5.33336 255.109 5.14955 266.351 4.96386C268.175 4.93374 269.99 4.90369 271.791 4.87371C271.795 4.87357 271.798 4.87343 271.802 4.87328C281.055 4.71926 289.947 4.57124 297.902 4.47081C305.977 4.36886 313.019 4.20095 319.606 4.04398C323.14 3.95974 326.545 3.87896 329.907 3.81283C341.48 3.58517 351.684 3.51118 377.546 3.50008ZM26.98 9.24499C32.0885 9.35478 36.2508 9.37793 39.3504 9.3706C36.718 9.34566 34.0919 9.31949 31.4637 9.29241C29.9679 9.27701 28.4738 9.26121 26.98 9.24499ZM287 7.0852C286.173 7.09945 285.339 7.11386 284.502 7.12835C286.812 7.12149 289.122 7.11511 291.429 7.1087C294.261 7.10083 297.093 7.0934 299.924 7.08605C295.423 7.08318 291.061 7.08235 287 7.0852ZM377.286 5.50434C362.908 5.50779 352.163 5.76334 342.475 5.99398C339.685 6.0604 336.979 6.12464 334.302 6.18027C333.192 6.20334 332.083 6.22883 330.965 6.25589C337.477 6.26962 343.462 6.28405 348.361 6.29605C362.982 6.33187 371.303 6.40651 378.615 6.47208C380.731 6.49105 382.764 6.50919 384.839 6.52549C386.556 6.49608 388.338 6.46692 390.139 6.44132C392.662 6.40514 395.388 6.37042 397.982 6.34091C400.587 6.31122 403.233 6.28467 405.832 6.2623C406.954 6.25264 408.072 6.24367 409.186 6.23528C410.815 6.2205 412.447 6.67516 413.83 7.52936C416.122 8.92042 417.679 11.4099 417.965 13.9908C417.983 14.1392 417.996 14.2851 418.006 14.4337C418.019 14.6235 418.026 14.8102 418.027 15C418.04 17.2984 418.052 19.5307 418.068 21.5933C418.087 23.849 418.108 25.7242 418.141 27.3884C418.181 29.4667 418.22 31.5988 418.256 33.7073C418.292 35.818 418.326 37.9198 418.357 40.0152C418.389 42.1152 418.418 44.1943 418.446 46.2792C418.455 46.9533 418.464 47.6584 418.473 48.3269C418.477 48.6349 418.481 48.9429 418.485 49.25C418.488 45.1716 418.493 40.9373 418.5 36.5609C418.51 30.2385 418.539 23.4889 418.57 16.0437C418.572 15.6973 418.573 15.3494 418.575 15C418.735 10.2994 414.53 5.49384 409.186 5.56118C399.767 5.52762 389.263 5.50147 377.286 5.50434ZM383.684 82.3773C385.457 82.375 388.053 82.3682 391.402 82.3594C392.194 82.3573 393.029 82.3548 393.904 82.3525C393.883 82.3523 393.862 82.3523 393.842 82.3521C391.672 82.3298 389.67 82.3103 387.508 82.2923C383.655 82.2603 379.911 82.2329 376.13 82.2094C372.335 82.1859 368.549 82.1666 364.76 82.1513C360.965 82.136 357.158 82.125 353.386 82.1184C349.576 82.1118 345.821 82.1093 342.03 82.1124C340.823 82.1134 339.611 82.115 338.4 82.1171C341.104 82.1392 343.911 82.1573 346.876 82.1765C349.245 82.1918 351.715 82.2078 354.313 82.2269C355.307 82.2342 356.51 82.2454 357.914 82.2585C363.476 82.3104 372.205 82.3921 383.684 82.3773ZM308.157 82.3585C307.277 82.3643 306.403 82.3696 305.538 82.3739C303.076 82.3862 300.677 82.3932 298.325 82.3987C296.673 82.4025 295.041 82.4052 293.431 82.4081C292.752 82.4093 292.074 82.4106 291.402 82.4119C290.276 82.414 289.159 82.4166 288.05 82.4192C295.829 82.4456 303.434 82.4658 311.359 82.4722C311.463 82.4722 311.568 82.4721 311.674 82.4722C310.474 82.4335 309.303 82.3956 308.157 82.3585Z" fill="#FF8CD2"/>
</g>
<defs>
<filter id="filter0_g_44_183" x="0.0967522" y="0.94685" width="422.78" height="85.0116" filterUnits="userSpaceOnUse" color-interpolation-filters="sRGB">
<feFlood flood-opacity="0" result="BackgroundImageFix"/>
<feBlend mode="normal" in="SourceGraphic" in2="BackgroundImageFix" result="shape"/>
<feTurbulence type="fractalNoise" baseFrequency="0.015268607065081596 0.015268607065081596" numOctaves="3" seed="8846" />
<feDisplacementMap in="shape" scale="5.1063003540039062" xChannelSelector="R" yChannelSelector="G" result="displacedImage" width="100%" height="100%" />
<feMerge result="effect1_texture_44_183">
<feMergeNode in="displacedImage"/>
</feMerge>
</filter>
</defs>
</svg>
