<svg width="154" height="47" viewBox="0 0 154 47" fill="none" xmlns="http://www.w3.org/2000/svg">
<g filter="url(#filter0_g_107_82)">
<path d="M4.54407 15C4.54407 10.5817 8.12579 7 12.5441 7H139.544C143.962 7 147.544 10.5817 147.544 15V34C147.544 38.4183 143.962 42 139.544 42H12.5441C8.12579 42 4.54407 38.4183 4.54407 34V15Z" fill="#FF109B"/>
<path d="M144.057 4.42055C146.773 5.61026 148.981 7.70529 150.184 10.9922C150.185 10.9939 150.185 10.9957 150.186 10.9974C150.351 11.4673 150.491 11.9638 150.597 12.4817C150.757 13.2658 150.844 14.1098 150.826 15C150.749 17.7435 150.669 21.2138 150.62 25.9909C150.589 28.9618 150.521 31.6528 150.434 34C150.327 37.8463 148.24 40.5691 146.493 41.9101C145.872 42.3604 145.271 42.9336 143.413 43.6981C142.478 44.0546 141.224 44.4122 139.544 44.4054C139.144 44.4015 138.714 44.3973 138.25 44.3929C137.206 44.3829 135.991 44.3714 134.568 44.357C129.859 44.3095 122.479 44.3243 115.678 44.3382C111.551 44.3467 107.636 44.3547 104.663 44.348C100.314 44.3382 96.118 44.2943 91.5565 44.2463C87.3791 44.2024 82.8947 44.155 77.7062 44.128C73.7251 44.1073 69.8572 43.9296 65.9266 43.7311C65.4264 43.7058 64.924 43.6803 64.4212 43.6546C60.9526 43.4775 57.4068 43.2961 53.5726 43.1923C46.7379 43.0072 41.2839 43.0837 35.2452 43.1684C32.8834 43.2015 30.4317 43.2359 27.7729 43.2564C23.82 43.2868 18.2411 43.2829 12.5441 43.2747C12.1226 43.2741 11.7041 43.2456 11.285 43.1881C10.6912 43.1067 10.1038 42.9672 9.53744 42.7721C9.53458 42.7712 9.53171 42.7702 9.52885 42.7692C5.66502 41.4939 3.19247 37.5362 3.28253 34C3.28175 32.1434 3.27855 30.4216 3.27144 28.9078C3.24159 22.5505 3.17107 20.1585 3.11207 18.1636C3.08989 17.4137 3.06918 16.7194 3.05311 15.8918C3.0476 15.6079 3.04271 15.3102 3.03838 15C2.78097 11.5266 5.80685 6.39847 10.8668 5.62016C10.8872 5.61653 10.9076 5.61296 10.9281 5.60946C11.8266 5.45631 12.5539 5.67505 12.5441 5.91408C12.5332 6.15822 11.8651 6.33611 11.0619 6.47561C8.46391 6.89979 6.25565 8.59216 5.10846 10.5618C5.22456 10.7733 5.05614 11.3572 4.80337 12.0136C4.59025 12.5722 4.26949 13.5765 4.29883 15C4.36364 17.6617 4.48919 21.769 4.65789 27.1595C4.69578 26.5995 4.73265 26.1304 4.7677 25.7194C4.80884 25.2369 4.84421 24.8673 4.87451 24.5495C4.93767 23.8871 4.97935 23.4464 5.00995 22.6642C5.04475 20.8523 5.05198 18.0046 5.05909 15.0078C5.05909 15.0052 5.0591 15.0026 5.05911 15C5.06113 14.2858 5.36607 13.7604 5.60003 13.8096C5.83618 13.8595 5.93089 14.3841 5.93496 15C5.93498 15.007 5.93498 15.0139 5.93497 15.0209C5.93497 15.0357 5.93497 15.0505 5.93497 15.0653C5.92793 18.0333 5.92079 20.9725 5.8837 22.8652C5.87426 23.3468 5.86309 23.7615 5.85293 24.073C5.84482 24.3219 5.8338 24.6327 5.81961 24.8054C5.81772 24.8284 5.81391 24.8721 5.80807 24.9242C5.80793 24.9251 5.80779 24.926 5.80764 24.9269C5.80442 24.956 5.78809 25.1049 5.75253 25.2637C5.74534 25.2958 5.72931 25.3655 5.70339 25.4465C5.7014 25.4674 5.69941 25.4883 5.69741 25.5092C5.66973 25.8004 5.64152 26.0976 5.6141 26.4192C5.50701 27.675 5.37205 29.6642 5.22914 33.8066C5.22694 33.8703 5.22476 33.9348 5.2226 34C4.9277 36.4919 7.22921 41.417 12.5441 41.4953C14.2836 41.5025 16.1306 41.5061 18.0707 41.5063C17.5277 41.4882 16.9836 41.4707 16.4399 41.4538C15.1453 41.4137 13.8451 41.3769 12.5441 41.3418C12.4756 41.3398 12.4074 41.3369 12.3395 41.3331C11.8564 41.3056 11.3845 41.2327 10.917 41.1124C10.165 40.919 9.44509 40.6032 8.79641 40.1841C8.3577 39.9011 7.94993 39.5705 7.58373 39.2016C7.58288 39.2008 7.58203 39.2 7.58118 39.1992C7.07299 38.687 6.64246 38.0992 6.30929 37.4583C6.19308 37.2338 6.09032 37.0065 6.00009 36.7762C5.6671 35.919 5.49214 35.0149 5.53593 34C5.5391 33.9214 5.54237 33.8421 5.54574 33.7622C5.55448 33.6098 5.56579 33.4444 5.57522 33.3209C5.58515 33.1881 5.59526 33.0604 5.60555 32.9396C5.61463 32.8331 5.62387 32.7315 5.63247 32.6341C5.63361 32.621 5.63475 32.608 5.63589 32.5949C5.64551 32.4859 5.6544 32.3817 5.6628 32.2816C5.6712 32.1816 5.67929 32.0853 5.6863 31.9904C5.6863 31.9895 5.6863 31.9887 5.6863 31.9878C5.6935 31.8887 5.69891 31.8134 5.7051 31.7084C5.71286 31.5765 5.71883 31.4632 5.72476 31.3258C5.73051 31.193 5.73565 31.0545 5.74014 30.9146C5.74462 30.7747 5.74854 30.6322 5.7521 30.4876C5.75566 30.3429 5.75898 30.1958 5.76193 30.0476C5.76487 29.8995 5.76745 29.7494 5.77005 29.5985C5.77264 29.4475 5.77525 29.2948 5.77774 29.1415C5.78351 28.7884 5.83205 28.4499 5.91446 28.2014C5.99687 27.953 6.10587 27.8147 6.21867 27.8163C6.33149 27.818 6.43991 27.9597 6.52117 28.2106C6.60238 28.4615 6.6495 28.8013 6.65362 29.1545C6.65472 29.2507 6.65596 29.3474 6.65703 29.4444C6.65767 29.502 6.65813 29.5602 6.65874 29.618C6.66038 29.7737 6.6622 29.9311 6.66344 30.0894C6.66468 30.2476 6.66549 30.4072 6.66601 30.5686C6.66652 30.7304 6.66668 30.8944 6.66601 31.0608C6.66533 31.2267 6.66388 31.3964 6.66131 31.5687C6.65888 31.7368 6.65464 31.9286 6.64934 32.1001C6.64562 32.2254 6.63926 32.3799 6.63353 32.5088C6.62754 32.6432 6.62085 32.7755 6.61388 32.9031C6.6069 33.0309 6.59949 33.1545 6.59252 33.2726C6.59181 33.2852 6.59109 33.2978 6.59038 33.3104C6.58421 33.4148 6.5782 33.5155 6.57286 33.6107C6.5669 33.7172 6.56182 33.8179 6.55748 33.9136C6.556 33.9457 6.55479 33.974 6.55376 34C6.55143 34.0451 6.55043 34.0811 6.54973 34.1224C6.54461 34.9057 6.75093 35.8659 7.17152 36.6844C7.2235 36.7874 7.27803 36.8883 7.33494 36.9867C7.63728 37.5086 8.0196 37.9843 8.46263 38.3925C8.78456 38.6893 9.13898 38.9509 9.51706 39.1709C10.0738 39.495 10.6816 39.7279 11.3118 39.8579C11.7032 39.9386 12.0957 39.9797 12.4975 39.9826C12.513 39.9827 12.5285 39.9827 12.5441 39.9827C13.9175 39.9819 15.2953 39.9832 16.6749 39.9883C18.0732 39.9935 19.4802 40.0027 20.8883 40.0182C22.2909 40.0337 23.748 40.0569 25.1551 40.0921C26.1896 40.1185 27.2501 40.1644 28.2312 40.2118C28.7585 40.2373 29.2748 40.2632 29.7836 40.2891C29.7854 40.2892 29.7871 40.2894 29.7889 40.2895C30.2354 40.3123 30.6763 40.3348 31.1141 40.3562C32.0526 40.4022 32.9745 40.4433 33.8964 40.4779C34.8169 40.5126 35.7333 40.5408 36.6566 40.5625C37.5729 40.584 38.5046 40.5996 39.4272 40.6091C40.3544 40.6187 41.2646 40.6226 42.2212 40.6223C43.479 40.6215 44.728 40.6137 46.0102 40.6044C47.2831 40.5949 48.5662 40.5831 49.8528 40.5711C50.3024 40.5669 50.753 40.563 51.2041 40.5587C51.2058 40.5587 51.2076 40.5587 51.2093 40.5587C52.0438 40.5508 52.8803 40.5428 53.7175 40.5352C55.01 40.5234 56.3061 40.5122 57.607 40.5031C58.9077 40.4941 60.2164 40.487 61.5318 40.4843C62.8474 40.4819 64.1985 40.4834 65.5558 40.4976C66.7666 40.5099 67.987 40.5262 69.1803 40.5424C69.4954 40.5467 69.8105 40.551 70.1256 40.5553C71.6207 40.5753 73.0681 40.5912 74.4995 40.5941C75.9298 40.5974 77.3591 40.5884 78.8016 40.5694C80.2396 40.5504 81.6958 40.522 83.1638 40.4878C84.638 40.4534 86.0934 40.4137 87.5782 40.3703C89.0517 40.327 90.532 40.2805 92.0304 40.2314C92.8634 40.2042 93.7496 40.1792 94.5869 40.1579C95.4323 40.1364 96.2723 40.1174 97.1016 40.0998C97.4381 40.0926 97.773 40.0858 98.1056 40.0789C98.5906 40.0688 99.0713 40.0589 99.5444 40.0485C100.343 40.0311 101.122 40.0124 101.879 39.9904C102.635 39.9685 103.37 39.943 104.079 39.9118C104.813 39.8794 105.418 39.8465 106.142 39.7994C107.904 39.7087 108.997 39.6808 110.21 39.6495C110.449 39.6433 110.694 39.6367 110.948 39.6298C112.403 39.5947 113.857 39.5685 115.292 39.5486C116.741 39.5288 118.167 39.5154 119.611 39.5076C121.041 39.4999 122.482 39.498 123.917 39.5012C125.35 39.5044 126.78 39.5128 128.214 39.5264C129.647 39.54 131.109 39.5594 132.513 39.5828C133.325 39.5963 134.187 39.6143 134.988 39.6328C135.565 39.6461 136.135 39.6601 136.693 39.6738C136.921 39.6794 137.147 39.685 137.372 39.6905C138.117 39.7086 138.842 39.7255 139.544 39.7386C139.563 39.7391 139.583 39.7395 139.602 39.7398C140.128 39.7479 140.633 39.6822 141.11 39.5515C141.588 39.4207 142.037 39.2251 142.451 38.9722C142.879 38.7074 143.208 38.4421 143.572 38.0535C143.807 37.7988 144.013 37.529 144.193 37.2459C144.463 36.8218 144.671 36.3688 144.816 35.8963C144.96 35.4248 145.038 34.9426 145.052 34.4571C145.057 34.3076 145.055 34.1514 145.047 34C145.046 33.9895 145.046 33.9789 145.046 33.9685C145.02 33.2701 144.993 32.5796 144.965 31.8899C144.936 31.2014 144.907 30.5193 144.875 29.84C144.844 29.1578 144.811 28.4872 144.775 27.8032C144.715 26.6406 144.686 25.5279 144.668 24.5534C144.649 23.5673 144.639 22.6458 144.629 21.7489C144.627 21.5809 144.625 21.4129 144.623 21.2449C144.615 20.5214 144.608 19.8098 144.599 19.1089C144.588 18.245 144.575 17.3968 144.56 16.5459C144.551 16.0321 144.54 15.5152 144.529 15C144.522 14.7905 144.501 14.5857 144.468 14.3844C144.382 13.8665 144.222 13.3896 143.971 12.9202C143.721 12.4569 143.388 12.0288 142.956 11.6442C142.527 11.2634 142.013 10.948 141.462 10.7387C140.911 10.5286 140.325 10.4222 139.736 10.4226C139.672 10.4226 139.608 10.4238 139.544 10.4263C138.632 10.4466 137.719 10.4624 136.818 10.4738C135.802 10.4867 134.792 10.4942 133.787 10.4977C132.785 10.5012 131.75 10.5006 130.781 10.4964C129.211 10.4897 127.649 10.4801 126.084 10.4695C124.528 10.4589 122.967 10.447 121.409 10.4345C119.853 10.4219 118.297 10.4088 116.742 10.3952C115.187 10.3815 113.632 10.3675 112.08 10.3533C111.736 10.3502 111.393 10.347 111.05 10.3439C109.841 10.3328 108.632 10.3218 107.428 10.311C107.419 10.3109 107.411 10.3107 107.403 10.3106C105.853 10.2969 104.332 10.2835 102.795 10.2721C102.231 10.268 101.689 10.2642 101.138 10.261C100.587 10.2578 100.046 10.2552 99.4998 10.2533C98.9531 10.2514 98.4095 10.2504 97.8743 10.2503C97.3332 10.2504 96.8058 10.2514 96.2736 10.2542C95.7857 10.2566 95.3013 10.2611 94.7721 10.2657C94.7238 10.2661 94.6755 10.2666 94.6272 10.267C94.048 10.2721 93.3894 10.2753 92.7771 10.273C91.1553 10.2661 89.5748 10.2628 87.9657 10.2631C86.3558 10.2635 84.7494 10.2672 83.1296 10.2725C82.4971 10.2746 81.8616 10.2771 81.226 10.2794C80.2371 10.2829 79.2446 10.2865 78.2491 10.2892C76.6111 10.2938 74.9697 10.2959 73.3177 10.2931C71.6719 10.2902 70.0156 10.2824 68.3667 10.2687C66.719 10.2551 65.0571 10.2358 63.4169 10.2114C61.5895 10.1842 59.7726 10.154 57.9476 10.1226C56.1255 10.0911 54.3024 10.0581 52.4874 10.0243C50.6657 9.99045 48.8487 9.95568 47.0311 9.92006C45.2124 9.88441 43.3949 9.84794 41.5761 9.81068C40.4875 9.78837 39.3993 9.76565 38.3106 9.74274C37.7346 9.7633 37.1824 9.78345 36.6511 9.80256C32.7258 9.94376 29.8877 10.0456 26.1433 10.1157C25.7847 10.1264 25.4929 10.1415 25.1379 10.1597C25.0702 10.1632 24.9984 10.1667 24.9251 10.1704C24.4612 10.1939 23.9284 10.2185 23.1873 10.2341C21.7088 10.2651 19.4426 10.2584 16.5141 10.0538C15.7744 10.0021 15.3036 9.76882 15.4631 9.53253C15.5752 9.3668 15.9681 9.24364 16.4475 9.20269C15.5617 9.17458 14.6783 9.14517 13.7971 9.11596C13.4454 9.10426 13.1152 9.04988 12.8805 8.96343C12.646 8.87694 12.526 8.76586 12.5463 8.65324C12.5665 8.54058 12.7262 8.43492 12.9902 8.358C13.2541 8.28117 13.6004 8.23955 13.9538 8.24136C14.8911 8.24638 15.8252 8.25145 16.7596 8.25503C17.6947 8.25866 18.6254 8.26077 19.5589 8.26187C20.4921 8.26297 21.425 8.26283 22.3608 8.26187C23.293 8.26086 24.227 8.25923 25.1628 8.25674C26.1044 8.25431 27.0283 8.25089 27.9673 8.24734C28.5299 8.24517 29.0992 8.24302 29.6581 8.24051C29.8664 8.23964 30.0697 8.23846 30.2731 8.23751C30.4393 8.23674 30.6064 8.23612 30.7783 8.23538C32.5875 8.22679 34.4141 8.21718 36.2242 8.20675C38.0429 8.19637 39.8598 8.1854 41.6766 8.17385C43.4944 8.16231 45.3106 8.15002 47.1277 8.13754C48.9438 8.12504 50.7589 8.11213 52.5774 8.09866C54.3893 8.08513 56.2085 8.0713 58.0233 8.05636C59.4271 8.04481 60.819 8.0324 62.2131 8.01919C62.762 7.99658 63.3052 7.97523 63.8413 7.95467C65.4018 7.89482 66.9644 7.81629 68.5037 7.73848C65.7639 7.77716 63.563 7.83759 61.4676 7.89528C61.1867 7.90302 60.9076 7.91078 60.6294 7.91835C57.7893 7.99564 55.0457 8.06106 51.3554 8.04653C40.8598 8.00521 34.7741 7.97505 30.982 7.91878C27.1906 7.86251 25.5616 7.77911 24.0412 7.61329C21.8929 7.37896 17.7465 7.24568 15.6629 7.24072C14.906 7.23893 14.295 7.04124 14.2985 6.79936C14.3021 6.55743 14.9189 6.36262 15.6759 6.36441C17.876 6.36964 22.3628 6.50511 24.9199 6.78398C26.0588 6.90821 27.3685 6.98835 31.1021 7.04375C34.8362 7.09916 40.8658 7.12882 51.3815 7.17022C54.939 7.18423 57.5793 7.12193 60.3891 7.04546C60.6647 7.03797 60.9422 7.0301 61.2221 7.02239C61.2239 7.02239 61.2256 7.02239 61.2274 7.02239C63.8084 6.95131 66.6189 6.87382 70.4087 6.83953C79.1438 6.76048 90.8939 6.60724 93.6832 6.52079C94.2306 6.50383 94.7597 6.48477 95.3178 6.46482C97.4602 6.38824 100.047 6.29587 105.875 6.23453C107.15 6.22111 108.643 6.21332 110.273 6.20975C112.718 6.09184 115.092 5.98246 117.156 5.9175C118.938 5.86144 120.581 5.75832 122.172 5.64534C122.631 5.61281 123.092 5.5788 123.552 5.54493C124.663 5.46326 125.774 5.38162 126.857 5.31849C127.72 5.26816 128.624 5.20768 129.579 5.14374C132.362 4.95748 135.586 4.7417 139.544 4.66083C140.82 4.63937 142.179 4.86633 143.488 5.40486C147.673 7.10428 149.966 11.3061 149.877 15C149.86 16.95 149.84 18.7794 149.82 20.4981C149.859 18.3665 149.903 16.5666 149.947 15C149.967 14.0546 149.86 13.1679 149.668 12.3545C149.554 11.8708 149.41 11.4155 149.244 10.987C148.02 7.97005 146.051 6.26732 143.734 5.23497C142.303 4.62127 140.858 4.37898 139.544 4.38341C132.713 4.4082 129.657 4.48861 126.263 4.67589C125.239 4.73239 124.11 4.80766 122.893 4.88866C120.461 5.05057 117.68 5.23569 114.691 5.34156C111.907 5.44016 108.794 5.58572 105.495 5.73976C105.494 5.73976 105.493 5.73976 105.491 5.73976C104.847 5.76986 104.195 5.80029 103.537 5.83077C99.5261 6.01663 95.3077 6.20351 91.2011 6.32126C90.7619 6.33385 90.2358 6.35122 89.6317 6.37125C86.1453 6.48686 80.0245 6.68981 72.5499 6.55967C70.9082 6.53108 69.2023 6.47051 67.2555 6.40116C66.6626 6.38004 66.0469 6.35784 65.4041 6.33579C62.6292 6.24058 59.2576 6.13944 54.7683 6.07858C51.0634 6.02835 46.5481 6.00427 41.8594 5.97903C39.5499 5.9666 37.1983 5.95368 34.8807 5.93758C27.8801 5.88897 21.4638 5.81185 15.0596 5.73464C15.0583 5.73464 15.057 5.73464 15.0557 5.73464C14.2992 5.72551 13.7065 5.5218 13.7331 5.28003C13.76 5.03839 14.3948 4.84971 15.151 4.85876C21.559 4.93602 27.9557 5.01325 34.9329 5.0617C37.2153 5.07755 39.5484 5.09033 41.8489 5.10272C46.5604 5.1281 51.1385 5.15243 54.878 5.20313C59.4437 5.26503 62.877 5.36809 65.6901 5.46461C66.3676 5.48785 67.0046 5.51058 67.6094 5.53212C69.5346 5.60066 71.1351 5.65796 72.6923 5.68507C79.9295 5.81109 85.8189 5.6162 89.3184 5.5005C89.939 5.47998 90.4846 5.46212 90.9492 5.4488C94.9751 5.33336 99.129 5.14955 103.136 4.96386C103.786 4.93374 104.433 4.90369 105.075 4.87371C105.076 4.87357 105.078 4.87343 105.079 4.87328C108.377 4.71926 111.546 4.57124 114.382 4.47081C117.26 4.36886 119.77 4.20095 122.118 4.04398C123.377 3.95974 124.591 3.87896 125.789 3.81283C129.395 3.6138 132.629 3.53222 139.544 3.50743C140.963 3.50287 142.52 3.76495 144.057 4.42055ZM17.8172 9.24499C19.638 9.35478 21.1215 9.37793 22.2263 9.3706C21.2881 9.34566 20.352 9.31949 19.4153 9.29241C18.8821 9.27701 18.3496 9.26121 17.8172 9.24499ZM110.496 7.0852C110.201 7.09945 109.904 7.11386 109.606 7.12835C110.429 7.12149 111.252 7.11511 112.075 7.1087C113.084 7.10083 114.093 7.0934 115.102 7.08605C113.498 7.08318 111.944 7.08235 110.496 7.0852ZM143.169 6.22117C141.959 5.72126 140.711 5.51656 139.544 5.53872C135.924 5.61643 132.98 5.81289 130.269 5.99398C129.274 6.0604 128.31 6.12464 127.356 6.18027C126.96 6.20334 126.565 6.22883 126.166 6.25589C128.487 6.26962 130.621 6.28405 132.367 6.29605C135.394 6.31685 137.663 6.35075 139.544 6.38837C141.008 6.41927 142.225 6.79318 143.26 7.32236C143.975 7.69103 144.609 8.14104 145.183 8.67393C145.686 9.08302 146.163 9.5704 146.576 10.1201C147.157 10.8869 147.641 11.8342 147.92 12.7971C148.129 13.5059 148.245 14.253 148.263 15C148.27 15.2476 148.276 15.4945 148.282 15.7403C148.304 16.6744 148.323 17.6 148.339 18.5213C148.355 19.3883 148.368 20.2522 148.38 21.0882C148.381 21.1361 148.382 21.184 148.383 21.2319C148.396 22.1154 148.409 22.9751 148.427 23.7648C148.445 24.5688 148.466 25.2372 148.499 25.8304C148.539 26.5711 148.578 27.3311 148.614 28.0826C148.65 28.8349 148.684 29.584 148.715 30.3309C148.747 31.0794 148.776 31.8205 148.804 32.5636C148.813 32.8039 148.823 33.0552 148.831 33.2934C148.835 33.4032 148.839 33.513 148.843 33.6225C148.846 32.1688 148.851 30.6596 148.858 29.0997C148.869 26.8462 148.897 24.4405 148.929 21.7868C148.953 19.6943 148.98 17.4477 149.001 15C149.082 11.6572 147.035 7.80554 143.169 6.22117ZM130.454 43.3773C131.086 43.375 132.012 43.3682 133.205 43.3594C133.488 43.3573 133.785 43.3548 134.097 43.3525C134.09 43.3523 134.082 43.3523 134.075 43.3521C133.302 43.3298 132.588 43.3103 131.817 43.2923C130.444 43.2603 129.11 43.2329 127.762 43.2094C126.409 43.1859 125.06 43.1666 123.709 43.1513C122.357 43.136 121 43.125 119.655 43.1184C118.298 43.1118 116.959 43.1093 115.608 43.1124C115.177 43.1134 114.746 43.115 114.314 43.1171C115.278 43.1392 116.278 43.1573 117.335 43.1765C118.179 43.1918 119.06 43.2078 119.986 43.2269C120.34 43.2342 120.769 43.2454 121.269 43.2585C123.252 43.3104 126.363 43.3921 130.454 43.3773ZM103.535 43.3585C103.221 43.3643 102.909 43.3696 102.601 43.3739C101.724 43.3862 100.868 43.3932 100.03 43.3987C99.4414 43.4025 98.8594 43.4052 98.2858 43.4081C98.0437 43.4093 97.802 43.4106 97.5625 43.4119C97.1613 43.414 96.7631 43.4166 96.3678 43.4192C99.1405 43.4456 101.851 43.4658 104.676 43.4722C104.713 43.4722 104.75 43.4721 104.788 43.4722C104.36 43.4335 103.943 43.3956 103.535 43.3585Z" fill="#FF8CD2"/>
</g>
<defs>
<filter id="filter0_g_107_82" x="0.470043" y="0.954222" width="152.911" height="46.0044" filterUnits="userSpaceOnUse" color-interpolation-filters="sRGB">
<feFlood flood-opacity="0" result="BackgroundImageFix"/>
<feBlend mode="normal" in="SourceGraphic" in2="BackgroundImageFix" result="shape"/>
<feTurbulence type="fractalNoise" baseFrequency="0.015268607065081596 0.015268607065081596" numOctaves="3" seed="8846" />
<feDisplacementMap in="shape" scale="5.1063003540039062" xChannelSelector="R" yChannelSelector="G" result="displacedImage" width="100%" height="100%" />
<feMerge result="effect1_texture_107_82">
<feMergeNode in="displacedImage"/>
</feMerge>
</filter>
</defs>
</svg>
