<svg xmlns="http://www.w3.org/2000/svg" width="423" height="86" fill="none" viewBox="0 0 423 86">
    <g filter="url(#a)">
        <path fill="#ff5cbb" d="M4.186 15a8 8 0 0 1 8-8h397a8 8 0 0 1 8 8v58a8 8 0 0 1-8 8h-397a8 8 0 0 1-8-8z" />
        <path fill="#ff8cd2"
            d="M377.546 3.5c5.806-.002 11.25.057 18.125.133h.011l3.04.033c3.097.033 6.535.069 10.464.103 5.169-.157 11.2 4.44 11.137 11.231-.023 3.874-.044 8.13-.062 12.839-.067 18.234-.312 32.71-.546 41.55-.027.997-.046 2.014-.062 3.611a10.4 10.4 0 0 1-1.337 5.064c-1.319 2.383-4.313 5.301-9.13 5.341l-3.63-.012-10.33-.036c-13.212-.047-33.918-.033-52.998-.019-11.58.009-22.564.017-30.906.01-12.2-.01-23.973-.054-36.77-.102-11.721-.044-24.302-.091-38.859-.118-11.169-.02-22.021-.198-33.049-.397l-4.223-.076c-9.732-.177-19.68-.359-30.437-.463-19.176-.185-34.477-.108-51.42-.024-6.626.033-13.504.068-20.964.088-11.797.033-28.756.026-45.785.017l-4.352-.002h-.022c-11.798-.007-23.43-.013-33.255-.008-3.7.032-6.916-2.28-8.294-5.113A9.3 9.3 0 0 1 2.906 73c-.033-15.093-.097-21.242-.152-26.433-.022-2.104-.043-4.052-.06-6.374C2.65 33.717 2.647 24.687 2.653 15c-.039-3.376 1.94-6.756 4.991-8.376l.154-.082c2.292-1.198 4.441-.851 4.389-.628-.009.256-1.979.333-4.02 1.424C5.317 8.802 3.491 11.916 3.528 15c-.002 3.695-.003 7.265 0 10.613.207.308.365 1.902.363 3.814-.004 4.785.153 19.441.409 42.379.038-1.572.074-2.888.11-4.04.04-1.355.076-2.391.106-3.283.063-1.858.105-3.095.136-5.29.034-5.083.042-13.072.049-21.48.002-2.123.199-3.838.44-3.828.243.01.437 1.741.436 3.864v.125c-.007 8.327-.014 16.573-.052 21.884-.009 1.35-.02 2.514-.03 3.388-.008.698-.02 1.57-.034 2.055l-.012.34c-.003.082-.02.5-.055.946-.007.09-.023.285-.049.513l-.09 2.729c-.027.924-.057 1.99-.089 3.271-.172 2.284 1.5 6.945 7.02 7.25 1.5.022 3.124.043 4.887.065 10.69.131 28.76.19 51.306.191a5702 5702 0 0 0-16.128-.17 11388 11388 0 0 0-11.609-.106l-4.864-.042h-.011l-9.144-.082c-3.107-.028-6.16-.055-9.674-.108a187 187 0 0 1-2.308-.06l-.857-.026-.11-.004-1.488-.045-.18-.007H12a7.2 7.2 0 0 1-2.484-.596 6.9 6.9 0 0 1-2.485-1.865 7 7 0 0 1-.63-.883c-.435-.72-.653-1.508-.692-2.089-.04-.583.063-.905.172-.909.115-.005.233.3.425.799s.469 1.148.857 1.766a5.9 5.9 0 0 0 1.268 1.448 5.98 5.98 0 0 0 3.755 1.367h.1a235 235 0 0 1 2.253.036l1.036.022.107.002.842.017a227 227 0 0 0 1.546.025c2.915.014 6.517.01 9.953.008h1.285l6.759-.008 4.912-.006a15869 15869 0 0 1 11.722-.007c3.91-.001 7.834 0 11.762.005 3.923.005 7.871.015 11.821.03 3.936.016 8.024.039 11.971.074 2.903.026 5.878.072 8.63.12 1.48.025 2.929.051 4.356.077h.015q1.878.035 3.718.067c2.633.046 5.22.087 7.806.122a1529 1529 0 0 0 15.517.131c2.602.01 5.155.014 7.839.013 3.529 0 7.033-.008 10.631-.018 3.571-.01 7.171-.02 10.78-.033l3.792-.012h.014l7.037-.024q5.44-.018 10.913-.032 5.475-.014 11.011-.019c3.691-.002 7.482 0 11.29.014 3.397.012 6.821.028 10.169.044l2.652.013c4.195.02 8.256.036 12.271.04 4.013.002 8.023-.007 12.07-.026 4.035-.019 8.12-.047 12.239-.081 4.136-.035 8.219-.074 12.385-.118 4.134-.043 8.287-.09 12.491-.139 2.337-.027 4.824-.052 7.173-.073 2.372-.022 4.728-.04 7.055-.058l2.817-.021 4.037-.03c2.24-.018 4.426-.037 6.549-.059q3.186-.031 6.173-.078c2.059-.033 3.757-.066 5.787-.113 4.946-.09 8.01-.118 11.415-.15.67-.006 1.356-.012 2.069-.02 4.083-.034 8.162-.06 12.188-.08a4092 4092 0 0 1 24.198-.048 4661 4661 0 0 1 24.118.082c2.277.013 4.696.031 6.942.05l4.784.04 1.905.017a3067 3067 0 0 0 6.257.048 5.7 5.7 0 0 0 3.854-1.601A5.68 5.68 0 0 0 414.941 73c-.009-1.67-.021-3.154-.041-4.991l-.114-9.95-.073-5.904-.026-1.934a3399 3399 0 0 0-.27-17.298 774 774 0 0 1-.108-9.117 3051 3051 0 0 1-.042-8.806 5.049 5.049 0 0 0-1.591-3.657 5 5 0 0 0-3.49-1.366 3325 3325 0 0 0-8.204.061c-2.375.022-4.647.045-7.095.073-2.421.028-4.88.064-7.576.103-2.67.04-5.473.08-8.311.115a2121 2121 0 0 1-17.151.145q-4.274.019-8.502.024c-2.812.003-5.717.003-8.436-.002a30398.985 30398.985 0 0 1-39.386-.101q-6.546-.02-13.081-.042l-2.891-.01-10.161-.032h-.07a25403 25403 0 0 0-17.575-.05 5521 5521 0 0 0-9.158-.01c-1.518 0-2.998 0-4.491.003l-4.213.012-.406.001c-1.625.005-3.473.008-5.191.006a8466 8466 0 0 0-27.067 0l-5.341.006q-4.162.006-8.352.01c-4.595.005-9.2.007-13.835.004a5963 5963 0 0 1-27.778-.082c-5.127-.027-10.225-.057-15.345-.088a32215 32215 0 0 1-30.627-.203 48458 48458 0 0 1-24.466-.177l-4.656.06c-11.013.14-18.976.243-29.481.313-1.006.01-1.825.026-2.82.044l-.598.01c-1.301.024-2.796.049-4.875.064-4.149.031-10.507.024-18.723-.18-2.075-.052-3.396-.285-2.949-.521.315-.166 1.417-.29 2.762-.33q-3.727-.043-7.436-.087c-.987-.012-1.913-.066-2.571-.153-.658-.086-.995-.197-.938-.31s.505-.218 1.245-.295 1.713-.118 2.704-.117l7.872.014a8140 8140 0 0 0 15.715.007 13980 13980 0 0 0 15.73-.015l4.743-.006 1.725-.003 1.418-.003a42408 42408 0 0 0 30.576-.061 82527 82527 0 0 0 45.863-.118c3.938-.011 7.843-.024 11.755-.037q2.31-.034 4.568-.064c4.378-.06 8.762-.139 13.081-.217-7.687.04-13.862.1-19.741.157l-2.352.023c-7.968.078-15.665.143-26.019.129-29.446-.042-46.52-.072-57.16-.128-10.637-.056-15.207-.14-19.473-.306-6.027-.234-17.66-.367-23.506-.372-2.124-.002-3.838-.2-3.828-.442s1.74-.436 3.864-.435c6.173.006 18.761.141 25.935.42 3.196.124 6.87.204 17.345.26 10.477.055 27.393.085 56.896.126 9.981.014 17.389-.048 25.272-.125l2.337-.023h.015c7.241-.07 15.126-.148 25.759-.182 24.507-.08 57.474-.233 65.299-.32 1.536-.016 3.021-.035 4.586-.055 6.011-.077 13.267-.17 29.62-.23 3.577-.014 7.767-.022 12.338-.025 6.86-.118 13.521-.228 19.312-.292 4.998-.057 9.608-.16 14.074-.273 1.286-.032 2.58-.066 3.872-.1 3.116-.082 6.233-.163 9.271-.227 2.422-.05 4.958-.11 7.638-.174 9.763-.233 21.462-.512 36.708-.516 11.838-.003 22.428.023 31.937.057 4.536-.035 8.522 3.145 9.752 7.067-1.473-4.55-5.859-7.151-9.752-7.104-4.222-.037-7.888-.075-11.171-.11l-3.062-.033c-6.927-.076-11.963-.131-17.36-.13-25.778.012-35.447.086-46.357.3-2.872.057-6.041.133-9.454.214-6.823.162-14.627.347-23.012.453-7.81.098-16.545.244-25.8.398h-.011l-5.483.09c-11.253.187-23.088.374-34.61.491l-4.403.05c-9.781.116-26.954.319-47.924.189-4.606-.029-9.393-.09-14.854-.159l-5.195-.065c-7.785-.095-17.244-.197-29.84-.257-10.394-.05-23.062-.075-36.217-.1-6.48-.012-13.077-.025-19.58-.041-19.64-.049-37.642-.126-55.61-.203h-.01c-2.123-.01-3.786-.213-3.711-.455s1.856-.43 3.978-.421c17.978.077 35.925.154 55.5.203 6.403.016 12.95.028 19.404.04 13.218.026 26.063.05 36.554.101 12.81.062 22.442.165 30.335.262l5.384.067c5.402.069 9.892.126 14.261.153 20.305.126 36.828-.069 46.646-.184 1.742-.021 3.272-.039 4.576-.052 11.295-.116 22.949-.3 34.191-.485l5.44-.09h.011c9.253-.155 18.145-.303 26.1-.403 8.075-.102 15.117-.27 21.704-.427 3.534-.084 6.939-.165 10.301-.231 11.573-.228 21.777-.302 47.639-.313M26.98 9.245c5.109.11 9.27.133 12.37.126a9505 9505 0 0 1-12.37-.126M287 7.085l-2.498.043 6.927-.02 8.495-.022c-4.501-.003-8.863-.004-12.924 0m90.286-1.58c-14.378.003-25.123.258-34.811.489-2.79.066-5.496.13-8.173.186-1.11.023-2.219.049-3.337.076l17.396.04c14.621.036 22.942.11 30.254.176 2.116.02 4.149.037 6.224.053 1.717-.029 3.499-.058 5.3-.084a2706 2706 0 0 1 19.047-.206 8.75 8.75 0 0 1 4.644 1.294c2.292 1.391 3.849 3.88 4.135 6.462q.026.22.041.443.02.283.021.566c.013 2.298.025 4.53.041 6.593.019 2.256.04 4.131.073 5.795a2927 2927 0 0 1 .305 18.891l.027 2.048.012.923c.003-4.078.008-8.313.015-12.69.01-6.322.039-13.071.07-20.516l.005-1.044c.16-4.7-4.045-9.506-9.389-9.439-9.419-.033-19.923-.06-31.9-.057m6.398 76.872c1.773-.002 4.369-.009 7.718-.018l2.502-.006h-.062c-2.17-.023-4.172-.043-6.334-.06a5411 5411 0 0 0-22.748-.142 4995 4995 0 0 0-22.73-.039l-3.63.005c2.704.022 5.511.04 8.476.06 2.369.015 4.839.03 7.437.05q1.493.011 3.601.031c5.562.052 14.291.134 25.77.12m-75.527-.018-2.619.015c-2.462.012-4.861.02-7.213.025l-4.894.01-5.381.01c7.779.027 15.384.047 23.309.053h.315z" />
    </g>
    <!-- <defs>
        <filter id="a" width="422.78" height="85.012" x=".097" y=".947" color-interpolation-filters="sRGB"
            filterUnits="userSpaceOnUse">
            <feFlood flood-opacity="0" result="BackgroundImageFix" />
            <feBlend in="SourceGraphic" in2="BackgroundImageFix" result="shape" />
            <feTurbulence baseFrequency="0.015268607065081596 0.015268607065081596" numOctaves="3" seed="8846"
                type="fractalNoise" />
            <feDisplacementMap width="100%" height="100%" in="shape" result="displacedImage" scale="5.106"
                xChannelSelector="R" yChannelSelector="G" />
            <feMerge result="effect1_texture_44_185">
                <feMergeNode in="displacedImage" />
            </feMerge>
        </filter>
    </defs> -->
</svg>