<svg width="186" height="189" viewBox="0 0 186 189" fill="none" xmlns="http://www.w3.org/2000/svg">
<path d="M184.38 75.99C186.27 85.15 185.69 92.95 185.05 97.73V97.95L184.34 102.45C184.22 104.36 184.59 109.78 181.73 116.77L178.88 123.75L174.6 132.02L169.23 142.9L157.65 160.8L147.5 169.68L138.19 176.36L130.17 181.11L115.33 186.96L106.23 188.26L92.1 187.94L75.08 185.21L63.98 181.88L52.23 177.05L34.62 168.42L24.1 159.95L17.44 153.99L8.51001 140.49L1.67 127.24L0 119.54C0 119.54 1.08001 87.08 2.87001 71.73L2.83 71.69L3.03 67.97L3.89 65.42C6.27 56.41 22.64 34.14 25.53 32.29C28.41 30.44 38.12 23.28 38.12 23.27L45.11 17.37L53.03 12.01L64.78 5.8L83.22 1.19L91.16 0.789993L102.72 0L111.62 0.779999L117.82 3.14L129.98 8.24001L139.96 14.14L147.21 19.94L157.9 30.71L165.49 39.48L170.98 46.35C170.98 46.35 181.53 62.17 184.39 76L184.38 75.99ZM167.57 82.29C167.56 77.94 167.81 76.25 165.63 70.87C163.45 65.49 161.72 60.47 157.81 56.5C153.9 52.53 150.37 52.46 148.82 47.22C147.27 41.98 141.82 39.19 140.71 40.55C139.6 41.9 140.83 41.84 140.83 41.84C140.83 41.84 146.2 48.72 150.29 53.09C154.38 57.46 157.33 62.35 160.19 70.37C163.04 78.39 164.13 85.33 163.3 89.55C162.47 93.78 162.24 95.44 160.8 100.31C159.51 104.67 156.21 114.47 159.54 112.49C162.87 110.5 164.21 108.37 165.27 104.33C166.33 100.29 167.59 86.65 167.58 82.3L167.57 82.29ZM157.13 120.63C157.76 119.53 158.9 119.11 157.33 118.16C155.76 117.21 154.29 117.64 153.5 119.14C152.82 120.45 151.83 122.06 151.36 122.9C150.89 123.74 147.29 125.13 148.83 126.45C150.36 127.77 152.41 126.78 154.08 125.08C155.75 123.39 156.51 121.73 157.13 120.62V120.63ZM150.93 96.21C151.85 93.65 153.09 91.95 152.91 86.53C152.74 81.1 150.84 76.03 149.48 72.83C148.12 69.63 146.96 70.42 145.16 66.31C143.36 62.19 139.25 59.61 138.2 59.71C137.16 59.81 136.5 61.58 137.44 62.76C137.44 62.76 142.59 68.93 144.7 74.34C146.81 79.75 146.99 83.44 147.03 85.62C147.07 87.8 149.03 91.89 146.75 95.41C144.46 98.94 143.08 102.75 142.38 104.57C141.68 106.4 145.43 105.33 146.38 104.19C147.33 103.04 150.01 98.78 150.93 96.22V96.21ZM141.49 146.31C142.17 145.06 143.82 143.72 143.76 142.34C143.66 140.87 142.65 139.16 141.82 138.3C141.27 137.76 141.04 137.13 141.25 136.33C141.47 134.84 139.59 136.27 139.03 135.54C138.82 135.17 138.94 134.66 138.86 134.23C138.77 133.58 137.78 133.97 137.8 133.33C137.84 131.99 137.52 131.64 136.16 132.06C133.98 132.82 134.62 130.92 134.49 129.76C134.35 129.21 133.6 129.22 133.37 128.87C133.11 128.42 133.72 127.49 133.16 127.09C132.74 126.72 132.11 126.53 131.8 126.03C131.52 125.6 131.48 125.03 131.23 124.59C130.97 124.06 130.12 123.95 129.42 123.35C125.5 118.38 125.21 119.26 120.99 123.26C118.91 125.22 116.49 127.55 114.1 129.26C111.52 131.21 109 133.24 105.79 134.05C103.46 134.29 101.07 135.02 98.83 135.36C95.46 135.44 92.34 134.9 89.02 134.73C85.3 134.22 81.68 131.99 78.05 130.73C75.34 129.74 73.75 128.31 71.36 126.89C69.92 126.05 69.34 125.35 68.15 124.07L40.53 142.39C41.87 144.35 43.32 146.25 44.91 148.08C46.56 150.37 48.5 152.03 50.64 154.09C51.65 155.07 52.22 155.65 53.48 156.23C61.61 160.53 70.09 165.96 79.46 167.03C82.11 167.46 84.86 168.88 87.45 169.07C90.2 169.51 93.24 169.39 96.13 169.4H96.26C101.13 169.22 105.55 169 110.5 168.21C114.25 167.41 117.83 166.44 121.46 165C124.78 163.1 127.89 161.06 130.89 158.62C134.29 156.24 136.82 153.62 139.77 150.69C140.56 149.79 141.45 148.96 141.68 147.81C141.77 147.14 141.19 146.97 141.48 146.31H141.49ZM131.54 35.26C132.21 33.9 132.8 31.83 132.29 30.52C130.6 28.47 127.82 27.98 125.5 26.83C122.87 25.83 120.45 24.29 117.78 23.4C110.52 21.18 102.98 19.58 95.52 19.15C93.15 19.03 89.92 19.11 87.33 19.25C82.87 19.92 78.06 21.03 73.58 22.19C70.73 22.81 68.29 24.12 65.54 25.04C60.95 27.03 56.4 29.78 52.39 32.84C47.78 36.22 43.45 39.79 39.69 43.99C38.63 45.03 38 46.17 37.15 47.37C37.08 47.47 37.02 47.57 36.95 47.66C40.62 50.38 43.96 53.62 47.88 56C49.98 57.28 52.24 58.3 54.28 59.67C55.63 60.57 56.88 61.62 58.12 62.67C59.44 63.78 60.77 64.9 62.09 66.02C62.96 66.76 63.84 67.52 64.64 68.35C68.68 62.78 74.07 58.13 80.59 55.67C82.92 54.45 85.34 54.03 87.96 53.81C90.45 53.39 92.57 53.21 94.99 53.37C99.49 53.44 103.13 54.76 107.36 55.94C110.02 56.68 112.76 57.57 115.29 59.07C117.66 60.55 120.62 59.78 122.12 57.45C123.16 56 123.53 54.35 124.34 52.83C125.47 50.2 126.22 47.72 127.5 45.12C127.91 44.35 128.43 43.84 128.54 42.99C128.75 42.35 127.78 41.26 127.83 40.75C127.96 40.41 128.34 40.52 128.92 40.41C130.55 40.32 130.47 39 130.43 37.76C130.46 36.9 130.98 36.15 131.54 35.25V35.26ZM111.37 94.13L110.22 86.11L107.43 79.31L104.3 76.07L100.03 74.97L95.92 74.51L89.96 75.76L84.47 78L79.67 81.24C78.3 82.06 72.94 88.82 72.94 88.82L71.51 93.49L71.84 98.12L73.43 102.46L77.99 106.52L89.61 112.39L98.74 112.79L103.01 111.18L108.42 103.29L111.35 94.14L111.37 94.13ZM57.52 67.81C57.37 67.71 57.22 67.61 57.08 67.54C52.23 64.99 47.19 62.8 42.01 61.03C36.49 59.14 30.8 57.69 25.35 55.57C23.76 59.91 21.96 64.42 20.99 68.93C19.8 74.15 18.31 79.19 18.01 84.49C17.69 90.14 16.7 93.37 17.44 99C17.62 100.41 17.69 102.53 17.97 103.92C18.1 104.62 18.25 105.32 18.41 106.02C18.46 106.22 18.5 106.86 18.64 106.99C18.82 107.15 19.38 106.96 19.62 106.92C22.52 106.47 25.42 106.02 28.31 105.57C34.11 104.67 39.91 103.77 45.7 102.87C45.85 102.85 45.99 102.83 46.13 102.8C47.46 102.59 48.78 102.39 50.1 102.18C50.42 102.13 50.74 102.08 51.05 102.03C51.25 102 51.76 102.03 51.92 101.9C52.21 101.69 51.79 100.57 51.71 100.22C51.42 97.65 51.77 96.28 51.88 93.66C52.12 88.32 51.85 84.59 53.58 79.61C54.54 75.72 55.63 71.5 57.5 67.82L57.52 67.81ZM30.44 141.63L57.01 122.9C56.89 122.72 56.77 122.53 56.66 122.33C55.38 120.17 54.3 117.9 53.33 115.6C52.37 113.32 51.69 110.88 50.66 108.64C49.15 109.42 47.17 109.73 45.53 110.22C43.76 110.75 42 111.28 40.24 111.8L38.7 112.26C37.89 112.5 37.07 112.75 36.26 112.99C35.31 113.27 34.35 113.55 33.39 113.83C31.68 114.32 29.97 114.82 28.26 115.31C27.04 115.66 25.82 116.02 24.59 116.37C23.62 116.65 22.65 116.93 21.68 117.21C20.56 117.53 19.33 117.77 18.26 118.21C18.31 118.43 18.4 118.64 18.47 118.85C20.54 124.72 24.1 130.01 26.82 135.65C27.96 137.72 29.15 139.71 30.41 141.63H30.44Z" fill="#FF0B9C"/>
<path d="M165.63 70.87C167.81 76.25 167.56 77.94 167.57 82.29C167.57 86.64 166.32 100.28 165.26 104.32C164.2 108.36 162.86 110.5 159.53 112.48C156.2 114.46 159.51 104.66 160.79 100.3C162.23 95.43 162.46 93.77 163.29 89.54C164.12 85.32 163.03 78.38 160.18 70.36C157.33 62.34 154.37 57.45 150.28 53.08C146.19 48.71 140.82 41.83 140.82 41.83C140.82 41.83 139.59 41.89 140.7 40.54C141.81 39.18 147.26 41.97 148.81 47.21C150.36 52.45 153.89 52.52 157.8 56.49C161.71 60.46 163.44 65.48 165.62 70.86L165.63 70.87Z" fill="#FFF5F7"/>
<path d="M157.33 118.16C158.9 119.11 157.76 119.53 157.13 120.63C156.5 121.74 155.75 123.4 154.08 125.09C152.41 126.79 150.36 127.78 148.83 126.46C147.29 125.14 150.89 123.75 151.36 122.91C151.83 122.07 152.82 120.45 153.5 119.15C154.29 117.65 155.76 117.22 157.33 118.17V118.16Z" fill="#FFF5F7"/>
<path d="M152.91 86.53C153.09 91.95 151.85 93.65 150.93 96.21C150.01 98.77 147.33 103.03 146.38 104.18C145.44 105.32 141.69 106.39 142.38 104.56C143.08 102.74 144.46 98.92 146.75 95.4C149.03 91.88 147.07 87.79 147.03 85.61C146.99 83.43 146.81 79.74 144.7 74.33C142.59 68.92 137.44 62.75 137.44 62.75C136.5 61.56 137.15 59.8 138.2 59.7C139.24 59.6 143.36 62.18 145.16 66.3C146.96 70.41 148.12 69.62 149.48 72.82C150.84 76.02 152.74 81.1 152.91 86.52V86.53Z" fill="#FFF5F7"/>
<path d="M143.76 142.34C143.83 143.71 142.17 145.06 141.49 146.31C141.2 146.97 141.78 147.14 141.69 147.81C141.46 148.96 140.57 149.8 139.78 150.69C136.83 153.62 134.29 156.24 130.9 158.62C127.89 161.06 124.78 163.1 121.47 165C117.84 166.45 114.26 167.41 110.51 168.21C105.56 168.99 101.14 169.22 96.27 169.39H96.14C93.26 169.39 90.21 169.51 87.46 169.07C84.86 168.87 82.12 167.46 79.47 167.03C70.1 165.95 61.62 160.53 53.49 156.23C52.23 155.65 51.66 155.06 50.65 154.09C48.51 152.03 46.57 150.37 44.92 148.08C43.33 146.25 41.88 144.35 40.54 142.39L68.16 124.07C69.35 125.35 69.94 126.06 71.37 126.89C73.76 128.31 75.35 129.74 78.06 130.73C81.68 131.99 85.31 134.22 89.03 134.73C92.35 134.89 95.47 135.44 98.84 135.36C101.08 135.02 103.47 134.3 105.8 134.05C109.01 133.24 111.53 131.21 114.11 129.26C116.5 127.55 118.92 125.22 121 123.26C125.22 119.26 125.5 118.38 129.43 123.35C130.13 123.95 130.98 124.06 131.24 124.59C131.49 125.03 131.53 125.59 131.81 126.03C132.12 126.53 132.74 126.73 133.17 127.09C133.74 127.49 133.13 128.43 133.38 128.87C133.61 129.21 134.36 129.21 134.5 129.76C134.63 130.92 133.99 132.81 136.17 132.06C137.53 131.64 137.86 131.99 137.81 133.33C137.79 133.97 138.78 133.58 138.87 134.23C138.96 134.66 138.83 135.16 139.04 135.54C139.6 136.27 141.48 134.84 141.26 136.33C141.06 137.13 141.28 137.76 141.83 138.3C142.66 139.16 143.66 140.87 143.77 142.34L143.76 142.34Z" fill="#FFF5F7"/>
<path d="M132.29 30.52C132.8 31.83 132.21 33.9 131.54 35.26C130.98 36.16 130.46 36.91 130.43 37.77C130.47 39 130.55 40.32 128.92 40.42C128.35 40.53 127.97 40.42 127.83 40.76C127.78 41.27 128.75 42.36 128.54 43C128.43 43.84 127.9 44.36 127.5 45.13C126.21 47.73 125.47 50.21 124.34 52.84C123.53 54.36 123.16 56 122.12 57.46C120.62 59.79 117.66 60.56 115.29 59.08C112.76 57.58 110.02 56.69 107.36 55.95C103.13 54.76 99.49 53.45 94.99 53.38C92.57 53.22 90.46 53.4 87.96 53.82C85.34 54.04 82.93 54.46 80.59 55.68C74.06 58.14 68.68 62.8 64.64 68.36C63.84 67.53 62.96 66.77 62.09 66.03C60.76 64.91 59.44 63.79 58.12 62.68C56.88 61.63 55.63 60.58 54.28 59.68C52.24 58.31 49.98 57.29 47.88 56.01C43.96 53.63 40.62 50.39 36.95 47.67C37.02 47.57 37.08 47.47 37.15 47.38C37.99 46.18 38.63 45.05 39.69 44C43.45 39.8 47.78 36.23 52.39 32.85C56.4 29.79 60.96 27.04 65.54 25.05C68.29 24.13 70.73 22.82 73.58 22.2C78.05 21.03 82.87 19.93 87.33 19.26C89.92 19.12 93.15 19.03 95.52 19.16C102.99 19.58 110.53 21.18 117.78 23.41C120.46 24.31 122.88 25.84 125.5 26.84C127.82 27.99 130.61 28.48 132.29 30.53V30.52Z" fill="#FFF5F7"/>
<path d="M110.21 86.11L111.36 94.13L108.43 103.28L103.02 111.17L98.75 112.78L89.62 112.38L78 106.51L73.44 102.45L71.85 98.11L71.52 93.48L72.95 88.81C72.95 88.81 78.31 82.05 79.68 81.23L84.48 77.99L89.97 75.75L95.93 74.5L100.04 74.96L104.31 76.06L107.44 79.3L110.23 86.1L110.21 86.11ZM102.98 97.13C103.37 96.28 104.64 94.11 104.61 92.88C104.57 91.64 103.76 89.28 102.6 87C101.44 84.72 101.56 84.06 100.67 82.83C99.78 81.59 92.9 80.36 89.65 82.01C86.4 83.67 85.36 84.8 84.58 86.12C83.8 87.44 81.45 88.91 80.77 91.08C80.09 93.24 80.77 96.02 80.77 96.02V96.18L81.74 98.78L84.48 101.21L91.45 104.73L96.93 104.97L98.46 103.64C98.46 103.64 102.6 97.99 102.99 97.14L102.98 97.13Z" fill="#FFF5F7"/>
<path d="M104.6 92.88C104.64 94.11 103.37 96.28 102.97 97.13C102.59 97.98 98.44 103.63 98.44 103.63L96.91 104.96L91.43 104.72L84.46 101.2L81.72 98.77L80.77 96.17V96.01C80.77 96.01 80.08 93.23 80.76 91.07C81.44 88.9 83.8 87.43 84.57 86.11C85.35 84.8 86.38 83.66 89.64 82C92.89 80.35 99.77 81.58 100.66 82.82C101.55 84.05 101.43 84.71 102.59 86.99C103.75 89.27 104.56 91.63 104.6 92.87V92.88Z" fill="#FF0B9C"/>
<path d="M57.08 67.53C57.22 67.6 57.37 67.7 57.52 67.8C55.64 71.47 54.56 75.69 53.6 79.59C51.86 84.57 52.13 88.3 51.9 93.64C51.79 96.26 51.44 97.63 51.73 100.2C51.8 100.55 52.22 101.67 51.94 101.88C51.78 102.01 51.27 101.98 51.07 102.01C50.76 102.06 50.44 102.11 50.12 102.16C48.8 102.37 47.48 102.57 46.15 102.78C46.01 102.8 45.86 102.82 45.72 102.85C39.92 103.75 34.12 104.65 28.33 105.55C25.43 106 22.53 106.45 19.64 106.9C19.4 106.94 18.84 107.13 18.66 106.97C18.51 106.84 18.48 106.19 18.43 106C18.27 105.3 18.12 104.61 17.99 103.9C17.72 102.51 17.65 100.39 17.46 98.98C16.73 93.35 17.72 90.12 18.03 84.47C18.33 79.17 19.82 74.13 21.01 68.91C21.98 64.41 23.78 59.89 25.37 55.55C30.81 57.67 36.5 59.12 42.03 61.01C47.21 62.79 52.25 64.97 57.1 67.52L57.08 67.53Z" fill="#FFF5F7"/>
<path d="M57.01 122.9L30.44 141.63C29.18 139.71 27.99 137.71 26.85 135.65C24.13 130 20.56 124.72 18.5 118.85C18.43 118.64 18.34 118.43 18.29 118.21C19.36 117.77 20.59 117.53 21.71 117.21C22.68 116.93 23.65 116.65 24.62 116.37C25.85 116.02 27.07 115.66 28.29 115.31C30 114.82 31.71 114.32 33.42 113.83C34.37 113.56 35.33 113.27 36.29 112.99C37.11 112.75 37.92 112.51 38.73 112.26L40.27 111.8C42.03 111.27 43.79 110.75 45.56 110.22C47.19 109.73 49.18 109.43 50.69 108.64C51.72 110.88 52.4 113.32 53.36 115.6C54.33 117.9 55.41 120.18 56.69 122.33C56.79 122.53 56.92 122.72 57.04 122.9H57.01Z" fill="#FFF5F7"/>
</svg>
