<svg xmlns="http://www.w3.org/2000/svg" width="559" height="370" fill="none" viewBox="0 0 559 370">
    <g filter="url(#a)">
        <ellipse cx="256.558" cy="185.118" fill="#5600a8" rx="181.678" ry="181.325" />
        <path fill="#fff5f7"
            d="m66.032 348.008-.488.111.124.545.527-.183zm481.754-167.001.164.473.26-.091.063-.268zm6.894-29.402.487.114.072-.309-.248-.197zM389.862 21.275l.31-.392-.182-.143-.227.046zM4.68 98.962l-.099-.49-.513.104.127.507zm92.03 121.44-.134-.482-.508.142.169.5zm9.324 27.588-.473.16.154.458.464-.139zm37.327-11.254.144.478.519-.156-.197-.504zm-10.347-26.5.465-.182-.164-.422-.436.122zm-25.23 42.776-.145-.479-.493.15.164.487zm10.042 30.011-.474.159.156.467.47-.149zm39.692-12.582.151.477.517-.165-.205-.502zm-11.857-28.923.463-.19-.173-.421-.435.132zm-4.594-33.647-.137-.481-.542.155.218.519zm10.995 26.234-.461.194.177.42.435-.137zm35.565-11.196.15.477.548-.172-.246-.519zm-11.838-24.957.452-.215-.182-.383-.407.117zm-21.413 41.142-.146-.478-.528.161.212.51zm11.98 28.684-.462.192.176.421.435-.136zm38.24-11.98.15.477.565-.177-.27-.528zm-14.164-27.712.446-.227-.191-.373-.401.122zm-28.417-119.748.493-.086zm-56.265 47.159-.086-.493zm-68.94-25.24.493-.086zm56.266-47.159-.086-.492zm63.539 25.444-.492.087zM41.954 128.615l-.493.086zM435.5 63.559l.495.073.22-1.498-1.069 1.072zm-48.477-32.87-.073.496zm20.429 5.12-.173.469zm27.517 21.776-.477.15zm.525 5.98-.495-.074-.225 1.504 1.074-1.077zm-114.539 2.54-.443-.232-.039.075-.013.084zm55.877 33.958.072-.495zm63.282-16.438.495.073.012-.085-.016-.084zm-53.396-50.989-.072.495zm-6.507 44.283-.073.495zm5.1-34.705-.073.494zm23.372 16.27-.495-.073zm-27.065 8.858-.073.495zm-23.372-16.27-.495-.073zm-227.048 59.847-.492.086zm-28.28 23.546.087.493zm-34.597-12.538-.492.086zm28.28-23.546.086.492zm-63.75 38.911-.483-.129-.009.031-.004.031zm.142 8.08-.492.085v.001zm138.253-24.207.493-.086zm-4.432-10.664.412-.284-.007-.01-.007-.01zM49.516 233.106l-.133-.482-.478.132.128.48zm38.027-10.483.475-.156-.149-.453-.46.127zm4.814 14.656.14.48.496-.144-.161-.492zm-38.7 11.254-.483.13.132.493.49-.143zm1.483 4.536-.143-.479-.472.141.134.475zm38.668-11.552.476-.152-.149-.468-.47.141zm6.35 19.904.14.48.492-.144-.156-.488zm-39.38 11.513-.482.137.138.485.483-.142zm1.444 5.553-.141-.48-.47.138.129.473zm39.568-11.618.475-.156-.151-.46-.464.137zm6.434 19.568.154.475.478-.154-.157-.478zm-40.268 13.016-.482.132.138.505.498-.161zm402.203-154.075-.16-.474-.785.265.6.571zm20.63 19.658-.345.362.214.204.282-.09zm24.685-7.872.152.476.812-.259-.622-.582zm-21.239-19.898.342-.365-.218-.204-.283.095zm-48.593-14.254-.139-.481-.837.242.631.601zm20.629 19.651-.344.362.214.205.282-.09zm24.686-7.872.152.476.846-.269-.669-.584zm-21.407-18.673.329-.377-.206-.179-.262.076zm-31.314 38.752-.144-.479-.82.246.617.593zm21.601 20.785-.346.361.216.208.286-.093zm27.952-9.168.155.475.79-.258-.599-.577zm-20.954-20.176.347-.36-.211-.203-.279.084zm-51.847-15.2-.128-.483-.837.223.611.613zm20.675 20.733-.354.353.211.211.285-.084zm27.751-8.189.141.479.874-.257-.686-.599zm-22.34-19.496.328-.377-.2-.175-.257.069zm-57.29 15.608-.134-.482-.794.221.563.602zm26.157-7.263.357-.35-.206-.211-.285.079zm10.243 10.477.146.478.788-.239-.576-.589zm-26.027 7.898-.365.341.212.228.299-.091zm2.813 3.764-.146-.478-.793.243.585.588zm27.258-8.332.345-.361-.211-.203-.28.086zm13.017 12.427.151.477.805-.255-.611-.583zm-27.537 8.715-.354.352.215.216.29-.092zm4.374 4.516-.146-.479-.794.243.585.588zm27.258-8.333.345-.361-.212-.202-.279.085zm13.016 12.421.151.477.806-.255-.611-.584zm-27.536 8.721-.355.353.215.216.291-.092zM190.49 61.608l-.399.301.003.004zm-11.053 13.95-.499-.029-.001.015v.014zm.693-12 .499.03.001-.002zm22.276 49.314-.499-.026-.001.013v.013zm11.312 6.46-.458.198.001.004zm22.068 18.342h.5v-.021l-.001-.021zm-23.571 0-.499-.03-.001.015v.015zM190.07 94.51l-.5-.022v.022zm6.22-19.573a.5.5 0 1 0 .737-.675zm-.584-2.12a.5.5 0 0 0-.738.675zm-10.573-11.855a.5.5 0 0 0 .737-.677zm-.585-2.115a.5.5 0 0 0-.737.677zm93.166-15.282a.5.5 0 0 0 .737-.676zm-.585-2.114a.5.5 0 1 0-.736.676zm-45.515 5.891a.5.5 0 0 0 .738-.675zm-.584-2.12a.5.5 0 1 0-.737.675zM208.316 93.06a.5.5 0 1 0 .736-.677zm-.586-2.115a.5.5 0 1 0-.736.677zm13.032 23.094a.5.5 0 0 0 .738-.675zm-.584-2.12a.5.5 0 1 0-.738.675zm62.932-66.282.5-.007-.997-.042zm-5.546 2.054.051-.497zm-5.015-2.792.495-.076-.002-.011zm-.006-.33.497.058v-.01zm5.546-2.055-.051.498zm2.877.733-.205.456h.003zm1.911 1.47-.428.259.001.001zm.233.927h-.5l.998.052zm-10.742-.045-.493-.08h-.001zm19.309 8.203-.051.497zm-.656 6.446-.05.497zm7.225 15.012.498.05.003-.029-.001-.03zm-8.312 2.41.051-.497h-.001zm-7.659-4.036-.495-.072-.001.01-.001.011zm24.275-.866.051-.498zm-.779 7.657.051-.497zm7.105 14.48.497.05.002-.021.001-.022zm20.532 1.16.5.008.009-.508h-.509zm-10.865 4.613.051-.497h-.001zm-9.563-5.345-.477.152.001.002zm-.156-1.367-.497-.05h-.001zm20.578 2.099-.497-.052-.057.552h.554zm-.33 19.755.497.05.002-.02.001-.021zm-12.304 4.471-.051.497zm-11.151-6.855-.493-.081-.003.015-.001.015zm-19.17-58.804a.499.499 0 1 0 .8-.599zm-.372-2.167a.5.5 0 0 0-.801.599zm-14.36 48.321-.051.497zm-.656 6.446-.051.497zm7.229 15.015.497.051.003-.03-.001-.029zm-15.972-1.626-.495-.071-.001.01-.001.01zm8.172-19.002a.5.5 0 0 0 .801-.599zm-.371-2.167a.5.5 0 0 0-.801.599zm-13.545-16.955-.051.497zm-.656 6.446-.051.497zm7.223 15.014.498.05.003-.029-.001-.03zm-8.312 2.41-.052.497zm-7.659-4.037-.495-.071-.001.01-.001.011zm8.172-19.002a.5.5 0 0 0 .801-.599zm-.372-2.167a.5.5 0 0 0-.801.6zm45.453-7.138a.5.5 0 0 0 .802-.597zm-.364-2.165a.5.5 0 1 0-.802.597zm16.466 18.928a.5.5 0 1 0 .8-.599zm-.372-2.167a.5.5 0 0 0-.801.599zm-36.853-30.023.498.05.003-.029-.001-.028zm-48.179 97.544-.121-.485-.287.072-.075.286zm-3.628 13.794-.484-.127-.049.189.091.173zm4.717 8.896-.442.234.18.341.375-.088zm28.404-6.628.114.487.45-.105-.069-.457zm-2.449-16.062.495-.075-.017-.108-.06-.091zm-3.809-5.805.418-.275-.195-.296-.345.086zm-21.738 8.935-.133-.482-.295.081-.062.299zm40.56 53.991.12.485.67-.166-.367-.585zm-4.549 1.127-.423.266.192.307.352-.087zm-23.986-38.234-.132-.482-.648.179.357.569zm4.478-1.231.423-.265-.198-.315-.358.098zm86.192-48.814-.116-.486-.251.059-.097.24zm-5.916 14.63-.463-.187-.111.274.187.23zm5.916 7.231-.387.316.193.236.298-.063zm25.521-5.443.105.489.416-.088-.021-.425zm-.764-15.582.499-.025-.009-.189-.132-.135zm-5.313-5.456.358-.348-.198-.204-.276.066zm-17.04 7.251-.123-.485-.259.066-.089.253zm43.735 51.425.119.486.806-.199-.552-.619zm-4.549 1.121-.373.333.2.225.293-.073zm-31.45-35.305-.132-.482-.777.213.536.601zm4.477-1.231.374-.333-.207-.232-.299.083zm-38.94 41.253-.153-.476-.208.067-.092.197zm21.783 14.792.495-.074-.019-.127-.078-.102zm-13.347-17.52.398-.303-.215-.282-.337.109zm.181 38.305-.4.299.211.283.337-.104zm15.525-4.814.148.478.409-.127-.063-.424zm-31.042-15.971-.453-.212-.127.271.179.24zm24.803 1.147.498.044.017-.192-.116-.153zm-24.803 14.824-.413.282.208.305.353-.11zm-2.54-3.719-.147-.478-.649.2.383.56zm59.81-18.427.353-.354-.213-.212-.287.088zm3.265 3.259.149.477.79-.246-.585-.585zM248.272 71.639h.5v-.02l-.001-.02zm-29.312 0-.499-.019-.001.01v.008zM58.05 312.793l-.488.11 7.982 35.215.488-.111.487-.11-7.982-35.215zm7.982 35.214.163.473L547.95 181.48l-.164-.473-.163-.472L65.868 347.536zm481.754-167.001.487.114 6.894-29.402-.487-.114-.487-.115-6.893 29.403zm6.894-29.402-.154-.476L57.895 312.318l.154.476.155.476 496.631-161.19zm-334.981-96.01-.099-.49-28.994 5.845.098.49.099.49 28.995-5.844zm53.129-10.716-.098-.49-26.481 5.34.099.49.099.49 26.48-5.34zm136.135-8.5.31-.392-19.101-15.104-.31.393-.31.392 19.1 15.103zm-19.101-15.103-.099-.49-108.514 21.886.099.49.099.49 108.514-21.886zm-209.025 42.16-.099-.49L4.581 98.47l.1.49.098.49 176.156-35.525zM4.68 98.96l-.485.121 53.37 213.833.484-.121.485-.121L5.165 98.84zm550 52.644.311-.392-120.344-95.717-.312.392-.311.39 120.345 95.718zM96.71 220.401l-.473.16 9.324 27.588.473-.16.474-.16-9.324-27.588zm9.324 27.588.145.479 37.326-11.255-.144-.478-.144-.479-37.327 11.254zm37.327-11.254.466-.182-10.348-26.5-.465.182-.466.182 10.347 26.5zm-10.347-26.5-.135-.482-36.303 10.166.135.482.135.481 36.302-10.166zm-25.23 42.776-.474.158 10.042 30.012.474-.159.475-.158-10.043-30.012zm10.042 30.011.152.477 39.691-12.582-.151-.477-.151-.477-39.692 12.583zm39.692-12.582.463-.19-11.857-28.923-.463.19-.463.189 11.857 28.924zm-11.857-28.923-.145-.479-37.877 11.494.145.479.145.478 37.877-11.494zm-4.594-33.647-.461.193 10.995 26.235.461-.194.462-.193-10.996-26.234zm10.995 26.234.151.477 35.564-11.196-.15-.477-.15-.477-35.565 11.197zm35.565-11.196.452-.214-11.838-24.958-.452.215-.451.214 11.837 24.958zm-11.838-24.957-.137-.481-34.722 9.919.137.481.138.481 34.722-9.92zm-21.413 41.142-.462.193 11.98 28.683.462-.192.461-.193-11.98-28.683zm11.98 28.684.149.477 38.241-11.98-.15-.477-.149-.477-38.241 11.98zm38.24-11.98.445-.228-14.163-27.711-.446.227-.445.228 14.164 27.711zm-14.164-27.712-.146-.478-36.056 11.008.146.478.146.478 36.056-11.008zm-28.417-119.748-.492.086c1.706 9.746-3.568 19.86-13.683 28.338-10.104 8.468-24.959 15.228-42.176 18.242l.086.493.087.492c17.358-3.038 32.384-9.861 42.645-18.461 10.249-8.59 15.82-19.03 14.026-29.276zm-56.265 47.159-.086-.493c-17.216 3.014-33.485 1.703-45.864-2.83-12.394-4.537-20.79-12.257-22.497-22.003l-.492.086-.493.086c1.794 10.247 10.58 18.173 23.138 22.771 12.572 4.602 29.023 5.914 46.381 2.875zm-68.94-25.24.493-.086c-1.706-9.746 3.569-19.86 13.684-28.338C61.09 93.364 75.946 86.604 93.162 83.59l-.086-.493-.086-.492c-17.358 3.038-32.385 9.861-42.646 18.461-10.249 8.59-15.82 19.03-14.026 29.276zm56.266-47.159.086.493c17.216-3.014 33.485-1.703 45.865 2.83 12.393 4.537 20.79 12.257 22.496 22.003l.492-.086.493-.086c-1.794-10.247-10.58-18.173-23.138-22.77-12.572-4.603-29.022-5.915-46.38-2.876zm63.539 25.444-.492.087c1.551 8.862-3.272 18.072-12.535 25.805-9.25 7.723-22.851 13.895-38.612 16.655l.086.492.086.493c15.902-2.784 29.673-9.018 39.081-16.872 9.396-7.844 14.518-17.381 12.879-26.746zm-51.553 43.039-.086-.492c-15.761 2.759-30.65 1.574-41.974-2.547-11.339-4.126-19.004-11.15-20.556-20.012l-.492.086-.493.086c1.64 9.365 9.697 16.594 21.199 20.78 11.517 4.191 26.587 5.376 42.488 2.592zm-63.108-22.965.492-.086c-1.551-8.862 3.272-18.073 12.535-25.806C64.23 95 77.832 88.828 93.593 86.069l-.086-.493-.086-.492C77.519 87.868 63.748 94.1 54.34 101.955c-9.396 7.844-14.518 17.382-12.879 26.746zm51.553-43.039.086.493c15.761-2.76 30.65-1.575 41.974 2.546 11.339 4.126 19.004 11.15 20.556 20.013l.492-.087.493-.086c-1.64-9.364-9.697-16.594-21.199-20.78-11.516-4.19-26.586-5.375-42.488-2.591zM435.5 63.56l-.495-.073c-.98 6.661-7.493 12.01-17.557 15.167-10.026 3.144-23.406 4.048-37.758 1.937l-.073.495-.073.495c14.468 2.127 28.005 1.226 38.204-1.973 10.161-3.187 17.179-8.72 18.247-15.975zm-55.883 17.526.073-.495c-14.352-2.11-26.908-6.826-35.606-12.723-8.73-5.92-13.43-12.917-12.45-19.578l-.494-.073-.495-.073c-1.067 7.257 4.062 14.575 12.878 20.551 8.848 6 21.554 10.759 36.021 12.886zm-48.477-32.869.494.073c.98-6.661 7.494-12.01 17.557-15.167 10.026-3.144 23.407-4.048 37.759-1.937l.073-.495.073-.495c-14.468-2.127-28.005-1.226-38.204 1.973-10.161 3.187-17.179 8.72-18.247 15.975zm55.883-17.526-.073.495c7.335 1.077 14.208 2.838 20.329 5.093l.173-.47.173-.469c-6.19-2.28-13.13-4.057-20.53-5.144zm20.429 5.119-.173.469c7.209 2.649 13.379 5.977 18.066 9.67 4.692 3.696 7.866 7.732 9.147 11.788l.477-.15.477-.151c-1.363-4.316-4.7-8.506-9.482-12.273-4.788-3.771-11.055-7.146-18.34-9.823zm27.517 21.776-.477.15c.608 1.925.793 3.85.507 5.756l.495.074.494.074c.311-2.071.107-4.15-.542-6.205zm.525 5.98.354.353.006-.006-.354-.353-.354-.353-.006.006zm-103.09-19.282-.443-.232-11.449 21.822.443.232.443.233 11.448-21.822zm-11.449 21.822-.495-.073c-.537 3.65.709 7.34 3.333 10.868 2.622 3.526 6.643 6.922 11.732 10.015 10.182 6.187 24.73 11.215 41.234 13.642l.073-.494.072-.495c-16.404-2.413-30.818-7.405-40.859-13.507-5.022-3.052-8.929-6.368-11.45-9.758-2.519-3.387-3.632-6.815-3.145-10.125zm55.877 33.958-.073.494c16.5 2.428 31.879 1.8 43.41-1.195 5.764-1.498 10.592-3.593 14.118-6.215 3.529-2.625 5.785-5.8 6.322-9.45l-.495-.072-.495-.073c-.487 3.31-2.541 6.273-5.928 8.792-3.39 2.52-8.086 4.572-13.774 6.05-11.373 2.954-26.612 3.587-43.013 1.174zm63.282-16.438.491-.096-4.581-23.493-.491.095-.491.096 4.581 23.494zm-53.396-50.989-.072.495c13.239 1.946 24.838 6.172 32.888 11.412 8.09 5.265 12.43 11.433 11.577 17.237l.495.072.495.073c.944-6.424-3.865-12.911-12.022-18.22-8.196-5.335-19.939-9.602-33.288-11.563zm44.888 29.216-.495-.072c-.852 5.804-6.784 10.461-16.047 13.177-9.217 2.702-21.541 3.413-34.781 1.467l-.072.495-.073.495c13.349 1.961 25.823 1.253 35.208-1.498 9.339-2.737 15.811-7.567 16.755-13.991zM380.212 76.92l.072-.495c-13.239-1.945-24.838-6.172-32.888-11.412-8.09-5.265-12.43-11.432-11.578-17.236l-.494-.073-.495-.073c-.944 6.425 3.865 12.912 12.022 18.22 8.196 5.335 19.939 9.602 33.288 11.564zm-44.888-29.216.494.073c.853-5.804 6.785-10.462 16.048-13.177 9.217-2.702 21.541-3.414 34.781-1.468l.072-.495.073-.494c-13.349-1.962-25.823-1.254-35.208 1.497-9.339 2.738-15.811 7.567-16.755 13.991zm49.988-5.49-.073.495c6.904 1.015 12.925 3.325 17.078 6.216 4.182 2.911 6.339 6.307 5.872 9.487l.495.073.494.072c.553-3.758-2.012-7.475-6.289-10.452-4.306-2.998-10.481-5.353-17.505-6.385zm23.372 16.27-.495-.072c-.467 3.18-3.511 5.811-8.353 7.396-4.809 1.575-11.24 2.055-18.144 1.04l-.073.495-.073.495c7.024 1.032 13.616.553 18.601-1.08 4.954-1.62 8.479-4.442 9.031-8.2zm-27.065 8.859.073-.495c-6.904-1.014-12.925-3.324-17.079-6.216-4.181-2.91-6.339-6.306-5.871-9.486l-.495-.073-.495-.073c-.552 3.759 2.012 7.475 6.29 10.453 4.306 2.997 10.481 5.353 17.504 6.385zm-23.372-16.27.495.072c.467-3.18 3.51-5.811 8.352-7.396 4.81-1.574 11.241-2.054 18.145-1.04l.073-.494.072-.495c-7.023-1.032-13.615-.553-18.601 1.079-4.953 1.621-8.478 4.442-9.031 8.201zm-227.048 59.847-.492.086c.828 4.731-1.751 9.694-6.802 13.9-5.04 4.195-12.461 7.56-21.072 9.068l.086.492.087.493c8.751-1.532 16.342-4.958 21.538-9.285 5.184-4.316 8.064-9.606 7.148-14.84zm-28.28 23.546-.086-.492c-8.611 1.507-16.734.864-22.899-1.371-6.18-2.239-10.291-6.031-11.12-10.761l-.492.086-.492.086c.916 5.234 5.422 9.231 11.764 11.53 6.356 2.303 14.66 2.947 23.412 1.415zm-34.597-12.538.493-.086c-.828-4.731 1.75-9.694 6.802-13.9 5.039-4.196 12.46-7.56 21.071-9.068l-.086-.492-.086-.493c-8.752 1.532-16.343 4.958-21.539 9.285-5.184 4.316-8.064 9.606-7.147 14.84zm28.28-23.546.086.492c8.612-1.507 16.734-.864 22.899 1.37 6.18 2.24 10.292 6.032 11.12 10.762l.492-.086.493-.086c-.917-5.234-5.422-9.231-11.764-11.53-6.357-2.304-14.66-2.947-23.412-1.415zm-58.95 20.912-.482-.129-4.801 17.999.483.129.483.129 4.8-17.999zm-4.8 17.999-.496-.067c-.37 2.739-.33 5.492.146 8.232l.492-.085.493-.086a25.9 25.9 0 0 1-.14-7.927zm.142 8.08-.492.086c2.053 11.737 11.796 20.898 25.713 26.277 13.927 5.382 32.12 7.018 51.281 3.661l-.086-.492-.086-.493c-19.014 3.331-37.018 1.698-50.749-3.609-13.741-5.311-23.119-14.259-25.088-25.516zm76.416 29.532.086.492c19.162-3.356 35.715-11.075 46.985-20.868 11.261-9.786 17.313-21.711 15.259-33.449l-.493.086-.492.087c1.97 11.257-3.81 22.858-14.93 32.521-11.111 9.655-27.488 17.308-46.501 20.638zm61.837-53.739.493-.086c-.687-3.917-2.233-7.561-4.513-10.862l-.412.284-.411.284c2.203 3.19 3.69 6.7 4.351 10.467zm-4.432-10.664.398-.304-9.226-12.083-.398.303-.397.303 9.226 12.084zM49.516 233.106l.133.482 38.027-10.483-.133-.482-.133-.482-38.027 10.483zm38.027-10.483-.475.156 4.814 14.656.475-.156.475-.156-4.814-14.656zm4.814 14.656-.14-.48-38.7 11.254.14.48.14.48 38.7-11.254zm-38.7 11.254.482-.129L50 232.977l-.483.129-.483.13 4.14 15.427zm1.483 4.536.143.479 38.668-11.552-.143-.479-.143-.479-38.668 11.552zm38.668-11.552-.476.152 6.35 19.904.476-.152.476-.152-6.35-19.904zm6.35 19.904-.141-.48-39.38 11.513.14.48.14.48 39.381-11.513zm-39.38 11.513.48-.136-5.637-19.865-.48.136-.482.137 5.637 19.865zm1.444 5.553.14.479 39.569-11.617-.141-.48-.14-.479-39.569 11.617zm39.568-11.618-.475.157 6.434 19.567.475-.156.475-.157-6.434-19.567zm6.434 19.568-.154-.476-40.268 13.016.154.476.154.476 40.268-13.017zm-40.268 13.016.482-.132-5.734-20.966-.482.132-.482.131 5.734 20.967zm402.203-154.075-.345.362 20.63 19.658.345-.362.344-.362-20.629-19.658zm20.63 19.658.151.476 24.686-7.872-.152-.476-.152-.477-24.685 7.873zm24.685-7.872.342-.365-21.239-19.898-.342.365-.341.365 21.238 19.898zm-21.239-19.898-.159-.474-24.077 8.112.16.474.159.474 24.077-8.112zm-48.593-14.254-.345.362 20.63 19.651.344-.362.345-.362-20.629-19.651zm20.629 19.651.152.477 24.686-7.873-.152-.476-.152-.476-24.685 7.872zm24.686-7.872.329-.377-21.407-18.673-.329.377-.329.377 21.407 18.673zm-21.407-18.673-.139-.48-23.908 6.893.139.481.138.48 23.908-6.894zm-31.314 38.752-.347.36 21.602 20.786.346-.361.347-.36-21.602-20.785zm21.601 20.785.156.476 27.951-9.169-.155-.475-.156-.475-27.951 9.168zm27.952-9.168.346-.36-20.953-20.176-.347.36-.347.36 20.954 20.177zm-20.954-20.176-.143-.479-28.6 8.559.144.479.143.479 28.599-8.559zm-51.847-15.2-.354.353 20.675 20.733.354-.353.354-.353-20.675-20.733zm20.675 20.733.142.48 27.75-8.19-.141-.479-.142-.48-27.75 8.19zm27.751-8.189.329-.377-22.341-19.496-.328.377-.329.376 22.34 19.496zm-22.34-19.496-.129-.483-26.085 6.952.128.483.129.483 26.085-6.952zm-57.29 15.608.134.482 26.156-7.263-.133-.482-.134-.482-26.157 7.263zm26.157-7.263-.358.349 10.244 10.477.357-.349.358-.35-10.244-10.477zm10.243 10.477-.145-.479-26.027 7.898.145.479.146.478 26.027-7.898zm-26.027 7.898.366-.341-10.373-11.112-.366.341-.365.341 10.373 11.112zm2.813 3.764.146.479 27.258-8.333-.146-.478-.146-.478-27.258 8.332zm27.258-8.332-.345.362L436.9 159.1l.345-.362.345-.361-13.017-12.427zm13.017 12.427-.151-.476-27.537 8.714.151.477.151.476 27.537-8.714zm-27.537 8.715.355-.353-12.738-12.809-.355.352-.354.353 12.738 12.809zm4.374 4.516.146.478 27.258-8.332-.146-.479-.146-.478-27.258 8.332zm27.258-8.333-.345.362 13.016 12.421.345-.362.346-.362-13.017-12.42zm13.016 12.421-.15-.477-27.537 8.721.151.477.151.477 27.536-8.721zm-27.536 8.721.354-.353-12.738-12.809-.354.353-.355.352 12.738 12.81zM190.814 62.509h-.5c0 .423-.364.946-1.276 1.393-.879.431-2.128.712-3.537.712v1c1.527 0 2.934-.303 3.978-.814 1.011-.496 1.835-1.275 1.835-2.29zm-5.313 2.605v-.5c-1.408 0-2.657-.281-3.537-.712-.911-.447-1.275-.97-1.275-1.393h-1c0 1.016.824 1.795 1.835 2.29 1.044.512 2.451.815 3.977.815zm-5.312-2.605h.5c0-.422.364-.946 1.275-1.393.88-.43 2.129-.711 3.537-.711v-1c-1.526 0-2.933.302-3.977.814-1.011.495-1.835 1.274-1.835 2.29zm5.312-2.604v.5c1.095 0 2.098.169 2.907.45.819.284 1.391.666 1.683 1.054l.399-.3.4-.301c-.459-.61-1.238-1.08-2.154-1.398-.926-.322-2.042-.505-3.235-.505zm4.989 1.704-.396.304c.155.202.22.401.22.596h1c0-.44-.154-.85-.427-1.205zm.227 15.284-.291-.406c-.937.672-2.761 1.176-4.924 1.176v1c2.268 0 4.331-.52 5.507-1.364zm-5.215 1.27v-.5c-1.624 0-3.07-.284-4.092-.722-.511-.22-.893-.469-1.14-.72-.245-.248-.333-.472-.333-.663h-1c0 .529.251.99.62 1.365.367.372.873.685 1.459.936 1.173.504 2.759.804 4.486.804zm-6.065-2.605.499.03.693-12-.499-.03-.499-.028-.693 12zm.693-12 .5.029.058-1.05-.499-.028-.5-.028-.058 1.05zm23.928 13.666h-.5c0 .597-.51 1.279-1.659 1.841-1.116.546-2.693.898-4.463.898v1c1.888 0 3.622-.373 4.903-1 1.247-.61 2.219-1.548 2.219-2.74zm-6.622 3.24v-.5c-1.769 0-3.346-.353-4.462-.899-1.149-.562-1.659-1.244-1.659-1.841h-1c0 1.191.972 2.13 2.22 2.74 1.28.626 3.014 1 4.901 1zm-6.621-3.24h.5c0-.598.51-1.28 1.659-1.842 1.116-.546 2.693-.898 4.462-.898v-1c-1.887 0-3.621.373-4.901 1-1.248.61-2.22 1.548-2.22 2.74zm6.621-3.24v.5c1.77 0 3.347.352 4.463.898 1.149.562 1.659 1.244 1.659 1.841h1c0-1.191-.972-2.13-2.219-2.74-1.281-.626-3.015-1-4.903-1zm19.872 21.466h-.5c0 .796-.593 1.624-1.789 2.283-1.178.648-2.839 1.065-4.702 1.065v1c1.998 0 3.832-.445 5.185-1.19 1.334-.734 2.306-1.83 2.306-3.159zm-6.991 3.848v-.5c-1.863 0-3.524-.416-4.702-1.065-1.196-.659-1.789-1.487-1.789-2.284h-1c0 1.33.972 2.425 2.306 3.16 1.353.744 3.187 1.19 5.185 1.19zm-6.991-3.849h.5c0-.796.593-1.624 1.789-2.283 1.178-.648 2.839-1.065 4.702-1.065v-1c-1.998 0-3.832.445-5.185 1.19-1.334.734-2.306 1.83-2.306 3.159zm6.991-3.848v.5c1.863 0 3.524.417 4.702 1.065 1.196.659 1.789 1.487 1.789 2.284h1c0-1.33-.972-2.425-2.306-3.16-1.353-.744-3.187-1.19-5.185-1.19zm3.726 24.452-.167-.471c-1.133.4-2.521.639-4.019.639v1c1.599 0 3.101-.254 4.352-.696zm-4.186.668v-.5c-1.994 0-3.775-.419-5.039-1.072-1.289-.666-1.912-1.497-1.912-2.277h-1c0 1.346 1.046 2.439 2.453 3.166 1.433.74 3.378 1.183 5.498 1.183zm-7.451-3.849.499.026.92-17.422-.499-.026-.499-.027-.92 17.423zm31.715 5.112h-.5c0 1.305-.968 2.595-2.771 3.588-1.786.983-4.287 1.607-7.076 1.607v1c2.925 0 5.598-.652 7.558-1.731 1.941-1.069 3.289-2.626 3.289-4.464zm-10.347 5.695v-.5c-2.376 0-4.545-.452-6.241-1.196-1.708-.749-2.877-1.766-3.357-2.853l-.458.202-.457.202c.621 1.407 2.044 2.564 3.87 3.365 1.839.806 4.147 1.28 6.643 1.28zm-10.056-4.347.459-.199a2.9 2.9 0 0 1-.25-1.149h-1c0 .543.121 1.058.333 1.546zm-.291-1.348h.5c0-1.305.968-2.595 2.772-3.588 1.785-.983 4.286-1.607 7.075-1.607v-1c-2.925 0-5.598.652-7.558 1.731-1.941 1.069-3.289 2.626-3.289 4.464zm10.347-5.695v.5c2.79 0 5.29.622 7.076 1.605 1.803.992 2.771 2.282 2.771 3.59h1c0-1.841-1.347-3.398-3.289-4.466-1.96-1.079-4.633-1.729-7.558-1.729zm-6.473-16.84-.498.044 1.536 17.526.498-.043.498-.044-1.536-17.526zm16.82 22.535-.498.042 1.665 19.69.498-.042.499-.042-1.665-19.69zm1.665 19.69h-.5c0 1.271-1.082 2.568-3.168 3.576-2.051.992-4.92 1.62-8.117 1.62v1c3.314 0 6.338-.649 8.552-1.72 2.179-1.053 3.733-2.604 3.733-4.476zm-11.785 5.696v-.5c-3.198 0-6.067-.627-8.117-1.617-2.086-1.008-3.169-2.304-3.169-3.579h-1c0 1.875 1.554 3.426 3.734 4.479 2.214 1.07 5.238 1.717 8.552 1.717zm-11.786-5.696.499.031 1.212-19.69-.499-.031-.499-.031-1.212 19.691zm-21.4-60.45-.5-.022-.745 17.286.5.022.499.021.745-17.286zm-.745 17.286h-.5c0 .625.312 1.172.775 1.62.462.447 1.105.826 1.857 1.133 1.508.617 3.556.987 5.792.987v-1c-2.139 0-4.052-.356-5.413-.912-.682-.28-1.201-.598-1.541-.927-.339-.327-.47-.632-.47-.901zm7.924 3.24v.5c2.06 0 3.953-.311 5.418-.84l-.17-.47-.17-.47c-1.335.481-3.109.78-5.078.78zm6.064-20.526-.498.042 1.322 15.498.498-.042.498-.043-1.322-15.498zm-13.244-14.715-.496.058 1.464 12.492.497-.058.497-.058-1.465-12.492zm5.845 12.09.368-.337-1.321-1.445-.369.338-.369.337 1.322 1.445zm-11.158-13.975.369-.339-1.322-1.438-.368.338-.369.339 1.322 1.438zm92.582-17.397.368-.338-1.322-1.439-.368.339-.368.338 1.321 1.438zm-46.1 3.778.369-.338-1.322-1.445-.368.338-.369.337 1.321 1.445zm-23.299 45.717.368-.338-1.322-1.439-.368.338-.368.339 1.322 1.438zm12.447 20.979.369-.337-1.322-1.445-.369.338-.369.337 1.322 1.445zm61.979-68.064-.497-.05c-.042.42-.456.904-1.409 1.257-.919.34-2.19.493-3.589.35l-.051.497-.051.498c1.518.155 2.948-.004 4.038-.407 1.055-.39 1.956-1.083 2.057-2.095zm-5.546 2.054.051-.497c-1.289-.13-2.424-.485-3.247-.946-.847-.476-1.259-1.001-1.324-1.425l-.495.076-.494.076c.136.885.887 1.62 1.824 2.145.963.54 2.235.927 3.635 1.069zm-5.015-2.792.493-.087a.6.6 0 0 1-.003-.185l-.496-.059-.497-.058c-.017.149-.018.309.011.476zm-.006-.33.497.049c.042-.42.457-.904 1.41-1.257.918-.34 2.19-.492 3.588-.35l.051-.497.051-.497c-1.517-.155-2.947.003-4.037.407-1.056.39-1.957 1.083-2.058 2.095zm5.546-2.055-.051.498c1.036.105 1.968.352 2.723.69l.205-.455.204-.457c-.864-.387-1.902-.658-3.03-.773zm2.877.733-.202.457c.847.375 1.423.838 1.685 1.272l.428-.259.428-.258c-.412-.681-1.196-1.254-2.137-1.67zm1.911 1.47-.427.26c.135.223.182.432.163.615l.497.052.498.052c.046-.44-.076-.865-.304-1.239zm.233.927h.5v-.007h-1v.007zm-12.647 11.824.494.08 1.905-11.87-.494-.08-.494-.079-1.904 11.87zm1.905-11.87.494.08.168-1.036-.494-.08-.493-.08-.168 1.036zm19.309 8.204-.051.497c1.761.18 3.294.69 4.349 1.346 1.087.675 1.525 1.405 1.464 2l.498.05.497.05c.121-1.185-.752-2.216-1.931-2.95-1.21-.752-2.897-1.3-4.775-1.49zm6.26 3.893-.498-.05c-.06.594-.636 1.22-1.837 1.664-1.165.43-2.77.62-4.53.442l-.051.497-.05.497c1.878.191 3.64-.004 4.978-.498 1.302-.48 2.365-1.315 2.485-2.501zm-6.916 2.553.051-.497c-1.76-.18-3.294-.69-4.349-1.346-1.086-.675-1.525-1.405-1.464-2l-.498-.05-.497-.051c-.121 1.186.752 2.217 1.931 2.95 1.21.753 2.897 1.3 4.776 1.491zm-6.26-3.893.498.05c.06-.594.637-1.22 1.837-1.664 1.166-.43 2.77-.62 4.53-.442l.051-.497.051-.497c-1.879-.191-3.641.004-4.978.498-1.303.48-2.365 1.315-2.486 2.501zm13.181 1.34-.5.009.304 17.565.5-.009.5-.008-.304-17.565zm.304 17.565-.497-.05c-.027.266-.19.556-.565.848-.376.293-.931.558-1.647.765-1.428.415-3.394.572-5.552.35l-.051.498-.052.497c2.254.232 4.354.074 5.934-.384.788-.229 1.473-.54 1.983-.937.511-.398.881-.912.945-1.536zm-8.312 2.41.05-.497c-2.159-.219-4.053-.769-5.369-1.463-.659-.347-1.15-.718-1.46-1.081-.309-.362-.41-.678-.382-.944l-.498-.051-.497-.05c-.064.624.196 1.202.617 1.694.419.491 1.027.934 1.753 1.317 1.456.767 3.481 1.345 5.735 1.573zm-7.659-4.036.495.071 2.494-17.28-.494-.071-.495-.071-2.495 17.28zm24.275-.866-.05.497c1.853.189 3.464.771 4.57 1.536 1.123.776 1.629 1.66 1.548 2.453l.498.05.497.05c.135-1.322-.722-2.51-1.975-3.376-1.269-.877-3.049-1.506-5.037-1.708zm6.566 4.536-.498-.05c-.08.792-.754 1.556-2.01 2.09-1.238.526-2.933.772-4.786.584l-.051.497-.051.498c1.989.202 3.858-.055 5.279-.659 1.401-.595 2.48-1.587 2.614-2.91zm-7.345 3.121.051-.497c-1.853-.189-3.464-.771-4.571-1.536-1.123-.776-1.629-1.66-1.548-2.453l-.498-.05-.497-.05c-.134 1.321.722 2.51 1.975 3.376 1.27.877 3.049 1.505 5.037 1.708zm-6.566-4.536.498.05c.081-.792.754-1.556 2.011-2.09 1.237-.526 2.933-.773 4.786-.584l.05-.497.051-.498c-1.988-.202-3.858.055-5.278.658-1.402.596-2.48 1.588-2.615 2.91zm13.671 19.016-.498-.05c-.076.753-.789 1.49-2.248 1.989-1.425.487-3.406.682-5.646.454l-.051.497-.05.497c2.341.239 4.474.044 6.071-.502 1.563-.534 2.782-1.475 2.919-2.834zm-8.443 2.89.051-.498c-2.235-.227-4.192-.85-5.546-1.651-1.394-.825-1.983-1.726-1.906-2.47l-.497-.053-.497-.052c-.143 1.368.927 2.57 2.391 3.436 1.505.89 3.608 1.546 5.954 1.785zm-7.904-4.659.494.077 2.689-17.24-.494-.078-.494-.077-2.689 17.241zm36.879 2.929-.497-.05c-.132 1.3-1.225 2.484-3.119 3.288-1.875.797-4.425 1.162-7.198.878l-.051.497-.051.498c2.909.298 5.633-.078 7.691-.952 2.039-.866 3.537-2.279 3.723-4.109zm-10.865 4.613.05-.497c-2.363-.24-4.475-.91-6.087-1.821-1.624-.918-2.684-2.049-3.051-3.181l-.475.154-.476.154c.475 1.465 1.773 2.762 3.51 3.743 1.747.989 3.996 1.693 6.478 1.946zm-9.563-5.345.476-.152a2.9 2.9 0 0 1-.134-1.166l-.498-.05-.498-.048a3.9 3.9 0 0 0 .177 1.568zm-.156-1.367.498.05c.131-1.3 1.225-2.485 3.118-3.289 1.875-.796 4.425-1.162 7.199-.877l.051-.497.051-.498c-2.909-.298-5.633.078-7.691.952-2.04.866-3.538 2.278-3.723 4.108zm10.866-4.613-.051.497c2.774.285 5.198 1.158 6.875 2.315 1.694 1.17 2.525 2.55 2.391 3.848l.497.052.497.051c.19-1.83-.994-3.515-2.817-4.774-1.84-1.27-4.433-2.188-7.341-2.487zm9.712 6.712v.5h.006v-1h-.006zm-20.28-18.757-.5-.007-.246 17.597.5.007.5.007.246-17.597zm20.286 18.757-.499-.009-.337 19.756.5.008.5.009.336-19.755zm-.336 19.755-.498-.05c-.128 1.265-1.337 2.445-3.514 3.237-2.142.778-5.06 1.111-8.241.786l-.051.498-.051.497c3.298.336 6.373-.001 8.684-.841 2.275-.827 3.979-2.213 4.168-4.077zm-12.304 4.471.051-.498c-3.179-.324-5.97-1.239-7.911-2.432-1.975-1.215-2.922-2.613-2.793-3.875l-.498-.05-.497-.051c-.19 1.861 1.203 3.56 3.264 4.827 2.095 1.288 5.038 2.24 8.333 2.576zm-11.151-6.855.493.081 3.201-19.464-.493-.08-.494-.082-3.2 19.464zm-18.77-59.104.4-.299-1.172-1.568-.401.3-.4.299 1.173 1.568zm-15.132 46.454-.051.497c1.76.179 3.294.689 4.349 1.345 1.086.676 1.525 1.406 1.464 2l.498.051.497.051c.121-1.186-.752-2.218-1.931-2.951-1.21-.753-2.897-1.3-4.776-1.491zm6.26 3.893-.498-.051c-.06.595-.637 1.222-1.837 1.665-1.166.43-2.77.62-4.53.441l-.051.498-.051.497c1.879.191 3.641-.005 4.978-.498 1.303-.481 2.365-1.316 2.486-2.501zm-6.916 2.553.051-.498c-1.761-.179-3.294-.689-4.349-1.345-1.087-.676-1.525-1.406-1.464-2l-.498-.051-.497-.05c-.121 1.185.752 2.217 1.931 2.95 1.21.753 2.897 1.3 4.775 1.491zm-6.26-3.894.498.051c.06-.594.636-1.221 1.837-1.664 1.165-.43 2.77-.621 4.53-.442l.051-.497.05-.498c-1.878-.191-3.64.005-4.978.499-1.302.48-2.365 1.315-2.485 2.501zm13.184 1.344-.5.009.305 17.565.5-.009.499-.008-.304-17.565zm.305 17.565-.498-.05c-.027.266-.189.556-.565.848-.376.293-.931.558-1.647.766-1.428.414-3.394.571-5.552.349l-.051.498-.051.497c2.254.232 4.353.074 5.933-.384.789-.229 1.473-.54 1.983-.937.511-.398.881-.912.945-1.536zm-8.313 2.411.051-.498c-2.159-.222-4.054-.772-5.37-1.465-.66-.347-1.15-.718-1.46-1.08-.309-.361-.409-.677-.382-.943l-.498-.051-.497-.051c-.064.625.196 1.203.617 1.695.42.49 1.028.932 1.754 1.315 1.455.766 3.48 1.343 5.734 1.575zm-7.659-4.037.495.072 2.495-17.28-.495-.072-.495-.071-2.495 17.28zm8.573-19.301.4-.3-1.172-1.568-.401.3-.4.299 1.172 1.568zm-14.317-18.823-.051.497c1.76.18 3.294.69 4.349 1.346 1.086.675 1.524 1.405 1.464 2l.497.05.498.05c.12-1.185-.752-2.216-1.931-2.95-1.211-.752-2.898-1.3-4.776-1.49zm6.259 3.893-.497-.05c-.061.594-.637 1.22-1.837 1.664-1.166.43-2.771.62-4.531.441l-.05.498-.051.497c1.878.191 3.641-.004 4.978-.498 1.303-.48 2.365-1.315 2.486-2.501zm-6.915 2.553.05-.498c-1.76-.179-3.293-.688-4.348-1.345-1.087-.675-1.525-1.405-1.465-2l-.497-.05-.498-.051c-.12 1.186.752 2.217 1.931 2.95 1.211.753 2.898 1.3 4.776 1.491zm-6.26-3.893.497.05c.061-.594.637-1.22 1.837-1.664 1.166-.43 2.771-.62 4.531-.442l.051-.497.05-.497c-1.878-.192-3.641.004-4.978.498-1.302.48-2.365 1.315-2.486 2.501zm13.179 1.342-.5.008.304 17.565.5-.008.5-.009-.304-17.565zm.304 17.565-.497-.051c-.027.267-.19.556-.565.848-.376.293-.931.558-1.647.766-1.428.414-3.394.571-5.552.35l-.051.497-.052.497c2.254.232 4.354.075 5.934-.384.788-.229 1.473-.54 1.983-.937.511-.398.881-.911.945-1.536zm-8.312 2.41.051-.497c-2.159-.222-4.054-.773-5.37-1.466-.66-.347-1.15-.718-1.46-1.08-.309-.361-.41-.677-.382-.943l-.498-.051-.497-.05c-.064.624.196 1.202.617 1.694.42.491 1.027.933 1.754 1.315 1.455.766 3.48 1.344 5.733 1.575zm-7.659-4.037.495.072 2.495-17.28-.495-.072-.495-.071-2.495 17.28zm8.573-19.301.4-.3-1.173-1.568-.4.3-.401.3 1.173 1.567zm45.081-9.304.401-.299-1.166-1.568-.401.299-.401.298 1.166 1.568zm16.101 16.762.4-.3-1.172-1.568-.401.3-.4.299 1.173 1.568zm-37.813-44.85-.499.008.187 12.958.5-.007.5-.007-.188-12.959zm.188 12.959-.497-.05c-.018.18-.127.39-.414.613-.289.225-.722.434-1.288.598-1.131.329-2.696.455-4.417.279l-.051.497-.051.498c1.817.186 3.515.06 4.798-.313.639-.186 1.201-.44 1.623-.77.424-.33.742-.766.795-1.303zm-6.667 1.937.051-.497c-1.721-.177-3.227-.617-4.269-1.166-.522-.276-.904-.567-1.142-.845-.237-.277-.302-.504-.284-.682l-.498-.05-.497-.05c-.054.536.171 1.025.519 1.432.348.406.847.768 1.436 1.079 1.18.623 2.817 1.09 4.633 1.277zm-41.512 95.607-.483-.127-3.629 13.794.484.127.483.128 3.629-13.795zm-3.628 13.794-.442.235 4.717 8.895.442-.234.441-.234-4.716-8.896zm4.717 8.896.113.487 28.405-6.628-.114-.487-.113-.487-28.405 6.628zm28.404-6.628.495-.075-2.449-16.062-.495.075-.494.075 2.449 16.062zm-2.449-16.062.418-.274-3.809-5.806-.418.275-.419.274 3.81 5.805zm-3.809-5.805-.122-.485-23.234 5.805.121.485.121.485 23.235-5.805zm-23.235 5.805-.451.216 2.993 6.265.452-.216.451-.215-2.994-6.265zm2.994 6.265.126.484 24.05-6.265-.126-.484-.126-.484-24.051 6.266zm-4.529 11.482.489.101 3.032-14.617-.489-.101-.49-.102-3.032 14.617zm3.032-14.617.133.482 23.364-6.454-.133-.482-.133-.482-23.364 6.454zm40.56 53.991-.12-.485-4.549 1.127.12.485.121.486 4.548-1.128zm-4.549 1.127.424-.265-23.986-38.234-.424.265-.423.266 23.986 38.234zm-23.986-38.234.133.483 4.477-1.231-.132-.483-.133-.482-4.477 1.231zm4.478-1.231-.424.266 24.057 38.338.424-.266.423-.266-24.057-38.337zm6.861 2.929.135.481 3.609-1.017-.135-.481-.136-.482-3.609 1.018zm-18.297 5.151.135.481 3.888-1.095-.136-.481-.135-.481-3.888 1.095zm21.517-.35.136.481 3.602-1.017-.136-.481-.136-.481-3.602 1.017zm-18.297 5.158.135.481 3.888-1.095-.136-.481-.135-.482-3.888 1.095zm21.446-.085.135.482 3.609-1.011-.135-.481-.135-.482-3.609 1.011zm-18.297 5.157.135.482 3.888-1.095-.136-.482-.135-.481-3.888 1.095zm21.504-.077.136.481 3.603-1.017-.136-.482-.136-.481-3.602 1.018zm-18.297 5.157.136.482 3.887-1.095-.135-.482-.136-.481-3.887 1.095zm21.653-.084.135.481 3.609-1.01-.135-.482-.135-.481-3.609 1.011zm-18.297 5.158.136.481 3.887-1.095-.135-.481-.136-.482-3.887 1.095zm21.841-.078.136.481 3.603-1.017-.136-.481-.136-.482-3.602 1.018zm-18.297 5.157.136.482 3.887-1.095-.135-.482-.136-.481-3.887 1.095zm18.764 1.231.146.479 11.773-3.59-.146-.478-.146-.478-11.773 3.589zm-20.364 6.214.146.478 12.589-3.842-.146-.478-.146-.478-12.589 3.842zm-18.446-53.156-.497-.057-1.905 16.425.497.057.496.058 1.905-16.425zm101.198-36.296-.464-.187-5.915 14.63.463.187.464.188 5.916-14.631zm-5.916 14.63-.387.317 5.916 7.23.387-.316.387-.317-5.916-7.231zm5.916 7.231.104.489 25.522-5.443-.105-.489-.104-.489-25.521 5.443zm25.521-5.443.5-.024-.765-15.583-.499.025-.499.024.764 15.583zm-.764-15.582.358-.349-5.313-5.455-.358.348-.358.349 5.313 5.456zm-5.313-5.456-.116-.486-19.444 4.62.116.486.116.487 19.444-4.62zm-19.444 4.62-.369.338 4.808 5.254.368-.337.369-.338-4.807-5.254zm4.807 5.255.109.488 19.949-4.419-.108-.488-.108-.488-19.95 4.418zm-7.858 12.88.472.166 5.455-15.504-.472-.166-.471-.166-5.456 15.504zm5.455-15.504.123.484 19.328-4.905-.123-.484-.123-.485-19.328 4.905zm43.735 51.425-.12-.485-4.548 1.12.119.486.12.485 4.548-1.12zm-4.549 1.121.374-.333-31.45-35.305-.374.333-.373.332 31.45 35.306zm-31.45-35.305.133.482 4.477-1.231-.133-.482-.132-.482-4.477 1.231zm4.477-1.231-.373.332 31.521 35.415.374-.332.373-.332-31.521-35.416zm9.136 4.457.165.472 3.538-1.237-.165-.472-.165-.472-3.538 1.237zm-15.712 4.264.183.465 3.757-1.477-.182-.466-.183-.465-3.758 1.477zm12.479-7.989.165.472 3.538-1.238-.165-.472-.165-.472-3.538 1.238zm-15.713 4.263.183.465 3.758-1.477-.183-.465-.183-.465-3.757 1.477zm23.125 3.609.166.472 3.531-1.238-.165-.472-.166-.471-3.531 1.237zm-16.205 4.581.183.465 3.758-1.477-.183-.466-.183-.465-3.757 1.477zm19.664-.123.166.471 3.531-1.237-.165-.472-.166-.472-3.531 1.238zm-16.029 4.859.183.466 3.764-1.478-.182-.465-.183-.466-3.764 1.478zm20.41-.862.165.472 3.531-1.237-.165-.472-.165-.472-3.531 1.238zm-16.71 5.592.183.465 3.758-1.477-.183-.465-.183-.466-3.758 1.477zm20.241-.687.165.472 3.538-1.237-.165-.472-.165-.472-3.538 1.237zm-16.392 5.404.183.465 3.758-1.477-.183-.465-.183-.466-3.758 1.477zm20.578-.525.165.472 3.538-1.237-.166-.472-.165-.472-3.537 1.237zm-16.555 5.222.183.466 3.764-1.478-.182-.465-.183-.466-3.764 1.478zm18.323-.155.139.48 11.824-3.414-.138-.481-.139-.48-11.825 3.414zm-20.454 5.896.138.48 12.641-3.647-.138-.481-.139-.48-12.641 3.648zm-19.996-51.192-.48-.139-4.807 16.606.48.139.48.139 4.808-16.606zm-29.13 54.639-.402.297 12.888 17.422.402-.297.401-.297-12.887-17.423zm12.888 17.422.141.48 8.896-2.631-.142-.479-.141-.48-8.896 2.631zm8.895-2.63.398-.303-13.347-17.52-.398.303-.397.303 13.347 17.52zm-13.347-17.52-.154-.476-8.435 2.728.153.476.154.475 8.436-2.727zm.181 38.305.148.478 15.525-4.814-.148-.478-.149-.478-15.524 4.815zm15.525-4.814.494-.073-2.358-15.972-.495.074-.494.073 2.358 15.971zm-11.254-13.341-.487-.114-4.27 18.155.486.114.487.115 4.27-18.155zm-19.788-2.63-.401.299 15.518 20.785.4-.299.401-.299-15.518-20.785zm6.9-14.792-.453-.212-6.9 14.792.453.212.453.211 6.901-14.792zm4.724-1.529-.399.301 13.178 17.468.4-.301.399-.301-13.179-17.468zm13.179 17.468-.498-.044-1.523 17.234.498.044.498.044 1.523-17.234zm-14.91 11.74-.148-.478-9.894 3.084.149.478.148.477 9.894-3.084zm-9.893 3.084.413-.282-2.54-3.719-.413.282-.413.282 2.54 3.719zm-2.54-3.719.147.478 9.985-3.078-.148-.478-.147-.478-9.984 3.078zm31.593-9.732.147.478 28.217-8.695-.147-.478-.147-.478-28.217 8.695zm28.217-8.695-.353.354 3.265 3.259.353-.354.354-.354-3.266-3.259zm3.265 3.259-.149-.477-30.867 9.634.149.478.149.477 30.867-9.635zm-10.004 3.188-.387.316 4.38 5.352.387-.316.387-.317-4.38-5.352zm-7.581-9.279-.387.317 4.73 5.786.387-.317.387-.316-4.729-5.786zm14.015 7.193-.387.316 4.38 5.358.387-.316.387-.317-4.38-5.358zm-7.58-9.279-.387.317 4.729 5.786.388-.317.387-.316-4.73-5.786zm-4.834 13.056-.387.317 4.38 5.351.387-.316.387-.317-4.38-5.352zm-7.587-9.278-.387.316 4.736 5.786.387-.316.387-.317-4.737-5.786zm.453 11.889-.387.317 4.38 5.352.387-.317.387-.317-4.38-5.352zm-7.586-9.278-.387.317 4.736 5.786.387-.317.387-.317-4.737-5.786zm1.055 11.131-.412.283 3.92 5.702.412-.283.412-.283-3.92-5.702zm-27.659 8.598-.387.316 4.379 5.359.388-.317.387-.316-4.38-5.358zm-7.581-9.278-.388.316 4.73 5.792.388-.316.387-.316-4.73-5.793zm-57.043-154.99h-.5c0 .653-.299 1.313-.92 1.956-.624.646-1.55 1.251-2.734 1.77-2.365 1.037-5.668 1.69-9.342 1.69v1c3.779 0 7.225-.67 9.744-1.774 1.259-.552 2.309-1.222 3.051-1.991.745-.772 1.201-1.668 1.201-2.65zm-13.496 5.916v-.5c-3.675 0-6.977-.653-9.343-1.69-1.183-.519-2.109-1.123-2.733-1.77-.621-.643-.92-1.303-.92-1.955h-1c0 .982.456 1.878 1.201 2.65.742.769 1.792 1.439 3.051 1.99 2.519 1.105 5.965 1.775 9.744 1.775zm-13.496-5.915h.5c0-.652.299-1.312.92-1.956.624-.646 1.55-1.25 2.733-1.769 2.366-1.037 5.668-1.69 9.343-1.69v-1c-3.779 0-7.225.67-9.744 1.774-1.259.552-2.309 1.222-3.051 1.991-.745.772-1.201 1.668-1.201 2.65zm13.496-5.916v.5c3.674 0 6.977.654 9.342 1.691 1.184.519 2.11 1.123 2.734 1.77.621.643.92 1.303.92 1.955h1c0-.982-.456-1.878-1.201-2.65-.742-.77-1.792-1.44-3.051-1.99-2.519-1.105-5.965-1.776-9.744-1.776zm13.496 5.916-.498.04 1.581 20.085.498-.04.499-.039-1.581-20.085zm1.581 20.085h-.5c0 .637-.317 1.292-.997 1.94-.681.65-1.692 1.258-2.983 1.78-2.58 1.04-6.177 1.696-10.176 1.696v1c4.094 0 7.825-.67 10.55-1.77 1.362-.55 2.497-1.216 3.299-1.982.805-.767 1.307-1.667 1.307-2.664zm-14.656 5.916v-.5c-3.998 0-7.596-.656-10.175-1.697-1.291-.521-2.303-1.129-2.983-1.778s-.998-1.304-.998-1.94h-1c0 .996.503 1.896 1.307 2.663s1.938 1.433 3.3 1.982c2.725 1.1 6.455 1.77 10.549 1.77zm-14.656-5.916.5.019.738-20.086-.499-.018-.5-.018-.738 20.085z" />
    </g>
    <defs>
        <filter id="a" width="557.371" height="369.643" x=".968" y="-.1" color-interpolation-filters="sRGB"
            filterUnits="userSpaceOnUse">
            <feFlood flood-opacity="0" result="BackgroundImageFix" />
            <feBlend in="SourceGraphic" in2="BackgroundImageFix" result="shape" />
            <feTurbulence baseFrequency="0.013642564415931702 0.013642564415931702" numOctaves="3" seed="6556"
                type="fractalNoise" />
            <feDisplacementMap width="100%" height="100%" in="shape" result="displacedImage" scale="6.2"
                xChannelSelector="R" yChannelSelector="G" />
            <feMerge result="effect1_texture_59_537">
                <feMergeNode in="displacedImage" />
            </feMerge>
        </filter>
    </defs>
</svg>