<svg width="559" height="370" viewBox="0 0 559 370" fill="none" xmlns="http://www.w3.org/2000/svg">
<g filter="url(#filter0_g_59_537)">
<ellipse cx="256.558" cy="185.118" rx="181.678" ry="181.325" fill="#5600A8"/>
<path d="M66.0317 348.008L65.544 348.119L65.6676 348.664L66.1954 348.481L66.0317 348.008ZM547.786 181.007L547.95 181.48L548.21 181.389L548.273 181.121L547.786 181.007ZM554.68 151.605L555.167 151.719L555.239 151.41L554.991 151.213L554.68 151.605ZM389.862 21.2756L390.172 20.8834L389.99 20.7397L389.763 20.7855L389.862 21.2756ZM4.68018 98.9613L4.58133 98.4711L4.06833 98.5746L4.19506 99.0824L4.68018 98.9613ZM96.7107 220.401L96.5758 219.919L96.0682 220.061L96.237 220.561L96.7107 220.401ZM106.034 247.989L105.561 248.149L105.715 248.607L106.179 248.468L106.034 247.989ZM143.361 236.735L143.505 237.213L144.024 237.057L143.827 236.553L143.361 236.735ZM133.014 210.235L133.479 210.053L133.315 209.631L132.879 209.753L133.014 210.235ZM107.784 253.011L107.639 252.532L107.146 252.682L107.31 253.169L107.784 253.011ZM117.826 283.022L117.352 283.181L117.508 283.648L117.978 283.499L117.826 283.022ZM157.518 270.44L157.669 270.917L158.186 270.752L157.981 270.25L157.518 270.44ZM145.661 241.517L146.124 241.327L145.951 240.906L145.516 241.038L145.661 241.517ZM141.067 207.87L140.93 207.389L140.388 207.544L140.606 208.063L141.067 207.87ZM152.062 234.104L151.601 234.298L151.778 234.718L152.213 234.581L152.062 234.104ZM187.627 222.908L187.777 223.385L188.325 223.213L188.079 222.694L187.627 222.908ZM175.789 197.951L176.241 197.736L176.059 197.353L175.652 197.47L175.789 197.951ZM154.376 239.093L154.23 238.615L153.702 238.776L153.914 239.286L154.376 239.093ZM166.356 267.777L165.894 267.969L166.07 268.39L166.505 268.254L166.356 267.777ZM204.596 255.797L204.746 256.274L205.311 256.097L205.041 255.569L204.596 255.797ZM190.432 228.085L190.878 227.858L190.687 227.485L190.286 227.607L190.432 228.085ZM162.015 108.337L162.508 108.251L162.015 108.337ZM105.75 155.496L105.664 155.003L105.75 155.496ZM36.8108 130.256L37.3033 130.17L36.8108 130.256ZM93.0758 83.0971L92.9895 82.6046L93.0758 83.0971ZM156.615 108.541L156.123 108.628L156.615 108.541ZM41.9539 128.615L41.4614 128.701L41.9539 128.615ZM435.501 63.5589L435.996 63.6316L436.216 62.1337L435.147 63.2058L435.501 63.5589ZM387.024 30.6899L386.951 31.1846L386.951 31.1846L387.024 30.6899ZM407.453 35.8085L407.28 36.2776L407.28 36.2778L407.453 35.8085ZM434.97 57.5851L434.493 57.7356L434.493 57.7357L434.97 57.5851ZM435.495 63.5653L435 63.4913L434.775 64.9953L435.849 63.9184L435.495 63.5653ZM320.956 66.1052L320.513 65.8729L320.474 65.9482L320.461 66.0324L320.956 66.1052ZM376.833 100.063L376.905 99.5679L376.833 100.063ZM440.115 83.6249L440.61 83.6977L440.622 83.6131L440.606 83.5292L440.115 83.6249ZM386.719 32.6363L386.647 33.131L386.719 32.6363ZM380.212 76.919L380.139 77.4137L380.212 76.919ZM385.312 42.2135L385.239 42.7082L385.312 42.2135ZM408.684 58.4837L408.189 58.411L408.684 58.4837ZM381.619 67.342L381.546 67.8367L381.619 67.342ZM358.247 51.0718L357.752 50.9991L358.247 51.0718ZM131.199 110.919L130.707 111.005L131.199 110.919ZM102.919 134.465L103.006 134.958L102.919 134.465ZM68.3223 121.927L67.8298 122.013L68.3223 121.927ZM96.6021 98.3807L96.6883 98.8732L96.6021 98.3807ZM32.8517 137.292L32.3686 137.163L32.3604 137.194L32.3562 137.225L32.8517 137.292ZM32.9943 145.372L32.5016 145.457L32.5017 145.458L32.9943 145.372ZM171.247 121.165L171.74 121.079L171.74 121.079L171.247 121.165ZM166.815 110.501L167.227 110.217L167.22 110.207L167.213 110.197L166.815 110.501ZM49.5163 233.106L49.3834 232.624L48.9047 232.756L49.0334 233.236L49.5163 233.106ZM87.5427 222.623L88.0177 222.467L87.8691 222.014L87.4098 222.141L87.5427 222.623ZM92.3567 237.279L92.4964 237.759L92.9933 237.615L92.8318 237.123L92.3567 237.279ZM53.6565 248.533L53.1736 248.663L53.3059 249.156L53.7961 249.013L53.6565 248.533ZM55.1402 253.069L54.997 252.59L54.5245 252.731L54.6591 253.206L55.1402 253.069ZM93.808 241.517L94.2844 241.365L94.1352 240.897L93.6649 241.038L93.808 241.517ZM100.158 261.421L100.298 261.901L100.79 261.757L100.634 261.269L100.158 261.421ZM60.7771 272.934L60.2961 273.071L60.4336 273.556L60.9174 273.414L60.7771 272.934ZM62.2219 278.487L62.081 278.007L61.6101 278.145L61.7396 278.618L62.2219 278.487ZM101.79 266.869L102.265 266.713L102.114 266.253L101.65 266.39L101.79 266.869ZM108.224 286.437L108.378 286.912L108.856 286.758L108.699 286.28L108.224 286.437ZM67.956 299.453L67.4737 299.585L67.6118 300.09L68.1098 299.929L67.956 299.453ZM470.159 145.378L469.999 144.904L469.214 145.169L469.814 145.74L470.159 145.378ZM490.789 165.036L490.444 165.398L490.658 165.602L490.94 165.512L490.789 165.036ZM515.474 157.164L515.626 157.64L516.438 157.381L515.816 156.799L515.474 157.164ZM494.235 137.266L494.577 136.901L494.359 136.697L494.076 136.792L494.235 137.266ZM445.642 123.012L445.503 122.531L444.666 122.773L445.297 123.374L445.642 123.012ZM466.271 142.663L465.927 143.025L466.141 143.23L466.423 143.14L466.271 142.663ZM490.957 134.791L491.109 135.267L491.955 134.998L491.286 134.414L490.957 134.791ZM469.55 116.118L469.879 115.741L469.673 115.562L469.411 115.638L469.55 116.118ZM438.236 154.87L438.092 154.391L437.272 154.637L437.889 155.23L438.236 154.87ZM459.837 175.655L459.491 176.016L459.707 176.224L459.993 176.131L459.837 175.655ZM487.789 166.487L487.944 166.962L488.734 166.704L488.135 166.127L487.789 166.487ZM466.835 146.311L467.182 145.951L466.971 145.748L466.692 145.832L466.835 146.311ZM414.988 131.111L414.86 130.628L414.023 130.851L414.634 131.464L414.988 131.111ZM435.663 151.844L435.309 152.197L435.52 152.408L435.805 152.324L435.663 151.844ZM463.414 143.655L463.555 144.134L464.429 143.877L463.743 143.278L463.414 143.655ZM441.074 124.159L441.402 123.782L441.202 123.607L440.945 123.676L441.074 124.159ZM383.784 139.767L383.65 139.285L382.856 139.506L383.419 140.108L383.784 139.767ZM409.941 132.504L410.298 132.154L410.092 131.943L409.807 132.022L409.941 132.504ZM420.184 142.981L420.33 143.459L421.118 143.22L420.542 142.631L420.184 142.981ZM394.157 150.879L393.792 151.22L394.004 151.448L394.303 151.357L394.157 150.879ZM396.97 154.643L396.824 154.165L396.031 154.408L396.616 154.996L396.97 154.643ZM424.228 146.311L424.573 145.95L424.362 145.747L424.082 145.833L424.228 146.311ZM437.245 158.738L437.396 159.215L438.201 158.96L437.59 158.377L437.245 158.738ZM409.708 167.453L409.354 167.805L409.569 168.021L409.859 167.929L409.708 167.453ZM414.082 171.969L413.936 171.49L413.142 171.733L413.727 172.321L414.082 171.969ZM441.34 163.636L441.685 163.275L441.473 163.073L441.194 163.158L441.34 163.636ZM454.356 176.057L454.507 176.534L455.313 176.279L454.702 175.695L454.356 176.057ZM426.82 184.778L426.465 185.131L426.68 185.347L426.971 185.255L426.82 184.778ZM190.49 61.6086L190.091 61.9094L190.094 61.913L190.49 61.6086ZM179.437 75.5583L178.938 75.5294L178.937 75.5439V75.5583H179.437ZM180.13 63.5588L180.629 63.5877L180.63 63.5865L180.13 63.5588ZM202.406 112.872L201.907 112.846L201.906 112.859V112.872H202.406ZM213.718 119.332L213.26 119.53L213.261 119.534L213.718 119.332ZM235.786 137.674H236.286V137.653L236.285 137.632L235.786 137.674ZM212.215 137.674L211.716 137.644L211.715 137.659V137.674H212.215ZM190.07 94.51L189.57 94.4884L189.57 94.4992V94.51H190.07ZM196.29 74.9369C196.476 75.1406 196.792 75.1547 196.996 74.9683C197.2 74.7819 197.214 74.4656 197.027 74.2619L196.29 74.9369ZM195.706 72.817C195.519 72.6133 195.203 72.5992 194.999 72.7856C194.796 72.972 194.782 73.2883 194.968 73.492L195.706 72.817ZM185.133 60.9621C185.32 61.1654 185.636 61.1788 185.84 60.9919C186.043 60.8051 186.056 60.4888 185.87 60.2854L185.133 60.9621ZM184.548 58.847C184.361 58.6437 184.045 58.6304 183.841 58.8172C183.638 59.004 183.625 59.3203 183.811 59.5237L184.548 58.847ZM277.714 43.5655C277.901 43.7688 278.218 43.7822 278.421 43.5953C278.624 43.4085 278.638 43.0922 278.451 42.8888L277.714 43.5655ZM277.129 41.4505C276.942 41.2471 276.626 41.2338 276.423 41.4206C276.219 41.6075 276.206 41.9238 276.393 42.1271L277.129 41.4505ZM231.614 47.342C231.801 47.5458 232.117 47.5598 232.321 47.3734C232.525 47.187 232.539 46.8708 232.352 46.667L231.614 47.342ZM231.03 45.2222C230.844 45.0184 230.528 45.0043 230.324 45.1907C230.12 45.3771 230.106 45.6934 230.293 45.8971L231.03 45.2222ZM208.316 93.0601C208.503 93.2635 208.819 93.2768 209.022 93.09C209.226 92.9031 209.239 92.5868 209.052 92.3835L208.316 93.0601ZM207.73 90.9451C207.544 90.7418 207.227 90.7284 207.024 90.9153C206.821 91.1021 206.807 91.4184 206.994 91.6217L207.73 90.9451ZM220.762 114.039C220.948 114.243 221.264 114.257 221.468 114.07C221.672 113.884 221.686 113.568 221.5 113.364L220.762 114.039ZM220.178 111.919C219.991 111.715 219.675 111.701 219.471 111.888C219.268 112.074 219.254 112.39 219.44 112.594L220.178 111.919ZM283.11 45.6374L283.61 45.6301L282.613 45.5879L283.11 45.6374ZM277.564 47.6913L277.615 47.1939L277.615 47.1938L277.564 47.6913ZM272.549 44.8988L273.044 44.8229L273.042 44.8119L272.549 44.8988ZM272.543 44.5683L273.04 44.6267L273.04 44.6178L272.543 44.5683ZM278.089 42.5144L278.038 43.0118L278.038 43.0118L278.089 42.5144ZM280.966 43.2466L280.761 43.7029L280.764 43.7039L280.966 43.2466ZM282.877 44.7173L282.449 44.976L282.45 44.9773L282.877 44.7173ZM283.11 45.6439H282.61L283.608 45.6957L283.11 45.6439ZM272.368 45.5986L271.875 45.5184L271.874 45.5193L272.368 45.5986ZM291.677 53.802L291.626 54.2994L291.677 53.802ZM291.021 60.2479L290.971 60.7453L291.021 60.2479ZM298.246 75.2603L298.744 75.3109L298.747 75.2813L298.746 75.2516L298.246 75.2603ZM289.934 77.6705L289.985 77.1731L289.984 77.1731L289.934 77.6705ZM282.275 73.634L281.78 73.5625L281.779 73.5729L281.778 73.5833L282.275 73.634ZM306.55 72.7676L306.601 72.2701L306.55 72.7676ZM305.771 80.4253L305.822 79.9279L305.771 80.4253ZM312.876 94.9052L313.373 94.9556L313.375 94.9339L313.376 94.9122L312.876 94.9052ZM333.408 96.065L333.908 96.0735L333.917 95.565H333.408V96.065ZM322.543 100.678L322.594 100.181L322.593 100.181L322.543 100.678ZM312.98 95.3328L312.503 95.4847L312.504 95.487L312.98 95.3328ZM312.824 93.9657L312.327 93.9152L312.326 93.9166L312.824 93.9657ZM333.402 96.065L332.905 96.0135L332.848 96.565H333.402V96.065ZM333.072 115.82L333.569 115.87L333.571 115.85L333.572 115.829L333.072 115.82ZM320.768 120.291L320.717 120.788L320.717 120.788L320.768 120.291ZM309.617 113.436L309.124 113.355L309.121 113.37L309.12 113.385L309.617 113.436ZM290.447 54.632C290.612 54.8531 290.925 54.8983 291.146 54.7329C291.368 54.5675 291.413 54.2542 291.247 54.033L290.447 54.632ZM290.075 52.4651C289.909 52.2439 289.596 52.1987 289.375 52.3641C289.154 52.5295 289.108 52.8429 289.274 53.064L290.075 52.4651ZM275.715 100.786L275.664 101.283L275.715 100.786ZM275.059 107.232L275.008 107.729L275.059 107.232ZM282.288 122.247L282.785 122.298L282.788 122.268L282.787 122.239L282.288 122.247ZM266.316 120.621L265.821 120.55L265.82 120.56L265.819 120.57L266.316 120.621ZM274.488 101.619C274.654 101.84 274.967 101.885 275.188 101.72C275.409 101.555 275.455 101.241 275.289 101.02L274.488 101.619ZM274.117 99.4521C273.951 99.231 273.638 99.1858 273.417 99.3512C273.196 99.5166 273.15 99.8299 273.316 100.051L274.117 99.4521ZM260.572 82.497L260.521 82.9944L260.572 82.497ZM259.916 88.9429L259.865 89.4403L259.916 88.9429ZM267.139 103.957L267.637 104.007L267.64 103.978L267.639 103.948L267.139 103.957ZM258.827 106.367L258.775 106.864L258.827 106.367ZM251.168 102.33L250.673 102.259L250.672 102.269L250.671 102.28L251.168 102.33ZM259.34 83.3283C259.505 83.5494 259.819 83.5946 260.04 83.4292C260.261 83.2638 260.306 82.9505 260.141 82.7294L259.34 83.3283ZM258.968 81.1614C258.803 80.9403 258.489 80.8951 258.268 81.0605C258.047 81.2258 258.002 81.5392 258.167 81.7603L258.968 81.1614ZM304.421 74.0231C304.586 74.2447 304.899 74.2907 305.121 74.1259C305.342 73.9611 305.388 73.6479 305.223 73.4263L304.421 74.0231ZM304.057 71.8583C303.892 71.6368 303.579 71.5908 303.358 71.7556C303.136 71.9204 303.09 72.2336 303.255 72.4552L304.057 71.8583ZM320.523 90.7859C320.688 91.0071 321.001 91.0523 321.223 90.8869C321.444 90.7215 321.489 90.4081 321.323 90.187L320.523 90.7859ZM320.151 88.619C319.985 88.3979 319.672 88.3527 319.451 88.5181C319.23 88.6835 319.185 88.9968 319.35 89.218L320.151 88.619ZM283.298 58.5958L283.796 58.6453L283.799 58.617L283.798 58.5886L283.298 58.5958ZM235.119 156.14L234.998 155.655L234.711 155.727L234.636 156.013L235.119 156.14ZM231.491 169.934L231.007 169.807L230.958 169.996L231.049 170.169L231.491 169.934ZM236.208 178.83L235.766 179.064L235.946 179.405L236.321 179.317L236.208 178.83ZM264.612 172.202L264.726 172.689L265.176 172.584L265.107 172.127L264.612 172.202ZM262.163 156.14L262.658 156.065L262.641 155.957L262.581 155.866L262.163 156.14ZM258.354 150.335L258.772 150.06L258.577 149.764L258.232 149.85L258.354 150.335ZM236.616 159.27L236.483 158.788L236.188 158.869L236.126 159.168L236.616 159.27ZM277.176 213.261L277.296 213.746L277.966 213.58L277.599 212.995L277.176 213.261ZM272.627 214.388L272.204 214.654L272.396 214.961L272.748 214.874L272.627 214.388ZM248.641 176.154L248.509 175.672L247.861 175.851L248.218 176.42L248.641 176.154ZM253.119 174.923L253.542 174.658L253.344 174.343L252.986 174.441L253.119 174.923ZM339.311 126.109L339.195 125.623L338.944 125.682L338.847 125.922L339.311 126.109ZM333.395 140.739L332.932 140.552L332.821 140.826L333.008 141.056L333.395 140.739ZM339.311 147.97L338.924 148.286L339.117 148.522L339.415 148.459L339.311 147.97ZM364.832 142.527L364.937 143.016L365.353 142.928L365.332 142.503L364.832 142.527ZM364.068 126.945L364.567 126.92L364.558 126.731L364.426 126.596L364.068 126.945ZM358.755 121.489L359.113 121.141L358.915 120.937L358.639 121.003L358.755 121.489ZM341.715 128.74L341.592 128.255L341.333 128.321L341.244 128.574L341.715 128.74ZM385.45 180.165L385.569 180.651L386.375 180.452L385.823 179.833L385.45 180.165ZM380.901 181.286L380.528 181.619L380.728 181.844L381.021 181.771L380.901 181.286ZM349.451 145.981L349.319 145.499L348.542 145.712L349.078 146.313L349.451 145.981ZM353.928 144.75L354.302 144.417L354.095 144.185L353.796 144.268L353.928 144.75ZM314.988 186.003L314.835 185.527L314.627 185.594L314.535 185.791L314.988 186.003ZM336.771 200.795L337.266 200.721L337.247 200.594L337.169 200.492L336.771 200.795ZM323.424 183.275L323.822 182.972L323.607 182.69L323.27 182.799L323.424 183.275ZM323.605 221.58L323.205 221.879L323.416 222.162L323.753 222.058L323.605 221.58ZM339.13 216.766L339.278 217.244L339.687 217.117L339.624 216.693L339.13 216.766ZM308.088 200.795L307.635 200.583L307.508 200.854L307.687 201.094L308.088 200.795ZM332.891 201.942L333.389 201.986L333.406 201.794L333.29 201.641L332.891 201.942ZM308.088 216.766L307.675 217.048L307.883 217.353L308.236 217.243L308.088 216.766ZM305.548 213.047L305.401 212.569L304.752 212.769L305.135 213.329L305.548 213.047ZM365.358 194.62L365.711 194.266L365.498 194.054L365.211 194.142L365.358 194.62ZM368.623 197.879L368.772 198.356L369.562 198.11L368.977 197.525L368.623 197.879ZM248.272 71.6384H248.772V71.6188L248.771 71.5992L248.272 71.6384ZM218.96 71.6384L218.461 71.62L218.46 71.6292V71.6384H218.96ZM58.0493 312.794L57.5617 312.904L65.544 348.119L66.0317 348.008L66.5193 347.898L58.5369 312.683L58.0493 312.794ZM66.0317 348.008L66.1954 348.481L547.95 181.48L547.786 181.007L547.623 180.535L65.8679 347.536L66.0317 348.008ZM547.786 181.007L548.273 181.121L555.167 151.719L554.68 151.605L554.193 151.49L547.3 180.893L547.786 181.007ZM554.68 151.605L554.526 151.129L57.8949 312.318L58.0493 312.794L58.2037 313.27L554.835 152.08L554.68 151.605ZM219.699 55.5959L219.6 55.1058L190.606 60.95L190.704 61.4401L190.803 61.9303L219.798 56.0861L219.699 55.5959ZM272.828 44.8793L272.73 44.3892L246.249 49.7281L246.348 50.2182L246.447 50.7083L272.927 45.3695L272.828 44.8793ZM408.963 36.3787L409.273 35.9865L390.172 20.8834L389.862 21.2756L389.552 21.6678L408.652 36.7709L408.963 36.3787ZM389.862 21.2756L389.763 20.7855L281.249 42.6723L281.348 43.1624L281.447 43.6525L389.961 21.7658L389.862 21.2756ZM180.837 63.4358L180.738 62.9457L4.58133 98.4711L4.68018 98.9613L4.77902 99.4514L180.935 63.9259L180.837 63.4358ZM4.68018 98.9613L4.19506 99.0824L57.5642 312.915L58.0493 312.794L58.5344 312.673L5.16529 98.8402L4.68018 98.9613ZM554.68 151.605L554.991 151.213L434.647 55.4962L434.335 55.8875L434.024 56.2789L554.369 151.996L554.68 151.605ZM96.7107 220.401L96.237 220.561L105.561 248.149L106.034 247.989L106.508 247.829L97.1843 220.241L96.7107 220.401ZM106.034 247.989L106.179 248.468L143.505 237.213L143.361 236.735L143.217 236.256L105.89 247.51L106.034 247.989ZM143.361 236.735L143.827 236.553L133.479 210.053L133.014 210.235L132.548 210.417L142.895 236.917L143.361 236.735ZM133.014 210.235L132.879 209.753L96.5758 219.919L96.7107 220.401L96.8455 220.882L133.148 210.716L133.014 210.235ZM107.784 253.011L107.31 253.169L117.352 283.181L117.826 283.022L118.301 282.864L108.258 252.852L107.784 253.011ZM117.826 283.022L117.978 283.499L157.669 270.917L157.518 270.44L157.367 269.963L117.675 282.546L117.826 283.022ZM157.518 270.44L157.981 270.25L146.124 241.327L145.661 241.517L145.198 241.706L157.055 270.63L157.518 270.44ZM145.661 241.517L145.516 241.038L107.639 252.532L107.784 253.011L107.929 253.489L145.806 241.995L145.661 241.517ZM141.067 207.87L140.606 208.063L151.601 234.298L152.062 234.104L152.524 233.911L141.528 207.677L141.067 207.87ZM152.062 234.104L152.213 234.581L187.777 223.385L187.627 222.908L187.477 222.431L151.912 233.628L152.062 234.104ZM187.627 222.908L188.079 222.694L176.241 197.736L175.789 197.951L175.338 198.165L187.175 223.123L187.627 222.908ZM175.789 197.951L175.652 197.47L140.93 207.389L141.067 207.87L141.205 208.351L175.927 198.431L175.789 197.951ZM154.376 239.093L153.914 239.286L165.894 267.969L166.356 267.777L166.817 267.584L154.837 238.901L154.376 239.093ZM166.356 267.777L166.505 268.254L204.746 256.274L204.596 255.797L204.447 255.32L166.206 267.3L166.356 267.777ZM204.596 255.797L205.041 255.569L190.878 227.858L190.432 228.085L189.987 228.313L204.151 256.024L204.596 255.797ZM190.432 228.085L190.286 227.607L154.23 238.615L154.376 239.093L154.522 239.571L190.578 228.563L190.432 228.085ZM162.015 108.337L161.523 108.423C163.229 118.169 157.955 128.283 147.84 136.761C137.736 145.229 122.881 151.989 105.664 155.003L105.75 155.496L105.837 155.988C123.195 152.95 138.221 146.127 148.482 137.527C158.731 128.937 164.302 118.497 162.508 108.251L162.015 108.337ZM105.75 155.496L105.664 155.003C88.4479 158.017 72.1789 156.706 59.7996 152.173C47.4062 147.636 39.0095 139.916 37.3033 130.17L36.8108 130.256L36.3183 130.342C38.112 140.589 46.898 148.515 59.4558 153.113C72.0278 157.715 88.4787 159.027 105.837 155.988L105.75 155.496ZM36.8108 130.256L37.3033 130.17C35.597 120.424 40.8717 110.31 50.9866 101.832C61.0899 93.3643 75.9456 86.6036 93.162 83.5896L93.0758 83.0971L92.9895 82.6046C75.6316 85.6434 60.6048 92.4661 50.3442 101.066C40.0952 109.656 34.5245 120.096 36.3183 130.342L36.8108 130.256ZM93.0758 83.0971L93.162 83.5896C110.378 80.5756 126.647 81.8873 139.027 86.4195C151.42 90.957 159.817 98.677 161.523 108.423L162.015 108.337L162.508 108.251C160.714 98.0044 151.928 90.0781 139.37 85.4805C126.798 80.8777 110.348 79.5658 92.9895 82.6046L93.0758 83.0971ZM156.615 108.541L156.123 108.628C157.674 117.49 152.851 126.7 143.588 134.433C134.338 142.156 120.737 148.328 104.976 151.088L105.062 151.58L105.148 152.073C121.05 149.289 134.821 143.055 144.229 135.201C153.625 127.357 158.747 117.82 157.108 108.455L156.615 108.541ZM105.062 151.58L104.976 151.088C89.2149 153.847 74.3262 152.662 63.002 148.541C51.6632 144.415 43.9978 137.391 42.4464 128.529L41.9539 128.615L41.4614 128.701C43.1008 138.066 51.1581 145.295 62.66 149.481C74.1765 153.672 89.2465 154.857 105.148 152.073L105.062 151.58ZM41.9539 128.615L42.4464 128.529C40.8949 119.667 45.718 110.456 54.9807 102.723C64.2314 95.0001 77.8322 88.8279 93.5931 86.0686L93.5069 85.5761L93.4207 85.0836C77.5189 87.8675 63.7476 94.1013 54.3398 101.955C44.9439 109.799 39.822 119.337 41.4614 128.701L41.9539 128.615ZM93.5069 85.5761L93.5931 86.0686C109.354 83.3094 124.243 84.4941 135.567 88.615C146.906 92.7412 154.571 99.7656 156.123 108.628L156.615 108.541L157.108 108.455C155.468 99.0908 147.411 91.8609 135.909 87.6753C124.393 83.4844 109.323 82.2997 93.4207 85.0836L93.5069 85.5761ZM435.501 63.5589L435.006 63.4861C434.026 70.1474 427.513 75.4968 417.449 78.6529C407.423 81.7974 394.043 82.7006 379.691 80.5904L379.618 81.0851L379.545 81.5798C394.013 83.707 407.55 82.8057 417.749 79.6071C427.91 76.4201 434.928 70.8876 435.996 63.6316L435.501 63.5589ZM379.618 81.0851L379.691 80.5904C365.339 78.4802 352.783 73.7638 344.085 67.8667C335.355 61.9478 330.655 54.9501 331.635 48.2889L331.141 48.2161L330.646 48.1434C329.579 55.3995 334.708 62.7176 343.524 68.6944C352.372 74.6931 365.078 79.4526 379.545 81.5798L379.618 81.0851ZM331.141 48.2161L331.635 48.2889C332.615 41.6276 339.129 36.2782 349.192 33.1221C359.218 29.9776 372.599 29.0744 386.951 31.1846L387.024 30.6899L387.097 30.1952C372.629 28.068 359.092 28.9693 348.893 32.1679C338.732 35.3549 331.714 40.8874 330.646 48.1434L331.141 48.2161ZM387.024 30.6899L386.951 31.1846C394.286 32.2619 401.159 34.0225 407.28 36.2776L407.453 35.8085L407.626 35.3393C401.436 33.059 394.496 31.282 387.096 30.1952L387.024 30.6899ZM407.453 35.8085L407.28 36.2778C414.489 38.9269 420.659 42.255 425.346 45.9476C430.038 49.6443 433.212 53.6801 434.493 57.7356L434.97 57.5851L435.447 57.4345C434.084 53.1189 430.747 48.9293 425.965 45.1621C421.177 41.3906 414.91 38.016 407.625 35.3392L407.453 35.8085ZM434.97 57.5851L434.493 57.7357C435.101 59.6597 435.286 61.5848 435 63.4913L435.495 63.5653L435.989 63.6394C436.3 61.5676 436.096 59.4886 435.447 57.4344L434.97 57.5851ZM435.495 63.5653L435.849 63.9184L435.855 63.9119L435.501 63.5589L435.147 63.2058L435.141 63.2123L435.495 63.5653ZM332.405 44.2833L331.962 44.051L320.513 65.8729L320.956 66.1052L321.399 66.3375L332.847 44.5155L332.405 44.2833ZM320.956 66.1052L320.461 66.0324C319.924 69.6814 321.17 73.3718 323.794 76.9002C326.416 80.4263 330.437 83.8222 335.526 86.9152C345.708 93.1023 360.256 98.13 376.76 100.557L376.833 100.063L376.905 99.5679C360.501 97.1553 346.087 92.1629 336.046 86.0606C331.024 83.0089 327.117 79.6928 324.596 76.3034C322.077 72.9162 320.964 69.4876 321.451 66.178L320.956 66.1052ZM376.833 100.063L376.76 100.557C393.26 102.985 408.639 102.357 420.17 99.3617C425.934 97.8643 430.762 95.7689 434.288 93.1465C437.817 90.5225 440.073 87.3466 440.61 83.6977L440.115 83.6249L439.62 83.5521C439.133 86.8619 437.079 89.825 433.692 92.3441C430.302 94.8648 425.606 96.9164 419.918 98.3938C408.545 101.348 393.306 101.981 376.905 99.5679L376.833 100.063ZM440.115 83.6249L440.606 83.5292L436.025 60.0357L435.534 60.1314L435.043 60.227L439.624 83.7206L440.115 83.6249ZM386.719 32.6363L386.647 33.131C399.886 35.0765 411.485 39.3034 419.535 44.5429C427.625 49.8082 431.965 55.9756 431.112 61.7795L431.607 61.8522L432.102 61.9249C433.046 55.5006 428.237 49.0135 420.08 43.7048C411.884 38.3701 400.141 34.1032 386.792 32.1416L386.719 32.6363ZM431.607 61.8522L431.112 61.7795C430.26 67.5835 424.328 72.2413 415.065 74.9566C405.848 77.6587 393.524 78.3699 380.284 76.4243L380.212 76.919L380.139 77.4137C393.488 79.3754 405.962 78.6674 415.347 75.9163C424.686 73.1785 431.158 68.3493 432.102 61.9249L431.607 61.8522ZM380.212 76.919L380.284 76.4243C367.045 74.4788 355.446 70.2519 347.396 65.0124C339.306 59.7471 334.966 53.5797 335.818 47.7757L335.324 47.703L334.829 47.6303C333.885 54.0547 338.694 60.5417 346.851 65.8505C355.047 71.1852 366.79 75.4521 380.139 77.4137L380.212 76.919ZM335.324 47.703L335.818 47.7757C336.671 41.9717 342.603 37.314 351.866 34.5986C361.083 31.8966 373.407 31.1854 386.647 33.131L386.719 32.6363L386.792 32.1416C373.443 30.1799 360.969 30.8879 351.584 33.639C342.245 36.3768 335.773 41.206 334.829 47.6303L335.324 47.703ZM385.312 42.2135L385.239 42.7082C392.143 43.7227 398.164 46.0329 402.317 48.9243C406.499 51.8351 408.656 55.2307 408.189 58.411L408.684 58.4837L409.178 58.5564C409.731 54.7976 407.166 51.0814 402.889 48.1036C398.583 45.1063 392.408 42.751 385.384 41.7188L385.312 42.2135ZM408.684 58.4837L408.189 58.411C407.722 61.5913 404.678 64.2225 399.836 65.8073C395.027 67.3816 388.596 67.8619 381.692 66.8474L381.619 67.342L381.546 67.8367C388.57 68.8689 395.162 68.3896 400.147 66.7577C405.101 65.1364 408.626 62.3151 409.178 58.5564L408.684 58.4837ZM381.619 67.342L381.692 66.8474C374.788 65.8328 368.767 63.5226 364.613 60.6312C360.432 57.7204 358.274 54.3248 358.742 51.1445L358.247 51.0718L357.752 50.9991C357.2 54.7579 359.764 58.4741 364.042 61.4519C368.348 64.4492 374.523 66.8046 381.546 67.8367L381.619 67.342ZM358.247 51.0718L358.742 51.1445C359.209 47.9642 362.252 45.333 367.094 43.7482C371.904 42.1739 378.335 41.6936 385.239 42.7082L385.312 42.2135L385.384 41.7188C378.361 40.6866 371.769 41.1659 366.783 42.7978C361.83 44.4191 358.305 47.2403 357.752 50.9991L358.247 51.0718ZM131.199 110.919L130.707 111.005C131.535 115.736 128.956 120.699 123.905 124.905C118.865 129.1 111.444 132.465 102.833 133.973L102.919 134.465L103.006 134.958C111.757 133.426 119.348 130 124.544 125.673C129.728 121.357 132.608 116.067 131.692 110.833L131.199 110.919ZM102.919 134.465L102.833 133.973C94.2218 135.48 86.0991 134.837 79.9342 132.602C73.7545 130.363 69.6429 126.571 68.8148 121.841L68.3223 121.927L67.8298 122.013C68.7461 127.247 73.2516 131.244 79.5935 133.543C85.9503 135.846 94.2539 136.49 103.006 134.958L102.919 134.465ZM68.3223 121.927L68.8148 121.841C67.9867 117.11 70.5655 112.147 75.6168 107.941C80.656 103.745 88.077 100.381 96.6883 98.8732L96.6021 98.3807L96.5159 97.8881C87.7642 99.4203 80.1731 102.846 74.977 107.173C69.7931 111.489 66.9135 116.779 67.8298 122.013L68.3223 121.927ZM96.6021 98.3807L96.6883 98.8732C105.3 97.3656 113.422 98.0092 119.587 100.243C125.767 102.483 129.879 106.275 130.707 111.005L131.199 110.919L131.692 110.833C130.775 105.599 126.27 101.602 119.928 99.3032C113.571 96.9994 105.268 96.356 96.5159 97.8881L96.6021 98.3807ZM37.6528 119.293L37.1697 119.164L32.3686 137.163L32.8517 137.292L33.3348 137.421L38.1359 119.422L37.6528 119.293ZM32.8517 137.292L32.3562 137.225C31.9867 139.964 32.0261 142.717 32.5016 145.457L32.9943 145.372L33.4869 145.286C33.0294 142.649 32.991 139.999 33.3472 137.359L32.8517 137.292ZM32.9943 145.372L32.5017 145.458C34.5555 157.195 44.2982 166.356 58.2149 171.735C72.1421 177.117 90.3341 178.753 109.496 175.396L109.41 174.904L109.324 174.411C90.3102 177.742 72.3062 176.109 58.5754 170.802C44.834 165.491 35.4565 156.543 33.4868 145.286L32.9943 145.372ZM109.41 174.904L109.496 175.396C128.658 172.04 145.211 164.321 156.481 154.528C167.742 144.742 173.794 132.817 171.74 121.079L171.247 121.165L170.755 121.252C172.725 132.509 166.945 144.11 155.825 153.773C144.714 163.428 128.337 171.081 109.324 174.411L109.41 174.904ZM171.247 121.165L171.74 121.079C171.053 117.162 169.507 113.518 167.227 110.217L166.815 110.501L166.404 110.785C168.607 113.975 170.094 117.485 170.755 121.252L171.247 121.165ZM166.815 110.501L167.213 110.197L157.987 98.1136L157.589 98.417L157.192 98.7205L166.418 110.804L166.815 110.501ZM49.5163 233.106L49.6492 233.588L87.6756 223.105L87.5427 222.623L87.4098 222.141L49.3834 232.624L49.5163 233.106ZM87.5427 222.623L87.0677 222.779L91.8817 237.435L92.3567 237.279L92.8318 237.123L88.0177 222.467L87.5427 222.623ZM92.3567 237.279L92.2171 236.799L53.5169 248.053L53.6565 248.533L53.7961 249.013L92.4964 237.759L92.3567 237.279ZM53.6565 248.533L54.1394 248.404L49.9992 232.977L49.5163 233.106L49.0334 233.236L53.1736 248.663L53.6565 248.533ZM55.1402 253.069L55.2833 253.548L93.9512 241.996L93.808 241.517L93.6649 241.038L54.997 252.59L55.1402 253.069ZM93.808 241.517L93.3317 241.669L99.6813 261.573L100.158 261.421L100.634 261.269L94.2844 241.365L93.808 241.517ZM100.158 261.421L100.017 260.941L60.6368 272.454L60.7771 272.934L60.9174 273.414L100.298 261.901L100.158 261.421ZM60.7771 272.934L61.2581 272.798L55.6212 252.933L55.1402 253.069L54.6591 253.206L60.2961 273.071L60.7771 272.934ZM62.2219 278.487L62.3627 278.966L101.931 267.349L101.79 266.869L101.65 266.39L62.081 278.007L62.2219 278.487ZM101.79 266.869L101.315 267.026L107.749 286.593L108.224 286.437L108.699 286.28L102.265 266.713L101.79 266.869ZM108.224 286.437L108.07 285.961L67.8022 298.977L67.956 299.453L68.1098 299.929L108.378 286.912L108.224 286.437ZM67.956 299.453L68.4383 299.321L62.7042 278.355L62.2219 278.487L61.7396 278.618L67.4737 299.585L67.956 299.453ZM470.159 145.378L469.814 145.74L490.444 165.398L490.789 165.036L491.133 164.674L470.504 145.016L470.159 145.378ZM490.789 165.036L490.94 165.512L515.626 157.64L515.474 157.164L515.322 156.687L490.637 164.56L490.789 165.036ZM515.474 157.164L515.816 156.799L494.577 136.901L494.235 137.266L493.894 137.631L515.132 157.529L515.474 157.164ZM494.235 137.266L494.076 136.792L469.999 144.904L470.159 145.378L470.318 145.852L494.395 137.74L494.235 137.266ZM445.642 123.012L445.297 123.374L465.927 143.025L466.271 142.663L466.616 142.301L445.987 122.65L445.642 123.012ZM466.271 142.663L466.423 143.14L491.109 135.267L490.957 134.791L490.805 134.315L466.12 142.187L466.271 142.663ZM490.957 134.791L491.286 134.414L469.879 115.741L469.55 116.118L469.221 116.495L490.628 135.168L490.957 134.791ZM469.55 116.118L469.411 115.638L445.503 122.531L445.642 123.012L445.78 123.492L469.688 116.598L469.55 116.118ZM438.236 154.87L437.889 155.23L459.491 176.016L459.837 175.655L460.184 175.295L438.582 154.51L438.236 154.87ZM459.837 175.655L459.993 176.131L487.944 166.962L487.789 166.487L487.633 166.012L459.682 175.18L459.837 175.655ZM487.789 166.487L488.135 166.127L467.182 145.951L466.835 146.311L466.488 146.671L487.442 166.848L487.789 166.487ZM466.835 146.311L466.692 145.832L438.092 154.391L438.236 154.87L438.379 155.349L466.978 146.79L466.835 146.311ZM414.988 131.111L414.634 131.464L435.309 152.197L435.663 151.844L436.017 151.491L415.342 130.758L414.988 131.111ZM435.663 151.844L435.805 152.324L463.555 144.134L463.414 143.655L463.272 143.175L435.522 151.365L435.663 151.844ZM463.414 143.655L463.743 143.278L441.402 123.782L441.074 124.159L440.745 124.535L463.085 144.031L463.414 143.655ZM441.074 124.159L440.945 123.676L414.86 130.628L414.988 131.111L415.117 131.594L441.202 124.642L441.074 124.159ZM383.784 139.767L383.918 140.249L410.074 132.986L409.941 132.504L409.807 132.022L383.65 139.285L383.784 139.767ZM409.941 132.504L409.583 132.853L419.827 143.33L420.184 142.981L420.542 142.631L410.298 132.154L409.941 132.504ZM420.184 142.981L420.039 142.502L394.012 150.4L394.157 150.879L394.303 151.357L420.33 143.459L420.184 142.981ZM394.157 150.879L394.523 150.538L384.15 139.426L383.784 139.767L383.419 140.108L393.792 151.22L394.157 150.879ZM396.97 154.643L397.116 155.122L424.374 146.789L424.228 146.311L424.082 145.833L396.824 154.165L396.97 154.643ZM424.228 146.311L423.883 146.673L436.9 159.1L437.245 158.738L437.59 158.377L424.573 145.95L424.228 146.311ZM437.245 158.738L437.094 158.262L409.557 166.976L409.708 167.453L409.859 167.929L437.396 159.215L437.245 158.738ZM409.708 167.453L410.063 167.1L397.325 154.291L396.97 154.643L396.616 154.996L409.354 167.805L409.708 167.453ZM414.082 171.969L414.228 172.447L441.486 164.115L441.34 163.636L441.194 163.158L413.936 171.49L414.082 171.969ZM441.34 163.636L440.995 163.998L454.011 176.419L454.356 176.057L454.702 175.695L441.685 163.275L441.34 163.636ZM454.356 176.057L454.206 175.58L426.669 184.301L426.82 184.778L426.971 185.255L454.507 176.534L454.356 176.057ZM426.82 184.778L427.174 184.425L414.436 171.616L414.082 171.969L413.727 172.321L426.465 185.131L426.82 184.778ZM190.814 62.5092H190.314C190.314 62.9319 189.95 63.4549 189.038 63.902C188.159 64.333 186.91 64.6138 185.501 64.6138V65.1138V65.6138C187.028 65.6138 188.435 65.3115 189.479 64.7999C190.49 64.3042 191.314 63.5249 191.314 62.5092H190.814ZM185.501 65.1138V64.6138C184.093 64.6138 182.844 64.333 181.964 63.902C181.053 63.4549 180.689 62.9319 180.689 62.5092H180.189H179.689C179.689 63.5249 180.513 64.3042 181.524 64.7999C182.568 65.3115 183.975 65.6138 185.501 65.6138V65.1138ZM180.189 62.5092H180.689C180.689 62.0866 181.053 61.5635 181.964 61.1164C182.844 60.6854 184.093 60.4046 185.501 60.4046V59.9046V59.4046C183.975 59.4046 182.568 59.7069 181.524 60.2186C180.513 60.7142 179.689 61.4935 179.689 62.5092H180.189ZM185.501 59.9046V60.4046C186.596 60.4046 187.599 60.5739 188.408 60.8547C189.227 61.1392 189.799 61.521 190.091 61.9094L190.49 61.6086L190.89 61.3078C190.431 60.6984 189.652 60.2281 188.736 59.9101C187.81 59.5883 186.694 59.4046 185.501 59.4046V59.9046ZM190.49 61.6086L190.094 61.913C190.249 62.1149 190.314 62.3144 190.314 62.5092H190.814H191.314C191.314 62.069 191.16 61.6595 190.887 61.3042L190.49 61.6086ZM190.717 76.893L190.426 76.4868C189.489 77.1593 187.665 77.6629 185.502 77.6629V78.1629V78.6629C187.77 78.6629 189.833 78.1429 191.009 77.2992L190.717 76.893ZM185.502 78.1629V77.6629C183.878 77.6629 182.432 77.3793 181.41 76.9406C180.899 76.7208 180.517 76.472 180.27 76.2213C180.025 75.9726 179.937 75.7492 179.937 75.5583H179.437H178.937C178.937 76.0866 179.188 76.5483 179.557 76.9229C179.924 77.2953 180.43 77.6078 181.016 77.8594C182.189 78.3634 183.775 78.6629 185.502 78.6629V78.1629ZM179.437 75.5583L179.936 75.5871L180.629 63.5877L180.13 63.5588L179.631 63.53L178.938 75.5294L179.437 75.5583ZM180.13 63.5588L180.63 63.5865L180.688 62.5369L180.189 62.5092L179.689 62.4815L179.631 63.5311L180.13 63.5588ZM204.058 77.2235H203.558C203.558 77.821 203.048 78.5029 201.899 79.0651C200.783 79.6112 199.206 79.9631 197.436 79.9631V80.4631V80.9631C199.324 80.9631 201.058 80.5898 202.339 79.9634C203.586 79.3532 204.558 78.4153 204.558 77.2235H204.058ZM197.436 80.4631V79.9631C195.667 79.9631 194.09 79.6112 192.974 79.0652C191.825 78.5029 191.315 77.821 191.315 77.2235H190.815H190.315C190.315 78.4153 191.287 79.3532 192.535 79.9634C193.815 80.5898 195.549 80.9631 197.436 80.9631V80.4631ZM190.815 77.2235H191.315C191.315 76.6261 191.825 75.9442 192.974 75.3819C194.09 74.8358 195.667 74.4839 197.436 74.4839V73.9839V73.4839C195.549 73.4839 193.815 73.8573 192.535 74.4837C191.287 75.0939 190.315 76.0318 190.315 77.2235H190.815ZM197.436 73.9839V74.4839C199.206 74.4839 200.783 74.8358 201.899 75.3819C203.048 75.9442 203.558 76.6261 203.558 77.2235H204.058H204.558C204.558 76.0318 203.586 75.0939 202.339 74.4837C201.058 73.8573 199.324 73.4839 197.436 73.4839V73.9839ZM217.308 95.4495H216.808C216.808 96.2459 216.215 97.0745 215.019 97.7329C213.841 98.3815 212.18 98.7982 210.317 98.7982V99.2982V99.7982C212.315 99.7982 214.149 99.3533 215.502 98.6089C216.836 97.8744 217.808 96.7787 217.808 95.4495H217.308ZM210.317 99.2982V98.7982C208.454 98.7982 206.793 98.3815 205.615 97.7329C204.419 97.0745 203.826 96.2459 203.826 95.4495H203.326H202.826C202.826 96.7787 203.798 97.8744 205.132 98.6089C206.485 99.3533 208.319 99.7982 210.317 99.7982V99.2982ZM203.326 95.4495H203.826C203.826 94.6531 204.419 93.8245 205.615 93.1661C206.793 92.5176 208.454 92.1009 210.317 92.1009V91.6009V91.1009C208.319 91.1009 206.485 91.5457 205.132 92.2901C203.798 93.0246 202.826 94.1204 202.826 95.4495H203.326ZM210.317 91.6009V92.1009C212.18 92.1009 213.841 92.5176 215.019 93.1661C216.215 93.8246 216.808 94.6531 216.808 95.4495H217.308H217.808C217.808 94.1204 216.836 93.0246 215.502 92.2901C214.149 91.5457 212.315 91.1009 210.317 91.1009V91.6009ZM214.043 116.053L213.876 115.582C212.743 115.982 211.355 116.221 209.857 116.221V116.721V117.221C211.456 117.221 212.958 116.967 214.209 116.525L214.043 116.053ZM209.857 116.721V116.221C207.863 116.221 206.082 115.802 204.818 115.149C203.529 114.483 202.906 113.652 202.906 112.872H202.406H201.906C201.906 114.218 202.952 115.311 204.359 116.038C205.792 116.778 207.737 117.221 209.857 117.221V116.721ZM202.406 112.872L202.905 112.898L203.825 95.4759L203.326 95.4495L202.827 95.4232L201.907 112.846L202.406 112.872ZM234.121 117.984H233.621C233.621 119.289 232.653 120.579 230.85 121.572C229.064 122.555 226.563 123.179 223.774 123.179V123.679V124.179C226.699 124.179 229.372 123.527 231.332 122.448C233.273 121.379 234.621 119.822 234.621 117.984H234.121ZM223.774 123.679V123.179C221.398 123.179 219.229 122.727 217.533 121.983C215.825 121.234 214.656 120.217 214.176 119.13L213.718 119.332L213.261 119.534C213.882 120.941 215.305 122.098 217.131 122.899C218.97 123.705 221.278 124.179 223.774 124.179V123.679ZM213.718 119.332L214.177 119.133C214.013 118.754 213.927 118.374 213.927 117.984H213.427H212.927C212.927 118.527 213.048 119.042 213.26 119.53L213.718 119.332ZM213.427 117.984H213.927C213.927 116.679 214.895 115.389 216.699 114.396C218.484 113.413 220.985 112.789 223.774 112.789V112.289V111.789C220.849 111.789 218.176 112.441 216.216 113.52C214.275 114.589 212.927 116.146 212.927 117.984H213.427ZM223.774 112.289V112.789C226.564 112.789 229.064 113.411 230.85 114.394C232.653 115.386 233.621 116.676 233.621 117.984H234.121H234.621C234.621 116.143 233.274 114.586 231.332 113.518C229.372 112.439 226.699 111.789 223.774 111.789V112.289ZM217.301 95.4494L216.803 95.4931L218.339 113.019L218.837 112.976L219.335 112.932L217.799 95.4058L217.301 95.4494ZM234.121 117.984L233.623 118.026L235.288 137.716L235.786 137.674L236.285 137.632L234.62 117.942L234.121 117.984ZM235.786 137.674H235.286C235.286 138.945 234.204 140.242 232.118 141.25C230.067 142.242 227.198 142.87 224.001 142.87V143.37V143.87C227.315 143.87 230.339 143.221 232.553 142.15C234.732 141.097 236.286 139.546 236.286 137.674H235.786ZM224.001 143.37V142.87C220.803 142.87 217.934 142.243 215.884 141.253C213.798 140.245 212.715 138.949 212.715 137.674H212.215H211.715C211.715 139.549 213.269 141.1 215.449 142.153C217.663 143.223 220.687 143.87 224.001 143.87V143.37ZM212.215 137.674L212.714 137.705L213.926 118.015L213.427 117.984L212.928 117.953L211.716 137.644L212.215 137.674ZM190.815 77.2235L190.315 77.202L189.57 94.4884L190.07 94.51L190.569 94.5315L191.314 77.2451L190.815 77.2235ZM190.07 94.51H189.57C189.57 95.1349 189.882 95.6825 190.345 96.1302C190.807 96.5765 191.45 96.9555 192.202 97.2632C193.71 97.8796 195.758 98.2496 197.994 98.2496V97.7496V97.2496C195.855 97.2496 193.942 96.8939 192.581 96.3376C191.899 96.0589 191.38 95.7397 191.04 95.411C190.701 95.0836 190.57 94.7792 190.57 94.51H190.07ZM197.994 97.7496V98.2496C200.054 98.2496 201.947 97.9388 203.412 97.41L203.242 96.9397L203.072 96.4694C201.737 96.9514 199.963 97.2496 197.994 97.2496V97.7496ZM204.058 77.2235L203.56 77.266L204.882 92.7642L205.38 92.7217L205.878 92.6792L204.556 77.181L204.058 77.2235ZM190.814 62.5092L190.318 62.5674L191.782 75.0593L192.279 75.0011L192.776 74.9428L191.311 62.451L190.814 62.5092ZM196.659 74.5994L197.027 74.2619L195.706 72.817L195.337 73.1545L194.968 73.492L196.29 74.9369L196.659 74.5994ZM185.501 60.6237L185.87 60.2854L184.548 58.847L184.18 59.1854L183.811 59.5237L185.133 60.9621L185.501 60.6237ZM278.083 43.2272L278.451 42.8888L277.129 41.4505L276.761 41.7888L276.393 42.1271L277.714 43.5655L278.083 43.2272ZM231.983 47.0045L232.352 46.667L231.03 45.2222L230.662 45.5597L230.293 45.8971L231.614 47.342L231.983 47.0045ZM208.684 92.7218L209.052 92.3835L207.73 90.9451L207.362 91.2834L206.994 91.6217L208.316 93.0601L208.684 92.7218ZM221.131 113.701L221.5 113.364L220.178 111.919L219.809 112.257L219.44 112.594L220.762 114.039L221.131 113.701ZM283.11 45.6374L282.613 45.5879C282.571 46.0078 282.157 46.4914 281.204 46.8442C280.285 47.1841 279.014 47.3368 277.615 47.1939L277.564 47.6913L277.513 48.1887C279.031 48.3438 280.461 48.1855 281.551 47.782C282.606 47.3912 283.507 46.6988 283.608 45.6869L283.11 45.6374ZM277.564 47.6913L277.615 47.1938C276.326 47.0634 275.191 46.7091 274.368 46.2477C273.521 45.7724 273.109 45.2467 273.044 44.8229L272.549 44.8988L272.055 44.9746C272.191 45.8596 272.942 46.5941 273.879 47.1199C274.842 47.6595 276.114 48.047 277.514 48.1887L277.564 47.6913ZM272.549 44.8988L273.042 44.8119C273.032 44.7586 273.031 44.6984 273.039 44.6267L272.543 44.5683L272.046 44.5099C272.029 44.6586 272.028 44.8186 272.057 44.9856L272.549 44.8988ZM272.543 44.5683L273.04 44.6178C273.082 44.1979 273.497 43.7143 274.45 43.3615C275.368 43.0216 276.64 42.8689 278.038 43.0118L278.089 42.5144L278.14 42.017C276.623 41.8619 275.193 42.0202 274.103 42.4237C273.047 42.8145 272.146 43.5069 272.045 44.5188L272.543 44.5683ZM278.089 42.5144L278.038 43.0118C279.074 43.1173 280.006 43.3645 280.761 43.7029L280.966 43.2466L281.17 42.7903C280.306 42.4029 279.268 42.1318 278.14 42.017L278.089 42.5144ZM280.966 43.2466L280.764 43.7039C281.611 44.0786 282.187 44.5424 282.449 44.976L282.877 44.7173L283.305 44.4586C282.893 43.7778 282.109 43.205 281.168 42.7892L280.966 43.2466ZM282.877 44.7173L282.45 44.9773C282.585 45.1997 282.632 45.4089 282.613 45.5921L283.11 45.6439L283.608 45.6957C283.654 45.2568 283.532 44.8311 283.304 44.4574L282.877 44.7173ZM283.11 45.6439H283.61V45.6374H283.11H282.61V45.6439H283.11ZM270.463 57.4684L270.957 57.5477L272.862 45.6778L272.368 45.5986L271.874 45.5193L269.97 57.3892L270.463 57.4684ZM272.368 45.5986L272.862 45.6787L273.03 44.6421L272.536 44.5619L272.043 44.4817L271.875 45.5184L272.368 45.5986ZM291.677 53.802L291.626 54.2994C293.387 54.4785 294.92 54.9883 295.975 55.6445C297.062 56.3203 297.5 57.0503 297.439 57.6447L297.937 57.6953L298.434 57.7459C298.555 56.5603 297.682 55.5287 296.503 54.7954C295.293 54.0426 293.606 53.4957 291.728 53.3046L291.677 53.802ZM297.937 57.6953L297.439 57.6447C297.379 58.239 296.803 58.8658 295.602 59.3088C294.437 59.7391 292.832 59.9296 291.072 59.7505L291.021 60.2479L290.971 60.7453C292.849 60.9364 294.611 60.7406 295.949 60.247C297.251 59.7662 298.314 58.9315 298.434 57.7459L297.937 57.6953ZM291.021 60.2479L291.072 59.7505C289.312 59.5714 287.778 59.0616 286.723 58.4054C285.637 57.7296 285.198 56.9996 285.259 56.4053L284.761 56.3546L284.264 56.304C284.143 57.4896 285.016 58.5212 286.195 59.2545C287.405 60.0073 289.092 60.5542 290.971 60.7453L291.021 60.2479ZM284.761 56.3546L285.259 56.4053C285.319 55.8109 285.896 55.1841 287.096 54.7411C288.262 54.3108 289.866 54.1203 291.626 54.2994L291.677 53.802L291.728 53.3046C289.849 53.1135 288.087 53.3093 286.75 53.8029C285.447 54.2838 284.385 55.1184 284.264 56.304L284.761 56.3546ZM297.942 57.6952L297.442 57.7039L297.746 75.2689L298.246 75.2603L298.746 75.2516L298.442 57.6865L297.942 57.6952ZM298.246 75.2603L297.749 75.2096C297.722 75.4763 297.559 75.7658 297.184 76.0578C296.808 76.3508 296.253 76.6158 295.537 76.8235C294.109 77.238 292.143 77.395 289.985 77.1731L289.934 77.6705L289.882 78.1679C292.136 78.3996 294.236 78.2423 295.816 77.7838C296.604 77.555 297.289 77.2437 297.799 76.8469C298.31 76.449 298.68 75.9352 298.744 75.3109L298.246 75.2603ZM289.934 77.6705L289.984 77.1731C287.825 76.9544 285.931 76.4043 284.615 75.7105C283.956 75.3629 283.465 74.9915 283.155 74.6288C282.846 74.2673 282.745 73.9511 282.773 73.6846L282.275 73.634L281.778 73.5833C281.714 74.2077 281.974 74.7857 282.395 75.2783C282.814 75.7695 283.422 76.2121 284.148 76.5951C285.604 77.3623 287.629 77.9396 289.883 78.168L289.934 77.6705ZM282.275 73.634L282.77 73.7054L285.264 56.4254L284.77 56.354L284.275 56.2826L281.78 73.5625L282.275 73.634ZM306.55 72.7676L306.5 73.265C308.353 73.4535 309.964 74.0363 311.07 74.8008C312.193 75.5769 312.699 76.4612 312.618 77.2535L313.116 77.3041L313.613 77.3548C313.748 76.0324 312.891 74.8439 311.638 73.9781C310.369 73.1006 308.589 72.4724 306.601 72.2701L306.55 72.7676ZM313.116 77.3041L312.618 77.2535C312.538 78.0458 311.864 78.8101 310.608 79.3441C309.37 79.8701 307.675 80.1164 305.822 79.9279L305.771 80.4253L305.72 80.9227C307.709 81.125 309.578 80.8681 310.999 80.2645C312.4 79.6688 313.479 78.6771 313.613 77.3548L313.116 77.3041ZM305.771 80.4253L305.822 79.9279C303.969 79.7393 302.358 79.1566 301.251 78.3921C300.128 77.616 299.622 76.7316 299.703 75.9393L299.205 75.8887L298.708 75.8381C298.574 77.1604 299.43 78.349 300.683 79.2148C301.953 80.0922 303.732 80.7204 305.72 80.9227L305.771 80.4253ZM299.205 75.8887L299.703 75.9393C299.784 75.147 300.457 74.3827 301.714 73.8488C302.951 73.3228 304.647 73.0764 306.5 73.265L306.55 72.7676L306.601 72.2701C304.613 72.0678 302.743 72.3247 301.323 72.9284C299.921 73.5241 298.843 74.5158 298.708 75.8381L299.205 75.8887ZM312.876 94.9052L312.378 94.8548C312.302 95.6078 311.589 96.3451 310.13 96.844C308.705 97.3313 306.724 97.5256 304.484 97.2975L304.433 97.7949L304.383 98.2923C306.724 98.5307 308.857 98.3363 310.454 97.7902C312.017 97.2556 313.236 96.3148 313.373 94.9556L312.876 94.9052ZM304.433 97.7949L304.484 97.2975C302.249 97.0699 300.292 96.4469 298.938 95.646C297.544 94.8211 296.955 93.9197 297.032 93.1753L296.535 93.1234L296.038 93.0715C295.895 94.4394 296.965 95.6405 298.429 96.5067C299.934 97.3968 302.037 98.0535 304.383 98.2923L304.433 97.7949ZM296.529 93.1363L297.023 93.2134L299.712 75.9723L299.218 75.8952L298.724 75.8182L296.035 93.0593L296.529 93.1363ZM333.408 96.065L332.911 96.0145C332.779 97.3141 331.686 98.4994 329.792 99.3035C327.917 100.1 325.367 100.465 322.594 100.181L322.543 100.678L322.492 101.176C325.401 101.474 328.125 101.098 330.183 100.224C332.222 99.3581 333.72 97.9453 333.906 96.1154L333.408 96.065ZM322.543 100.678L322.593 100.181C320.23 99.9406 318.118 99.2716 316.506 98.3599C314.882 97.4418 313.822 96.3115 313.455 95.1786L312.98 95.3328L312.504 95.487C312.979 96.9523 314.277 98.2485 316.014 99.2303C317.761 100.219 320.01 100.923 322.492 101.176L322.543 100.678ZM312.98 95.3328L313.456 95.1809C313.332 94.7912 313.284 94.3996 313.322 94.0148L312.824 93.9657L312.326 93.9166C312.274 94.4518 312.342 94.9803 312.503 95.4847L312.98 95.3328ZM312.824 93.9657L313.322 94.0162C313.453 92.7166 314.547 91.5312 316.44 90.7271C318.315 89.931 320.865 89.5653 323.639 89.8499L323.69 89.3525L323.741 88.8551C320.832 88.5566 318.108 88.9328 316.05 89.8067C314.01 90.6726 312.512 92.0854 312.327 93.9152L312.824 93.9657ZM323.69 89.3525L323.639 89.8499C326.413 90.1346 328.837 91.0077 330.514 92.1653C332.208 93.3346 333.039 94.7145 332.905 96.0135L333.402 96.065L333.899 96.1164C334.089 94.286 332.905 92.6012 331.082 91.3424C329.242 90.072 326.649 89.1536 323.741 88.8551L323.69 89.3525ZM333.402 96.065V96.565H333.408V96.065V95.565H333.402V96.065ZM313.122 77.3077L312.622 77.3007L312.376 94.8982L312.876 94.9052L313.376 94.9122L313.622 77.3147L313.122 77.3077ZM333.408 96.065L332.909 96.0564L332.572 115.812L333.072 115.82L333.572 115.829L333.908 96.0735L333.408 96.065ZM333.072 115.82L332.574 115.77C332.446 117.035 331.237 118.215 329.06 119.007C326.918 119.785 324 120.118 320.819 119.793L320.768 120.291L320.717 120.788C324.015 121.124 327.09 120.787 329.401 119.947C331.676 119.12 333.38 117.734 333.569 115.87L333.072 115.82ZM320.768 120.291L320.819 119.793C317.64 119.469 314.849 118.554 312.908 117.361C310.933 116.146 309.986 114.748 310.115 113.486L309.617 113.436L309.12 113.385C308.93 115.246 310.323 116.945 312.384 118.212C314.479 119.5 317.422 120.452 320.717 120.788L320.768 120.291ZM309.617 113.436L310.11 113.517L313.311 94.0533L312.818 93.9722L312.324 93.891L309.124 113.355L309.617 113.436ZM290.847 54.3325L291.247 54.033L290.075 52.4651L289.674 52.7645L289.274 53.064L290.447 54.632L290.847 54.3325ZM275.715 100.786L275.664 101.283C277.424 101.462 278.958 101.972 280.013 102.628C281.099 103.304 281.538 104.034 281.477 104.628L281.975 104.679L282.472 104.73C282.593 103.544 281.72 102.512 280.541 101.779C279.331 101.026 277.644 100.479 275.765 100.288L275.715 100.786ZM281.975 104.679L281.477 104.628C281.417 105.223 280.84 105.85 279.64 106.293C278.474 106.723 276.87 106.913 275.11 106.734L275.059 107.232L275.008 107.729C276.887 107.92 278.649 107.724 279.986 107.231C281.289 106.75 282.351 105.915 282.472 104.73L281.975 104.679ZM275.059 107.232L275.11 106.734C273.349 106.555 271.816 106.045 270.761 105.389C269.674 104.713 269.236 103.983 269.297 103.389L268.799 103.338L268.302 103.288C268.181 104.473 269.054 105.505 270.233 106.238C271.443 106.991 273.13 107.538 275.008 107.729L275.059 107.232ZM268.799 103.338L269.297 103.389C269.357 102.795 269.933 102.168 271.134 101.725C272.299 101.295 273.904 101.104 275.664 101.283L275.715 100.786L275.765 100.288C273.887 100.097 272.125 100.293 270.787 100.787C269.485 101.267 268.422 102.102 268.302 103.288L268.799 103.338ZM281.983 104.682L281.483 104.691L281.788 122.256L282.288 122.247L282.787 122.239L282.483 104.674L281.983 104.682ZM282.288 122.247L281.79 122.197C281.763 122.463 281.601 122.753 281.225 123.045C280.849 123.338 280.294 123.603 279.578 123.811C278.15 124.225 276.184 124.382 274.026 124.16L273.975 124.658L273.924 125.155C276.178 125.387 278.277 125.229 279.857 124.771C280.646 124.542 281.33 124.231 281.84 123.834C282.351 123.436 282.721 122.922 282.785 122.298L282.288 122.247ZM273.975 124.658L274.026 124.16C271.867 123.938 269.972 123.388 268.656 122.695C267.996 122.348 267.506 121.977 267.196 121.615C266.887 121.254 266.787 120.938 266.814 120.672L266.316 120.621L265.819 120.57C265.755 121.195 266.015 121.773 266.436 122.265C266.856 122.755 267.464 123.197 268.19 123.58C269.645 124.346 271.67 124.923 273.924 125.155L273.975 124.658ZM266.316 120.621L266.811 120.693L269.306 103.413L268.811 103.341L268.316 103.27L265.821 120.55L266.316 120.621ZM274.889 101.32L275.289 101.02L274.117 99.4521L273.716 99.7516L273.316 100.051L274.488 101.619L274.889 101.32ZM260.572 82.497L260.521 82.9944C262.281 83.1735 263.815 83.6833 264.87 84.3395C265.956 85.0153 266.394 85.7453 266.334 86.3397L266.831 86.3903L267.329 86.4409C267.449 85.2553 266.577 84.2237 265.398 83.4904C264.187 82.7376 262.5 82.1907 260.622 81.9996L260.572 82.497ZM266.831 86.3903L266.334 86.3397C266.273 86.934 265.697 87.5608 264.497 88.0038C263.331 88.4341 261.726 88.6246 259.966 88.4455L259.916 88.9429L259.865 89.4403C261.743 89.6314 263.506 89.4356 264.843 88.942C266.146 88.4612 267.208 87.6265 267.329 86.4409L266.831 86.3903ZM259.916 88.9429L259.966 88.4455C258.206 88.2664 256.673 87.7566 255.618 87.1004C254.531 86.4246 254.093 85.6946 254.153 85.1002L253.656 85.0496L253.158 84.999C253.038 86.1846 253.91 87.2162 255.089 87.9495C256.3 88.7023 257.987 89.2492 259.865 89.4403L259.916 88.9429ZM253.656 85.0496L254.153 85.1002C254.214 84.5059 254.79 83.8791 255.99 83.4361C257.156 83.0058 258.761 82.8153 260.521 82.9944L260.572 82.497L260.622 81.9996C258.744 81.8085 256.981 82.0043 255.644 82.4979C254.342 82.9787 253.279 83.8134 253.158 84.999L253.656 85.0496ZM266.835 86.3916L266.335 86.4002L266.639 103.965L267.139 103.957L267.639 103.948L267.335 86.3829L266.835 86.3916ZM267.139 103.957L266.642 103.906C266.615 104.173 266.452 104.462 266.077 104.754C265.701 105.047 265.146 105.312 264.43 105.52C263.002 105.934 261.036 106.091 258.878 105.87L258.827 106.367L258.775 106.864C261.029 107.096 263.129 106.939 264.709 106.48C265.497 106.251 266.182 105.94 266.692 105.543C267.203 105.145 267.573 104.632 267.637 104.007L267.139 103.957ZM258.827 106.367L258.878 105.87C256.719 105.648 254.824 105.097 253.508 104.404C252.848 104.057 252.358 103.686 252.048 103.324C251.739 102.963 251.638 102.647 251.666 102.381L251.168 102.33L250.671 102.28C250.607 102.904 250.867 103.482 251.288 103.974C251.708 104.465 252.315 104.907 253.042 105.289C254.497 106.055 256.522 106.633 258.775 106.864L258.827 106.367ZM251.168 102.33L251.663 102.402L254.158 85.1218L253.663 85.0504L253.168 84.9789L250.673 102.259L251.168 102.33ZM259.741 83.0288L260.141 82.7294L258.968 81.1614L258.568 81.4609L258.167 81.7603L259.34 83.3283L259.741 83.0288ZM304.822 73.7247L305.223 73.4263L304.057 71.8583L303.656 72.1567L303.255 72.4552L304.421 74.0231L304.822 73.7247ZM320.923 90.4865L321.323 90.187L320.151 88.619L319.75 88.9185L319.35 89.218L320.523 90.7859L320.923 90.4865ZM283.11 45.6374L282.611 45.6446L282.798 58.6031L283.298 58.5958L283.798 58.5886L283.61 45.6301L283.11 45.6374ZM283.298 58.5958L282.801 58.5463C282.783 58.7252 282.674 58.9354 282.387 59.1593C282.098 59.3843 281.665 59.5926 281.099 59.7573C279.968 60.086 278.403 60.2122 276.682 60.0357L276.631 60.5331L276.58 61.0305C278.397 61.2168 280.095 61.0903 281.378 60.7176C282.017 60.5317 282.579 60.2771 283.001 59.9479C283.425 59.6176 283.743 59.1824 283.796 58.6453L283.298 58.5958ZM276.631 60.5331L276.682 60.0357C274.961 59.8592 273.455 59.4193 272.413 58.8696C271.891 58.594 271.509 58.3032 271.271 58.0249C271.034 57.7479 270.969 57.5206 270.987 57.3432L270.489 57.2935L269.992 57.2437C269.938 57.7791 270.163 58.2677 270.511 58.6751C270.859 59.0812 271.358 59.4431 271.947 59.754C273.127 60.377 274.764 60.8442 276.58 61.0305L276.631 60.5331ZM235.119 156.14L234.636 156.013L231.007 169.807L231.491 169.934L231.974 170.062L235.603 156.267L235.119 156.14ZM231.491 169.934L231.049 170.169L235.766 179.064L236.208 178.83L236.649 178.596L231.933 169.7L231.491 169.934ZM236.208 178.83L236.321 179.317L264.726 172.689L264.612 172.202L264.499 171.715L236.094 178.343L236.208 178.83ZM264.612 172.202L265.107 172.127L262.658 156.065L262.163 156.14L261.669 156.215L264.118 172.277L264.612 172.202ZM262.163 156.14L262.581 155.866L258.772 150.06L258.354 150.335L257.935 150.609L261.745 156.414L262.163 156.14ZM258.354 150.335L258.232 149.85L234.998 155.655L235.119 156.14L235.24 156.625L258.475 150.82L258.354 150.335ZM235.119 156.14L234.668 156.356L237.661 162.621L238.113 162.405L238.564 162.19L235.57 155.925L235.119 156.14ZM238.113 162.405L238.239 162.889L262.289 156.624L262.163 156.14L262.037 155.656L237.986 161.922L238.113 162.405ZM233.584 173.887L234.073 173.988L237.105 159.371L236.616 159.27L236.126 159.168L233.094 173.785L233.584 173.887ZM236.616 159.27L236.749 159.752L260.113 153.298L259.98 152.816L259.847 152.334L236.483 158.788L236.616 159.27ZM277.176 213.261L277.056 212.776L272.507 213.903L272.627 214.388L272.748 214.874L277.296 213.746L277.176 213.261ZM272.627 214.388L273.051 214.123L249.065 175.889L248.641 176.154L248.218 176.42L272.204 214.654L272.627 214.388ZM248.641 176.154L248.774 176.637L253.251 175.406L253.119 174.923L252.986 174.441L248.509 175.672L248.641 176.154ZM253.119 174.923L252.695 175.189L276.752 213.527L277.176 213.261L277.599 212.995L253.542 174.658L253.119 174.923ZM259.98 177.852L260.115 178.333L263.724 177.316L263.589 176.835L263.453 176.353L259.844 177.371L259.98 177.852ZM241.683 183.003L241.818 183.484L245.706 182.389L245.57 181.908L245.435 181.427L241.547 182.522L241.683 183.003ZM263.2 182.653L263.336 183.134L266.938 182.117L266.802 181.636L266.666 181.155L263.064 182.172L263.2 182.653ZM244.903 187.811L245.038 188.292L248.926 187.197L248.79 186.716L248.655 186.234L244.767 187.329L244.903 187.811ZM266.349 187.726L266.484 188.208L270.093 187.197L269.958 186.716L269.823 186.234L266.214 187.245L266.349 187.726ZM248.052 192.883L248.187 193.365L252.075 192.27L251.939 191.788L251.804 191.307L247.916 192.402L248.052 192.883ZM269.556 192.806L269.692 193.287L273.295 192.27L273.159 191.788L273.023 191.307L269.421 192.325L269.556 192.806ZM251.259 197.963L251.395 198.445L255.282 197.35L255.147 196.868L255.011 196.387L251.124 197.482L251.259 197.963ZM272.912 197.879L273.047 198.36L276.656 197.35L276.521 196.868L276.386 196.387L272.777 197.398L272.912 197.879ZM254.615 203.037L254.751 203.518L258.638 202.423L258.503 201.942L258.367 201.46L254.48 202.555L254.615 203.037ZM276.456 202.959L276.592 203.44L280.195 202.423L280.059 201.942L279.923 201.46L276.321 202.478L276.456 202.959ZM258.159 208.116L258.295 208.598L262.182 207.503L262.047 207.021L261.911 206.54L258.024 207.635L258.159 208.116ZM276.923 209.347L277.069 209.826L288.842 206.236L288.696 205.758L288.55 205.28L276.777 208.869L276.923 209.347ZM256.559 215.561L256.705 216.039L269.294 212.197L269.148 211.719L269.002 211.241L256.413 215.083L256.559 215.561ZM238.113 162.405L237.616 162.348L235.711 178.773L236.208 178.83L236.704 178.888L238.609 162.463L238.113 162.405ZM339.311 126.109L338.847 125.922L332.932 140.552L333.395 140.739L333.859 140.927L339.775 126.296L339.311 126.109ZM333.395 140.739L333.008 141.056L338.924 148.286L339.311 147.97L339.698 147.653L333.782 140.422L333.395 140.739ZM339.311 147.97L339.415 148.459L364.937 143.016L364.832 142.527L364.728 142.038L339.207 147.481L339.311 147.97ZM364.832 142.527L365.332 142.503L364.567 126.92L364.068 126.945L363.569 126.969L364.333 142.552L364.832 142.527ZM364.068 126.945L364.426 126.596L359.113 121.141L358.755 121.489L358.397 121.838L363.71 127.294L364.068 126.945ZM358.755 121.489L358.639 121.003L339.195 125.623L339.311 126.109L339.427 126.596L358.871 121.976L358.755 121.489ZM339.311 126.109L338.942 126.447L343.75 131.701L344.118 131.364L344.487 131.026L339.68 125.772L339.311 126.109ZM344.118 131.364L344.227 131.852L364.176 127.433L364.068 126.945L363.96 126.457L344.01 130.875L344.118 131.364ZM336.26 144.244L336.732 144.41L342.187 128.906L341.715 128.74L341.244 128.574L335.788 144.078L336.26 144.244ZM341.715 128.74L341.838 129.224L361.166 124.319L361.043 123.835L360.92 123.35L341.592 128.255L341.715 128.74ZM385.45 180.165L385.33 179.68L380.782 180.8L380.901 181.286L381.021 181.771L385.569 180.651L385.45 180.165ZM380.901 181.286L381.275 180.953L349.825 145.648L349.451 145.981L349.078 146.313L380.528 181.619L380.901 181.286ZM349.451 145.981L349.584 146.463L354.061 145.232L353.928 144.75L353.796 144.268L349.319 145.499L349.451 145.981ZM353.928 144.75L353.555 145.082L385.076 180.497L385.45 180.165L385.823 179.833L354.302 144.417L353.928 144.75ZM363.064 149.207L363.229 149.679L366.767 148.442L366.602 147.97L366.437 147.498L362.899 148.735L363.064 149.207ZM347.352 153.471L347.535 153.936L351.292 152.459L351.11 151.993L350.927 151.528L347.169 153.005L347.352 153.471ZM359.831 145.482L359.996 145.954L363.534 144.716L363.369 144.244L363.204 143.772L359.666 145.01L359.831 145.482ZM344.118 149.745L344.301 150.21L348.059 148.733L347.876 148.268L347.693 147.803L343.936 149.28L344.118 149.745ZM367.243 153.354L367.409 153.826L370.94 152.588L370.775 152.116L370.609 151.645L367.078 152.882L367.243 153.354ZM351.038 157.935L351.221 158.4L354.979 156.923L354.796 156.457L354.613 155.992L350.856 157.469L351.038 157.935ZM370.702 157.812L370.868 158.283L374.399 157.046L374.234 156.574L374.068 156.102L370.537 157.34L370.702 157.812ZM354.673 162.671L354.856 163.137L358.62 161.659L358.438 161.194L358.255 160.728L354.491 162.206L354.673 162.671ZM375.083 161.809L375.248 162.281L378.779 161.044L378.614 160.572L378.449 160.1L374.918 161.338L375.083 161.809ZM358.373 167.401L358.556 167.866L362.314 166.389L362.131 165.924L361.948 165.458L358.19 166.935L358.373 167.401ZM378.614 166.714L378.779 167.186L382.317 165.949L382.152 165.477L381.987 165.005L378.449 166.242L378.614 166.714ZM362.222 172.118L362.405 172.583L366.163 171.106L365.98 170.641L365.797 170.175L362.039 171.652L362.222 172.118ZM382.8 171.593L382.965 172.065L386.503 170.828L386.337 170.356L386.172 169.884L382.635 171.121L382.8 171.593ZM366.245 176.815L366.428 177.281L370.192 175.803L370.01 175.338L369.827 174.872L366.063 176.35L366.245 176.815ZM384.568 176.66L384.707 177.14L396.531 173.726L396.393 173.245L396.254 172.765L384.429 176.179L384.568 176.66ZM364.114 182.556L364.252 183.036L376.893 179.389L376.755 178.908L376.616 178.428L363.975 182.076L364.114 182.556ZM344.118 131.364L343.638 131.225L338.831 147.831L339.311 147.97L339.791 148.109L344.599 131.503L344.118 131.364ZM314.988 186.003L314.586 186.3L327.474 203.722L327.876 203.425L328.277 203.128L315.39 185.705L314.988 186.003ZM327.876 203.425L328.017 203.905L336.913 201.274L336.771 200.795L336.63 200.315L327.734 202.946L327.876 203.425ZM336.771 200.795L337.169 200.492L323.822 182.972L323.424 183.275L323.027 183.578L336.374 201.098L336.771 200.795ZM323.424 183.275L323.27 182.799L314.835 185.527L314.988 186.003L315.142 186.478L323.578 183.751L323.424 183.275ZM323.605 221.58L323.753 222.058L339.278 217.244L339.13 216.766L338.981 216.288L323.457 221.103L323.605 221.58ZM339.13 216.766L339.624 216.693L337.266 200.721L336.771 200.795L336.277 200.868L338.635 216.839L339.13 216.766ZM327.876 203.425L327.389 203.311L323.119 221.466L323.605 221.58L324.092 221.695L328.362 203.54L327.876 203.425ZM308.088 200.795L307.687 201.094L323.205 221.879L323.605 221.58L324.006 221.281L308.488 200.496L308.088 200.795ZM314.988 186.003L314.535 185.791L307.635 200.583L308.088 200.795L308.541 201.006L315.442 186.214L314.988 186.003ZM319.712 184.474L319.313 184.775L332.491 202.243L332.891 201.942L333.29 201.641L320.111 184.173L319.712 184.474ZM332.891 201.942L332.393 201.898L330.87 219.132L331.368 219.176L331.866 219.22L333.389 201.986L332.891 201.942ZM317.981 213.682L317.833 213.204L307.939 216.288L308.088 216.766L308.236 217.243L318.13 214.159L317.981 213.682ZM308.088 216.766L308.501 216.484L305.961 212.765L305.548 213.047L305.135 213.329L307.675 217.048L308.088 216.766ZM305.548 213.047L305.695 213.525L315.68 210.447L315.532 209.969L315.385 209.491L305.401 212.569L305.548 213.047ZM337.141 203.315L337.288 203.793L365.505 195.098L365.358 194.62L365.211 194.142L336.994 202.837L337.141 203.315ZM365.358 194.62L365.005 194.974L368.27 198.233L368.623 197.879L368.977 197.525L365.711 194.266L365.358 194.62ZM368.623 197.879L368.474 197.402L337.607 207.036L337.756 207.514L337.905 207.991L368.772 198.356L368.623 197.879ZM358.619 201.067L358.232 201.383L362.612 206.735L362.999 206.419L363.386 206.102L359.006 200.75L358.619 201.067ZM351.038 191.788L350.651 192.105L355.381 197.891L355.768 197.574L356.155 197.258L351.426 191.472L351.038 191.788ZM365.053 198.981L364.666 199.297L369.046 204.655L369.433 204.339L369.82 204.022L365.44 198.664L365.053 198.981ZM357.473 189.702L357.086 190.019L361.815 195.805L362.203 195.488L362.59 195.172L357.86 189.386L357.473 189.702ZM352.639 202.758L352.252 203.075L356.632 208.426L357.019 208.11L357.406 207.793L353.026 202.441L352.639 202.758ZM345.052 193.48L344.665 193.796L349.401 199.582L349.788 199.266L350.175 198.949L345.438 193.163L345.052 193.48ZM345.505 205.369L345.118 205.686L349.498 211.038L349.885 210.721L350.272 210.404L345.892 205.052L345.505 205.369ZM337.919 196.091L337.532 196.408L342.268 202.194L342.655 201.877L343.042 201.56L338.305 195.774L337.919 196.091ZM338.974 207.222L338.562 207.505L342.482 213.207L342.894 212.924L343.306 212.641L339.386 206.939L338.974 207.222ZM311.315 215.82L310.928 216.136L315.307 221.495L315.695 221.178L316.082 220.862L311.702 215.504L311.315 215.82ZM303.734 206.542L303.346 206.858L308.076 212.65L308.464 212.334L308.851 212.018L304.121 206.225L303.734 206.542ZM246.691 51.5529H246.191C246.191 52.2046 245.892 52.8646 245.271 53.5083C244.647 54.1545 243.721 54.7592 242.537 55.2779C240.172 56.3146 236.869 56.9684 233.195 56.9684V57.4684V57.9684C236.974 57.9684 240.42 57.298 242.939 56.1938C244.198 55.642 245.248 54.972 245.99 54.2027C246.735 53.431 247.191 52.5348 247.191 51.5529H246.691ZM233.195 57.4684V56.9684C229.52 56.9684 226.218 56.3146 223.852 55.2779C222.669 54.7592 221.743 54.1545 221.119 53.5083C220.498 52.8646 220.199 52.2046 220.199 51.5529H219.699H219.199C219.199 52.5348 219.655 53.431 220.4 54.2027C221.142 54.972 222.192 55.642 223.451 56.1938C225.97 57.298 229.416 57.9684 233.195 57.9684V57.4684ZM219.699 51.5529H220.199C220.199 50.9013 220.498 50.2413 221.119 49.5975C221.743 48.9514 222.669 48.3467 223.852 47.828C226.218 46.7912 229.52 46.1374 233.195 46.1374V45.6374V45.1374C229.416 45.1374 225.97 45.8079 223.451 46.9121C222.192 47.4639 221.142 48.1339 220.4 48.9032C219.655 49.6749 219.199 50.5711 219.199 51.5529H219.699ZM233.195 45.6374V46.1374C236.869 46.1374 240.172 46.7912 242.537 47.828C243.721 48.3467 244.647 48.9514 245.271 49.5975C245.892 50.2413 246.191 50.9013 246.191 51.5529H246.691H247.191C247.191 50.5711 246.735 49.6749 245.99 48.9032C245.248 48.1339 244.198 47.4639 242.939 46.9121C240.42 45.8079 236.974 45.1374 233.195 45.1374V45.6374ZM246.691 51.5529L246.193 51.5922L247.774 71.6777L248.272 71.6384L248.771 71.5992L247.19 51.5137L246.691 51.5529ZM248.272 71.6384H247.772C247.772 72.2746 247.455 72.9303 246.775 73.5786C246.094 74.228 245.083 74.8359 243.792 75.3571C241.212 76.3983 237.615 77.0539 233.616 77.0539V77.5539V78.0539C237.71 78.0539 241.441 77.3845 244.166 76.2844C245.528 75.7349 246.663 75.068 247.465 74.3021C248.27 73.5351 248.772 72.635 248.772 71.6384H248.272ZM233.616 77.5539V77.0539C229.618 77.0539 226.02 76.3983 223.441 75.3571C222.15 74.8359 221.138 74.228 220.458 73.5786C219.778 72.9303 219.46 72.2746 219.46 71.6384H218.96H218.46C218.46 72.635 218.963 73.5351 219.767 74.3021C220.57 75.068 221.705 75.7349 223.067 76.2844C225.792 77.3845 229.522 78.0539 233.616 78.0539V77.5539ZM218.96 71.6384L219.46 71.6568L220.198 51.5713L219.699 51.5529L219.199 51.5346L218.461 71.62L218.96 71.6384Z" fill="#FFF5F7"/>
</g>
<defs>
<filter id="filter0_g_59_537" x="0.968359" y="-0.0999999" width="557.371" height="369.643" filterUnits="userSpaceOnUse" color-interpolation-filters="sRGB">
<feFlood flood-opacity="0" result="BackgroundImageFix"/>
<feBlend mode="normal" in="SourceGraphic" in2="BackgroundImageFix" result="shape"/>
<feTurbulence type="fractalNoise" baseFrequency="0.013642564415931702 0.013642564415931702" numOctaves="3" seed="6556" />
<feDisplacementMap in="shape" scale="6.1999998092651367" xChannelSelector="R" yChannelSelector="G" result="displacedImage" width="100%" height="100%" />
<feMerge result="effect1_texture_59_537">
<feMergeNode in="displacedImage"/>
</feMerge>
</filter>
</defs>
</svg>
