<svg width="170" height="37" viewBox="0 0 170 37" fill="none" xmlns="http://www.w3.org/2000/svg">
<path d="M117.963 31.7345C117.835 31.358 117.652 31.0181 117.532 30.6512C117.291 30.0121 117.138 29.3807 116.889 28.8053C116.82 28.6296 116.748 28.4577 116.679 28.2859L112.164 32.2751C112.494 33.0205 112.819 33.7928 113.174 34.5247C113.576 35.3453 113.556 36.0404 114.609 35.3511C114.755 35.2526 114.958 35.297 115.072 35.2468C115.188 35.1966 115.258 35.075 115.352 34.9939C115.483 34.8799 115.671 34.9128 115.804 34.8201C115.984 34.6598 116.088 34.4436 116.331 34.3683C116.717 34.1694 117.032 33.8836 117.41 33.6866C117.683 33.5013 118.096 33.2676 118.243 32.949C118.303 32.7849 118.264 32.6092 118.202 32.447C118.113 32.2191 118.026 31.9585 117.967 31.7364L117.963 31.7345Z" fill="#FFF5F7"/>
<path d="M6.37515 33.007C5.93683 32.9143 5.53134 32.642 5.11619 32.4914C4.90958 32.4277 4.67401 32.3466 4.47126 32.2365C3.45174 31.7383 2.50945 30.9776 1.64247 30.238C1.20609 29.8074 0.335243 29.1606 0.825695 28.4809C1.03423 28.2743 1.1945 28.0484 1.3567 27.807C1.60578 27.556 1.84136 27.2953 2.03638 26.9979C2.58476 26.4573 3.04625 25.7486 3.50194 25.1462C3.55215 25.0844 3.60621 25.0265 3.67186 24.9917C3.8302 24.899 4.03488 24.9898 4.19128 24.9512C4.34768 24.8894 4.4925 24.872 4.64118 24.9801C5.40583 25.4996 6.03337 26.2159 6.87525 26.6388C7.39274 26.7991 8.01642 26.9806 8.57639 26.8415C9.12091 26.6832 9.66542 26.55 10.0593 26.1754C10.5382 25.6482 10.824 25.0014 11.0808 24.3449C11.2295 23.9355 11.2179 23.3929 11.0441 22.9662C10.8645 22.4391 10.766 21.8752 10.3103 21.5103C9.86045 21.0469 9.53605 20.4464 9.07456 19.9887C8.5397 19.423 7.91602 18.8939 7.44873 18.2895C6.77871 17.4612 6.16661 16.5671 5.57188 15.7098C4.94434 14.5455 4.46161 13.2846 4.54657 11.9233C4.54271 11.3498 4.63925 10.7686 4.69911 10.2106C4.77055 9.65254 5.08916 9.13312 5.40583 8.65619C6.00055 7.70618 6.81539 6.91064 7.68044 6.25413C8.30799 5.80809 9.01084 5.32536 9.74459 5.05503C10.0806 4.96428 10.4841 4.8658 10.8201 4.75767C11.2739 4.62057 11.8609 4.43327 12.3803 4.42555C12.6641 4.4159 13.1546 4.39852 13.4211 4.38886C13.9752 4.35604 14.6549 4.52596 15.2091 4.5723C15.52 4.58968 15.827 4.68429 16.1958 4.74415C16.497 4.81366 16.8002 4.84263 17.0261 4.99903C17.2288 5.14964 17.1149 5.37749 17.2269 5.61113C17.2945 5.80615 17.1999 6.00697 17.1941 6.20779C17.1748 6.63645 17.1477 6.9705 17.1883 7.40495C17.167 7.65597 17.0859 7.85679 17.1574 8.1136C17.1728 8.19277 17.1825 8.27386 17.1767 8.35496C17.1535 8.61371 16.9508 8.81645 17.1439 9.03851C17.1979 9.10995 17.252 9.17946 17.2539 9.23739C17.2539 9.37642 17.1361 9.45752 17.0898 9.60813C17.0319 9.82246 17.0087 10.0349 16.9392 10.2588C16.8388 10.5002 16.8542 11.1625 16.497 11.1587C15.8347 10.8903 15.099 10.5466 14.3884 10.5099C13.9694 10.4963 13.4211 10.3708 13.0175 10.4558C12.4363 10.5523 11.9265 10.7879 11.4747 11.205C11.2082 11.4232 11.0692 11.877 11.0499 12.2458C11.158 12.9023 11.6794 13.4275 12.0926 13.8986C12.8398 14.7907 13.6991 15.6558 14.402 16.5768C14.7553 17.019 15.1878 17.4766 15.4833 17.9265C15.6648 18.1949 15.9814 18.6564 16.1321 18.8765C16.7268 19.7976 17.3234 20.6877 17.5223 21.7459C17.6208 22.1687 17.7675 22.6013 17.7965 22.999C17.8931 23.8795 17.9993 24.7272 17.8293 25.5961C17.7714 26.1696 17.4779 26.6967 17.2674 27.249C16.9488 28.0194 16.3889 28.7474 15.9216 29.429C15.5856 29.9001 15.0681 30.3172 14.651 30.6377C14.1123 31.1359 13.5099 31.6051 12.8804 31.9874C10.9302 33.1189 8.59763 33.4897 6.40218 33.0185L6.37321 33.0108L6.37515 33.007Z" fill="#FFF5F7"/>
<path d="M26.5262 35.604C26.3099 35.5905 26.1902 35.7489 25.9894 35.6581C25.1919 35.0981 25.2653 33.9705 25.0567 33.1228C24.9235 32.5571 24.854 32.0125 24.659 31.4661C24.5779 31.2691 24.4659 31.1089 24.435 30.91C24.3887 30.6435 24.4775 30.3384 24.4215 30.0333C24.379 29.7939 24.3365 29.5352 24.2091 29.3266C24.1125 29.176 24.0102 29.2359 23.9484 29.0602C23.765 28.2801 23.7283 27.3127 23.4985 26.4882C23.2359 24.6731 22.9038 22.8291 22.5852 21.0256C22.423 19.4828 22.3631 17.9806 22.116 16.4629C21.7877 14.3331 21.4903 12.3269 21.1968 10.1971C21.1022 9.51158 20.9864 8.91686 20.8531 8.21594C20.7663 7.60384 21.4344 7.57101 21.8514 7.4455C22.2685 7.264 22.6643 7.31806 23.0949 7.14042C23.7148 7.01877 24.2747 6.81216 24.8946 6.63838C25.5511 6.42212 26.1902 6.55149 26.866 6.40088C27.5109 6.29275 28.1037 6.17689 28.5594 6.09579C29.0074 6.01276 29.4438 5.87374 29.9014 5.86215C31.3206 5.75016 32.9136 5.7714 34.2209 6.41439C35.335 6.96857 36.4067 7.66756 37.2061 8.61564C37.4841 8.95548 37.8317 9.59268 38.0981 10.0059C38.409 10.4848 38.5654 11.1278 38.7991 11.6684C39.2297 12.8868 39.4903 14.113 39.5096 15.424C39.5039 16.2852 39.247 17.1464 38.9458 17.9671C38.6504 18.8012 38.2507 19.7049 37.7255 20.4444C37.2292 21.1415 36.5862 21.7787 35.9664 22.3618C35.7637 22.5742 35.5744 22.6746 35.2887 22.8252C34.7712 23.1168 34.1514 23.4007 33.6184 23.6208C32.7437 23.9201 31.9038 24.1576 30.9885 24.341C30.7066 24.4182 30.3841 24.4858 30.108 24.5592C29.9671 24.6075 29.8531 24.6963 29.8184 24.8488C29.7547 25.2563 29.8473 25.6907 29.942 26.102C29.9787 26.4766 29.9922 26.8647 30.0887 27.2277C30.1215 27.9016 30.2374 28.5697 30.3841 29.2243C30.5135 30.3693 30.6699 31.441 30.7298 32.5879C30.7414 32.8486 30.7182 33.1402 30.5483 33.3313C30.3764 33.5187 30.1505 33.6152 29.9941 33.8334C29.8416 34.069 29.689 34.3393 29.4747 34.4629C29.1986 34.656 29.0035 34.2891 28.8124 34.6888C28.7796 34.7428 28.7467 34.7892 28.7081 34.8336C28.5768 34.99 28.3721 34.7795 28.2022 34.8684C28.0304 34.961 27.9551 35.2063 27.8373 35.3549C27.7233 35.5229 27.5438 35.4167 27.3912 35.5403C27.3217 35.5809 27.2503 35.6349 27.1711 35.66C26.9819 35.7411 26.7328 35.633 26.5551 35.6079H26.53L26.5262 35.604ZM29.3723 18.6757C30.4401 18.2412 31.647 17.9593 32.4985 17.0981C33.0392 16.6927 33.2496 16.0709 33.3404 15.4183C33.4002 15.1634 33.3578 14.9664 33.3037 14.6613C33.2245 14.2771 33.2342 13.9816 32.9909 13.636C32.7823 13.3367 32.5815 12.8791 32.3305 12.6474C32.2069 12.5624 32.008 12.4948 31.8555 12.4292C31.2415 12.1183 30.7954 12.1685 30.2104 12.24C29.6716 12.2902 29.1426 12.3886 28.6386 12.5431C28.4281 12.6242 28.0921 12.6339 28.0497 12.9042C28.0284 13.3136 28.0825 13.7924 28.1462 14.2462C28.3354 15.2541 28.3644 16.293 28.5498 17.3067C28.71 17.8435 28.3876 19.1237 29.3453 18.6815L29.3723 18.6718V18.6757Z" fill="#FFF5F7"/>
<path d="M43.2653 31.6515C43.217 31.6399 43.1707 31.6264 43.1263 31.6051C43.049 31.5684 42.9814 31.5124 42.91 31.4661C42.827 31.4159 42.7381 31.3831 42.6512 31.3425C42.3886 31.2209 42.2419 30.8752 42.1569 30.6165C42.1067 30.462 42.0681 30.3037 42.0276 30.1453C42.0083 30.0681 41.987 29.9928 41.9638 29.9175C41.9445 29.8518 41.904 29.7823 41.8924 29.7147C41.7727 29.008 42.2612 28.3226 42.0488 27.5965C42.0179 25.9881 42.0894 24.3603 42.0372 22.7557C42.0005 21.1608 42.1106 19.647 41.9638 18.0578C41.7534 16.0786 42.1936 14.2404 42.1898 12.3153C42.1396 10.1835 42.0797 7.96492 42.1473 5.83898C42.1994 4.02971 42.0044 4.04323 43.9392 4.07412C45.2483 4.14557 46.6405 3.91193 47.9053 4.13978C48.1524 4.36569 48.0559 4.81366 48.1003 5.12454C48.1312 5.84284 48.1486 6.68472 48.1447 7.43585C48.1273 8.18504 48.2374 8.93424 48.1582 9.67957C48.1312 10.0001 48.2528 10.114 48.1505 10.3419C47.9922 10.7744 48.2683 11.1509 48.2046 11.6375C48.2046 11.9098 48.2123 12.1994 48.1698 12.4543C48.1215 12.7439 47.9033 13.0239 47.886 13.3309C47.8782 13.5762 48.0288 13.7905 48.0404 14.0087C48.052 14.2307 47.8937 14.4605 47.9014 14.7096C47.9941 15.1518 47.9844 15.565 47.9477 16.0188C47.9728 16.9089 48.0385 17.7199 48.1891 18.5965C48.4363 21.4968 48.2702 24.4569 48.1061 27.3513C48.0462 28.3264 48.0713 29.3015 47.6774 30.2129C47.5905 30.3674 47.4361 30.4581 47.2758 30.5257C46.9089 30.659 46.683 30.9254 46.3296 30.9525C46.0477 31.022 45.6519 30.8636 45.4704 31.1513C45.3082 31.4796 45.3333 30.8289 45.0031 31.049C44.9143 31.105 44.8351 31.2073 44.7502 31.2691C44.5744 31.4159 44.3736 31.2788 44.25 31.4506C44.1709 31.5626 44.1554 31.7229 44.1168 31.8503C44.1033 31.8986 44.084 31.9874 44.0222 31.9565C43.9739 31.9314 43.943 31.833 43.916 31.7905C43.8793 31.7345 43.8291 31.6592 43.7519 31.6708C43.7268 31.6746 43.7055 31.6901 43.6785 31.6959C43.636 31.7017 43.5897 31.6959 43.5472 31.6959C43.468 31.692 43.3908 31.6804 43.3135 31.665C43.2962 31.6611 43.2807 31.6572 43.2633 31.6534L43.2653 31.6515Z" fill="#FFF5F7"/>
<path d="M67.6257 33.76C67.6161 33.7561 67.6064 33.7542 67.5948 33.7504C67.5311 33.731 67.4693 33.7117 67.4056 33.6944C67.367 33.6828 67.3283 33.6712 67.2897 33.6635C67.2492 33.6557 67.2086 33.6519 67.1661 33.6461C67.0136 33.6287 66.8611 33.6055 66.7085 33.5746C66.5791 33.5495 66.444 33.5322 66.332 33.4607C66.1756 33.3622 66.0578 33.2174 65.9632 33.063C65.8106 32.8081 65.718 32.5223 65.6253 32.2423C65.577 32.0994 65.5307 31.9546 65.4785 31.8137C65.4303 31.6843 65.3549 31.5607 65.3105 31.4333C64.9688 30.4253 64.6173 29.4502 64.2466 28.4423C63.5032 26.5674 62.8216 24.677 62.0724 22.7943C61.6785 21.8115 61.1764 20.9716 60.8134 19.981C60.5875 19.3284 60.35 18.6912 60.0778 18.052C59.9156 17.7991 59.2957 15.8913 59.1953 17.0151C58.6547 21.4659 58.0136 25.9765 57.1099 30.3867C57.0713 30.8057 56.9806 31.2479 57.0501 31.663C57.0906 31.9507 56.8879 32.1747 56.5944 32.196C55.8085 32.2964 54.9995 32.2037 54.258 32.4451C53.9896 32.532 53.7057 32.3852 53.447 32.5011C53.0145 32.5957 52.526 32.4335 52.076 32.3601C51.6281 32.2346 51.7729 31.7306 51.827 31.3869C52.0258 30.0276 52.0432 28.757 52.3 27.4092C52.5086 25.6212 52.7094 23.8293 52.9141 22.0374C53.2539 20.3344 53.2945 18.5695 53.4991 16.8568C53.8911 14.2597 54.1981 11.5912 54.8237 9.04044C54.9608 8.32407 55.0941 7.63473 55.2447 6.92802C55.3412 6.5959 55.2621 6.09579 55.5922 5.90656C56.046 5.76174 56.5403 5.98573 57.0153 5.98766C57.5985 6.11124 58.1681 6.11124 58.757 6.15179C59.68 6.4086 61.1977 5.91429 61.6824 6.94346C62.7675 8.8821 63.6345 10.9771 64.5208 12.9814C65.3028 14.6594 66.0481 16.4494 66.6738 18.2065C67.0638 18.9383 67.2646 19.7686 67.7667 20.4753C67.8169 20.4966 67.8516 20.4348 67.8806 20.3247C67.9655 19.9269 67.9906 19.533 68.0833 19.1333C68.3189 16.3451 68.8248 13.58 69.24 10.7995C69.4717 10.1179 69.2824 7.51308 70.217 7.59611C71.1516 7.65597 72.0823 7.87223 73.0168 7.84327C73.7351 7.83169 74.521 7.89154 75.2258 8.00933C75.6409 8.09429 75.5116 8.5133 75.4614 8.83383C74.9419 12.993 73.9842 17.046 73.4378 21.2052C73.15 22.972 72.8894 24.7137 72.7755 26.5268C72.6055 27.9151 72.3468 29.3363 72.144 30.7362C72.0514 31.4159 71.9007 31.9971 71.7733 32.642C71.6594 33.0668 71.781 33.9917 71.1921 34.1288C70.495 34.1964 69.9023 33.9492 69.2071 34.1172C69.0662 34.1481 68.9329 34.1037 68.8113 34.0361C68.6259 33.9338 68.4135 34.013 68.2204 33.9512C68.0196 33.8855 67.8188 33.8257 67.618 33.7639L67.6257 33.76Z" fill="#FFF5F7"/>
<path d="M87.043 23.837C87.0411 23.8255 87.0391 23.8158 87.0391 23.8042C87.0314 23.7405 87.0353 23.6652 87.0391 23.5995C87.0971 22.5259 87.182 21.3172 87.2689 20.2899C87.3249 19.7956 87.35 19.2453 87.435 18.7665C87.491 18.5734 87.4639 18.2895 87.6165 18.1505C88.0258 17.998 88.4313 18.0578 88.8909 18.1003C89.6381 18.1563 90.3062 18.2953 91.0091 18.5927C91.9494 18.7974 92.8454 19.5137 92.9284 20.5294C92.9709 21.0005 92.8242 21.4736 92.7392 21.9138C92.6832 22.2035 92.4804 22.4989 92.3549 22.7654C92.2333 23.0222 92.0576 23.2153 91.8934 23.4412C91.9803 23.4605 92.1001 23.4354 92.1908 23.4277C92.2989 23.418 92.4051 23.4064 92.5113 23.3891C92.7199 23.3582 92.9265 23.3138 93.1292 23.2578C93.2934 23.2114 93.4556 23.1593 93.6255 23.1303C93.7626 23.1072 93.9016 23.1033 94.0406 23.0917C94.2723 23.0743 94.504 23.0376 94.7338 23.0029C95.0042 22.9623 95.2764 22.9199 95.5467 22.8793C96.5315 22.7306 97.5163 22.58 98.4914 22.3734C98.5763 22.356 98.5879 22.358 98.5956 22.2691C98.6014 22.1938 98.6072 22.1185 98.6111 22.0413C98.5802 21.603 98.5802 21.07 98.5377 20.6221C98.3987 19.8555 98.1844 19.116 97.9411 18.3745C97.8001 17.8338 97.4081 17.3646 97.2768 16.8143C97.2382 16.6772 97.1861 16.515 97.1146 16.3837C96.9312 15.9821 96.435 15.5978 96.5952 15.1711C96.7053 14.9606 96.8752 14.8216 96.9621 14.586C97.0799 14.3099 97.1996 14.0319 97.3116 13.8001C97.4545 13.4835 97.6553 13.1591 97.7248 12.8289C97.8503 12.3771 97.9411 11.9581 97.9469 11.4637C97.9836 10.9289 97.9121 10.3168 97.9391 9.77419C97.8909 9.36097 97.8078 8.857 97.6997 8.44379C97.5607 8.04022 97.5298 7.56522 97.2517 7.19835C96.9602 6.73686 96.6725 6.28116 96.3172 5.8525C95.9426 5.43349 95.4463 5.04537 95.0254 4.69395C94.8593 4.55492 94.8149 4.53561 94.5871 4.43714C94.3206 4.32128 93.8591 4.11853 93.6351 4.02199C93.4613 3.94668 93.4111 3.93124 93.2103 3.88876C92.689 3.78449 92.1136 3.6416 91.5768 3.57981C90.9376 3.50257 90.3217 3.4292 89.6574 3.46782C89.389 3.47168 89.1071 3.56629 88.831 3.53926C87.6705 3.37127 86.5139 3.28245 85.3573 3.211C85.002 3.18011 84.6757 3.11446 84.3146 3.10867C84.1312 3.09901 83.8763 3.05653 83.7257 3.17432C83.5538 3.36548 83.5963 3.75359 83.5422 4.01427C83.4882 4.41203 83.38 4.88897 83.3685 5.26164C83.3588 5.48369 83.3395 5.91429 83.3279 6.17882C83.2565 7.24276 83.0827 8.23332 82.9147 9.26249C82.6135 10.7937 82.4938 12.3713 82.208 13.9063C82.0187 15.0398 81.7832 16.1346 81.6036 17.2546C81.4375 18.3011 81.2927 19.5581 81.2251 20.6259C81.1363 22.0452 81.0359 23.4624 80.9143 24.8797C80.9085 24.9454 80.8621 25.1385 80.9123 25.1752C80.9625 25.2119 81.1981 25.1597 81.2638 25.1539C81.5051 25.1288 81.7446 25.0863 81.9801 25.0246C82.1732 24.9743 82.3624 24.9106 82.5594 24.8875C82.7119 24.8701 82.8664 24.8759 83.019 24.8681C83.2449 24.8585 83.4689 24.8218 83.6928 24.7851C84.442 24.6615 85.1912 24.538 85.9404 24.4144C86.315 24.3526 86.6896 24.2908 87.0642 24.229L87.0526 24.0688L87.0449 23.8351L87.043 23.837ZM88.4545 11.8364C88.4835 11.6742 88.5028 11.5043 88.5279 11.3363C88.6012 10.7995 88.6669 10.4288 88.746 9.90935C88.804 9.67378 88.7924 9.37062 89.0145 9.23546C89.2964 9.15243 89.8409 9.27215 90.1344 9.28953C90.5051 9.36097 91.0323 9.3378 91.3528 9.6004C91.8915 10.1546 92.382 11.0312 92.075 11.8132C91.8799 12.4234 91.5633 12.6377 90.9627 12.7536C90.7465 12.7999 90.5457 12.9023 90.3236 12.9139C90.0378 12.9216 89.6729 12.9254 89.4257 12.9235H89.4064C89.1882 12.9139 88.8986 12.9061 88.6959 12.883C88.5588 12.8694 88.4468 12.8405 88.3792 12.7459C88.2382 12.4968 88.4332 12.0913 88.4526 11.8383L88.4545 11.8364Z" fill="#FFF5F7"/>
<path d="M106.96 19.6315C106.991 19.2337 106.997 18.415 107.354 19.2975C107.443 19.5408 107.542 19.7802 107.638 20.0216C107.686 20.1432 107.737 20.2648 107.785 20.3865C107.822 20.4792 107.851 20.6607 107.937 20.7012C108.024 20.7418 108.214 20.7051 108.308 20.6935C108.439 20.6781 108.569 20.651 108.696 20.6201C108.949 20.5603 109.198 20.485 109.455 20.4444C109.569 20.427 109.685 20.4155 109.799 20.4039C110.446 20.3382 111.089 20.2397 111.73 20.1278C112.054 20.0718 112.377 20.01 112.701 19.9482C113 19.8902 113.313 19.7937 113.616 19.7744C113.603 19.6624 113.527 19.533 113.485 19.4249C113.435 19.3033 113.39 19.1777 113.332 19.06C113.182 18.7626 113.045 18.473 112.95 18.1698C112.693 17.4612 112.363 16.7795 112.085 16.0748C111.674 15.1228 111.369 14.2964 111.002 13.3734C110.598 12.4234 110.17 11.4908 109.718 10.5485C109.407 9.95376 109.146 9.34938 108.752 8.77976C108.532 8.54998 108.273 8.88017 108.015 8.90334C107.408 9.01727 106.777 8.99023 106.173 9.13505C105.701 9.14085 105.252 9.29339 104.775 9.28953C104.495 9.33394 104.22 9.29725 103.933 9.28953C103.765 9.30304 103.612 9.37256 103.45 9.38028C103.209 9.38028 102.905 9.29725 102.726 9.47489C102.494 9.8186 102.496 10.2859 102.407 10.6991C102.286 11.3807 102.075 12.0488 101.988 12.7072C101.878 13.7963 101.695 14.893 101.589 15.9686C101.494 16.9012 101.322 17.8184 101.255 18.7471C101.2 19.4886 101.173 20.2301 101.119 20.9716C101.106 21.1608 101.09 21.35 101.077 21.5393C101.073 21.5895 101.034 21.7381 101.063 21.7806C101.1 21.8347 101.216 21.8154 101.276 21.8154C101.643 21.8115 101.998 21.715 102.355 21.6397C103.255 21.4504 104.178 21.3925 105.076 21.1955C105.572 21.0874 106.061 20.9368 106.566 20.8866C106.632 20.8808 106.698 20.8789 106.761 20.8731C106.831 20.8673 106.827 20.8808 106.854 20.8229C106.901 20.7283 106.879 20.5352 106.889 20.429C106.912 20.1644 106.937 19.8999 106.962 19.6334L106.96 19.6315Z" fill="#FFF5F7"/>
<path d="M161.532 10.4404C161.785 9.74715 162.096 9.07519 162.451 8.41096C162.559 8.15994 162.617 7.88382 162.746 7.63087C162.936 7.25434 163.206 6.8083 163.391 6.38929C163.613 5.91622 164.021 5.04731 164.204 4.65919C164.312 4.40817 164.494 4.08378 164.334 3.82117C164.098 3.56629 163.706 3.58174 163.393 3.42534C162.789 3.15694 162.111 3.09901 161.511 2.80358C161.173 2.70704 160.839 2.5487 160.518 2.41547C160.319 2.34596 160.093 2.32278 159.885 2.23589C159.419 2.00804 159.118 2.16059 158.873 2.5738C158.593 2.9735 158.4 3.3732 158.191 3.76518C157.848 4.42748 157.351 5.33887 157 6.05138C156.739 6.58624 156.432 7.12883 156.195 7.65983C155.853 8.45923 155.542 9.35131 155.15 10.1217C154.994 10.4056 154.917 9.93252 154.876 9.8128C154.731 9.25863 154.615 8.6948 154.486 8.13484C154.301 7.42619 154.235 6.67507 154.009 5.9529C153.94 5.75209 153.922 5.47597 153.754 5.3215C153.536 5.14385 153.215 5.33694 152.978 5.36204C152.238 5.53003 151.528 5.79843 150.796 6.02628C150.253 6.12669 149.829 6.3835 149.276 6.51287C148.946 6.58818 148.606 6.73299 148.421 7.02842C148.278 7.31613 148.386 7.58646 148.425 7.93402C148.577 8.913 148.774 9.96921 149.006 10.9559C149.234 11.7437 149.421 12.715 149.637 13.5317C149.69 13.7248 149.724 13.9314 149.792 14.1187C150.75 13.9778 151.709 13.7905 152.671 13.6476C154.127 13.4294 155.579 13.188 157.031 12.9467C158 12.7864 158.968 12.6242 159.937 12.464C160.142 12.4292 160.462 12.4388 160.646 12.3462C160.798 12.2689 160.881 11.9465 160.953 11.7881C161.155 11.346 161.35 10.9018 161.53 10.4481L161.532 10.4404Z" fill="#FFF5F7"/>
<path d="M80.7482 29.7997C80.7733 30.1241 80.8447 30.4736 81.1479 30.6532C81.4124 30.7845 81.6731 30.9312 81.9492 31.0374C82.2659 31.1243 82.5517 31.1456 82.9031 31.2209C83.2989 31.3039 83.6793 31.4197 84.0732 31.4313L84.1003 31.4352C84.6757 31.5626 85.3785 31.3715 85.9597 31.4545C87.8385 31.5897 89.7385 31.6708 91.5806 31.3444C91.766 31.3271 91.9842 31.2769 92.1657 31.3271C92.2642 31.3522 92.3414 31.4139 92.4457 31.4178C92.7855 31.385 93.0964 31.1842 93.4305 31.0973C93.7742 30.9911 94.1449 30.8057 94.5079 30.7574C94.6604 30.715 94.7821 30.6165 94.896 30.5103C95.0679 30.3577 95.232 30.2264 95.3807 30.0527C95.5255 29.8731 95.7379 29.6974 95.9619 29.5661C96.1222 29.4657 96.2747 29.4212 96.3983 29.2687C96.9795 28.4905 97.4815 27.7124 97.8889 26.8242C98.2056 25.8703 98.3253 24.9589 98.362 23.9548C98.3659 23.7926 98.3736 23.6285 98.3794 23.4644L91.7525 24.9338C91.627 25.0805 91.486 25.2119 91.3296 25.3238C90.9936 25.5401 90.4723 25.5536 90.0938 25.6811C89.8409 25.7622 89.5358 25.7506 89.2674 25.7873C89.0106 25.8143 88.7885 26.0055 88.5472 26.0711L88.5279 26.075C88.2151 26.0943 87.7381 26.0576 87.4388 26.046C87.3963 26.0421 87.3577 26.0286 87.323 26.0035C87.2998 25.9861 87.2747 25.9437 87.2477 25.9359C87.2187 25.9282 87.1357 25.9688 87.1048 25.9784C87.0526 25.9919 87.0005 26.0074 86.9464 26.0209C86.7302 26.0769 86.5139 26.129 86.2977 26.1773C85.8728 26.27 85.4442 26.3492 85.0117 26.4109C84.8456 26.4341 84.6796 26.4573 84.5135 26.492C84.3629 26.5249 84.2161 26.5693 84.0694 26.6118C83.3974 26.8068 82.7177 26.9748 82.0323 27.1119C81.7909 27.1601 81.5495 27.2065 81.3062 27.247C81.1942 27.2663 81.0572 27.2663 80.951 27.305C80.8679 27.3359 80.8776 27.4073 80.8737 27.4865C80.8583 27.9653 80.8409 28.4442 80.8177 28.9231C80.8177 29.2475 80.7443 29.4753 80.7405 29.7978L80.7482 29.7997Z" fill="#FFF5F7"/>
<path d="M150.597 19.1275C150.798 20.1142 150.978 21.1125 151.213 22.1262C151.364 22.8735 151.59 23.5957 151.721 24.3487C151.999 26.0615 152.391 27.8225 152.684 29.5255C152.872 30.435 153.165 31.2962 153.362 32.1921C153.436 32.4489 153.536 32.7501 153.775 32.9123C153.887 32.9741 153.997 32.9355 154.167 32.9123C154.376 32.8795 154.664 32.837 154.874 32.8042C154.998 32.783 155.098 32.7482 155.208 32.7019C155.459 32.5879 155.789 32.5455 156.06 32.4296C156.351 32.3273 156.645 32.2713 156.94 32.2269C157.048 32.2191 157.172 32.2655 157.274 32.2385C157.404 32.1979 157.415 31.9758 157.577 31.9044C157.61 31.889 157.647 31.8774 157.686 31.8696C157.944 31.8542 158.12 31.7847 158.323 31.5955C158.427 31.5086 158.56 31.4448 158.655 31.3483C158.811 31.1938 158.805 30.9525 158.821 30.742C158.885 30.2805 158.722 29.7649 158.645 29.2919C158.529 28.6952 158.34 27.8746 158.193 27.191C158.106 26.7855 158.047 26.3202 157.95 25.9031C157.84 25.3354 157.664 24.7562 157.63 24.2097C157.622 23.8563 158.047 24.314 158.245 24.4414C158.373 24.5399 158.469 24.6229 158.597 24.7311C160.914 26.7276 163.575 28.7165 165.927 30.6416L165.948 30.657C166.124 30.7825 166.328 30.7497 166.502 30.6319C167.031 30.2921 167.371 29.7862 167.651 29.2475C167.887 28.896 168.226 28.6218 168.485 28.2878C168.609 28.0966 168.506 27.8669 168.659 27.6911C168.829 27.5212 169.037 27.4034 169.117 27.1582C169.283 26.7759 169.167 26.3318 169.12 25.9359C169.099 25.8491 169.039 25.7776 168.974 25.7139C168.775 25.5362 168.331 25.1578 168.093 24.9492C167.639 24.5515 167.128 24.146 166.672 23.7405C165.977 22.9063 165.052 22.2556 164.177 21.5817C163.727 21.2284 163.212 20.8152 162.783 20.4251C162.401 20.0833 162.111 19.7338 161.719 19.4075C161.252 18.9808 160.719 18.5521 160.271 18.0848C159.935 17.6755 159.178 17.2719 159.307 16.6946C159.392 16.4783 159.481 16.2659 159.576 16.0535C159.773 15.6094 159.987 15.173 160.207 14.7405C160.317 14.5223 160.431 14.306 160.543 14.0898C160.574 14.0299 160.711 13.8446 160.68 13.7808C160.646 13.7133 160.458 13.7461 160.398 13.7461C159.454 13.7712 158.554 14.1091 157.616 14.1844C157.265 14.2134 156.913 14.2037 156.562 14.223C155.363 14.2848 154.2 14.6555 153.009 14.8004C152.254 14.893 151.491 14.8969 150.734 14.9703C150.545 14.9896 149.821 14.9934 149.771 15.1827C149.734 15.3198 149.86 15.6249 149.887 15.7677C149.921 15.9454 149.954 16.123 149.985 16.3007C150.153 17.1561 150.425 18.305 150.595 19.1275H150.597Z" fill="#FFF5F7"/>
<path d="M109.986 31.2035C110.117 31.2035 110.249 31.1842 110.38 31.1726C110.511 31.161 110.67 31.1822 110.787 31.1359C111.058 31.0316 111.318 30.8115 111.548 30.6397C112.041 30.2708 112.502 29.8596 113.022 29.5313C113.346 29.3266 113.692 29.1567 113.995 28.9211C114.147 28.8034 114.288 28.6701 114.454 28.5716C114.624 28.4693 114.815 28.4075 114.993 28.3206C115.174 28.2299 115.342 28.114 115.497 27.9846C115.578 27.9171 115.655 27.8456 115.731 27.7742C115.781 27.7259 115.914 27.6371 115.941 27.5772C115.976 27.4981 115.899 27.3668 115.872 27.2857C115.833 27.1717 115.794 27.0559 115.756 26.942C115.68 26.7218 115.588 26.4998 115.528 26.2739C115.294 25.3953 114.92 24.3565 114.671 23.5242C114.539 23.1612 114.416 22.7963 114.292 22.4294C114.213 22.1977 114.136 21.9679 114.056 21.7362C114.018 21.6223 113.977 21.5064 113.937 21.3925C113.927 21.3635 113.906 21.2515 113.877 21.2419C113.863 21.2361 113.784 21.2689 113.767 21.2709C113.271 21.3211 112.778 21.3693 112.284 21.435C111.303 21.5682 110.324 21.7323 109.337 21.8134C109.189 21.825 109.038 21.8366 108.889 21.854C108.681 21.8791 108.474 21.9177 108.27 21.9602C108.237 21.9679 108.159 21.9679 108.144 21.9988C108.134 22.0181 108.169 22.0973 108.175 22.1185C108.2 22.2073 108.227 22.2962 108.256 22.385C108.37 22.7287 108.507 23.0627 108.633 23.4007C108.802 23.895 108.955 24.397 109.106 24.872C109.171 25.0748 109.2 25.2543 109.243 25.4725C109.262 25.5749 109.264 25.6579 109.231 25.7062L109.221 25.7197C109.123 25.8124 108.941 25.7931 108.801 25.8066C108.501 25.8143 108.152 25.8124 107.885 25.8278C107.555 25.8452 107.159 25.9147 106.887 25.8626C106.653 25.8297 106.74 25.5671 106.742 25.3972C106.76 25.1732 106.771 24.9492 106.796 24.7716C106.879 24.2039 106.924 23.6343 106.978 23.0473C107.007 22.7326 107.055 22.4159 107.076 22.1011C106.796 22.0703 106.472 22.161 106.194 22.1996C106.051 22.2189 105.908 22.2382 105.765 22.2595C105.053 22.358 104.342 22.4564 103.626 22.5317C103.516 22.5433 103.404 22.5549 103.294 22.5549C103.193 22.5549 103.091 22.551 102.992 22.5665C102.859 22.5897 102.736 22.6534 102.602 22.6881C102.523 22.7075 102.442 22.7171 102.361 22.7268C102.122 22.7538 101.882 22.7789 101.643 22.8059C101.56 22.8156 101.351 22.7982 101.283 22.8445C101.22 22.889 101.231 23.0569 101.222 23.138C101.168 23.6092 101.112 24.0803 101.054 24.5515C100.976 25.4436 100.868 26.3588 100.768 27.2509C100.71 28.002 100.583 28.784 100.49 29.5352C100.409 30.4948 100.276 31.4197 100.162 32.362C100.04 33.3661 99.9357 34.5015 99.7851 35.4978C99.7059 35.8242 99.6866 36.1794 100.042 36.3359C100.221 36.3957 100.361 36.3359 100.569 36.3204C100.826 36.2914 101.054 36.4536 101.293 36.5C101.434 36.5019 101.535 36.3571 101.656 36.3436C101.73 36.332 101.813 36.359 101.89 36.3783C102.178 36.4865 102.479 36.3552 102.763 36.2992C102.971 36.2586 103.243 36.3281 103.435 36.3861H103.452C103.591 36.3918 103.672 36.2548 103.838 36.2625C103.95 36.2625 104.085 36.2953 104.226 36.2586C104.51 36.193 104.761 36.0385 105.014 35.9053C105.097 35.8608 105.174 35.8068 105.224 35.7257C105.653 34.5266 105.63 33.0803 105.937 31.8503C105.985 31.5259 106.398 31.4931 106.655 31.4564C106.972 31.4294 108.169 31.3271 108.793 31.273C109.2 31.2286 109.571 31.2324 109.98 31.2073L109.986 31.2035Z" fill="#FFF5F7"/>
<path d="M147.981 13.6418C148.307 15.2252 148.207 16.5729 148.095 17.3994V17.4361L147.973 18.2142C147.952 18.5444 148.015 19.4809 147.521 20.6896L147.027 21.8965L146.287 23.3273L145.359 25.2061L143.358 28.2994L141.603 29.8364L139.994 30.9911L138.61 31.8117L136.044 32.8255L134.47 33.0494L132.026 32.9954L129.083 32.5223L127.164 31.9469L125.132 31.1108L122.089 29.6201L120.27 28.1565L119.119 27.1254L117.577 24.7909L116.395 22.4989L116.105 21.1666C116.105 21.1666 116.292 15.5553 116.601 12.9023L116.594 12.8945L116.63 12.2515L116.779 11.8113C117.192 10.255 120.021 6.40474 120.519 6.08421C121.017 5.76367 122.695 4.52596 122.695 4.52403L123.904 3.50257L125.273 2.57573L127.303 1.50214L130.492 0.704677L131.863 0.635164L133.864 0.5L135.401 0.635164L136.472 1.04259L138.573 1.92502L140.298 2.94647L141.551 3.95055L143.399 5.81195L144.71 7.32965L145.66 8.51716C145.66 8.51716 147.484 11.2513 147.977 13.6418H147.981ZM145.075 14.7308C145.075 13.9797 145.117 13.6882 144.741 12.7575C144.362 11.8267 144.063 10.9617 143.387 10.2743C142.711 9.58689 142.101 9.5753 141.835 8.6697C141.566 7.7641 140.626 7.28331 140.433 7.51502C140.24 7.75059 140.454 7.739 140.454 7.739C140.454 7.739 141.381 8.92844 142.088 9.68536C142.794 10.4404 143.308 11.2861 143.8 12.6725C144.293 14.0589 144.482 15.258 144.337 15.9879C144.194 16.7197 144.156 17.0055 143.906 17.8493C143.683 18.6023 143.111 20.2957 143.688 19.954C144.264 19.6122 144.493 19.2434 144.677 18.5444C144.86 17.8454 145.079 15.4878 145.077 14.7347L145.075 14.7308ZM143.271 21.3577C143.379 21.1666 143.576 21.0951 143.306 20.931C143.034 20.7669 142.781 20.8403 142.644 21.1009C142.524 21.3249 142.354 21.6049 142.273 21.7517C142.192 21.8965 141.57 22.1359 141.835 22.3657C142.101 22.5935 142.454 22.4217 142.744 22.1301C143.034 21.8366 143.163 21.5489 143.273 21.3577H143.271ZM142.2 17.1368C142.358 16.6946 142.574 16.4011 142.541 15.4627C142.51 14.5242 142.184 13.6457 141.947 13.0934C141.711 12.5393 141.512 12.6764 141.201 11.9658C140.888 11.2552 140.178 10.8092 139.996 10.8265C139.815 10.8439 139.703 11.1509 139.867 11.3556C139.867 11.3556 140.757 12.4215 141.122 13.356C141.487 14.2906 141.518 14.9297 141.524 15.3063C141.531 15.6828 141.869 16.3895 141.475 16.9977C141.082 17.606 140.842 18.2683 140.72 18.583C140.599 18.8978 141.25 18.7124 141.412 18.5154C141.574 18.3185 142.039 17.5789 142.198 17.1368H142.2ZM140.566 25.7989C140.684 25.5826 140.97 25.3509 140.956 25.1134C140.939 24.8585 140.765 24.5631 140.622 24.4144C140.527 24.3198 140.487 24.2116 140.522 24.0726C140.56 23.8158 140.236 24.063 140.139 23.9374C140.103 23.8718 140.126 23.7849 140.108 23.7115C140.095 23.5976 139.923 23.6652 139.927 23.5532C139.933 23.3234 139.877 23.2616 139.641 23.335C139.265 23.4644 139.375 23.1381 139.353 22.9372C139.328 22.8426 139.199 22.8446 139.156 22.7847C139.114 22.7075 139.22 22.5453 139.12 22.4777C139.046 22.414 138.938 22.3811 138.884 22.2942C138.836 22.2189 138.83 22.1205 138.786 22.0452C138.741 21.9544 138.595 21.9351 138.473 21.8328C137.795 20.9716 137.745 21.126 137.017 21.8173C136.658 22.1552 136.239 22.5588 135.826 22.8542C135.38 23.1921 134.943 23.5435 134.389 23.6826C133.985 23.725 133.572 23.8506 133.184 23.9085C132.601 23.922 132.062 23.8274 131.487 23.8004C130.844 23.7115 130.216 23.3273 129.591 23.1091C129.121 22.9372 128.847 22.692 128.434 22.4468C128.187 22.3 128.085 22.1784 127.878 21.9583L123.103 25.125C123.335 25.4648 123.584 25.7911 123.86 26.1078C124.146 26.5036 124.48 26.7913 124.85 27.1466C125.024 27.3146 125.123 27.417 125.341 27.5174C126.746 28.2627 128.212 29.1992 129.832 29.3865C130.292 29.4618 130.765 29.7051 131.215 29.7379C131.688 29.8132 132.215 29.7939 132.713 29.7958H132.736C133.578 29.7649 134.343 29.7263 135.196 29.5912C135.845 29.4521 136.463 29.2861 137.09 29.0351C137.664 28.7049 138.203 28.3535 138.722 27.9325C139.309 27.5212 139.747 27.0655 140.259 26.5616C140.394 26.4052 140.549 26.2623 140.589 26.0634C140.605 25.9475 140.504 25.9166 140.554 25.8046L140.566 25.7989ZM138.846 6.59976C138.961 6.36419 139.064 6.00697 138.975 5.77912C138.683 5.42576 138.203 5.3408 137.801 5.13999C137.347 4.96814 136.928 4.70167 136.467 4.54527C135.212 4.16102 133.908 3.88489 132.616 3.81152C132.207 3.79028 131.649 3.8038 131.199 3.8289C130.429 3.94668 129.596 4.13591 128.822 4.33866C128.332 4.44486 127.909 4.67271 127.432 4.83104C126.638 5.17475 125.852 5.64975 125.159 6.17882C124.362 6.76196 123.613 7.37985 122.964 8.10588C122.78 8.28545 122.67 8.4824 122.525 8.68901C122.514 8.70639 122.502 8.72184 122.491 8.73921C123.126 9.21036 123.703 9.77225 124.381 10.1816C124.744 10.4017 125.136 10.5774 125.489 10.8149C125.721 10.9714 125.937 11.1529 126.152 11.3324L126.839 11.9117C126.992 12.0391 127.142 12.1705 127.281 12.3133C127.98 11.3517 128.911 10.5446 130.039 10.1198C130.442 9.90935 130.861 9.83598 131.313 9.79929C131.744 9.72591 132.111 9.69502 132.528 9.72398C133.306 9.73557 133.935 9.96342 134.665 10.1681C135.125 10.2975 135.6 10.4481 136.036 10.7087C136.447 10.9656 136.959 10.8323 137.218 10.4288C137.397 10.1777 137.463 9.8939 137.602 9.6313C137.797 9.1756 137.926 8.74694 138.149 8.29704C138.218 8.16573 138.311 8.07691 138.33 7.93016C138.367 7.8201 138.199 7.63087 138.206 7.54205C138.23 7.48412 138.295 7.50343 138.394 7.48412C138.678 7.46867 138.662 7.24083 138.654 7.02649C138.66 6.87781 138.751 6.74651 138.846 6.59204V6.59976ZM135.358 16.7757L135.158 15.3893L134.677 14.2134L134.136 13.6534L133.397 13.4622L132.686 13.3831L131.653 13.5974L130.703 13.9855L129.875 14.5474C129.639 14.6884 128.712 15.8566 128.712 15.8566L128.465 16.6637L128.523 17.4631L128.797 18.2142L129.587 18.9151L131.595 19.9308L133.174 19.9984L133.912 19.7203L134.849 18.3552L135.356 16.7738L135.358 16.7757ZM126.049 12.2264C126.022 12.2071 125.997 12.1917 125.972 12.1801C125.136 11.7379 124.263 11.3614 123.367 11.0544C122.412 10.7261 121.429 10.4751 120.488 10.1102C120.214 10.8594 119.901 11.6395 119.735 12.4195C119.529 13.3213 119.272 14.1941 119.22 15.1093C119.164 16.0863 118.994 16.6444 119.119 17.6176C119.15 17.8609 119.164 18.2297 119.21 18.4691C119.235 18.5888 119.26 18.7105 119.287 18.8302C119.295 18.8649 119.301 18.9769 119.328 18.9982C119.359 19.0252 119.455 18.9924 119.496 18.9847C119.996 18.9074 120.498 18.8282 120.998 18.751C122 18.5946 123.002 18.4382 124.006 18.2837C124.032 18.2799 124.057 18.276 124.082 18.2702C124.312 18.2355 124.539 18.2007 124.767 18.164L124.931 18.1389C124.968 18.135 125.055 18.1389 125.084 18.1157C125.134 18.0791 125.061 17.886 125.047 17.8242C124.995 17.3801 125.057 17.1426 125.078 16.6907C125.119 15.7658 125.072 15.1209 125.372 14.2636C125.538 13.5897 125.727 12.8598 126.049 12.2245V12.2264ZM125.961 21.7517C125.939 21.7208 125.918 21.6879 125.901 21.6532C125.679 21.2786 125.493 20.8866 125.325 20.4869C125.159 20.093 125.041 19.6701 124.864 19.2839C124.603 19.4191 124.261 19.4732 123.978 19.5581C123.672 19.6489 123.367 19.7396 123.064 19.8323C122.975 19.8574 122.887 19.8845 122.798 19.9115C122.657 19.954 122.518 19.9965 122.375 20.037C122.211 20.0853 122.045 20.1335 121.879 20.1818C121.583 20.2668 121.288 20.3537 120.992 20.4386L120.357 20.624C120.189 20.6703 120.023 20.7205 119.855 20.7688C119.662 20.8248 119.45 20.8654 119.264 20.9426C119.274 20.9793 119.289 21.016 119.303 21.0527C119.66 22.0683 120.276 22.9816 120.745 23.9568C120.942 24.314 121.149 24.6577 121.367 24.9898L125.961 21.7517Z" fill="#29294F"/>
<path d="M144.741 12.7555C145.117 13.6882 145.075 13.9778 145.075 14.7289C145.075 15.482 144.858 17.8396 144.675 18.5386C144.492 19.2376 144.262 19.6064 143.686 19.9482C143.109 20.2899 143.683 18.5965 143.905 17.8435C144.154 16.9997 144.192 16.7139 144.335 15.9821C144.48 15.2522 144.291 14.0531 143.798 12.6667C143.306 11.2803 142.794 10.4346 142.086 9.67957C141.379 8.92458 140.452 7.73321 140.452 7.73321C140.452 7.73321 140.238 7.74479 140.431 7.50922C140.622 7.27558 141.564 7.75831 141.833 8.66391C142.101 9.56951 142.709 9.58109 143.385 10.2685C144.061 10.9559 144.36 11.821 144.739 12.7517L144.741 12.7555Z" fill="#FFF5F7"/>
<path d="M143.306 20.931C143.576 21.0951 143.381 21.1666 143.271 21.3577C143.161 21.5489 143.032 21.8366 142.742 22.1301C142.453 22.4217 142.099 22.5935 141.833 22.3657C141.568 22.1359 142.19 21.8965 142.271 21.7517C142.352 21.6049 142.522 21.3269 142.642 21.1009C142.779 20.8403 143.032 20.7669 143.304 20.931H143.306Z" fill="#FFF5F7"/>
<path d="M142.541 15.4627C142.572 16.4011 142.358 16.6946 142.2 17.1368C142.041 17.5789 141.576 18.3185 141.414 18.5154C141.25 18.7124 140.601 18.8978 140.722 18.583C140.842 18.2683 141.082 17.606 141.477 16.9977C141.873 16.3895 141.533 15.6828 141.526 15.3063C141.52 14.9297 141.489 14.2906 141.124 13.356C140.759 12.4215 139.869 11.3556 139.869 11.3556C139.705 11.1509 139.819 10.8439 139.998 10.8265C140.178 10.8092 140.89 11.2552 141.203 11.9658C141.514 12.6764 141.713 12.5393 141.949 13.0934C142.184 13.6457 142.512 14.5242 142.543 15.4627H142.541Z" fill="#FFF5F7"/>
<path d="M140.958 25.1114C140.972 25.3489 140.684 25.5807 140.568 25.7969C140.516 25.9108 140.618 25.9398 140.603 26.0557C140.562 26.2545 140.408 26.3974 140.273 26.5538C139.761 27.0597 139.322 27.5135 138.736 27.9248C138.216 28.3457 137.677 28.6972 137.104 29.0273C136.476 29.2784 135.858 29.4444 135.21 29.5834C134.354 29.7186 133.59 29.7572 132.75 29.7881H132.727C132.228 29.7881 131.701 29.8074 131.228 29.7302C130.778 29.6974 130.305 29.4521 129.846 29.3788C128.226 29.1934 126.76 28.255 125.354 27.5096C125.136 27.4092 125.038 27.3069 124.864 27.1389C124.493 26.7836 124.157 26.4959 123.873 26.1001C123.597 25.7834 123.348 25.4551 123.116 25.1172L127.891 21.9505C128.098 22.1707 128.199 22.2923 128.448 22.4391C128.861 22.6843 129.135 22.9295 129.604 23.1014C130.23 23.3196 130.857 23.7038 131.5 23.7926C132.074 23.8216 132.615 23.9162 133.198 23.9008C133.586 23.8428 133.997 23.7154 134.403 23.6748C134.957 23.5339 135.391 23.1844 135.839 22.8465C136.252 22.5511 136.671 22.1475 137.031 21.8096C137.758 21.1183 137.809 20.9658 138.486 21.825C138.606 21.9274 138.755 21.9486 138.799 22.0374C138.844 22.1127 138.849 22.2112 138.898 22.2865C138.95 22.3715 139.06 22.4062 139.133 22.47C139.232 22.5395 139.126 22.6997 139.17 22.777C139.212 22.8368 139.34 22.8349 139.367 22.9295C139.388 23.1323 139.278 23.4586 139.655 23.3273C139.89 23.2539 139.946 23.3157 139.94 23.5455C139.937 23.6575 140.108 23.588 140.122 23.7038C140.137 23.7772 140.114 23.8641 140.153 23.9297C140.249 24.0552 140.574 23.8081 140.535 24.0649C140.5 24.2039 140.541 24.312 140.636 24.4067C140.778 24.5553 140.952 24.8508 140.97 25.1056L140.958 25.1114Z" fill="#FFF5F7"/>
<path d="M138.975 5.77912C139.064 6.00697 138.961 6.36226 138.846 6.59976C138.749 6.75423 138.66 6.88554 138.654 7.03422C138.662 7.24662 138.678 7.47447 138.394 7.49184C138.295 7.51115 138.23 7.49184 138.206 7.54977C138.199 7.63859 138.365 7.82782 138.33 7.93788C138.311 8.08463 138.218 8.17346 138.149 8.30476C137.925 8.75466 137.797 9.18333 137.602 9.63902C137.463 9.90163 137.397 10.1855 137.218 10.4365C136.961 10.8401 136.447 10.9733 136.036 10.7165C135.6 10.4558 135.125 10.3033 134.665 10.1758C133.935 9.97114 133.306 9.74329 132.528 9.7317C132.111 9.70274 131.744 9.73364 131.313 9.80701C130.861 9.8437 130.442 9.91707 130.039 10.1275C128.911 10.5523 127.98 11.3595 127.281 12.3211C127.142 12.1782 126.99 12.0469 126.839 11.9194L126.152 11.3402C125.939 11.1606 125.723 10.9771 125.489 10.8227C125.136 10.5852 124.744 10.4095 124.381 10.1893C123.703 9.77805 123.128 9.21808 122.491 8.74694C122.502 8.72956 122.514 8.71411 122.525 8.69673C122.67 8.4882 122.78 8.29317 122.964 8.1136C123.615 7.38757 124.362 6.77161 125.159 6.18655C125.854 5.65747 126.64 5.18247 127.432 4.83877C127.909 4.68043 128.332 4.45258 128.822 4.34638C129.596 4.14364 130.429 3.95441 131.199 3.83662C131.649 3.81152 132.207 3.798 132.616 3.81924C133.908 3.89262 135.21 4.16874 136.467 4.55299C136.928 4.70939 137.347 4.97586 137.801 5.14771C138.203 5.34853 138.683 5.43349 138.975 5.78685V5.77912Z" fill="#FFF5F7"/>
<path d="M135.158 15.3893L135.358 16.7757L134.851 18.3571L133.914 19.7223L133.176 20.0003L131.597 19.9327L129.589 18.9171L128.799 18.2161L128.525 17.465L128.467 16.6656L128.714 15.8585C128.714 15.8585 129.641 14.6884 129.876 14.5493L130.705 13.9874L131.655 13.5993L132.688 13.385L133.398 13.4642L134.138 13.6553L134.679 14.2153L135.159 15.3912L135.158 15.3893ZM133.908 17.2951C133.974 17.1484 134.196 16.7738 134.188 16.5594C134.18 16.347 134.041 15.9377 133.841 15.5438C133.64 15.1479 133.661 15.0359 133.507 14.8216C133.352 14.6092 132.163 14.3949 131.601 14.6806C131.039 14.9664 130.859 15.1634 130.724 15.3912C130.591 15.6191 130.183 15.872 130.066 16.2466C129.948 16.6212 130.066 17.102 130.066 17.102V17.129L130.234 17.5809L130.707 18.0018L131.912 18.6081L132.86 18.6506L133.124 18.4208C133.124 18.4208 133.841 17.4438 133.908 17.297V17.2951Z" fill="#FFF5F7"/>
<path d="M134.188 16.5594C134.196 16.7738 133.974 17.1484 133.908 17.2951C133.841 17.4419 133.124 18.4189 133.124 18.4189L132.86 18.6487L131.912 18.6062L130.707 17.9999L130.234 17.5789L130.068 17.1271V17.1001C130.068 17.1001 129.948 16.6193 130.068 16.2447C130.185 15.8701 130.593 15.6171 130.726 15.3893C130.861 15.1614 131.041 14.9664 131.603 14.6787C132.165 14.3929 133.354 14.6073 133.509 14.8197C133.661 15.034 133.642 15.1479 133.843 15.5418C134.043 15.9357 134.182 16.3432 134.19 16.5575L134.188 16.5594Z" fill="#29294F"/>
<path d="M125.972 12.1782C125.997 12.1917 126.022 12.2071 126.049 12.2245C125.725 12.8598 125.538 13.5897 125.372 14.2636C125.072 15.1228 125.119 15.7658 125.078 16.6907C125.059 17.1426 124.997 17.3801 125.047 17.8242C125.061 17.886 125.132 18.0771 125.084 18.1157C125.055 18.137 124.968 18.135 124.931 18.1389L124.767 18.164C124.537 18.2007 124.31 18.2355 124.082 18.2702C124.057 18.2741 124.032 18.2779 124.006 18.2837C123.002 18.4382 122 18.5946 120.998 18.751C120.498 18.8282 119.996 18.9074 119.496 18.9847C119.453 18.9924 119.357 19.0252 119.328 18.9982C119.303 18.975 119.295 18.863 119.287 18.8302C119.26 18.7105 119.235 18.5888 119.21 18.4691C119.164 18.2277 119.152 17.8609 119.119 17.6176C118.994 16.6444 119.164 16.0863 119.22 15.1093C119.272 14.1921 119.529 13.3213 119.735 12.4195C119.901 11.6395 120.214 10.8594 120.488 10.1102C121.429 10.477 122.412 10.7281 123.367 11.0544C124.263 11.3614 125.136 11.7379 125.972 12.1801L125.972 12.1782Z" fill="#FFF5F7"/>
<path d="M125.901 21.6512C125.92 21.686 125.939 21.7188 125.961 21.7497L121.367 24.9879C121.149 24.6557 120.944 24.312 120.745 23.9548C120.276 22.9778 119.658 22.0645 119.303 21.0507C119.289 21.014 119.274 20.9774 119.264 20.9407C119.45 20.8634 119.662 20.821 119.855 20.7669C120.023 20.7186 120.189 20.6703 120.357 20.6221L120.992 20.4367C121.288 20.3517 121.581 20.2668 121.879 20.1799C122.043 20.1335 122.209 20.0833 122.375 20.0351C122.516 19.9926 122.657 19.952 122.798 19.9096C122.887 19.8845 122.975 19.8574 123.064 19.8304C123.367 19.7396 123.672 19.6489 123.978 19.5562C124.261 19.4712 124.603 19.4191 124.864 19.282C125.043 19.6682 125.159 20.0911 125.325 20.485C125.493 20.8847 125.679 21.2766 125.901 21.6512Z" fill="#FFF5F7"/>
</svg>
