<svg width="441" height="291" viewBox="0 0 441 291" fill="none" xmlns="http://www.w3.org/2000/svg">
<path d="M150.751 124.911C149.282 125.031 147.744 124.55 146.292 124.464C145.579 124.455 144.762 124.421 144.015 124.266C140.328 123.648 136.642 122.127 133.213 120.597C131.435 119.643 128.083 118.415 128.994 115.811C129.458 114.96 129.759 114.101 130.043 113.182C130.601 112.159 131.1 111.111 131.426 109.994C132.655 107.768 133.445 105.104 134.33 102.776C134.434 102.535 134.554 102.303 134.726 102.131C135.138 101.684 135.869 101.787 136.324 101.512C136.762 101.169 137.2 100.98 137.768 101.177C140.663 102.105 143.319 103.781 146.378 104.322C148.165 104.34 150.296 104.331 151.937 103.369C153.51 102.363 155.108 101.427 156.002 99.8799C157.024 97.766 157.325 95.4545 157.514 93.1516C157.6 91.7252 157.059 90.0152 156.105 88.8294C155.048 87.3343 154.206 85.6501 152.427 84.9197C150.571 83.8713 148.99 82.2817 147.108 81.2677C144.882 79.9788 142.425 78.8961 140.388 77.4181C137.493 75.4245 134.734 73.1732 132.053 71.025C128.986 67.9316 126.279 64.3999 125.274 60.0175C124.724 58.213 124.483 56.2882 124.156 54.4665C123.864 52.6362 124.388 50.6943 124.938 48.8984C125.935 45.3409 127.757 42.067 129.879 39.1884C131.443 37.1949 133.213 35.0123 135.284 33.4742C136.264 32.8727 137.441 32.1852 138.403 31.5322C139.71 30.6729 141.385 29.5386 143.018 29.023C143.903 28.7223 145.432 28.2153 146.266 27.9403C147.985 27.3217 150.296 27.2185 152.083 26.849C153.08 26.617 154.137 26.6256 155.357 26.471C156.371 26.4108 157.359 26.2132 158.219 26.5053C159.001 26.7889 158.855 27.6138 159.422 28.2497C159.817 28.8082 159.705 29.5214 159.877 30.1659C160.221 31.5408 160.444 32.6149 160.977 33.9554C161.14 34.7717 161.08 35.4763 161.535 36.2239C161.656 36.4559 161.767 36.7051 161.819 36.9629C161.991 37.805 161.535 38.6299 162.352 39.154C162.584 39.3259 162.824 39.4978 162.885 39.6782C163.005 40.1164 162.721 40.4859 162.713 41.0015C162.73 41.7319 162.859 42.4279 162.842 43.1927C162.747 44.0434 163.417 46.1229 162.292 46.4494C159.946 46.2174 157.299 45.8221 155.031 46.372C153.69 46.7244 151.843 46.8361 150.648 47.4805C148.904 48.3226 147.512 49.5514 146.481 51.2872C145.845 52.2238 145.828 53.7877 146.111 54.9735C147.065 56.9499 149.205 58.1185 150.949 59.2184C154.137 61.3322 157.669 63.2656 160.745 65.5256C162.274 66.5911 164.07 67.6308 165.428 68.7822C166.253 69.4525 167.679 70.6211 168.367 71.1797C171.108 73.5341 173.823 75.7854 175.439 78.939C176.143 80.185 177.02 81.4138 177.475 82.6425C178.601 85.3321 179.735 87.91 180.01 90.8144C180.362 92.679 179.924 94.621 179.778 96.563C179.495 99.2955 178.403 102.123 177.561 104.7C176.943 106.505 175.697 108.301 174.683 109.701C173.445 111.772 171.984 113.826 170.352 115.613C165.248 121.01 158.236 124.361 150.855 124.928H150.76L150.751 124.911Z" fill="#FFF5F7"/>
<path d="M199.619 111.781C198.914 111.738 198.536 112.245 197.883 111.961C195.305 110.157 195.546 106.505 194.867 103.772C194.438 101.951 194.214 100.189 193.587 98.4191C193.329 97.7832 192.96 97.2676 192.865 96.6232C192.719 95.7639 193.003 94.7757 192.822 93.7961C192.685 93.0227 192.547 92.1806 192.135 91.5104C191.825 91.0206 191.49 91.2182 191.293 90.6511C190.7 88.1334 190.579 85.0056 189.84 82.3504C188.99 76.4815 187.924 70.5266 186.884 64.7006C186.36 59.7168 186.163 54.8704 185.372 49.9639C184.307 43.0896 183.353 36.602 182.408 29.7277C182.107 27.5193 181.729 25.5945 181.299 23.326C181.016 21.3496 183.172 21.2465 184.521 20.8426C185.87 20.2497 187.151 20.4302 188.534 19.8545C190.536 19.4592 192.35 18.7975 194.343 18.239C196.465 17.543 198.528 17.9554 200.71 17.4742C202.798 17.1305 204.706 16.7524 206.184 16.486C207.628 16.2197 209.037 15.7728 210.523 15.7299C215.103 15.369 220.251 15.4377 224.47 17.5086C228.07 19.2959 231.533 21.5558 234.111 24.6149C235.005 25.7148 236.13 27.7685 236.989 29.109C237.995 30.6557 238.502 32.7352 239.249 34.4795C240.641 38.4151 241.484 42.3764 241.544 46.6126C241.527 49.3967 240.693 52.1722 239.722 54.8274C238.768 57.517 237.471 60.4386 235.778 62.8274C234.171 65.0787 232.1 67.1324 230.098 69.0143C229.436 69.7017 228.835 70.0282 227.907 70.5094C226.24 71.4546 224.238 72.3655 222.51 73.0787C219.683 74.0411 216.968 74.8058 214.012 75.3988C213.101 75.6479 212.062 75.8714 211.168 76.1034C210.712 76.258 210.343 76.5416 210.231 77.04C210.025 78.3547 210.326 79.7639 210.627 81.0872C210.738 82.2988 210.79 83.5534 211.099 84.722C211.202 86.896 211.58 89.0614 212.053 91.1753C212.474 94.8788 212.972 98.3417 213.17 102.037C213.204 102.879 213.136 103.824 212.586 104.443C212.027 105.053 211.305 105.362 210.798 106.067C210.309 106.823 209.81 107.699 209.123 108.103C208.229 108.731 207.602 107.536 206.983 108.834C206.88 109.005 206.777 109.16 206.648 109.298C206.227 109.805 205.565 109.126 205.015 109.409C204.457 109.71 204.216 110.501 203.838 110.982C203.469 111.523 202.893 111.179 202.395 111.583C202.171 111.721 201.939 111.884 201.681 111.97C201.071 112.228 200.264 111.884 199.688 111.798H199.602L199.619 111.781ZM208.813 57.1045C212.259 55.6953 216.16 54.7931 218.91 52.009C220.654 50.7029 221.342 48.6921 221.625 46.5869C221.823 45.762 221.686 45.1261 221.505 44.1465C221.247 42.9091 221.282 41.9467 220.5 40.8382C219.821 39.8672 219.176 38.3893 218.369 37.6503C217.965 37.3753 217.329 37.1605 216.831 36.9457C214.854 35.9403 213.402 36.1036 211.52 36.3356C209.776 36.4988 208.066 36.8168 206.442 37.3152C205.763 37.5815 204.672 37.6073 204.543 38.4838C204.474 39.8071 204.646 41.3538 204.852 42.8146C205.462 46.0713 205.557 49.4225 206.158 52.705C206.674 54.4408 205.634 58.5739 208.728 57.1475L208.813 57.1131V57.1045Z" fill="#FFF5F7"/>
<path d="M258.42 93.4008C258.257 93.3665 258.102 93.3321 257.947 93.2633C257.681 93.1516 257.449 92.9626 257.2 92.8251C256.916 92.6618 256.607 92.5673 256.315 92.447C255.413 92.0689 254.88 90.9261 254.562 90.0668C254.373 89.5512 254.227 89.0185 254.072 88.4943C253.995 88.2365 253.917 87.9873 253.832 87.7381C253.754 87.5233 253.617 87.2913 253.565 87.0679C253.075 84.7048 254.639 82.3418 253.832 79.9186C253.539 74.5051 253.574 69.0143 253.213 63.6179C252.895 58.256 253.084 53.1432 252.396 47.8156C251.451 41.182 252.706 34.9349 252.465 28.4559C252.036 21.2809 251.572 13.8223 251.537 6.6644C251.494 0.572053 250.841 0.632204 257.355 0.503311C261.771 0.589239 266.429 -0.364569 270.716 0.245524C271.576 0.975918 271.309 2.49686 271.49 3.53659C271.679 5.95119 271.842 8.77824 271.919 11.3131C271.954 13.8394 272.418 16.34 272.237 18.8663C272.186 19.949 272.607 20.3185 272.289 21.0918C271.808 22.5698 272.779 23.7986 272.633 25.4484C272.658 26.3678 272.727 27.3388 272.616 28.2067C272.487 29.1863 271.782 30.1573 271.765 31.197C271.765 32.0305 272.298 32.7266 272.366 33.457C272.435 34.2045 271.928 34.9951 271.98 35.8286C272.341 37.3066 272.366 38.6986 272.298 40.2281C272.487 43.2185 272.813 45.9424 273.423 48.8726C274.609 58.6083 274.403 68.5932 274.205 78.3547C274.119 81.6458 274.326 84.9197 273.105 88.0389C272.83 88.5716 272.323 88.8896 271.791 89.1388C270.57 89.6286 269.849 90.5566 268.663 90.6941C267.718 90.9604 266.368 90.4792 265.793 91.4674C265.286 92.5931 265.286 90.4019 264.212 91.1839C263.92 91.3815 263.67 91.7338 263.387 91.9572C262.811 92.4728 262.124 92.0346 261.728 92.6275C261.479 93.0141 261.445 93.5555 261.333 93.9851C261.29 94.1484 261.239 94.4492 261.032 94.3546C260.869 94.2773 260.749 93.9508 260.654 93.8047C260.525 93.6156 260.345 93.375 260.087 93.4266C260.001 93.4438 259.932 93.5039 259.838 93.5211C259.7 93.5469 259.537 93.5383 259.4 93.5297C259.133 93.5297 258.867 93.4953 258.609 93.4524C258.549 93.4438 258.497 93.4352 258.437 93.4266L258.42 93.4008Z" fill="#FFF5F7"/>
<path d="M340.379 104.7C340.379 104.7 340.31 104.683 340.276 104.666C340.061 104.597 339.846 104.537 339.631 104.468C339.502 104.425 339.365 104.391 339.236 104.365C339.099 104.34 338.961 104.322 338.815 104.305C338.291 104.245 337.775 104.168 337.251 104.065C336.813 103.979 336.349 103.918 335.962 103.678C335.429 103.343 335.026 102.853 334.708 102.32C334.192 101.452 333.866 100.473 333.556 99.5189C333.393 99.0292 333.238 98.5394 333.058 98.0496C332.895 97.6113 332.637 97.1903 332.482 96.752C331.313 93.3063 330.119 89.9809 328.847 86.5437C326.312 80.142 323.984 73.6888 321.423 67.2613C320.074 63.9101 318.364 61.0401 317.127 57.6631C316.353 55.4375 315.546 53.2635 314.617 51.0809C314.068 50.2217 311.945 43.7083 311.601 47.5407C309.754 62.7329 307.563 78.1313 304.486 93.186C304.358 94.6124 304.048 96.1248 304.289 97.5426C304.426 98.5222 303.739 99.2869 302.734 99.3643C300.053 99.708 297.294 99.3901 294.759 100.215C293.84 100.507 292.869 100.009 291.992 100.413C290.514 100.731 288.847 100.181 287.309 99.9314C285.78 99.5018 286.278 97.7832 286.459 96.606C287.137 91.9658 287.198 87.6264 288.074 83.0206C288.787 76.9197 289.475 70.793 290.171 64.6835C291.331 58.8747 291.468 52.8425 292.164 46.9993C293.505 38.1315 294.544 29.023 296.693 20.3185C297.165 17.8695 297.621 15.5236 298.128 13.1005C298.454 11.9662 298.188 10.2562 299.314 9.61175C300.86 9.11337 302.553 9.87813 304.169 9.88672C306.162 10.3078 308.104 10.3078 310.115 10.4453C313.268 11.3217 318.45 9.63753 320.108 13.1434C323.812 19.7599 326.776 26.9178 329.801 33.7577C332.473 39.4806 335.017 45.5987 337.148 51.5965C338.48 54.097 339.167 56.9327 340.877 59.3387C341.049 59.4074 341.161 59.2012 341.264 58.8231C341.556 57.4654 341.642 56.1164 341.96 54.7587C342.768 45.2378 344.495 35.8028 345.913 26.3077C346.703 23.979 346.059 15.094 349.247 15.369C352.443 15.5752 355.614 16.3142 358.811 16.2197C361.268 16.1767 363.949 16.3829 366.347 16.7868C367.764 17.079 367.318 18.5054 367.146 19.5967C365.367 33.8007 362.102 47.6266 360.237 61.8306C359.257 67.8628 358.364 73.8091 357.977 79.9959C357.393 84.7392 356.516 89.5856 355.82 94.3632C355.502 96.6833 354.995 98.6683 354.557 100.877C354.162 102.329 354.583 105.482 352.572 105.955C350.192 106.187 348.164 105.336 345.801 105.912C345.32 106.015 344.864 105.869 344.452 105.637C343.816 105.293 343.094 105.56 342.441 105.345C341.762 105.122 341.075 104.915 340.387 104.709L340.379 104.7Z" fill="#FFF5F7"/>
<path d="M32.1269 228.034C32.1183 227.982 32.1097 227.922 32.1011 227.871C32.0581 227.553 32.0839 227.183 32.1011 226.848C32.3846 221.512 32.8057 215.506 33.2439 210.401C33.5275 207.944 33.6478 205.211 34.0688 202.822C34.3438 201.86 34.2149 200.451 34.9711 199.755C37.0076 198.999 39.0183 199.291 41.304 199.506C45.0162 199.789 48.3416 200.477 51.8303 201.955C56.5048 202.977 60.9559 206.535 61.3684 211.579C61.5746 213.916 60.8442 216.27 60.4232 218.461C60.1482 219.905 59.1428 221.366 58.5156 222.689C57.9141 223.961 57.0376 224.932 56.2213 226.049C56.6595 226.143 57.2524 226.023 57.6992 225.98C58.232 225.937 58.7647 225.869 59.2975 225.791C60.3372 225.637 61.3598 225.422 62.3738 225.138C63.1901 224.915 63.9978 224.648 64.8399 224.511C65.5187 224.399 66.2148 224.373 66.9022 224.322C68.0622 224.236 69.2051 224.055 70.3479 223.884C71.697 223.677 73.0461 223.471 74.3952 223.273C79.2931 222.535 84.191 221.787 89.0288 220.756C89.4499 220.67 89.5014 220.678 89.5444 220.24C89.5788 219.862 89.6046 219.484 89.6217 219.106C89.4757 216.932 89.4757 214.277 89.2523 212.051C88.5648 208.236 87.4993 204.567 86.2877 200.88C85.5917 198.191 83.6411 195.862 82.988 193.13C82.7904 192.451 82.5326 191.643 82.1803 190.99C81.2695 188.988 78.8033 187.089 79.5939 184.958C80.1438 183.918 80.9859 183.213 81.4241 182.045C82.0085 180.679 82.61 179.295 83.1599 178.144C83.8645 176.571 84.8699 174.956 85.2136 173.314C85.8323 171.072 86.2877 168.992 86.3135 166.526C86.5025 163.871 86.133 160.82 86.2705 158.131C86.0299 156.077 85.6175 153.568 85.0761 151.523C84.3887 149.512 84.2254 147.158 82.8506 145.328C81.3984 143.033 79.9634 140.765 78.2018 138.642C76.3372 136.563 73.871 134.629 71.7829 132.885C70.958 132.198 70.7346 132.095 69.6004 131.605C68.2771 131.029 65.9742 130.024 64.8657 129.542C63.9978 129.164 63.7486 129.087 62.7518 128.881C60.1568 128.357 57.304 127.652 54.6402 127.343C51.4694 126.965 48.4017 126.586 45.1021 126.784C43.7702 126.801 42.361 127.274 40.9861 127.136C35.2203 126.303 29.4717 125.865 23.7144 125.504C21.9443 125.349 20.3202 125.031 18.5329 124.988C17.6135 124.937 16.3503 124.73 15.6114 125.315C14.7607 126.269 14.9669 128.193 14.6919 129.491C14.4255 131.467 13.8842 133.839 13.8326 135.695C13.7811 136.795 13.6866 138.934 13.6264 140.249C13.2741 145.542 12.4062 150.457 11.5727 155.579C10.0775 163.184 9.48464 171.037 8.06681 178.668C7.1216 184.296 5.95297 189.744 5.05931 195.312C4.23439 200.511 3.51259 206.767 3.17747 212.068C2.73064 219.115 2.24085 226.169 1.63935 233.207C1.61357 233.533 1.37297 234.487 1.63075 234.676C1.88854 234.865 3.04858 234.599 3.37511 234.564C4.57811 234.444 5.76392 234.229 6.93256 233.92C7.88636 233.671 8.83158 233.353 9.81117 233.241C10.5673 233.155 11.3321 233.181 12.0969 233.147C13.2225 233.095 14.3396 232.915 15.4481 232.734C19.1688 232.124 22.8981 231.505 26.6188 230.895C28.4835 230.586 30.3395 230.285 32.2042 229.976L32.1526 229.177L32.1097 228.017L32.1269 228.034ZM39.1386 168.382C39.2761 167.574 39.3792 166.732 39.4995 165.899C39.8604 163.235 40.187 161.396 40.5908 158.801C40.883 157.633 40.8228 156.129 41.9227 155.45C43.3234 155.029 46.0301 155.63 47.4909 155.716C49.3298 156.069 51.9506 155.957 53.5489 157.254C56.2213 160.004 58.6616 164.369 57.1407 168.253C56.1697 171.287 54.5972 172.352 51.6155 172.928C50.5414 173.16 49.5446 173.667 48.4447 173.718C47.0183 173.753 45.2052 173.779 43.985 173.77H43.8819C42.7992 173.727 41.3556 173.684 40.3502 173.572C39.6714 173.512 39.1129 173.366 38.7777 172.885C38.0817 171.647 39.0441 169.628 39.1386 168.374V168.382Z" fill="#FFF5F7"/>
<path d="M131.125 207.127C131.28 205.143 131.306 201.087 133.084 205.469C133.531 206.681 134.013 207.875 134.502 209.069C134.743 209.671 134.992 210.281 135.224 210.891C135.405 211.355 135.559 212.257 135.98 212.455C136.401 212.653 137.355 212.472 137.828 212.421C138.481 212.343 139.125 212.206 139.761 212.06C141.016 211.759 142.253 211.381 143.533 211.183C144.101 211.097 144.668 211.037 145.243 210.977C148.457 210.642 151.662 210.161 154.842 209.602C156.457 209.319 158.064 209.018 159.671 208.709C161.157 208.425 162.713 207.935 164.216 207.841C164.148 207.282 163.778 206.638 163.563 206.105C163.323 205.503 163.099 204.876 162.807 204.292C162.06 202.814 161.381 201.379 160.908 199.866C159.628 196.343 157.987 192.958 156.612 189.452C154.575 184.726 153.046 180.618 151.224 176.021C149.213 171.304 147.091 166.664 144.84 161.989C143.301 159.033 141.995 156.026 140.045 153.199C138.953 152.056 137.673 153.697 136.376 153.809C133.359 154.376 130.223 154.247 127.216 154.96C124.878 154.986 122.644 155.742 120.264 155.725C118.872 155.94 117.514 155.768 116.079 155.725C115.246 155.794 114.481 156.137 113.682 156.18C112.487 156.18 110.984 155.759 110.09 156.653C108.939 158.354 108.947 160.683 108.509 162.737C107.899 166.122 106.859 169.448 106.421 172.722C105.879 178.135 104.96 183.583 104.436 188.928C103.972 193.559 103.113 198.122 102.777 202.736C102.511 206.414 102.374 210.109 102.107 213.796C102.038 214.732 101.97 215.677 101.892 216.614C101.875 216.863 101.678 217.602 101.824 217.808C102.004 218.075 102.588 217.98 102.881 217.98C104.702 217.963 106.472 217.482 108.242 217.112C112.711 216.167 117.299 215.884 121.768 214.904C124.234 214.363 126.657 213.615 129.175 213.366C129.501 213.331 129.819 213.323 130.146 213.297C130.498 213.263 130.464 213.332 130.61 213.048C130.842 212.584 130.73 211.622 130.782 211.097C130.902 209.783 131.022 208.459 131.142 207.145L131.125 207.127Z" fill="#FFF5F7"/>
<path d="M402.368 161.448C403.622 158.002 405.169 154.659 406.931 151.36C407.472 150.114 407.756 148.739 408.391 147.476C409.337 145.603 410.677 143.386 411.597 141.306C412.705 138.952 414.733 134.638 415.635 132.705C416.168 131.459 417.079 129.843 416.28 128.546C415.111 127.283 413.16 127.36 411.605 126.578C408.606 125.246 405.229 124.954 402.248 123.484C400.572 123.003 398.905 122.213 397.315 121.551C396.327 121.207 395.201 121.087 394.17 120.657C391.859 119.523 390.355 120.279 389.143 122.333C387.751 124.318 386.789 126.312 385.758 128.254C384.056 131.545 381.582 136.073 379.829 139.613C378.531 142.268 377.01 144.967 375.824 147.613C374.123 151.592 372.576 156.017 370.626 159.849C369.852 161.267 369.457 158.904 369.268 158.311C368.546 155.562 367.971 152.752 367.326 149.968C366.407 146.445 366.072 142.715 364.954 139.115C364.611 138.118 364.525 136.743 363.691 135.978C362.6 135.093 361.01 136.056 359.833 136.185C356.155 137.018 352.624 138.35 348.989 139.484C346.291 139.983 344.177 141.255 341.436 141.899C339.795 142.277 338.11 142.99 337.191 144.46C336.478 145.895 337.019 147.235 337.208 148.954C337.964 153.817 338.944 159.068 340.095 163.974C341.221 167.892 342.158 172.713 343.232 176.777C343.49 177.74 343.661 178.771 343.996 179.699C348.757 178.994 353.526 178.066 358.304 177.353C365.539 176.27 372.757 175.076 379.966 173.873C384.778 173.074 389.599 172.275 394.411 171.467C395.425 171.295 397.023 171.338 397.934 170.883C398.69 170.505 399.103 168.889 399.463 168.107C400.469 165.907 401.448 163.699 402.325 161.448H402.368Z" fill="#FFF5F7"/>
<path d="M0.84021 257.662C0.969103 259.278 1.32141 261.013 2.83376 261.907C4.14846 262.56 5.44599 263.29 6.82085 263.815C8.39334 264.244 9.81117 264.356 11.5641 264.725C13.5319 265.138 15.4223 265.714 17.3815 265.774L17.519 265.791C20.3804 266.427 23.8691 265.473 26.7649 265.885C36.1054 266.556 45.5489 266.96 54.7089 265.336C55.6283 265.25 56.7196 265 57.6219 265.241C58.1117 265.361 58.4984 265.679 59.0139 265.696C60.7067 265.533 62.2449 264.536 63.9119 264.107C65.6219 263.574 67.4607 262.663 69.2652 262.423C70.0214 262.208 70.6315 261.727 71.19 261.194C72.0493 260.438 72.8656 259.776 73.596 258.917C74.3178 258.023 75.3748 257.155 76.4832 256.502C77.2824 256.004 78.0386 255.789 78.6572 255.033C81.5444 251.166 84.045 247.291 86.0729 242.882C87.6454 238.139 88.2469 233.611 88.4187 228.627C88.4359 227.828 88.4789 227.003 88.5133 226.186L55.5768 233.49C54.9581 234.221 54.2535 234.874 53.4715 235.424C51.8045 236.506 49.2095 236.567 47.3362 237.203C46.0731 237.598 44.5693 237.546 43.2288 237.735C41.9571 237.873 40.8486 238.818 39.6542 239.145L39.5511 239.162C37.9958 239.265 35.6241 239.076 34.1376 239.016C33.9228 238.998 33.7337 238.93 33.5533 238.801C33.433 238.715 33.3127 238.5 33.1838 238.466C33.0377 238.431 32.6252 238.629 32.4706 238.672C32.2128 238.741 31.9464 238.809 31.6886 238.878C30.6145 239.153 29.5404 239.411 28.4577 239.651C26.3438 240.116 24.2128 240.502 22.0732 240.812C21.2483 240.932 20.4148 241.035 19.5984 241.215C18.8509 241.379 18.1205 241.593 17.3901 241.808C14.0475 242.779 10.6705 243.613 7.25908 244.292C6.05608 244.532 4.85308 244.756 3.65008 244.962C3.09154 245.056 2.41271 245.065 1.88854 245.254C1.47608 245.409 1.51905 245.77 1.51045 246.156C1.43312 248.537 1.34719 250.917 1.23548 253.297C1.23548 254.912 0.865989 256.038 0.848803 257.654L0.84021 257.662Z" fill="#FFF5F7"/>
<path d="M348.018 204.627C349.015 209.533 349.908 214.492 351.077 219.527C351.825 223.248 352.95 226.831 353.603 230.569C354.978 239.084 356.929 247.84 358.398 256.296C359.335 260.824 360.787 265.095 361.767 269.546C362.136 270.826 362.634 272.322 363.82 273.121C364.37 273.43 364.929 273.241 365.771 273.121C366.802 272.957 368.246 272.751 369.277 272.579C369.895 272.476 370.385 272.296 370.935 272.072C372.181 271.505 373.831 271.299 375.171 270.715C376.615 270.208 378.076 269.924 379.545 269.709C380.078 269.666 380.697 269.898 381.212 269.761C381.857 269.563 381.917 268.455 382.725 268.102C382.888 268.025 383.068 267.965 383.257 267.931C384.546 267.853 385.414 267.51 386.428 266.573C386.944 266.135 387.605 265.825 388.087 265.344C388.86 264.571 388.834 263.376 388.911 262.328C389.221 260.034 388.422 257.473 388.035 255.119C387.459 252.154 386.523 248.072 385.792 244.678C385.363 242.659 385.062 240.347 384.581 238.277C384.031 235.458 383.154 232.58 382.982 229.856C382.948 228.094 385.053 230.371 386.041 231.007C386.677 231.497 387.158 231.909 387.794 232.442C399.317 242.367 412.533 252.257 424.22 261.821L424.331 261.898C425.199 262.517 426.222 262.362 427.081 261.77C429.71 260.085 431.403 257.559 432.795 254.887C433.972 253.142 435.657 251.785 436.946 250.118C437.556 249.172 437.049 248.03 437.813 247.153C438.656 246.311 439.695 245.727 440.091 244.506C440.915 242.599 440.34 240.399 440.108 238.423C439.996 237.993 439.712 237.632 439.377 237.323C438.389 236.438 436.181 234.556 435.004 233.525C432.752 231.548 430.209 229.529 427.94 227.518C424.486 223.368 419.889 220.146 415.541 216.794C413.298 215.033 410.746 212.979 408.606 211.046C406.707 209.344 405.264 207.617 403.313 205.993C400.984 203.871 398.338 201.74 396.112 199.42C394.445 197.383 390.682 195.372 391.326 192.511C391.747 191.437 392.194 190.38 392.658 189.323C393.638 187.115 394.703 184.949 395.794 182.801C396.344 181.718 396.903 180.644 397.461 179.57C397.616 179.269 398.303 178.35 398.14 178.032C397.968 177.697 397.032 177.852 396.74 177.86C392.048 177.989 387.571 179.656 382.914 180.034C381.169 180.172 379.416 180.137 377.672 180.223C371.708 180.533 365.934 182.371 360.014 183.093C356.258 183.557 352.469 183.566 348.705 183.935C347.769 184.03 344.168 184.056 343.911 184.992C343.73 185.671 344.349 187.192 344.486 187.897C344.658 188.782 344.821 189.658 344.985 190.543C345.818 194.788 347.167 200.502 348.018 204.601V204.627Z" fill="#FFF5F7"/>
<path d="M146.163 264.648C146.816 264.648 147.469 264.554 148.122 264.493C148.775 264.433 149.557 264.536 150.15 264.313C151.49 263.797 152.788 262.698 153.931 261.847C156.38 260.017 158.665 257.971 161.261 256.339C162.867 255.325 164.586 254.474 166.098 253.306C166.854 252.721 167.559 252.06 168.384 251.561C169.226 251.054 170.18 250.745 171.056 250.315C171.959 249.868 172.792 249.284 173.557 248.64C173.961 248.304 174.347 247.952 174.717 247.591C174.966 247.351 175.628 246.912 175.757 246.612C175.929 246.225 175.55 245.563 175.413 245.159C175.224 244.592 175.026 244.017 174.837 243.449C174.468 242.35 174.004 241.25 173.712 240.133C172.552 235.767 170.687 230.603 169.45 226.461C168.805 224.657 168.186 222.844 167.568 221.022C167.181 219.871 166.794 218.728 166.399 217.576C166.201 217.009 166.004 216.434 165.806 215.866C165.755 215.72 165.651 215.17 165.505 215.119C165.437 215.093 165.05 215.248 164.955 215.256C162.489 215.506 160.04 215.746 157.583 216.073C152.702 216.734 147.847 217.551 142.932 217.954C142.193 218.015 141.445 218.066 140.706 218.152C139.667 218.272 138.644 218.47 137.622 218.676C137.45 218.711 137.08 218.711 136.994 218.874C136.943 218.977 137.115 219.364 137.149 219.475C137.269 219.922 137.407 220.36 137.553 220.799C138.12 222.5 138.799 224.167 139.426 225.843C140.277 228.3 141.033 230.792 141.78 233.155C142.107 234.169 142.253 235.054 142.459 236.137C142.562 236.653 142.571 237.056 142.399 237.306L142.348 237.374C141.858 237.838 140.956 237.735 140.251 237.813C138.764 237.847 137.029 237.838 135.697 237.924C134.055 238.01 132.088 238.354 130.739 238.096C129.57 237.933 130.008 236.627 130.017 235.785C130.103 234.676 130.163 233.551 130.283 232.674C130.696 229.856 130.919 227.02 131.185 224.098C131.332 222.526 131.572 220.962 131.675 219.389C130.292 219.235 128.676 219.682 127.284 219.879C126.571 219.974 125.858 220.077 125.153 220.171C121.613 220.661 118.073 221.151 114.524 221.52C113.974 221.581 113.424 221.632 112.874 221.641C112.376 221.641 111.869 221.615 111.379 221.701C110.709 221.813 110.099 222.139 109.445 222.302C109.05 222.406 108.646 222.449 108.251 222.492C107.057 222.62 105.871 222.749 104.676 222.887C104.264 222.93 103.224 222.852 102.898 223.084C102.58 223.308 102.64 224.141 102.597 224.545C102.331 226.891 102.056 229.228 101.763 231.566C101.377 235.999 100.844 240.545 100.346 244.988C100.053 248.726 99.4176 252.609 98.9708 256.347C98.5669 261.116 97.9053 265.714 97.3381 270.397C96.7281 275.389 96.2125 281.035 95.4649 285.984C95.0696 287.608 94.9751 289.37 96.7452 290.143C97.6389 290.435 98.3263 290.143 99.3661 290.066C100.638 289.92 101.772 290.727 102.966 290.959C103.671 290.968 104.169 290.255 104.771 290.186C105.132 290.126 105.553 290.263 105.94 290.358C107.375 290.899 108.87 290.246 110.279 289.971C111.31 289.774 112.668 290.117 113.622 290.41H113.708C114.395 290.435 114.799 289.757 115.632 289.791C116.191 289.791 116.861 289.954 117.557 289.774C118.966 289.447 120.221 288.682 121.476 288.012C121.888 287.789 122.275 287.522 122.515 287.118C124.646 281.164 124.535 273.971 126.056 267.853C126.288 266.246 128.341 266.083 129.622 265.894C131.194 265.757 137.14 265.25 140.251 264.975C142.27 264.751 144.118 264.777 146.154 264.648H146.163Z" fill="#FFF5F7"/>
<path d="M185.802 267.286C185.174 265.413 184.255 263.729 183.662 261.907C182.468 258.728 181.703 255.591 180.466 252.73C180.122 251.853 179.77 251.003 179.417 250.143L156.973 269.976C158.614 273.679 160.221 277.52 161.991 281.155C163.984 285.228 163.89 288.682 169.123 285.262C169.853 284.773 170.859 284.996 171.426 284.738C172.002 284.489 172.345 283.888 172.818 283.484C173.471 282.917 174.399 283.08 175.069 282.624C175.963 281.834 176.478 280.751 177.69 280.373C179.606 279.385 181.17 277.958 183.052 276.987C184.41 276.059 186.463 274.899 187.194 273.327C187.495 272.511 187.297 271.634 186.996 270.826C186.558 269.692 186.128 268.395 185.819 267.295L185.802 267.286Z" fill="#FFF5F7"/>
<path d="M335.008 177.353C336.632 185.224 336.134 191.927 335.584 196.034V196.223L334.974 200.09C334.871 201.731 335.189 206.388 332.731 212.395L330.282 218.393L326.604 225.499L321.99 234.848L312.04 250.229L303.318 257.86L295.318 263.6L288.426 267.681L275.675 272.708L267.855 273.825L255.713 273.55L241.088 271.204L231.55 268.343L221.454 264.193L206.322 256.777L197.282 249.499L191.559 244.378L183.886 232.777L178.008 221.392L176.573 214.775C176.573 214.775 177.501 186.883 179.039 173.693L179.005 173.658L179.177 170.462L179.916 168.27C181.961 160.528 196.027 141.392 198.511 139.802C200.985 138.213 209.329 132.06 209.329 132.052L215.335 126.982L222.141 122.376L232.238 117.04L248.083 113.078L254.906 112.735L264.839 112.056L272.487 112.726L277.814 114.754L288.263 119.136L296.839 124.206L303.069 129.19L312.254 138.445L318.776 145.981L323.494 151.884C323.494 151.884 332.559 165.478 335.017 177.362L335.008 177.353ZM320.564 182.767C320.555 179.029 320.77 177.577 318.897 172.954C317.023 168.331 315.537 164.017 312.177 160.606C308.817 157.194 305.784 157.134 304.452 152.631C303.12 148.129 298.437 145.731 297.483 146.9C296.529 148.06 297.586 148.009 297.586 148.009C297.586 148.009 302.201 153.92 305.715 157.675C309.23 161.431 311.765 165.632 314.222 172.524C316.671 179.415 317.608 185.379 316.895 189.005C316.181 192.64 315.984 194.066 314.746 198.251C313.638 201.998 310.802 210.419 313.664 208.717C316.525 207.007 317.677 205.177 318.587 201.705C319.498 198.234 320.581 186.513 320.572 182.775L320.564 182.767ZM311.593 215.712C312.134 214.767 313.114 214.406 311.765 213.589C310.416 212.773 309.152 213.142 308.474 214.431C307.889 215.557 307.039 216.941 306.635 217.662C306.231 218.384 303.137 219.579 304.461 220.713C305.775 221.847 307.537 220.996 308.972 219.536C310.407 218.083 311.06 216.657 311.593 215.703V215.712ZM306.265 194.728C307.056 192.528 308.121 191.067 307.967 186.41C307.82 181.744 306.188 177.388 305.019 174.638C303.851 171.888 302.854 172.567 301.307 169.035C299.76 165.495 296.229 163.278 295.326 163.364C294.433 163.45 293.866 164.971 294.673 165.985C294.673 165.985 299.099 171.287 300.912 175.935C302.725 180.584 302.88 183.755 302.914 185.628C302.948 187.501 304.633 191.016 302.673 194.041C300.706 197.074 299.52 200.348 298.918 201.912C298.317 203.484 301.539 202.565 302.355 201.585C303.172 200.597 305.475 196.936 306.265 194.737V194.728ZM298.154 237.778C298.738 236.704 300.156 235.553 300.104 234.367C300.018 233.104 299.15 231.634 298.437 230.895C297.964 230.431 297.767 229.89 297.947 229.203C298.136 227.922 296.521 229.151 296.04 228.524C295.859 228.206 295.962 227.768 295.894 227.398C295.816 226.84 294.966 227.175 294.983 226.625C295.017 225.473 294.742 225.173 293.574 225.533C291.7 226.186 292.25 224.554 292.139 223.557C292.018 223.084 291.374 223.093 291.176 222.792C290.953 222.406 291.477 221.606 290.996 221.263C290.635 220.945 290.093 220.782 289.827 220.352C289.586 219.982 289.552 219.493 289.337 219.115C289.114 218.659 288.383 218.565 287.782 218.049C284.414 213.778 284.164 214.535 280.538 217.972C278.751 219.656 276.671 221.658 274.618 223.127C272.401 224.803 270.235 226.547 267.477 227.243C265.475 227.45 263.421 228.077 261.496 228.369C258.601 228.438 255.92 227.974 253.067 227.828C249.87 227.389 246.76 225.473 243.64 224.391C241.312 223.54 239.945 222.311 237.892 221.091C236.654 220.369 236.156 219.768 235.133 218.668L211.4 234.41C212.551 236.094 213.797 237.727 215.164 239.299C216.581 241.267 218.248 242.693 220.087 244.464C220.955 245.306 221.445 245.804 222.528 246.302C229.514 249.997 236.8 254.663 244.852 255.583C247.129 255.952 249.492 257.172 251.718 257.336C254.081 257.714 256.693 257.611 259.176 257.619H259.288C263.473 257.465 267.271 257.275 271.524 256.597C274.747 255.909 277.823 255.076 280.942 253.838C283.795 252.206 286.467 250.453 289.045 248.356C291.967 246.311 294.141 244.06 296.676 241.542C297.354 240.769 298.119 240.055 298.317 239.067C298.394 238.491 297.896 238.345 298.145 237.778H298.154ZM289.604 142.354C290.179 141.186 290.686 139.407 290.248 138.281C288.796 136.52 286.407 136.099 284.414 135.111C282.154 134.251 280.074 132.928 277.78 132.163C271.541 130.256 265.062 128.881 258.652 128.511C256.616 128.408 253.84 128.477 251.615 128.597C247.782 129.173 243.649 130.127 239.799 131.124C237.35 131.656 235.254 132.782 232.891 133.572C228.947 135.282 225.037 137.645 221.591 140.275C217.63 143.179 213.909 146.247 210.678 149.856C209.767 150.75 209.226 151.729 208.496 152.76C208.435 152.846 208.384 152.932 208.324 153.01C211.477 155.347 214.347 158.131 217.716 160.176C219.52 161.276 221.462 162.152 223.215 163.33C224.375 164.103 225.449 165.005 226.515 165.907C227.649 166.861 228.792 167.824 229.926 168.786C230.674 169.422 231.43 170.075 232.117 170.788C235.589 166.002 240.22 162.006 245.823 159.892C247.825 158.844 249.905 158.483 252.156 158.294C254.296 157.933 256.117 157.779 258.197 157.916C262.063 157.976 265.191 159.111 268.826 160.124C271.112 160.76 273.466 161.525 275.64 162.814C277.677 164.086 280.22 163.424 281.509 161.422C282.403 160.176 282.721 158.758 283.417 157.452C284.388 155.192 285.032 153.061 286.132 150.827C286.484 150.165 286.931 149.727 287.026 148.997C287.206 148.447 286.373 147.51 286.416 147.072C286.527 146.78 286.854 146.874 287.352 146.78C288.753 146.702 288.684 145.568 288.65 144.503C288.676 143.764 289.122 143.119 289.604 142.346V142.354ZM272.272 192.941L271.284 186.049L268.886 180.206L266.197 177.422L262.527 176.477L258.996 176.081L253.874 177.156L249.157 179.08L245.032 181.864C243.855 182.569 239.249 188.378 239.249 188.378L238.021 192.391L238.304 196.369L239.67 200.098L243.589 203.587L253.574 208.631L261.419 208.975L265.088 207.591L269.737 200.812L272.255 192.949L272.272 192.941ZM225.999 170.324C225.87 170.238 225.741 170.152 225.621 170.092C221.454 167.901 217.123 166.019 212.672 164.498C207.928 162.874 203.039 161.628 198.356 159.807C196.99 163.536 195.443 167.411 194.609 171.287C193.587 175.772 192.307 180.103 192.049 184.657C191.774 189.512 190.923 192.288 191.559 197.125C191.714 198.337 191.774 200.159 192.014 201.353C192.126 201.955 192.255 202.556 192.392 203.158C192.435 203.329 192.47 203.879 192.59 203.991C192.745 204.129 193.226 203.965 193.432 203.931C195.924 203.544 198.416 203.158 200.899 202.771C205.883 201.997 210.867 201.224 215.842 200.451C215.971 200.434 216.092 200.416 216.212 200.391C217.355 200.21 218.489 200.038 219.623 199.858C219.898 199.815 220.173 199.772 220.44 199.729C220.611 199.703 221.05 199.729 221.187 199.617C221.436 199.437 221.075 198.474 221.007 198.174C220.758 195.965 221.058 194.788 221.153 192.537C221.359 187.948 221.127 184.743 222.614 180.464C223.439 177.121 224.375 173.495 225.982 170.333L225.999 170.324ZM202.73 233.757L225.561 217.662C225.458 217.508 225.355 217.344 225.26 217.173C224.16 215.316 223.232 213.366 222.399 211.39C221.574 209.43 220.99 207.334 220.104 205.409C218.807 206.079 217.106 206.346 215.696 206.767C214.175 207.222 212.663 207.677 211.151 208.124L209.827 208.52C209.131 208.726 208.427 208.941 207.731 209.147C206.914 209.387 206.09 209.628 205.265 209.869C203.795 210.29 202.326 210.719 200.856 211.14C199.808 211.441 198.76 211.75 197.703 212.051C196.869 212.292 196.036 212.532 195.202 212.773C194.24 213.048 193.183 213.254 192.264 213.632C192.307 213.821 192.384 214.002 192.444 214.182C194.223 219.226 197.282 223.772 199.619 228.618C200.599 230.397 201.621 232.107 202.704 233.757H202.73Z" fill="#1C0B3F"/>
<path d="M318.897 172.954C320.77 177.577 320.555 179.029 320.564 182.767C320.564 186.505 319.49 198.225 318.579 201.697C317.668 205.168 316.516 207.007 313.655 208.709C310.794 210.41 313.638 201.989 314.738 198.242C315.975 194.058 316.173 192.631 316.886 188.996C317.599 185.37 316.663 179.407 314.214 172.515C311.765 165.624 309.221 161.422 305.707 157.667C302.192 153.912 297.578 148 297.578 148C297.578 148 296.521 148.051 297.475 146.891C298.428 145.723 303.112 148.12 304.444 152.623C305.775 157.126 308.809 157.186 312.168 160.597C315.528 164.008 317.015 168.322 318.888 172.945L318.897 172.954Z" fill="#FFF5F7"/>
<path d="M311.765 213.589C313.114 214.406 312.134 214.767 311.593 215.712C311.051 216.666 310.407 218.092 308.972 219.544C307.537 221.005 305.775 221.856 304.461 220.721C303.137 219.587 306.231 218.393 306.635 217.671C307.039 216.949 307.889 215.557 308.474 214.44C309.152 213.151 310.416 212.782 311.765 213.598V213.589Z" fill="#FFF5F7"/>
<path d="M307.967 186.41C308.121 191.067 307.056 192.528 306.265 194.728C305.475 196.928 303.172 200.588 302.355 201.576C301.548 202.556 298.325 203.475 298.918 201.903C299.52 200.339 300.706 197.057 302.673 194.032C304.633 191.007 302.948 187.493 302.914 185.62C302.88 183.746 302.725 180.575 300.912 175.927C299.099 171.278 294.673 165.976 294.673 165.976C293.866 164.954 294.424 163.441 295.326 163.355C296.22 163.269 299.76 165.486 301.307 169.027C302.854 172.558 303.851 171.879 305.019 174.629C306.188 177.379 307.82 181.744 307.967 186.401V186.41Z" fill="#FFF5F7"/>
<path d="M300.104 234.367C300.164 235.544 298.738 236.704 298.154 237.778C297.904 238.345 298.403 238.491 298.325 239.067C298.128 240.055 297.363 240.777 296.684 241.542C294.149 244.06 291.967 246.311 289.054 248.356C286.467 250.453 283.795 252.206 280.951 253.838C277.831 255.084 274.755 255.909 271.533 256.597C267.279 257.267 263.481 257.464 259.297 257.611H259.185C256.71 257.611 254.089 257.714 251.726 257.336C249.492 257.164 247.138 255.952 244.861 255.583C236.809 254.655 229.522 249.997 222.536 246.302C221.454 245.804 220.964 245.297 220.096 244.463C218.257 242.693 216.59 241.267 215.172 239.299C213.806 237.727 212.56 236.094 211.408 234.41L235.142 218.668C236.165 219.768 236.672 220.378 237.9 221.091C239.954 222.311 241.32 223.54 243.649 224.391C246.76 225.473 249.879 227.389 253.075 227.828C255.928 227.965 258.609 228.438 261.505 228.369C263.43 228.077 265.483 227.458 267.486 227.243C270.244 226.547 272.409 224.803 274.626 223.127C276.68 221.658 278.759 219.656 280.547 217.972C284.173 214.535 284.414 213.778 287.791 218.049C288.392 218.565 289.122 218.659 289.346 219.115C289.561 219.493 289.595 219.974 289.836 220.352C290.102 220.782 290.635 220.953 291.004 221.263C291.494 221.606 290.97 222.414 291.185 222.792C291.382 223.084 292.027 223.084 292.147 223.557C292.259 224.554 291.709 226.178 293.582 225.533C294.751 225.172 295.034 225.473 294.991 226.625C294.974 227.175 295.825 226.839 295.902 227.398C295.98 227.768 295.868 228.197 296.048 228.524C296.529 229.151 298.145 227.922 297.956 229.203C297.784 229.89 297.973 230.431 298.446 230.895C299.159 231.634 300.018 233.104 300.113 234.367L300.104 234.367Z" fill="#FFF5F7"/>
<path d="M290.248 138.281C290.686 139.407 290.179 141.186 289.604 142.354C289.122 143.128 288.676 143.772 288.65 144.511C288.684 145.568 288.753 146.702 287.352 146.788C286.862 146.883 286.536 146.788 286.416 147.08C286.373 147.519 287.206 148.455 287.026 149.005C286.931 149.727 286.476 150.174 286.132 150.836C285.024 153.07 284.388 155.201 283.417 157.461C282.721 158.767 282.403 160.176 281.509 161.431C280.22 163.433 277.677 164.094 275.64 162.823C273.466 161.534 271.112 160.769 268.826 160.133C265.191 159.11 262.063 157.985 258.197 157.925C256.117 157.787 254.304 157.942 252.156 158.303C249.905 158.492 247.834 158.853 245.823 159.901C240.212 162.015 235.589 166.019 232.117 170.797C231.43 170.084 230.674 169.431 229.926 168.795C228.783 167.832 227.649 166.87 226.515 165.916C225.449 165.014 224.375 164.112 223.215 163.338C221.462 162.161 219.52 161.284 217.716 160.185C214.347 158.139 211.477 155.355 208.324 153.018C208.384 152.932 208.435 152.846 208.496 152.769C209.217 151.738 209.767 150.767 210.678 149.865C213.909 146.256 217.63 143.188 221.591 140.284C225.037 137.654 228.955 135.291 232.891 133.581C235.254 132.791 237.35 131.665 239.799 131.132C243.64 130.127 247.782 129.182 251.615 128.606C253.84 128.486 256.616 128.408 258.652 128.52C265.071 128.881 271.55 130.256 277.78 132.172C280.083 132.945 282.162 134.26 284.414 135.119C286.407 136.107 288.804 136.528 290.248 138.29V138.281Z" fill="#FFF5F7"/>
<path d="M271.275 186.049L272.263 192.941L269.745 200.803L265.097 207.583L261.428 208.966L253.582 208.623L243.597 203.579L239.679 200.09L238.313 196.361L238.029 192.382L239.258 188.369C239.258 188.369 243.864 182.56 245.041 181.856L249.166 179.072L253.883 177.147L259.004 176.073L262.536 176.468L266.205 177.413L268.895 180.197L271.292 186.041L271.275 186.049ZM265.062 195.518C265.397 194.788 266.489 192.923 266.463 191.867C266.429 190.801 265.733 188.773 264.736 186.814C263.739 184.855 263.842 184.288 263.077 183.231C262.313 182.165 256.401 181.108 253.608 182.526C250.815 183.952 249.922 184.923 249.251 186.058C248.581 187.192 246.562 188.455 245.978 190.32C245.393 192.176 245.978 194.565 245.978 194.565V194.702L246.811 196.936L249.166 199.024L255.155 202.049L259.864 202.255L261.178 201.112C261.178 201.112 264.736 196.257 265.071 195.527L265.062 195.518Z" fill="#FFF5F7"/>
<path d="M266.454 191.867C266.489 192.923 265.398 194.788 265.054 195.518C264.727 196.249 261.161 201.104 261.161 201.104L259.847 202.247L255.138 202.04L249.148 199.016L246.794 196.928L245.978 194.694V194.556C245.978 194.556 245.385 192.167 245.969 190.311C246.553 188.447 248.581 187.183 249.243 186.049C249.913 184.923 250.798 183.944 253.599 182.517C256.392 181.1 262.304 182.157 263.069 183.222C263.834 184.279 263.73 184.846 264.727 186.805C265.724 188.764 266.42 190.792 266.454 191.858V191.867Z" fill="#1C0B3F"/>
<path d="M225.621 170.084C225.741 170.144 225.87 170.23 225.999 170.316C224.384 173.469 223.456 177.095 222.631 180.447C221.136 184.726 221.368 187.931 221.17 192.52C221.075 194.771 220.775 195.948 221.024 198.156C221.084 198.457 221.445 199.42 221.204 199.6C221.067 199.712 220.629 199.686 220.457 199.712C220.19 199.755 219.915 199.798 219.64 199.841C218.506 200.021 217.372 200.193 216.229 200.373C216.109 200.391 215.98 200.408 215.86 200.434C210.876 201.207 205.892 201.98 200.917 202.754C198.425 203.14 195.933 203.527 193.449 203.914C193.243 203.948 192.762 204.111 192.607 203.974C192.478 203.862 192.453 203.304 192.41 203.14C192.272 202.539 192.143 201.946 192.032 201.336C191.8 200.141 191.739 198.32 191.576 197.108C190.949 192.27 191.8 189.495 192.066 184.64C192.324 180.086 193.604 175.755 194.627 171.269C195.46 167.403 197.007 163.519 198.373 159.789C203.048 161.611 207.937 162.857 212.689 164.481C217.14 166.011 221.471 167.884 225.638 170.075L225.621 170.084Z" fill="#FFF5F7"/>
<path d="M225.561 217.662L202.73 233.757C201.647 232.107 200.624 230.388 199.645 228.618C197.308 223.763 194.24 219.226 192.47 214.182C192.41 214.002 192.332 213.821 192.289 213.632C193.209 213.254 194.266 213.048 195.228 212.773C196.062 212.532 196.895 212.292 197.729 212.051C198.786 211.75 199.834 211.441 200.882 211.14C202.352 210.719 203.821 210.29 205.29 209.869C206.107 209.637 206.932 209.387 207.757 209.147C208.461 208.941 209.157 208.734 209.853 208.52L211.176 208.124C212.689 207.669 214.201 207.222 215.722 206.767C217.123 206.346 218.833 206.088 220.13 205.409C221.015 207.334 221.6 209.43 222.425 211.39C223.258 213.366 224.186 215.325 225.286 217.173C225.372 217.344 225.484 217.508 225.587 217.662H225.561Z" fill="#FFF5F7"/>
</svg>
